%TF.GenerationSoftware,KiCad,Pcbnew,(7.0.0)*%
%TF.CreationDate,2024-03-13T16:55:50-07:00*%
%TF.ProjectId,2P_Miniscope_FLEX_v3,32505f4d-696e-4697-9363-6f70655f464c,rev?*%
%TF.SameCoordinates,Original*%
%TF.FileFunction,Soldermask,Top*%
%TF.FilePolarity,Negative*%
%FSLAX46Y46*%
G04 Gerber Fmt 4.6, Leading zero omitted, Abs format (unit mm)*
G04 Created by KiCad (PCBNEW (7.0.0)) date 2024-03-13 16:55:50*
%MOMM*%
%LPD*%
G01*
G04 APERTURE LIST*
G04 Aperture macros list*
%AMRoundRect*
0 Rectangle with rounded corners*
0 $1 Rounding radius*
0 $2 $3 $4 $5 $6 $7 $8 $9 X,Y pos of 4 corners*
0 Add a 4 corners polygon primitive as box body*
4,1,4,$2,$3,$4,$5,$6,$7,$8,$9,$2,$3,0*
0 Add four circle primitives for the rounded corners*
1,1,$1+$1,$2,$3*
1,1,$1+$1,$4,$5*
1,1,$1+$1,$6,$7*
1,1,$1+$1,$8,$9*
0 Add four rect primitives between the rounded corners*
20,1,$1+$1,$2,$3,$4,$5,0*
20,1,$1+$1,$4,$5,$6,$7,0*
20,1,$1+$1,$6,$7,$8,$9,0*
20,1,$1+$1,$8,$9,$2,$3,0*%
G04 Aperture macros list end*
%ADD10C,0.500000*%
%ADD11C,0.600000*%
%ADD12C,0.100000*%
%ADD13C,0.700800*%
%ADD14C,0.750800*%
%ADD15RoundRect,0.172900X-0.172500X0.147500X-0.172500X-0.147500X0.172500X-0.147500X0.172500X0.147500X0*%
%ADD16C,0.300800*%
%ADD17RoundRect,0.262900X-0.237500X0.287500X-0.237500X-0.287500X0.237500X-0.287500X0.237500X0.287500X0*%
%ADD18RoundRect,0.262900X-0.237500X0.300000X-0.237500X-0.300000X0.237500X-0.300000X0.237500X0.300000X0*%
%ADD19RoundRect,0.025400X-0.500000X-0.500000X0.500000X-0.500000X0.500000X0.500000X-0.500000X0.500000X0*%
%ADD20RoundRect,0.185400X-0.160000X0.197500X-0.160000X-0.197500X0.160000X-0.197500X0.160000X0.197500X0*%
%ADD21RoundRect,0.185400X0.197500X0.160000X-0.197500X0.160000X-0.197500X-0.160000X0.197500X-0.160000X0*%
%ADD22RoundRect,0.185400X0.160000X-0.197500X0.160000X0.197500X-0.160000X0.197500X-0.160000X-0.197500X0*%
%ADD23RoundRect,0.165400X-0.077224X0.206244X-0.217224X-0.036244X0.077224X-0.206244X0.217224X0.036244X0*%
%ADD24RoundRect,0.165400X-0.140000X-0.170000X0.140000X-0.170000X0.140000X0.170000X-0.140000X0.170000X0*%
G04 APERTURE END LIST*
D10*
X130430000Y-43580000D02*
G75*
G03*
X130430000Y-43580000I-3500000J0D01*
G01*
D11*
X125150664Y-55655705D02*
G75*
G03*
X125130000Y-55640000I1789336J2375705D01*
G01*
%TO.C,J4*%
G36*
X128140000Y-66900000D02*
G01*
X127680000Y-66900000D01*
X127910000Y-66620000D01*
X128140000Y-66900000D01*
G37*
D12*
X128140000Y-66900000D02*
X127680000Y-66900000D01*
X127910000Y-66620000D01*
X128140000Y-66900000D01*
G36*
X127240000Y-66900000D02*
G01*
X126780000Y-66900000D01*
X127010000Y-66620000D01*
X127240000Y-66900000D01*
G37*
X127240000Y-66900000D02*
X126780000Y-66900000D01*
X127010000Y-66620000D01*
X127240000Y-66900000D01*
G36*
X126340000Y-66900000D02*
G01*
X125880000Y-66900000D01*
X126110000Y-66620000D01*
X126340000Y-66900000D01*
G37*
X126340000Y-66900000D02*
X125880000Y-66900000D01*
X126110000Y-66620000D01*
X126340000Y-66900000D01*
G36*
X125440000Y-66890000D02*
G01*
X124980000Y-66890000D01*
X125210000Y-66610000D01*
X125440000Y-66890000D01*
G37*
X125440000Y-66890000D02*
X124980000Y-66890000D01*
X125210000Y-66610000D01*
X125440000Y-66890000D01*
G36*
X125890000Y-67760000D02*
G01*
X125430000Y-67760000D01*
X125660000Y-67480000D01*
X125890000Y-67760000D01*
G37*
X125890000Y-67760000D02*
X125430000Y-67760000D01*
X125660000Y-67480000D01*
X125890000Y-67760000D01*
G36*
X126790000Y-67800000D02*
G01*
X126330000Y-67800000D01*
X126560000Y-67520000D01*
X126790000Y-67800000D01*
G37*
X126790000Y-67800000D02*
X126330000Y-67800000D01*
X126560000Y-67520000D01*
X126790000Y-67800000D01*
G36*
X127690000Y-67800000D02*
G01*
X127230000Y-67800000D01*
X127460000Y-67520000D01*
X127690000Y-67800000D01*
G37*
X127690000Y-67800000D02*
X127230000Y-67800000D01*
X127460000Y-67520000D01*
X127690000Y-67800000D01*
G36*
X128590000Y-67800000D02*
G01*
X128130000Y-67800000D01*
X128360000Y-67520000D01*
X128590000Y-67800000D01*
G37*
X128590000Y-67800000D02*
X128130000Y-67800000D01*
X128360000Y-67520000D01*
X128590000Y-67800000D01*
G36*
X129040000Y-66900000D02*
G01*
X128580000Y-66900000D01*
X128810000Y-66620000D01*
X129040000Y-66900000D01*
G37*
X129040000Y-66900000D02*
X128580000Y-66900000D01*
X128810000Y-66620000D01*
X129040000Y-66900000D01*
G36*
X128140000Y-66900000D02*
G01*
X127680000Y-66900000D01*
X127910000Y-66620000D01*
X128140000Y-66900000D01*
G37*
X128140000Y-66900000D02*
X127680000Y-66900000D01*
X127910000Y-66620000D01*
X128140000Y-66900000D01*
G36*
X130160000Y-69850000D02*
G01*
X129700000Y-69850000D01*
X129930000Y-69570000D01*
X130160000Y-69850000D01*
G37*
X130160000Y-69850000D02*
X129700000Y-69850000D01*
X129930000Y-69570000D01*
X130160000Y-69850000D01*
G36*
X131790000Y-70360000D02*
G01*
X131330000Y-70360000D01*
X131560000Y-70080000D01*
X131790000Y-70360000D01*
G37*
X131790000Y-70360000D02*
X131330000Y-70360000D01*
X131560000Y-70080000D01*
X131790000Y-70360000D01*
G36*
X130210000Y-71520000D02*
G01*
X129750000Y-71520000D01*
X129980000Y-71240000D01*
X130210000Y-71520000D01*
G37*
X130210000Y-71520000D02*
X129750000Y-71520000D01*
X129980000Y-71240000D01*
X130210000Y-71520000D01*
G36*
X131860000Y-72110000D02*
G01*
X131400000Y-72110000D01*
X131630000Y-71830000D01*
X131860000Y-72110000D01*
G37*
X131860000Y-72110000D02*
X131400000Y-72110000D01*
X131630000Y-71830000D01*
X131860000Y-72110000D01*
%TD*%
D13*
%TO.C,J4*%
X131630000Y-72260000D03*
X129980000Y-71670000D03*
X131560000Y-70510000D03*
X129930000Y-70000000D03*
X128810000Y-67050000D03*
X128360000Y-67950000D03*
X127910000Y-67050000D03*
X127460000Y-67950000D03*
X127010000Y-67050000D03*
X126560000Y-67950000D03*
X126110000Y-67050000D03*
D14*
X125660000Y-67950000D03*
D13*
X125210000Y-67050000D03*
%TD*%
D15*
%TO.C,D1*%
X129920000Y-66395000D03*
X129920000Y-65425000D03*
%TD*%
D16*
%TO.C,U2*%
X124810000Y-71830000D03*
X124810000Y-71330000D03*
X124810000Y-70830000D03*
X124810000Y-70330000D03*
X124810000Y-69830000D03*
X125310000Y-71830000D03*
X125310000Y-71330000D03*
X125310000Y-70830000D03*
X125310000Y-70330000D03*
X125310000Y-69830000D03*
X125810000Y-71830000D03*
X125810000Y-71330000D03*
X125810000Y-70830000D03*
X125810000Y-70330000D03*
X125810000Y-69830000D03*
%TD*%
D17*
%TO.C,L1*%
X127100000Y-71845000D03*
X127100000Y-70095000D03*
%TD*%
D18*
%TO.C,C3*%
X122760000Y-74002500D03*
X122760000Y-72277500D03*
%TD*%
D19*
%TO.C,D2*%
X127100000Y-73750000D03*
X124600000Y-73750000D03*
%TD*%
D20*
%TO.C,R1*%
X130990000Y-67087500D03*
X130990000Y-65892500D03*
%TD*%
D21*
%TO.C,R2*%
X123562500Y-68780000D03*
X124757500Y-68780000D03*
%TD*%
D22*
%TO.C,R3*%
X124150000Y-66502500D03*
X124150000Y-67697500D03*
%TD*%
D23*
%TO.C,C2*%
X129460000Y-68305692D03*
X129940000Y-67474308D03*
%TD*%
D24*
%TO.C,C1*%
X131670000Y-68250000D03*
X130710000Y-68250000D03*
%TD*%
G36*
X127119941Y-50003959D02*
G01*
X127120157Y-50003971D01*
X127472607Y-50042539D01*
X127472820Y-50042574D01*
X127819040Y-50118970D01*
X127819248Y-50119028D01*
X128155197Y-50232359D01*
X128155398Y-50232439D01*
X128477141Y-50381376D01*
X128477332Y-50381477D01*
X128781120Y-50564287D01*
X128781299Y-50564409D01*
X129063569Y-50778945D01*
X129063734Y-50779085D01*
X129321195Y-51022849D01*
X129321344Y-51023006D01*
X129550981Y-51293144D01*
X129551112Y-51293316D01*
X129750232Y-51586655D01*
X129750343Y-51586840D01*
X129916637Y-51899982D01*
X129916728Y-51900178D01*
X130048233Y-52229426D01*
X130048303Y-52229631D01*
X130143495Y-52571171D01*
X130143541Y-52571382D01*
X130201299Y-52921186D01*
X130201323Y-52921401D01*
X130220975Y-53275413D01*
X130220975Y-53275629D01*
X130202292Y-53629674D01*
X130202269Y-53629889D01*
X130146313Y-53974639D01*
X130145049Y-53976189D01*
X130143074Y-53975868D01*
X130142365Y-53973999D01*
X130198301Y-53629361D01*
X130216975Y-53275520D01*
X130197334Y-52921732D01*
X130139612Y-52572143D01*
X130044477Y-52230809D01*
X129913051Y-51901758D01*
X129746866Y-51588820D01*
X129547859Y-51295646D01*
X129318364Y-51025677D01*
X129061064Y-50782065D01*
X128778969Y-50567661D01*
X128475362Y-50384961D01*
X128153812Y-50236113D01*
X127818072Y-50122852D01*
X127472062Y-50046504D01*
X127119834Y-50007959D01*
X126765496Y-50007671D01*
X126413218Y-50045639D01*
X126067074Y-50121426D01*
X125731149Y-50234139D01*
X125409357Y-50382463D01*
X125105464Y-50564660D01*
X124823015Y-50778608D01*
X124565312Y-51021805D01*
X124335377Y-51291400D01*
X124135897Y-51584241D01*
X123969198Y-51896915D01*
X123837236Y-52225751D01*
X123741547Y-52566921D01*
X123683253Y-52916424D01*
X123663036Y-53270184D01*
X123681132Y-53624041D01*
X123737330Y-53973895D01*
X123830970Y-54315626D01*
X123960966Y-54645264D01*
X124125779Y-54958912D01*
X124323508Y-55252957D01*
X124551822Y-55523923D01*
X124808133Y-55768729D01*
X124808712Y-55770571D01*
X124807464Y-55772044D01*
X124805552Y-55771775D01*
X124805548Y-55771772D01*
X124805367Y-55771618D01*
X124548977Y-55526738D01*
X124548829Y-55526581D01*
X124320379Y-55255451D01*
X124320248Y-55255278D01*
X124122405Y-54961067D01*
X124122295Y-54960881D01*
X123957368Y-54647014D01*
X123957277Y-54646818D01*
X123827210Y-54316998D01*
X123827142Y-54316793D01*
X123733442Y-53974848D01*
X123733396Y-53974636D01*
X123677165Y-53624578D01*
X123677143Y-53624363D01*
X123659036Y-53270269D01*
X123659036Y-53270053D01*
X123679264Y-52916091D01*
X123679288Y-52915876D01*
X123737618Y-52566157D01*
X123737665Y-52565946D01*
X123833414Y-52224562D01*
X123833484Y-52224357D01*
X123965525Y-51895326D01*
X123965616Y-51895130D01*
X124132417Y-51582266D01*
X124132529Y-51582081D01*
X124332132Y-51289058D01*
X124332263Y-51288886D01*
X124562341Y-51019124D01*
X124562490Y-51018967D01*
X124820348Y-50775623D01*
X124820513Y-50775484D01*
X125103127Y-50561411D01*
X125103307Y-50561290D01*
X125407395Y-50378976D01*
X125407586Y-50378875D01*
X125729579Y-50230458D01*
X125729780Y-50230378D01*
X126065900Y-50117600D01*
X126066108Y-50117542D01*
X126412468Y-50041708D01*
X126412682Y-50041674D01*
X126765176Y-50003682D01*
X126765392Y-50003670D01*
X127119941Y-50003959D01*
G37*
M02*
