%TF.GenerationSoftware,KiCad,Pcbnew,(7.0.0)*%
%TF.CreationDate,2024-03-13T16:55:50-07:00*%
%TF.ProjectId,2P_Miniscope_FLEX_v3,32505f4d-696e-4697-9363-6f70655f464c,rev?*%
%TF.SameCoordinates,Original*%
%TF.FileFunction,Paste,Top*%
%TF.FilePolarity,Positive*%
%FSLAX46Y46*%
G04 Gerber Fmt 4.6, Leading zero omitted, Abs format (unit mm)*
G04 Created by KiCad (PCBNEW (7.0.0)) date 2024-03-13 16:55:50*
%MOMM*%
%LPD*%
G01*
G04 APERTURE LIST*
G04 Aperture macros list*
%AMRoundRect*
0 Rectangle with rounded corners*
0 $1 Rounding radius*
0 $2 $3 $4 $5 $6 $7 $8 $9 X,Y pos of 4 corners*
0 Add a 4 corners polygon primitive as box body*
4,1,4,$2,$3,$4,$5,$6,$7,$8,$9,$2,$3,0*
0 Add four circle primitives for the rounded corners*
1,1,$1+$1,$2,$3*
1,1,$1+$1,$4,$5*
1,1,$1+$1,$6,$7*
1,1,$1+$1,$8,$9*
0 Add four rect primitives between the rounded corners*
20,1,$1+$1,$2,$3,$4,$5,0*
20,1,$1+$1,$4,$5,$6,$7,0*
20,1,$1+$1,$6,$7,$8,$9,0*
20,1,$1+$1,$8,$9,$2,$3,0*%
G04 Aperture macros list end*
%ADD10C,0.100000*%
%ADD11C,0.650000*%
%ADD12C,0.700000*%
%ADD13RoundRect,0.147500X-0.172500X0.147500X-0.172500X-0.147500X0.172500X-0.147500X0.172500X0.147500X0*%
%ADD14C,0.250000*%
%ADD15RoundRect,0.237500X-0.237500X0.287500X-0.237500X-0.287500X0.237500X-0.287500X0.237500X0.287500X0*%
%ADD16RoundRect,0.237500X-0.237500X0.300000X-0.237500X-0.300000X0.237500X-0.300000X0.237500X0.300000X0*%
%ADD17R,1.000000X1.000000*%
%ADD18RoundRect,0.160000X-0.160000X0.197500X-0.160000X-0.197500X0.160000X-0.197500X0.160000X0.197500X0*%
%ADD19RoundRect,0.160000X0.197500X0.160000X-0.197500X0.160000X-0.197500X-0.160000X0.197500X-0.160000X0*%
%ADD20RoundRect,0.160000X0.160000X-0.197500X0.160000X0.197500X-0.160000X0.197500X-0.160000X-0.197500X0*%
%ADD21RoundRect,0.140000X-0.077224X0.206244X-0.217224X-0.036244X0.077224X-0.206244X0.217224X0.036244X0*%
%ADD22RoundRect,0.140000X-0.140000X-0.170000X0.140000X-0.170000X0.140000X0.170000X-0.140000X0.170000X0*%
G04 APERTURE END LIST*
%TO.C,J4*%
G36*
X128140000Y-66900000D02*
G01*
X127680000Y-66900000D01*
X127910000Y-66620000D01*
X128140000Y-66900000D01*
G37*
D10*
X128140000Y-66900000D02*
X127680000Y-66900000D01*
X127910000Y-66620000D01*
X128140000Y-66900000D01*
G36*
X127240000Y-66900000D02*
G01*
X126780000Y-66900000D01*
X127010000Y-66620000D01*
X127240000Y-66900000D01*
G37*
X127240000Y-66900000D02*
X126780000Y-66900000D01*
X127010000Y-66620000D01*
X127240000Y-66900000D01*
G36*
X126340000Y-66900000D02*
G01*
X125880000Y-66900000D01*
X126110000Y-66620000D01*
X126340000Y-66900000D01*
G37*
X126340000Y-66900000D02*
X125880000Y-66900000D01*
X126110000Y-66620000D01*
X126340000Y-66900000D01*
G36*
X125440000Y-66890000D02*
G01*
X124980000Y-66890000D01*
X125210000Y-66610000D01*
X125440000Y-66890000D01*
G37*
X125440000Y-66890000D02*
X124980000Y-66890000D01*
X125210000Y-66610000D01*
X125440000Y-66890000D01*
G36*
X125890000Y-67760000D02*
G01*
X125430000Y-67760000D01*
X125660000Y-67480000D01*
X125890000Y-67760000D01*
G37*
X125890000Y-67760000D02*
X125430000Y-67760000D01*
X125660000Y-67480000D01*
X125890000Y-67760000D01*
G36*
X126790000Y-67800000D02*
G01*
X126330000Y-67800000D01*
X126560000Y-67520000D01*
X126790000Y-67800000D01*
G37*
X126790000Y-67800000D02*
X126330000Y-67800000D01*
X126560000Y-67520000D01*
X126790000Y-67800000D01*
G36*
X127690000Y-67800000D02*
G01*
X127230000Y-67800000D01*
X127460000Y-67520000D01*
X127690000Y-67800000D01*
G37*
X127690000Y-67800000D02*
X127230000Y-67800000D01*
X127460000Y-67520000D01*
X127690000Y-67800000D01*
G36*
X128590000Y-67800000D02*
G01*
X128130000Y-67800000D01*
X128360000Y-67520000D01*
X128590000Y-67800000D01*
G37*
X128590000Y-67800000D02*
X128130000Y-67800000D01*
X128360000Y-67520000D01*
X128590000Y-67800000D01*
G36*
X129040000Y-66900000D02*
G01*
X128580000Y-66900000D01*
X128810000Y-66620000D01*
X129040000Y-66900000D01*
G37*
X129040000Y-66900000D02*
X128580000Y-66900000D01*
X128810000Y-66620000D01*
X129040000Y-66900000D01*
G36*
X128140000Y-66900000D02*
G01*
X127680000Y-66900000D01*
X127910000Y-66620000D01*
X128140000Y-66900000D01*
G37*
X128140000Y-66900000D02*
X127680000Y-66900000D01*
X127910000Y-66620000D01*
X128140000Y-66900000D01*
G36*
X130160000Y-69850000D02*
G01*
X129700000Y-69850000D01*
X129930000Y-69570000D01*
X130160000Y-69850000D01*
G37*
X130160000Y-69850000D02*
X129700000Y-69850000D01*
X129930000Y-69570000D01*
X130160000Y-69850000D01*
G36*
X131790000Y-70360000D02*
G01*
X131330000Y-70360000D01*
X131560000Y-70080000D01*
X131790000Y-70360000D01*
G37*
X131790000Y-70360000D02*
X131330000Y-70360000D01*
X131560000Y-70080000D01*
X131790000Y-70360000D01*
G36*
X130210000Y-71520000D02*
G01*
X129750000Y-71520000D01*
X129980000Y-71240000D01*
X130210000Y-71520000D01*
G37*
X130210000Y-71520000D02*
X129750000Y-71520000D01*
X129980000Y-71240000D01*
X130210000Y-71520000D01*
G36*
X131860000Y-72110000D02*
G01*
X131400000Y-72110000D01*
X131630000Y-71830000D01*
X131860000Y-72110000D01*
G37*
X131860000Y-72110000D02*
X131400000Y-72110000D01*
X131630000Y-71830000D01*
X131860000Y-72110000D01*
%TD*%
D11*
%TO.C,J4*%
X131630000Y-72260000D03*
X129980000Y-71670000D03*
X131560000Y-70510000D03*
X129930000Y-70000000D03*
X128810000Y-67050000D03*
X128360000Y-67950000D03*
X127910000Y-67050000D03*
X127460000Y-67950000D03*
X127010000Y-67050000D03*
X126560000Y-67950000D03*
X126110000Y-67050000D03*
D12*
X125660000Y-67950000D03*
D11*
X125210000Y-67050000D03*
%TD*%
D13*
%TO.C,D1*%
X129920000Y-66395000D03*
X129920000Y-65425000D03*
%TD*%
D14*
%TO.C,U2*%
X124810000Y-71830000D03*
X124810000Y-71330000D03*
X124810000Y-70830000D03*
X124810000Y-70330000D03*
X124810000Y-69830000D03*
X125310000Y-71830000D03*
X125310000Y-71330000D03*
X125310000Y-70830000D03*
X125310000Y-70330000D03*
X125310000Y-69830000D03*
X125810000Y-71830000D03*
X125810000Y-71330000D03*
X125810000Y-70830000D03*
X125810000Y-70330000D03*
X125810000Y-69830000D03*
%TD*%
D15*
%TO.C,L1*%
X127100000Y-71845000D03*
X127100000Y-70095000D03*
%TD*%
D16*
%TO.C,C3*%
X122760000Y-74002500D03*
X122760000Y-72277500D03*
%TD*%
D17*
%TO.C,D2*%
X127099999Y-73749999D03*
X124599999Y-73749999D03*
%TD*%
D18*
%TO.C,R1*%
X130990000Y-67087500D03*
X130990000Y-65892500D03*
%TD*%
D19*
%TO.C,R2*%
X123562500Y-68780000D03*
X124757500Y-68780000D03*
%TD*%
D20*
%TO.C,R3*%
X124150000Y-66502500D03*
X124150000Y-67697500D03*
%TD*%
D21*
%TO.C,C2*%
X129460000Y-68305692D03*
X129940000Y-67474308D03*
%TD*%
D22*
%TO.C,C1*%
X131670000Y-68250000D03*
X130710000Y-68250000D03*
%TD*%
M02*
