%TF.GenerationSoftware,KiCad,Pcbnew,(7.0.0)*%
%TF.CreationDate,2024-03-13T16:55:50-07:00*%
%TF.ProjectId,2P_Miniscope_FLEX_v3,32505f4d-696e-4697-9363-6f70655f464c,rev?*%
%TF.SameCoordinates,Original*%
%TF.FileFunction,Legend,Top*%
%TF.FilePolarity,Positive*%
%FSLAX46Y46*%
G04 Gerber Fmt 4.6, Leading zero omitted, Abs format (unit mm)*
G04 Created by KiCad (PCBNEW (7.0.0)) date 2024-03-13 16:55:50*
%MOMM*%
%LPD*%
G01*
G04 APERTURE LIST*
%ADD10C,0.095250*%
%ADD11C,0.150000*%
%ADD12C,0.125000*%
%ADD13C,0.100000*%
%ADD14C,0.120000*%
G04 APERTURE END LIST*
D10*
X128713237Y-66296629D02*
X128809999Y-66296629D01*
X128809999Y-66296629D02*
X128858380Y-66272439D01*
X128858380Y-66272439D02*
X128882571Y-66248248D01*
X128882571Y-66248248D02*
X128930952Y-66175677D01*
X128930952Y-66175677D02*
X128955142Y-66078915D01*
X128955142Y-66078915D02*
X128955142Y-65885391D01*
X128955142Y-65885391D02*
X128930952Y-65837010D01*
X128930952Y-65837010D02*
X128906761Y-65812820D01*
X128906761Y-65812820D02*
X128858380Y-65788629D01*
X128858380Y-65788629D02*
X128761618Y-65788629D01*
X128761618Y-65788629D02*
X128713237Y-65812820D01*
X128713237Y-65812820D02*
X128689047Y-65837010D01*
X128689047Y-65837010D02*
X128664856Y-65885391D01*
X128664856Y-65885391D02*
X128664856Y-66006343D01*
X128664856Y-66006343D02*
X128689047Y-66054724D01*
X128689047Y-66054724D02*
X128713237Y-66078915D01*
X128713237Y-66078915D02*
X128761618Y-66103105D01*
X128761618Y-66103105D02*
X128858380Y-66103105D01*
X128858380Y-66103105D02*
X128906761Y-66078915D01*
X128906761Y-66078915D02*
X128930952Y-66054724D01*
X128930952Y-66054724D02*
X128955142Y-66006343D01*
X125375142Y-66166629D02*
X125084856Y-66166629D01*
X125229999Y-66166629D02*
X125229999Y-65658629D01*
X125229999Y-65658629D02*
X125181618Y-65731200D01*
X125181618Y-65731200D02*
X125133237Y-65779581D01*
X125133237Y-65779581D02*
X125084856Y-65803772D01*
X129075333Y-71096629D02*
X128905999Y-70854724D01*
X128785047Y-71096629D02*
X128785047Y-70588629D01*
X128785047Y-70588629D02*
X128978571Y-70588629D01*
X128978571Y-70588629D02*
X129026952Y-70612820D01*
X129026952Y-70612820D02*
X129051142Y-70637010D01*
X129051142Y-70637010D02*
X129075333Y-70685391D01*
X129075333Y-70685391D02*
X129075333Y-70757962D01*
X129075333Y-70757962D02*
X129051142Y-70806343D01*
X129051142Y-70806343D02*
X129026952Y-70830534D01*
X129026952Y-70830534D02*
X128978571Y-70854724D01*
X128978571Y-70854724D02*
X128785047Y-70854724D01*
X129559142Y-71096629D02*
X129268856Y-71096629D01*
X129413999Y-71096629D02*
X129413999Y-70588629D01*
X129413999Y-70588629D02*
X129365618Y-70661200D01*
X129365618Y-70661200D02*
X129317237Y-70709581D01*
X129317237Y-70709581D02*
X129268856Y-70733772D01*
X129011142Y-69052820D02*
X128962761Y-69028629D01*
X128962761Y-69028629D02*
X128890190Y-69028629D01*
X128890190Y-69028629D02*
X128817618Y-69052820D01*
X128817618Y-69052820D02*
X128769237Y-69101200D01*
X128769237Y-69101200D02*
X128745047Y-69149581D01*
X128745047Y-69149581D02*
X128720856Y-69246343D01*
X128720856Y-69246343D02*
X128720856Y-69318915D01*
X128720856Y-69318915D02*
X128745047Y-69415677D01*
X128745047Y-69415677D02*
X128769237Y-69464058D01*
X128769237Y-69464058D02*
X128817618Y-69512439D01*
X128817618Y-69512439D02*
X128890190Y-69536629D01*
X128890190Y-69536629D02*
X128938571Y-69536629D01*
X128938571Y-69536629D02*
X129011142Y-69512439D01*
X129011142Y-69512439D02*
X129035333Y-69488248D01*
X129035333Y-69488248D02*
X129035333Y-69318915D01*
X129035333Y-69318915D02*
X128938571Y-69318915D01*
X129519142Y-69536629D02*
X129228856Y-69536629D01*
X129373999Y-69536629D02*
X129373999Y-69028629D01*
X129373999Y-69028629D02*
X129325618Y-69101200D01*
X129325618Y-69101200D02*
X129277237Y-69149581D01*
X129277237Y-69149581D02*
X129228856Y-69173772D01*
D11*
X129038572Y-72348428D02*
X129038572Y-72834142D01*
X129038572Y-72834142D02*
X129067143Y-72891285D01*
X129067143Y-72891285D02*
X129095715Y-72919857D01*
X129095715Y-72919857D02*
X129152857Y-72948428D01*
X129152857Y-72948428D02*
X129267143Y-72948428D01*
X129267143Y-72948428D02*
X129324286Y-72919857D01*
X129324286Y-72919857D02*
X129352857Y-72891285D01*
X129352857Y-72891285D02*
X129381429Y-72834142D01*
X129381429Y-72834142D02*
X129381429Y-72348428D01*
X130010000Y-72891285D02*
X129981428Y-72919857D01*
X129981428Y-72919857D02*
X129895714Y-72948428D01*
X129895714Y-72948428D02*
X129838571Y-72948428D01*
X129838571Y-72948428D02*
X129752857Y-72919857D01*
X129752857Y-72919857D02*
X129695714Y-72862714D01*
X129695714Y-72862714D02*
X129667143Y-72805571D01*
X129667143Y-72805571D02*
X129638571Y-72691285D01*
X129638571Y-72691285D02*
X129638571Y-72605571D01*
X129638571Y-72605571D02*
X129667143Y-72491285D01*
X129667143Y-72491285D02*
X129695714Y-72434142D01*
X129695714Y-72434142D02*
X129752857Y-72377000D01*
X129752857Y-72377000D02*
X129838571Y-72348428D01*
X129838571Y-72348428D02*
X129895714Y-72348428D01*
X129895714Y-72348428D02*
X129981428Y-72377000D01*
X129981428Y-72377000D02*
X130010000Y-72405571D01*
X130552857Y-72948428D02*
X130267143Y-72948428D01*
X130267143Y-72948428D02*
X130267143Y-72348428D01*
X130724285Y-72777000D02*
X131010000Y-72777000D01*
X130667142Y-72948428D02*
X130867142Y-72348428D01*
X130867142Y-72348428D02*
X131067142Y-72948428D01*
X127952858Y-73920428D02*
X127952858Y-73320428D01*
X127952858Y-73320428D02*
X128152858Y-73749000D01*
X128152858Y-73749000D02*
X128352858Y-73320428D01*
X128352858Y-73320428D02*
X128352858Y-73920428D01*
X128638572Y-73920428D02*
X128638572Y-73520428D01*
X128638572Y-73320428D02*
X128610000Y-73349000D01*
X128610000Y-73349000D02*
X128638572Y-73377571D01*
X128638572Y-73377571D02*
X128667143Y-73349000D01*
X128667143Y-73349000D02*
X128638572Y-73320428D01*
X128638572Y-73320428D02*
X128638572Y-73377571D01*
X128924286Y-73520428D02*
X128924286Y-73920428D01*
X128924286Y-73577571D02*
X128952857Y-73549000D01*
X128952857Y-73549000D02*
X129010000Y-73520428D01*
X129010000Y-73520428D02*
X129095714Y-73520428D01*
X129095714Y-73520428D02*
X129152857Y-73549000D01*
X129152857Y-73549000D02*
X129181429Y-73606142D01*
X129181429Y-73606142D02*
X129181429Y-73920428D01*
X129467143Y-73920428D02*
X129467143Y-73520428D01*
X129467143Y-73320428D02*
X129438571Y-73349000D01*
X129438571Y-73349000D02*
X129467143Y-73377571D01*
X129467143Y-73377571D02*
X129495714Y-73349000D01*
X129495714Y-73349000D02*
X129467143Y-73320428D01*
X129467143Y-73320428D02*
X129467143Y-73377571D01*
X129724285Y-73891857D02*
X129781428Y-73920428D01*
X129781428Y-73920428D02*
X129895714Y-73920428D01*
X129895714Y-73920428D02*
X129952857Y-73891857D01*
X129952857Y-73891857D02*
X129981428Y-73834714D01*
X129981428Y-73834714D02*
X129981428Y-73806142D01*
X129981428Y-73806142D02*
X129952857Y-73749000D01*
X129952857Y-73749000D02*
X129895714Y-73720428D01*
X129895714Y-73720428D02*
X129810000Y-73720428D01*
X129810000Y-73720428D02*
X129752857Y-73691857D01*
X129752857Y-73691857D02*
X129724285Y-73634714D01*
X129724285Y-73634714D02*
X129724285Y-73606142D01*
X129724285Y-73606142D02*
X129752857Y-73549000D01*
X129752857Y-73549000D02*
X129810000Y-73520428D01*
X129810000Y-73520428D02*
X129895714Y-73520428D01*
X129895714Y-73520428D02*
X129952857Y-73549000D01*
X130495714Y-73891857D02*
X130438571Y-73920428D01*
X130438571Y-73920428D02*
X130324285Y-73920428D01*
X130324285Y-73920428D02*
X130267142Y-73891857D01*
X130267142Y-73891857D02*
X130238571Y-73863285D01*
X130238571Y-73863285D02*
X130209999Y-73806142D01*
X130209999Y-73806142D02*
X130209999Y-73634714D01*
X130209999Y-73634714D02*
X130238571Y-73577571D01*
X130238571Y-73577571D02*
X130267142Y-73549000D01*
X130267142Y-73549000D02*
X130324285Y-73520428D01*
X130324285Y-73520428D02*
X130438571Y-73520428D01*
X130438571Y-73520428D02*
X130495714Y-73549000D01*
X130838571Y-73920428D02*
X130781428Y-73891857D01*
X130781428Y-73891857D02*
X130752857Y-73863285D01*
X130752857Y-73863285D02*
X130724285Y-73806142D01*
X130724285Y-73806142D02*
X130724285Y-73634714D01*
X130724285Y-73634714D02*
X130752857Y-73577571D01*
X130752857Y-73577571D02*
X130781428Y-73549000D01*
X130781428Y-73549000D02*
X130838571Y-73520428D01*
X130838571Y-73520428D02*
X130924285Y-73520428D01*
X130924285Y-73520428D02*
X130981428Y-73549000D01*
X130981428Y-73549000D02*
X131010000Y-73577571D01*
X131010000Y-73577571D02*
X131038571Y-73634714D01*
X131038571Y-73634714D02*
X131038571Y-73806142D01*
X131038571Y-73806142D02*
X131010000Y-73863285D01*
X131010000Y-73863285D02*
X130981428Y-73891857D01*
X130981428Y-73891857D02*
X130924285Y-73920428D01*
X130924285Y-73920428D02*
X130838571Y-73920428D01*
X131295714Y-73520428D02*
X131295714Y-74120428D01*
X131295714Y-73549000D02*
X131352857Y-73520428D01*
X131352857Y-73520428D02*
X131467142Y-73520428D01*
X131467142Y-73520428D02*
X131524285Y-73549000D01*
X131524285Y-73549000D02*
X131552857Y-73577571D01*
X131552857Y-73577571D02*
X131581428Y-73634714D01*
X131581428Y-73634714D02*
X131581428Y-73806142D01*
X131581428Y-73806142D02*
X131552857Y-73863285D01*
X131552857Y-73863285D02*
X131524285Y-73891857D01*
X131524285Y-73891857D02*
X131467142Y-73920428D01*
X131467142Y-73920428D02*
X131352857Y-73920428D01*
X131352857Y-73920428D02*
X131295714Y-73891857D01*
X132067142Y-73891857D02*
X132009999Y-73920428D01*
X132009999Y-73920428D02*
X131895714Y-73920428D01*
X131895714Y-73920428D02*
X131838571Y-73891857D01*
X131838571Y-73891857D02*
X131809999Y-73834714D01*
X131809999Y-73834714D02*
X131809999Y-73606142D01*
X131809999Y-73606142D02*
X131838571Y-73549000D01*
X131838571Y-73549000D02*
X131895714Y-73520428D01*
X131895714Y-73520428D02*
X132009999Y-73520428D01*
X132009999Y-73520428D02*
X132067142Y-73549000D01*
X132067142Y-73549000D02*
X132095714Y-73606142D01*
X132095714Y-73606142D02*
X132095714Y-73663285D01*
X132095714Y-73663285D02*
X131809999Y-73720428D01*
X129167142Y-74349571D02*
X129195714Y-74321000D01*
X129195714Y-74321000D02*
X129252857Y-74292428D01*
X129252857Y-74292428D02*
X129395714Y-74292428D01*
X129395714Y-74292428D02*
X129452857Y-74321000D01*
X129452857Y-74321000D02*
X129481428Y-74349571D01*
X129481428Y-74349571D02*
X129509999Y-74406714D01*
X129509999Y-74406714D02*
X129509999Y-74463857D01*
X129509999Y-74463857D02*
X129481428Y-74549571D01*
X129481428Y-74549571D02*
X129138571Y-74892428D01*
X129138571Y-74892428D02*
X129509999Y-74892428D01*
X129767143Y-74663857D02*
X130224286Y-74663857D01*
X130510000Y-74892428D02*
X130510000Y-74292428D01*
X130510000Y-74292428D02*
X130738571Y-74292428D01*
X130738571Y-74292428D02*
X130795714Y-74321000D01*
X130795714Y-74321000D02*
X130824285Y-74349571D01*
X130824285Y-74349571D02*
X130852857Y-74406714D01*
X130852857Y-74406714D02*
X130852857Y-74492428D01*
X130852857Y-74492428D02*
X130824285Y-74549571D01*
X130824285Y-74549571D02*
X130795714Y-74578142D01*
X130795714Y-74578142D02*
X130738571Y-74606714D01*
X130738571Y-74606714D02*
X130510000Y-74606714D01*
D12*
X126651309Y-62725713D02*
X126627500Y-62701904D01*
X126627500Y-62701904D02*
X126603690Y-62654285D01*
X126603690Y-62654285D02*
X126603690Y-62535237D01*
X126603690Y-62535237D02*
X126627500Y-62487618D01*
X126627500Y-62487618D02*
X126651309Y-62463809D01*
X126651309Y-62463809D02*
X126698928Y-62439999D01*
X126698928Y-62439999D02*
X126746547Y-62439999D01*
X126746547Y-62439999D02*
X126817976Y-62463809D01*
X126817976Y-62463809D02*
X127103690Y-62749523D01*
X127103690Y-62749523D02*
X127103690Y-62439999D01*
X127056071Y-62225714D02*
X127079880Y-62201904D01*
X127079880Y-62201904D02*
X127103690Y-62225714D01*
X127103690Y-62225714D02*
X127079880Y-62249523D01*
X127079880Y-62249523D02*
X127056071Y-62225714D01*
X127056071Y-62225714D02*
X127103690Y-62225714D01*
X126770357Y-61773333D02*
X127103690Y-61773333D01*
X126579880Y-61892381D02*
X126937023Y-62011428D01*
X126937023Y-62011428D02*
X126937023Y-61701905D01*
X127103690Y-61511429D02*
X126770357Y-61511429D01*
X126817976Y-61511429D02*
X126794166Y-61487619D01*
X126794166Y-61487619D02*
X126770357Y-61440000D01*
X126770357Y-61440000D02*
X126770357Y-61368572D01*
X126770357Y-61368572D02*
X126794166Y-61320953D01*
X126794166Y-61320953D02*
X126841785Y-61297143D01*
X126841785Y-61297143D02*
X127103690Y-61297143D01*
X126841785Y-61297143D02*
X126794166Y-61273334D01*
X126794166Y-61273334D02*
X126770357Y-61225715D01*
X126770357Y-61225715D02*
X126770357Y-61154286D01*
X126770357Y-61154286D02*
X126794166Y-61106667D01*
X126794166Y-61106667D02*
X126841785Y-61082857D01*
X126841785Y-61082857D02*
X127103690Y-61082857D01*
X127103690Y-60844762D02*
X126770357Y-60844762D01*
X126817976Y-60844762D02*
X126794166Y-60820952D01*
X126794166Y-60820952D02*
X126770357Y-60773333D01*
X126770357Y-60773333D02*
X126770357Y-60701905D01*
X126770357Y-60701905D02*
X126794166Y-60654286D01*
X126794166Y-60654286D02*
X126841785Y-60630476D01*
X126841785Y-60630476D02*
X127103690Y-60630476D01*
X126841785Y-60630476D02*
X126794166Y-60606667D01*
X126794166Y-60606667D02*
X126770357Y-60559048D01*
X126770357Y-60559048D02*
X126770357Y-60487619D01*
X126770357Y-60487619D02*
X126794166Y-60440000D01*
X126794166Y-60440000D02*
X126841785Y-60416190D01*
X126841785Y-60416190D02*
X127103690Y-60416190D01*
X126841785Y-59878095D02*
X126841785Y-59711428D01*
X127103690Y-59640000D02*
X127103690Y-59878095D01*
X127103690Y-59878095D02*
X126603690Y-59878095D01*
X126603690Y-59878095D02*
X126603690Y-59640000D01*
X126603690Y-59497142D02*
X126603690Y-59211428D01*
X127103690Y-59354285D02*
X126603690Y-59354285D01*
X127103690Y-58806667D02*
X127103690Y-59044762D01*
X127103690Y-59044762D02*
X126603690Y-59044762D01*
D11*
X123380000Y-72300000D02*
X123920000Y-72300000D01*
X123650000Y-71970000D02*
X123650000Y-72630000D01*
D13*
%TO.C,D1*%
X129970000Y-64820000D02*
G75*
G03*
X129970000Y-64820000I-50000J0D01*
G01*
%TO.C,U2*%
X126150000Y-72170000D02*
X126150000Y-71750000D01*
X125730000Y-72170000D02*
X126150000Y-72170000D01*
X124470000Y-72170000D02*
X124470000Y-71750000D01*
X124890000Y-72170000D02*
X124470000Y-72170000D01*
X124470000Y-69490000D02*
X124470000Y-69910000D01*
X124890000Y-69490000D02*
X124470000Y-69490000D01*
X126150000Y-69490000D02*
X126150000Y-69910000D01*
X125730000Y-69490000D02*
X126150000Y-69490000D01*
D14*
%TO.C,L1*%
X126590000Y-70798733D02*
X126590000Y-71141267D01*
X127610000Y-70798733D02*
X127610000Y-71141267D01*
%TO.C,C3*%
X122250000Y-72993733D02*
X122250000Y-73286267D01*
X123270000Y-72993733D02*
X123270000Y-73286267D01*
%TO.C,D2*%
X123950000Y-72900000D02*
X127100000Y-72900000D01*
X123950000Y-74600000D02*
X127100000Y-74600000D01*
X123950000Y-72900000D02*
X123950000Y-74600000D01*
%TO.C,R1*%
X130610000Y-66322379D02*
X130610000Y-66657621D01*
X131370000Y-66322379D02*
X131370000Y-66657621D01*
%TO.C,R2*%
X124327621Y-68400000D02*
X123992379Y-68400000D01*
X124327621Y-69160000D02*
X123992379Y-69160000D01*
%TO.C,R3*%
X124530000Y-67267621D02*
X124530000Y-66932379D01*
X123770000Y-67267621D02*
X123770000Y-66932379D01*
%TO.C,C2*%
X129442149Y-67616611D02*
X129334313Y-67803389D01*
X130065687Y-67976611D02*
X129957851Y-68163389D01*
%TO.C,C1*%
X131082164Y-68610000D02*
X131297836Y-68610000D01*
X131082164Y-67890000D02*
X131297836Y-67890000D01*
%TD*%
M02*
