%TF.GenerationSoftware,KiCad,Pcbnew,(7.0.0)*%
%TF.CreationDate,2024-03-13T16:55:50-07:00*%
%TF.ProjectId,2P_Miniscope_FLEX_v3,32505f4d-696e-4697-9363-6f70655f464c,rev?*%
%TF.SameCoordinates,Original*%
%TF.FileFunction,Profile,NP*%
%FSLAX46Y46*%
G04 Gerber Fmt 4.6, Leading zero omitted, Abs format (unit mm)*
G04 Created by KiCad (PCBNEW (7.0.0)) date 2024-03-13 16:55:50*
%MOMM*%
%LPD*%
G01*
G04 APERTURE LIST*
%TA.AperFunction,Profile*%
%ADD10C,0.050000*%
%TD*%
G04 APERTURE END LIST*
D10*
X132400000Y-65930000D02*
G75*
G03*
X130900000Y-64430000I-1500000J0D01*
G01*
X132400000Y-73000000D02*
X132400000Y-74110000D01*
X122750000Y-64420000D02*
G75*
G03*
X121250000Y-65920000I0J-1500000D01*
G01*
X121250000Y-74110000D02*
G75*
G03*
X122750000Y-75610000I1500000J0D01*
G01*
X130900000Y-75610000D02*
G75*
G03*
X132400000Y-74110000I0J1500000D01*
G01*
X129430000Y-64430000D02*
X130900000Y-64430000D01*
X127410162Y-47398621D02*
G75*
G03*
X126260000Y-47369999I-480162J3828621D01*
G01*
X130031612Y-43580000D02*
G75*
G03*
X130031612Y-43580000I-3101612J0D01*
G01*
X127930000Y-62930000D02*
G75*
G03*
X129430000Y-64430000I1500000J0D01*
G01*
X124430000Y-64420000D02*
G75*
G03*
X125930000Y-62920000I0J1500000D01*
G01*
X127930000Y-62930000D02*
X127929999Y-57019999D01*
X127929999Y-57019998D02*
G75*
G03*
X127410320Y-49517465I-999999J3699998D01*
G01*
X127410162Y-47398622D02*
X127410320Y-49517464D01*
X126259681Y-49546320D02*
G75*
G03*
X125930001Y-57019999I670319J-3773680D01*
G01*
X125930000Y-62920000D02*
X125930001Y-57019999D01*
X129477600Y-53320000D02*
G75*
G03*
X129477600Y-53320000I-2547600J0D01*
G01*
X126260000Y-47370000D02*
X126259681Y-49546320D01*
X130900000Y-75610000D02*
X122750000Y-75610000D01*
X132400000Y-65930000D02*
X132400000Y-73000000D01*
X122750000Y-64420000D02*
X124430000Y-64420000D01*
X121250000Y-74110000D02*
X121250000Y-65920000D01*
M02*
