M48
; DRILL file {KiCad (7.0.0)} date Wed Mar 13 16:55:47 2024
; FORMAT={-:-/ absolute / inch / decimal}
; #@! TF.CreationDate,2024-03-13T16:55:47-07:00
; #@! TF.GenerationSoftware,Kicad,Pcbnew,(7.0.0)
; #@! TF.FileFunction,Plated,1,2,PTH
FMAT,2
INCH
; #@! TA.AperFunction,Plated,PTH,ViaDrill
T1C0.0059
%
G90
G05
T1
X4.8246Y-2.5781
X4.8589Y-2.6085
X4.8898Y-2.7488
X4.8906Y-2.7933
X4.9488Y-2.848
X4.9508Y-2.7067
X4.9661Y-2.639
X4.9699Y-2.2738
X4.9699Y-2.3089
X4.9699Y-2.3443
X4.9699Y-2.3794
X4.9699Y-2.4207
X4.9699Y-2.4593
X4.9839Y-2.6736
X5.002Y-2.6402
X5.0193Y-2.6736
X5.0246Y-2.2738
X5.0246Y-2.3077
X5.0246Y-2.3439
X5.0246Y-2.3801
X5.0246Y-2.4199
X5.0246Y-2.4584
X5.0246Y-2.4584
X5.037Y-2.6394
X5.037Y-2.7459
X5.037Y-2.7898
X5.0402Y-2.839
X5.0409Y-2.7256
X5.0512Y-2.7071
X5.0714Y-2.8226
X5.0717Y-2.7437
X5.072Y-2.6402
X5.1233Y-2.9479
X5.1243Y-2.904
X5.146Y-2.9224
X5.1682Y-2.903
X5.1682Y-2.9479
X5.1926Y-2.9224
T0
M30
