%TF.GenerationSoftware,KiCad,Pcbnew,(5.1.9)-1*%
%TF.CreationDate,2022-06-19T19:08:25-07:00*%
%TF.ProjectId,SiPM_FLEX,5369504d-5f46-44c4-9558-2e6b69636164,rev?*%
%TF.SameCoordinates,Original*%
%TF.FileFunction,Legend,Bot*%
%TF.FilePolarity,Positive*%
%FSLAX46Y46*%
G04 Gerber Fmt 4.6, Leading zero omitted, Abs format (unit mm)*
G04 Created by KiCad (PCBNEW (5.1.9)-1) date 2022-06-19 19:08:25*
%MOMM*%
%LPD*%
G01*
G04 APERTURE LIST*
%ADD10C,0.125000*%
G04 APERTURE END LIST*
D10*
X51392380Y-36338571D02*
X51416190Y-36410000D01*
X51416190Y-36529047D01*
X51392380Y-36576666D01*
X51368571Y-36600476D01*
X51320952Y-36624285D01*
X51273333Y-36624285D01*
X51225714Y-36600476D01*
X51201904Y-36576666D01*
X51178095Y-36529047D01*
X51154285Y-36433809D01*
X51130476Y-36386190D01*
X51106666Y-36362380D01*
X51059047Y-36338571D01*
X51011428Y-36338571D01*
X50963809Y-36362380D01*
X50940000Y-36386190D01*
X50916190Y-36433809D01*
X50916190Y-36552857D01*
X50940000Y-36624285D01*
X51416190Y-36838571D02*
X51082857Y-36838571D01*
X50916190Y-36838571D02*
X50940000Y-36814761D01*
X50963809Y-36838571D01*
X50940000Y-36862380D01*
X50916190Y-36838571D01*
X50963809Y-36838571D01*
X51416190Y-37076666D02*
X50916190Y-37076666D01*
X50916190Y-37267142D01*
X50940000Y-37314761D01*
X50963809Y-37338571D01*
X51011428Y-37362380D01*
X51082857Y-37362380D01*
X51130476Y-37338571D01*
X51154285Y-37314761D01*
X51178095Y-37267142D01*
X51178095Y-37076666D01*
X51416190Y-37576666D02*
X50916190Y-37576666D01*
X51273333Y-37743333D01*
X50916190Y-37910000D01*
X51416190Y-37910000D01*
X51463809Y-38029047D02*
X51463809Y-38410000D01*
X51416190Y-38529047D02*
X50916190Y-38529047D01*
X51082857Y-38767142D02*
X51416190Y-38767142D01*
X51130476Y-38767142D02*
X51106666Y-38790952D01*
X51082857Y-38838571D01*
X51082857Y-38910000D01*
X51106666Y-38957619D01*
X51154285Y-38981428D01*
X51416190Y-38981428D01*
X51082857Y-39148095D02*
X51082857Y-39338571D01*
X50916190Y-39219523D02*
X51344761Y-39219523D01*
X51392380Y-39243333D01*
X51416190Y-39290952D01*
X51416190Y-39338571D01*
X51392380Y-39695714D02*
X51416190Y-39648095D01*
X51416190Y-39552857D01*
X51392380Y-39505238D01*
X51344761Y-39481428D01*
X51154285Y-39481428D01*
X51106666Y-39505238D01*
X51082857Y-39552857D01*
X51082857Y-39648095D01*
X51106666Y-39695714D01*
X51154285Y-39719523D01*
X51201904Y-39719523D01*
X51249523Y-39481428D01*
X51416190Y-39933809D02*
X51082857Y-39933809D01*
X51178095Y-39933809D02*
X51130476Y-39957619D01*
X51106666Y-39981428D01*
X51082857Y-40029047D01*
X51082857Y-40076666D01*
X51082857Y-40171904D02*
X51082857Y-40362380D01*
X51416190Y-40243333D02*
X50987619Y-40243333D01*
X50940000Y-40267142D01*
X50916190Y-40314761D01*
X50916190Y-40362380D01*
X51416190Y-40743333D02*
X51154285Y-40743333D01*
X51106666Y-40719523D01*
X51082857Y-40671904D01*
X51082857Y-40576666D01*
X51106666Y-40529047D01*
X51392380Y-40743333D02*
X51416190Y-40695714D01*
X51416190Y-40576666D01*
X51392380Y-40529047D01*
X51344761Y-40505238D01*
X51297142Y-40505238D01*
X51249523Y-40529047D01*
X51225714Y-40576666D01*
X51225714Y-40695714D01*
X51201904Y-40743333D01*
X51392380Y-41195714D02*
X51416190Y-41148095D01*
X51416190Y-41052857D01*
X51392380Y-41005238D01*
X51368571Y-40981428D01*
X51320952Y-40957619D01*
X51178095Y-40957619D01*
X51130476Y-40981428D01*
X51106666Y-41005238D01*
X51082857Y-41052857D01*
X51082857Y-41148095D01*
X51106666Y-41195714D01*
X51392380Y-41600476D02*
X51416190Y-41552857D01*
X51416190Y-41457619D01*
X51392380Y-41409999D01*
X51344761Y-41386190D01*
X51154285Y-41386190D01*
X51106666Y-41409999D01*
X51082857Y-41457619D01*
X51082857Y-41552857D01*
X51106666Y-41600476D01*
X51154285Y-41624285D01*
X51201904Y-41624285D01*
X51249523Y-41386190D01*
X51463809Y-41719523D02*
X51463809Y-42100476D01*
X51154285Y-42386190D02*
X51154285Y-42219523D01*
X51416190Y-42219523D02*
X50916190Y-42219523D01*
X50916190Y-42457619D01*
X51416190Y-42719523D02*
X51392380Y-42671904D01*
X51344761Y-42648095D01*
X50916190Y-42648095D01*
X51392380Y-43100476D02*
X51416190Y-43052857D01*
X51416190Y-42957619D01*
X51392380Y-42909999D01*
X51344761Y-42886190D01*
X51154285Y-42886190D01*
X51106666Y-42909999D01*
X51082857Y-42957619D01*
X51082857Y-43052857D01*
X51106666Y-43100476D01*
X51154285Y-43124285D01*
X51201904Y-43124285D01*
X51249523Y-42886190D01*
X51416190Y-43290952D02*
X51082857Y-43552857D01*
X51082857Y-43290952D02*
X51416190Y-43552857D01*
X51463809Y-43624285D02*
X51463809Y-44005238D01*
X51082857Y-44076666D02*
X51416190Y-44195714D01*
X51082857Y-44314761D01*
X51416190Y-44767142D02*
X51416190Y-44481428D01*
X51416190Y-44624285D02*
X50916190Y-44624285D01*
X50987619Y-44576666D01*
X51035238Y-44529047D01*
X51059047Y-44481428D01*
X51368571Y-44981428D02*
X51392380Y-45005238D01*
X51416190Y-44981428D01*
X51392380Y-44957619D01*
X51368571Y-44981428D01*
X51416190Y-44981428D01*
X50916190Y-45314761D02*
X50916190Y-45362380D01*
X50940000Y-45409999D01*
X50963809Y-45433809D01*
X51011428Y-45457619D01*
X51106666Y-45481428D01*
X51225714Y-45481428D01*
X51320952Y-45457619D01*
X51368571Y-45433809D01*
X51392380Y-45409999D01*
X51416190Y-45362380D01*
X51416190Y-45314761D01*
X51392380Y-45267142D01*
X51368571Y-45243333D01*
X51320952Y-45219523D01*
X51225714Y-45195714D01*
X51106666Y-45195714D01*
X51011428Y-45219523D01*
X50963809Y-45243333D01*
X50940000Y-45267142D01*
X50916190Y-45314761D01*
M02*
