%TF.GenerationSoftware,KiCad,Pcbnew,(5.1.9)-1*%
%TF.CreationDate,2022-06-19T19:08:25-07:00*%
%TF.ProjectId,SiPM_FLEX,5369504d-5f46-44c4-9558-2e6b69636164,rev?*%
%TF.SameCoordinates,Original*%
%TF.FileFunction,Copper,L1,Top*%
%TF.FilePolarity,Positive*%
%FSLAX46Y46*%
G04 Gerber Fmt 4.6, Leading zero omitted, Abs format (unit mm)*
G04 Created by KiCad (PCBNEW (5.1.9)-1) date 2022-06-19 19:08:25*
%MOMM*%
%LPD*%
G01*
G04 APERTURE LIST*
%TA.AperFunction,SMDPad,CuDef*%
%ADD10R,0.350000X2.300000*%
%TD*%
%TA.AperFunction,SMDPad,CuDef*%
%ADD11R,0.330000X2.300000*%
%TD*%
%TA.AperFunction,Conductor*%
%ADD12C,0.250000*%
%TD*%
G04 APERTURE END LIST*
D10*
%TO.P,J2,8*%
%TO.N,Net-(J1-Pad1)*%
X49500000Y-30850000D03*
%TO.P,J2,7*%
%TO.N,Net-(J1-Pad2)*%
X50000000Y-30850000D03*
%TO.P,J2,6*%
%TO.N,Net-(J1-Pad3)*%
X50500000Y-30850000D03*
%TO.P,J2,5*%
%TO.N,Net-(J2-Pad5)*%
X51000000Y-30850000D03*
D11*
%TO.P,J2,4*%
%TO.N,Net-(J1-Pad5)*%
X51500000Y-30850000D03*
D10*
%TO.P,J2,3*%
%TO.N,Net-(J2-Pad3)*%
X52000000Y-30850000D03*
%TO.P,J2,2*%
%TO.N,Net-(J2-Pad2)*%
X52500000Y-30850000D03*
%TO.P,J2,1*%
%TO.N,Net-(J1-Pad8)*%
X53000000Y-30850000D03*
%TD*%
%TO.P,J1,8*%
%TO.N,Net-(J1-Pad8)*%
X53020000Y-51260000D03*
%TO.P,J1,7*%
%TO.N,Net-(J1-Pad7)*%
X52520000Y-51260000D03*
%TO.P,J1,6*%
%TO.N,Net-(J1-Pad6)*%
X52020000Y-51260000D03*
%TO.P,J1,5*%
%TO.N,Net-(J1-Pad5)*%
X51520000Y-51260000D03*
D11*
%TO.P,J1,4*%
%TO.N,Net-(J1-Pad4)*%
X51020000Y-51260000D03*
D10*
%TO.P,J1,3*%
%TO.N,Net-(J1-Pad3)*%
X50520000Y-51260000D03*
%TO.P,J1,2*%
%TO.N,Net-(J1-Pad2)*%
X50020000Y-51260000D03*
%TO.P,J1,1*%
%TO.N,Net-(J1-Pad1)*%
X49520000Y-51260000D03*
%TD*%
D12*
%TO.N,Net-(J1-Pad8)*%
X52329990Y-48105689D02*
X52329990Y-33760010D01*
X53020001Y-48795700D02*
X52329990Y-48105689D01*
X53020000Y-51260000D02*
X53020001Y-48795700D01*
X52329990Y-33760010D02*
X53000001Y-33089999D01*
X53000001Y-31850001D02*
X53000001Y-32649999D01*
X53000000Y-30850001D02*
X53000001Y-31850001D01*
X53000001Y-32649999D02*
X53000001Y-32260001D01*
X53000001Y-33089999D02*
X53000001Y-32649999D01*
%TO.N,Net-(J1-Pad5)*%
X51520000Y-51260000D02*
X51520000Y-48710000D01*
X51520000Y-48710000D02*
X51650000Y-48580000D01*
X51650000Y-48580000D02*
X51650000Y-32410000D01*
X51500000Y-32260000D02*
X51650000Y-32410000D01*
X51500000Y-30850000D02*
X51500000Y-32260000D01*
%TO.N,Net-(J1-Pad3)*%
X50500000Y-33021484D02*
X51090029Y-33611513D01*
X50500000Y-30850001D02*
X50500000Y-33021484D01*
X51090029Y-48111526D02*
X51092413Y-48481166D01*
X51090029Y-33611513D02*
X51090029Y-48111526D01*
X51092413Y-48481166D02*
X50520000Y-49061013D01*
X50520000Y-49061013D02*
X50520001Y-49849999D01*
X50520001Y-49849999D02*
X50520001Y-50790000D01*
%TO.N,Net-(J1-Pad2)*%
X50000000Y-33157894D02*
X50640019Y-33797912D01*
X50000000Y-30850000D02*
X50000000Y-33157894D01*
X50640019Y-48112905D02*
X50641211Y-48297673D01*
X50640019Y-33797912D02*
X50640019Y-48112905D01*
X50020000Y-48930000D02*
X50018486Y-48928486D01*
X50020000Y-51260000D02*
X50020000Y-48930000D01*
X50641211Y-48297673D02*
X50018486Y-48928486D01*
%TO.N,Net-(J1-Pad1)*%
X50190009Y-33984312D02*
X50190009Y-48114180D01*
X49499998Y-33294299D02*
X50190009Y-33984312D01*
X49500000Y-30850000D02*
X49499998Y-33294299D01*
X49453966Y-48859782D02*
X50190009Y-48114179D01*
X49453966Y-51173966D02*
X49453966Y-48859782D01*
X49480001Y-51200000D02*
X49453966Y-51173966D01*
%TD*%
M02*
