%TF.GenerationSoftware,KiCad,Pcbnew,(7.0.0)*%
%TF.CreationDate,2024-03-13T17:03:37-07:00*%
%TF.ProjectId,2P_miniscope_interconnect_board_v3,32505f6d-696e-4697-9363-6f70655f696e,rev?*%
%TF.SameCoordinates,Original*%
%TF.FileFunction,Legend,Top*%
%TF.FilePolarity,Positive*%
%FSLAX46Y46*%
G04 Gerber Fmt 4.6, Leading zero omitted, Abs format (unit mm)*
G04 Created by KiCad (PCBNEW (7.0.0)) date 2024-03-13 17:03:37*
%MOMM*%
%LPD*%
G01*
G04 APERTURE LIST*
%ADD10C,0.150000*%
%ADD11C,0.250000*%
%ADD12C,0.300000*%
%ADD13C,0.175000*%
%ADD14C,0.375000*%
%ADD15C,0.254000*%
%ADD16C,0.120000*%
%ADD17C,0.200000*%
%ADD18C,0.100000*%
G04 APERTURE END LIST*
D10*
X179294761Y-150801190D02*
X179294761Y-151277380D01*
X178961428Y-150277380D02*
X179294761Y-150801190D01*
X179294761Y-150801190D02*
X179628094Y-150277380D01*
X179723333Y-151372619D02*
X180485237Y-151372619D01*
X181056666Y-150753571D02*
X180723333Y-150753571D01*
X180723333Y-151277380D02*
X180723333Y-150277380D01*
X180723333Y-150277380D02*
X181199523Y-150277380D01*
X181580476Y-151277380D02*
X181580476Y-150610714D01*
X181580476Y-150277380D02*
X181532857Y-150325000D01*
X181532857Y-150325000D02*
X181580476Y-150372619D01*
X181580476Y-150372619D02*
X181628095Y-150325000D01*
X181628095Y-150325000D02*
X181580476Y-150277380D01*
X181580476Y-150277380D02*
X181580476Y-150372619D01*
X182199523Y-151277380D02*
X182104285Y-151229761D01*
X182104285Y-151229761D02*
X182056666Y-151134523D01*
X182056666Y-151134523D02*
X182056666Y-150277380D01*
X182437619Y-150610714D02*
X182818571Y-150610714D01*
X182580476Y-150277380D02*
X182580476Y-151134523D01*
X182580476Y-151134523D02*
X182628095Y-151229761D01*
X182628095Y-151229761D02*
X182723333Y-151277380D01*
X182723333Y-151277380D02*
X182818571Y-151277380D01*
X184945238Y-80002619D02*
X184992857Y-79955000D01*
X184992857Y-79955000D02*
X185088095Y-79907380D01*
X185088095Y-79907380D02*
X185326190Y-79907380D01*
X185326190Y-79907380D02*
X185421428Y-79955000D01*
X185421428Y-79955000D02*
X185469047Y-80002619D01*
X185469047Y-80002619D02*
X185516666Y-80097857D01*
X185516666Y-80097857D02*
X185516666Y-80193095D01*
X185516666Y-80193095D02*
X185469047Y-80335952D01*
X185469047Y-80335952D02*
X184897619Y-80907380D01*
X184897619Y-80907380D02*
X185516666Y-80907380D01*
X185945238Y-80907380D02*
X185945238Y-79907380D01*
X185945238Y-79907380D02*
X186326190Y-79907380D01*
X186326190Y-79907380D02*
X186421428Y-79955000D01*
X186421428Y-79955000D02*
X186469047Y-80002619D01*
X186469047Y-80002619D02*
X186516666Y-80097857D01*
X186516666Y-80097857D02*
X186516666Y-80240714D01*
X186516666Y-80240714D02*
X186469047Y-80335952D01*
X186469047Y-80335952D02*
X186421428Y-80383571D01*
X186421428Y-80383571D02*
X186326190Y-80431190D01*
X186326190Y-80431190D02*
X185945238Y-80431190D01*
X187545238Y-80907380D02*
X187545238Y-79907380D01*
X187545238Y-79907380D02*
X187878571Y-80621666D01*
X187878571Y-80621666D02*
X188211904Y-79907380D01*
X188211904Y-79907380D02*
X188211904Y-80907380D01*
X188688095Y-80907380D02*
X188688095Y-80240714D01*
X188688095Y-79907380D02*
X188640476Y-79955000D01*
X188640476Y-79955000D02*
X188688095Y-80002619D01*
X188688095Y-80002619D02*
X188735714Y-79955000D01*
X188735714Y-79955000D02*
X188688095Y-79907380D01*
X188688095Y-79907380D02*
X188688095Y-80002619D01*
X189164285Y-80240714D02*
X189164285Y-80907380D01*
X189164285Y-80335952D02*
X189211904Y-80288333D01*
X189211904Y-80288333D02*
X189307142Y-80240714D01*
X189307142Y-80240714D02*
X189449999Y-80240714D01*
X189449999Y-80240714D02*
X189545237Y-80288333D01*
X189545237Y-80288333D02*
X189592856Y-80383571D01*
X189592856Y-80383571D02*
X189592856Y-80907380D01*
X190069047Y-80907380D02*
X190069047Y-80240714D01*
X190069047Y-79907380D02*
X190021428Y-79955000D01*
X190021428Y-79955000D02*
X190069047Y-80002619D01*
X190069047Y-80002619D02*
X190116666Y-79955000D01*
X190116666Y-79955000D02*
X190069047Y-79907380D01*
X190069047Y-79907380D02*
X190069047Y-80002619D01*
X190497618Y-80859761D02*
X190592856Y-80907380D01*
X190592856Y-80907380D02*
X190783332Y-80907380D01*
X190783332Y-80907380D02*
X190878570Y-80859761D01*
X190878570Y-80859761D02*
X190926189Y-80764523D01*
X190926189Y-80764523D02*
X190926189Y-80716904D01*
X190926189Y-80716904D02*
X190878570Y-80621666D01*
X190878570Y-80621666D02*
X190783332Y-80574047D01*
X190783332Y-80574047D02*
X190640475Y-80574047D01*
X190640475Y-80574047D02*
X190545237Y-80526428D01*
X190545237Y-80526428D02*
X190497618Y-80431190D01*
X190497618Y-80431190D02*
X190497618Y-80383571D01*
X190497618Y-80383571D02*
X190545237Y-80288333D01*
X190545237Y-80288333D02*
X190640475Y-80240714D01*
X190640475Y-80240714D02*
X190783332Y-80240714D01*
X190783332Y-80240714D02*
X190878570Y-80288333D01*
X191783332Y-80859761D02*
X191688094Y-80907380D01*
X191688094Y-80907380D02*
X191497618Y-80907380D01*
X191497618Y-80907380D02*
X191402380Y-80859761D01*
X191402380Y-80859761D02*
X191354761Y-80812142D01*
X191354761Y-80812142D02*
X191307142Y-80716904D01*
X191307142Y-80716904D02*
X191307142Y-80431190D01*
X191307142Y-80431190D02*
X191354761Y-80335952D01*
X191354761Y-80335952D02*
X191402380Y-80288333D01*
X191402380Y-80288333D02*
X191497618Y-80240714D01*
X191497618Y-80240714D02*
X191688094Y-80240714D01*
X191688094Y-80240714D02*
X191783332Y-80288333D01*
X192354761Y-80907380D02*
X192259523Y-80859761D01*
X192259523Y-80859761D02*
X192211904Y-80812142D01*
X192211904Y-80812142D02*
X192164285Y-80716904D01*
X192164285Y-80716904D02*
X192164285Y-80431190D01*
X192164285Y-80431190D02*
X192211904Y-80335952D01*
X192211904Y-80335952D02*
X192259523Y-80288333D01*
X192259523Y-80288333D02*
X192354761Y-80240714D01*
X192354761Y-80240714D02*
X192497618Y-80240714D01*
X192497618Y-80240714D02*
X192592856Y-80288333D01*
X192592856Y-80288333D02*
X192640475Y-80335952D01*
X192640475Y-80335952D02*
X192688094Y-80431190D01*
X192688094Y-80431190D02*
X192688094Y-80716904D01*
X192688094Y-80716904D02*
X192640475Y-80812142D01*
X192640475Y-80812142D02*
X192592856Y-80859761D01*
X192592856Y-80859761D02*
X192497618Y-80907380D01*
X192497618Y-80907380D02*
X192354761Y-80907380D01*
X193116666Y-80240714D02*
X193116666Y-81240714D01*
X193116666Y-80288333D02*
X193211904Y-80240714D01*
X193211904Y-80240714D02*
X193402380Y-80240714D01*
X193402380Y-80240714D02*
X193497618Y-80288333D01*
X193497618Y-80288333D02*
X193545237Y-80335952D01*
X193545237Y-80335952D02*
X193592856Y-80431190D01*
X193592856Y-80431190D02*
X193592856Y-80716904D01*
X193592856Y-80716904D02*
X193545237Y-80812142D01*
X193545237Y-80812142D02*
X193497618Y-80859761D01*
X193497618Y-80859761D02*
X193402380Y-80907380D01*
X193402380Y-80907380D02*
X193211904Y-80907380D01*
X193211904Y-80907380D02*
X193116666Y-80859761D01*
X194402380Y-80859761D02*
X194307142Y-80907380D01*
X194307142Y-80907380D02*
X194116666Y-80907380D01*
X194116666Y-80907380D02*
X194021428Y-80859761D01*
X194021428Y-80859761D02*
X193973809Y-80764523D01*
X193973809Y-80764523D02*
X193973809Y-80383571D01*
X193973809Y-80383571D02*
X194021428Y-80288333D01*
X194021428Y-80288333D02*
X194116666Y-80240714D01*
X194116666Y-80240714D02*
X194307142Y-80240714D01*
X194307142Y-80240714D02*
X194402380Y-80288333D01*
X194402380Y-80288333D02*
X194449999Y-80383571D01*
X194449999Y-80383571D02*
X194449999Y-80478809D01*
X194449999Y-80478809D02*
X193973809Y-80574047D01*
X195669047Y-79907380D02*
X195859523Y-79907380D01*
X195859523Y-79907380D02*
X195954761Y-79955000D01*
X195954761Y-79955000D02*
X196049999Y-80050238D01*
X196049999Y-80050238D02*
X196097618Y-80240714D01*
X196097618Y-80240714D02*
X196097618Y-80574047D01*
X196097618Y-80574047D02*
X196049999Y-80764523D01*
X196049999Y-80764523D02*
X195954761Y-80859761D01*
X195954761Y-80859761D02*
X195859523Y-80907380D01*
X195859523Y-80907380D02*
X195669047Y-80907380D01*
X195669047Y-80907380D02*
X195573809Y-80859761D01*
X195573809Y-80859761D02*
X195478571Y-80764523D01*
X195478571Y-80764523D02*
X195430952Y-80574047D01*
X195430952Y-80574047D02*
X195430952Y-80240714D01*
X195430952Y-80240714D02*
X195478571Y-80050238D01*
X195478571Y-80050238D02*
X195573809Y-79955000D01*
X195573809Y-79955000D02*
X195669047Y-79907380D01*
X196954761Y-80240714D02*
X196954761Y-80907380D01*
X196526190Y-80240714D02*
X196526190Y-80764523D01*
X196526190Y-80764523D02*
X196573809Y-80859761D01*
X196573809Y-80859761D02*
X196669047Y-80907380D01*
X196669047Y-80907380D02*
X196811904Y-80907380D01*
X196811904Y-80907380D02*
X196907142Y-80859761D01*
X196907142Y-80859761D02*
X196954761Y-80812142D01*
X197288095Y-80240714D02*
X197669047Y-80240714D01*
X197430952Y-79907380D02*
X197430952Y-80764523D01*
X197430952Y-80764523D02*
X197478571Y-80859761D01*
X197478571Y-80859761D02*
X197573809Y-80907380D01*
X197573809Y-80907380D02*
X197669047Y-80907380D01*
X198002381Y-80240714D02*
X198002381Y-81240714D01*
X198002381Y-80288333D02*
X198097619Y-80240714D01*
X198097619Y-80240714D02*
X198288095Y-80240714D01*
X198288095Y-80240714D02*
X198383333Y-80288333D01*
X198383333Y-80288333D02*
X198430952Y-80335952D01*
X198430952Y-80335952D02*
X198478571Y-80431190D01*
X198478571Y-80431190D02*
X198478571Y-80716904D01*
X198478571Y-80716904D02*
X198430952Y-80812142D01*
X198430952Y-80812142D02*
X198383333Y-80859761D01*
X198383333Y-80859761D02*
X198288095Y-80907380D01*
X198288095Y-80907380D02*
X198097619Y-80907380D01*
X198097619Y-80907380D02*
X198002381Y-80859761D01*
X199335714Y-80240714D02*
X199335714Y-80907380D01*
X198907143Y-80240714D02*
X198907143Y-80764523D01*
X198907143Y-80764523D02*
X198954762Y-80859761D01*
X198954762Y-80859761D02*
X199050000Y-80907380D01*
X199050000Y-80907380D02*
X199192857Y-80907380D01*
X199192857Y-80907380D02*
X199288095Y-80859761D01*
X199288095Y-80859761D02*
X199335714Y-80812142D01*
X199669048Y-80240714D02*
X200050000Y-80240714D01*
X199811905Y-79907380D02*
X199811905Y-80764523D01*
X199811905Y-80764523D02*
X199859524Y-80859761D01*
X199859524Y-80859761D02*
X199954762Y-80907380D01*
X199954762Y-80907380D02*
X200050000Y-80907380D01*
D11*
X197079523Y-117041190D02*
X197079523Y-117517380D01*
X196746190Y-116517380D02*
X197079523Y-117041190D01*
X197079523Y-117041190D02*
X197412856Y-116517380D01*
X198298571Y-117231666D02*
X198774761Y-117231666D01*
X198203333Y-117517380D02*
X198536666Y-116517380D01*
X198536666Y-116517380D02*
X198869999Y-117517380D01*
X199203333Y-116850714D02*
X199203333Y-117517380D01*
X199203333Y-116945952D02*
X199250952Y-116898333D01*
X199250952Y-116898333D02*
X199346190Y-116850714D01*
X199346190Y-116850714D02*
X199489047Y-116850714D01*
X199489047Y-116850714D02*
X199584285Y-116898333D01*
X199584285Y-116898333D02*
X199631904Y-116993571D01*
X199631904Y-116993571D02*
X199631904Y-117517380D01*
X200536666Y-117517380D02*
X200536666Y-116993571D01*
X200536666Y-116993571D02*
X200489047Y-116898333D01*
X200489047Y-116898333D02*
X200393809Y-116850714D01*
X200393809Y-116850714D02*
X200203333Y-116850714D01*
X200203333Y-116850714D02*
X200108095Y-116898333D01*
X200536666Y-117469761D02*
X200441428Y-117517380D01*
X200441428Y-117517380D02*
X200203333Y-117517380D01*
X200203333Y-117517380D02*
X200108095Y-117469761D01*
X200108095Y-117469761D02*
X200060476Y-117374523D01*
X200060476Y-117374523D02*
X200060476Y-117279285D01*
X200060476Y-117279285D02*
X200108095Y-117184047D01*
X200108095Y-117184047D02*
X200203333Y-117136428D01*
X200203333Y-117136428D02*
X200441428Y-117136428D01*
X200441428Y-117136428D02*
X200536666Y-117088809D01*
X201155714Y-117517380D02*
X201060476Y-117469761D01*
X201060476Y-117469761D02*
X201012857Y-117374523D01*
X201012857Y-117374523D02*
X201012857Y-116517380D01*
X201679524Y-117517380D02*
X201584286Y-117469761D01*
X201584286Y-117469761D02*
X201536667Y-117422142D01*
X201536667Y-117422142D02*
X201489048Y-117326904D01*
X201489048Y-117326904D02*
X201489048Y-117041190D01*
X201489048Y-117041190D02*
X201536667Y-116945952D01*
X201536667Y-116945952D02*
X201584286Y-116898333D01*
X201584286Y-116898333D02*
X201679524Y-116850714D01*
X201679524Y-116850714D02*
X201822381Y-116850714D01*
X201822381Y-116850714D02*
X201917619Y-116898333D01*
X201917619Y-116898333D02*
X201965238Y-116945952D01*
X201965238Y-116945952D02*
X202012857Y-117041190D01*
X202012857Y-117041190D02*
X202012857Y-117326904D01*
X202012857Y-117326904D02*
X201965238Y-117422142D01*
X201965238Y-117422142D02*
X201917619Y-117469761D01*
X201917619Y-117469761D02*
X201822381Y-117517380D01*
X201822381Y-117517380D02*
X201679524Y-117517380D01*
X202870000Y-116850714D02*
X202870000Y-117660238D01*
X202870000Y-117660238D02*
X202822381Y-117755476D01*
X202822381Y-117755476D02*
X202774762Y-117803095D01*
X202774762Y-117803095D02*
X202679524Y-117850714D01*
X202679524Y-117850714D02*
X202536667Y-117850714D01*
X202536667Y-117850714D02*
X202441429Y-117803095D01*
X202870000Y-117469761D02*
X202774762Y-117517380D01*
X202774762Y-117517380D02*
X202584286Y-117517380D01*
X202584286Y-117517380D02*
X202489048Y-117469761D01*
X202489048Y-117469761D02*
X202441429Y-117422142D01*
X202441429Y-117422142D02*
X202393810Y-117326904D01*
X202393810Y-117326904D02*
X202393810Y-117041190D01*
X202393810Y-117041190D02*
X202441429Y-116945952D01*
X202441429Y-116945952D02*
X202489048Y-116898333D01*
X202489048Y-116898333D02*
X202584286Y-116850714D01*
X202584286Y-116850714D02*
X202774762Y-116850714D01*
X202774762Y-116850714D02*
X202870000Y-116898333D01*
X203946191Y-117517380D02*
X203946191Y-116517380D01*
X204422381Y-116850714D02*
X204422381Y-117517380D01*
X204422381Y-116945952D02*
X204470000Y-116898333D01*
X204470000Y-116898333D02*
X204565238Y-116850714D01*
X204565238Y-116850714D02*
X204708095Y-116850714D01*
X204708095Y-116850714D02*
X204803333Y-116898333D01*
X204803333Y-116898333D02*
X204850952Y-116993571D01*
X204850952Y-116993571D02*
X204850952Y-117517380D01*
X200586667Y-141307380D02*
X200586667Y-140307380D01*
X200586667Y-140307380D02*
X200920000Y-141021666D01*
X200920000Y-141021666D02*
X201253333Y-140307380D01*
X201253333Y-140307380D02*
X201253333Y-141307380D01*
X201729524Y-140783571D02*
X202062857Y-140783571D01*
X202205714Y-141307380D02*
X201729524Y-141307380D01*
X201729524Y-141307380D02*
X201729524Y-140307380D01*
X201729524Y-140307380D02*
X202205714Y-140307380D01*
X202634286Y-141307380D02*
X202634286Y-140307380D01*
X202634286Y-140307380D02*
X202967619Y-141021666D01*
X202967619Y-141021666D02*
X203300952Y-140307380D01*
X203300952Y-140307380D02*
X203300952Y-141307380D01*
X203729524Y-141259761D02*
X203872381Y-141307380D01*
X203872381Y-141307380D02*
X204110476Y-141307380D01*
X204110476Y-141307380D02*
X204205714Y-141259761D01*
X204205714Y-141259761D02*
X204253333Y-141212142D01*
X204253333Y-141212142D02*
X204300952Y-141116904D01*
X204300952Y-141116904D02*
X204300952Y-141021666D01*
X204300952Y-141021666D02*
X204253333Y-140926428D01*
X204253333Y-140926428D02*
X204205714Y-140878809D01*
X204205714Y-140878809D02*
X204110476Y-140831190D01*
X204110476Y-140831190D02*
X203920000Y-140783571D01*
X203920000Y-140783571D02*
X203824762Y-140735952D01*
X203824762Y-140735952D02*
X203777143Y-140688333D01*
X203777143Y-140688333D02*
X203729524Y-140593095D01*
X203729524Y-140593095D02*
X203729524Y-140497857D01*
X203729524Y-140497857D02*
X203777143Y-140402619D01*
X203777143Y-140402619D02*
X203824762Y-140355000D01*
X203824762Y-140355000D02*
X203920000Y-140307380D01*
X203920000Y-140307380D02*
X204158095Y-140307380D01*
X204158095Y-140307380D02*
X204300952Y-140355000D01*
X200777143Y-142927380D02*
X200777143Y-141927380D01*
X201253333Y-142260714D02*
X201253333Y-142927380D01*
X201253333Y-142355952D02*
X201300952Y-142308333D01*
X201300952Y-142308333D02*
X201396190Y-142260714D01*
X201396190Y-142260714D02*
X201539047Y-142260714D01*
X201539047Y-142260714D02*
X201634285Y-142308333D01*
X201634285Y-142308333D02*
X201681904Y-142403571D01*
X201681904Y-142403571D02*
X201681904Y-142927380D01*
X202158095Y-142260714D02*
X202158095Y-143260714D01*
X202158095Y-142308333D02*
X202253333Y-142260714D01*
X202253333Y-142260714D02*
X202443809Y-142260714D01*
X202443809Y-142260714D02*
X202539047Y-142308333D01*
X202539047Y-142308333D02*
X202586666Y-142355952D01*
X202586666Y-142355952D02*
X202634285Y-142451190D01*
X202634285Y-142451190D02*
X202634285Y-142736904D01*
X202634285Y-142736904D02*
X202586666Y-142832142D01*
X202586666Y-142832142D02*
X202539047Y-142879761D01*
X202539047Y-142879761D02*
X202443809Y-142927380D01*
X202443809Y-142927380D02*
X202253333Y-142927380D01*
X202253333Y-142927380D02*
X202158095Y-142879761D01*
X203491428Y-142260714D02*
X203491428Y-142927380D01*
X203062857Y-142260714D02*
X203062857Y-142784523D01*
X203062857Y-142784523D02*
X203110476Y-142879761D01*
X203110476Y-142879761D02*
X203205714Y-142927380D01*
X203205714Y-142927380D02*
X203348571Y-142927380D01*
X203348571Y-142927380D02*
X203443809Y-142879761D01*
X203443809Y-142879761D02*
X203491428Y-142832142D01*
X203824762Y-142260714D02*
X204205714Y-142260714D01*
X203967619Y-141927380D02*
X203967619Y-142784523D01*
X203967619Y-142784523D02*
X204015238Y-142879761D01*
X204015238Y-142879761D02*
X204110476Y-142927380D01*
X204110476Y-142927380D02*
X204205714Y-142927380D01*
D10*
X166705714Y-85417380D02*
X166134286Y-85417380D01*
X166420000Y-85417380D02*
X166420000Y-84417380D01*
X166420000Y-84417380D02*
X166324762Y-84560238D01*
X166324762Y-84560238D02*
X166229524Y-84655476D01*
X166229524Y-84655476D02*
X166134286Y-84703095D01*
X174779523Y-82387380D02*
X174208095Y-82387380D01*
X174493809Y-82387380D02*
X174493809Y-81387380D01*
X174493809Y-81387380D02*
X174398571Y-81530238D01*
X174398571Y-81530238D02*
X174303333Y-81625476D01*
X174303333Y-81625476D02*
X174208095Y-81673095D01*
X175398571Y-81387380D02*
X175493809Y-81387380D01*
X175493809Y-81387380D02*
X175589047Y-81435000D01*
X175589047Y-81435000D02*
X175636666Y-81482619D01*
X175636666Y-81482619D02*
X175684285Y-81577857D01*
X175684285Y-81577857D02*
X175731904Y-81768333D01*
X175731904Y-81768333D02*
X175731904Y-82006428D01*
X175731904Y-82006428D02*
X175684285Y-82196904D01*
X175684285Y-82196904D02*
X175636666Y-82292142D01*
X175636666Y-82292142D02*
X175589047Y-82339761D01*
X175589047Y-82339761D02*
X175493809Y-82387380D01*
X175493809Y-82387380D02*
X175398571Y-82387380D01*
X175398571Y-82387380D02*
X175303333Y-82339761D01*
X175303333Y-82339761D02*
X175255714Y-82292142D01*
X175255714Y-82292142D02*
X175208095Y-82196904D01*
X175208095Y-82196904D02*
X175160476Y-82006428D01*
X175160476Y-82006428D02*
X175160476Y-81768333D01*
X175160476Y-81768333D02*
X175208095Y-81577857D01*
X175208095Y-81577857D02*
X175255714Y-81482619D01*
X175255714Y-81482619D02*
X175303333Y-81435000D01*
X175303333Y-81435000D02*
X175398571Y-81387380D01*
X207015714Y-136957380D02*
X206444286Y-136957380D01*
X206730000Y-136957380D02*
X206730000Y-135957380D01*
X206730000Y-135957380D02*
X206634762Y-136100238D01*
X206634762Y-136100238D02*
X206539524Y-136195476D01*
X206539524Y-136195476D02*
X206444286Y-136243095D01*
D12*
X111834285Y-113276071D02*
X111334285Y-112561785D01*
X110977142Y-113276071D02*
X110977142Y-111776071D01*
X110977142Y-111776071D02*
X111548571Y-111776071D01*
X111548571Y-111776071D02*
X111691428Y-111847500D01*
X111691428Y-111847500D02*
X111762857Y-111918928D01*
X111762857Y-111918928D02*
X111834285Y-112061785D01*
X111834285Y-112061785D02*
X111834285Y-112276071D01*
X111834285Y-112276071D02*
X111762857Y-112418928D01*
X111762857Y-112418928D02*
X111691428Y-112490357D01*
X111691428Y-112490357D02*
X111548571Y-112561785D01*
X111548571Y-112561785D02*
X110977142Y-112561785D01*
X113048571Y-113204642D02*
X112905714Y-113276071D01*
X112905714Y-113276071D02*
X112620000Y-113276071D01*
X112620000Y-113276071D02*
X112477142Y-113204642D01*
X112477142Y-113204642D02*
X112405714Y-113061785D01*
X112405714Y-113061785D02*
X112405714Y-112490357D01*
X112405714Y-112490357D02*
X112477142Y-112347500D01*
X112477142Y-112347500D02*
X112620000Y-112276071D01*
X112620000Y-112276071D02*
X112905714Y-112276071D01*
X112905714Y-112276071D02*
X113048571Y-112347500D01*
X113048571Y-112347500D02*
X113120000Y-112490357D01*
X113120000Y-112490357D02*
X113120000Y-112633214D01*
X113120000Y-112633214D02*
X112405714Y-112776071D01*
X114405714Y-113276071D02*
X114405714Y-111776071D01*
X114405714Y-113204642D02*
X114262856Y-113276071D01*
X114262856Y-113276071D02*
X113977142Y-113276071D01*
X113977142Y-113276071D02*
X113834285Y-113204642D01*
X113834285Y-113204642D02*
X113762856Y-113133214D01*
X113762856Y-113133214D02*
X113691428Y-112990357D01*
X113691428Y-112990357D02*
X113691428Y-112561785D01*
X113691428Y-112561785D02*
X113762856Y-112418928D01*
X113762856Y-112418928D02*
X113834285Y-112347500D01*
X113834285Y-112347500D02*
X113977142Y-112276071D01*
X113977142Y-112276071D02*
X114262856Y-112276071D01*
X114262856Y-112276071D02*
X114405714Y-112347500D01*
X115948571Y-113204642D02*
X116162857Y-113276071D01*
X116162857Y-113276071D02*
X116519999Y-113276071D01*
X116519999Y-113276071D02*
X116662857Y-113204642D01*
X116662857Y-113204642D02*
X116734285Y-113133214D01*
X116734285Y-113133214D02*
X116805714Y-112990357D01*
X116805714Y-112990357D02*
X116805714Y-112847500D01*
X116805714Y-112847500D02*
X116734285Y-112704642D01*
X116734285Y-112704642D02*
X116662857Y-112633214D01*
X116662857Y-112633214D02*
X116519999Y-112561785D01*
X116519999Y-112561785D02*
X116234285Y-112490357D01*
X116234285Y-112490357D02*
X116091428Y-112418928D01*
X116091428Y-112418928D02*
X116019999Y-112347500D01*
X116019999Y-112347500D02*
X115948571Y-112204642D01*
X115948571Y-112204642D02*
X115948571Y-112061785D01*
X115948571Y-112061785D02*
X116019999Y-111918928D01*
X116019999Y-111918928D02*
X116091428Y-111847500D01*
X116091428Y-111847500D02*
X116234285Y-111776071D01*
X116234285Y-111776071D02*
X116591428Y-111776071D01*
X116591428Y-111776071D02*
X116805714Y-111847500D01*
X117448570Y-113276071D02*
X117448570Y-112276071D01*
X117448570Y-111776071D02*
X117377142Y-111847500D01*
X117377142Y-111847500D02*
X117448570Y-111918928D01*
X117448570Y-111918928D02*
X117519999Y-111847500D01*
X117519999Y-111847500D02*
X117448570Y-111776071D01*
X117448570Y-111776071D02*
X117448570Y-111918928D01*
X118162856Y-113276071D02*
X118162856Y-111776071D01*
X118162856Y-111776071D02*
X118734285Y-111776071D01*
X118734285Y-111776071D02*
X118877142Y-111847500D01*
X118877142Y-111847500D02*
X118948571Y-111918928D01*
X118948571Y-111918928D02*
X119019999Y-112061785D01*
X119019999Y-112061785D02*
X119019999Y-112276071D01*
X119019999Y-112276071D02*
X118948571Y-112418928D01*
X118948571Y-112418928D02*
X118877142Y-112490357D01*
X118877142Y-112490357D02*
X118734285Y-112561785D01*
X118734285Y-112561785D02*
X118162856Y-112561785D01*
X119662856Y-113276071D02*
X119662856Y-111776071D01*
X119662856Y-111776071D02*
X120162856Y-112847500D01*
X120162856Y-112847500D02*
X120662856Y-111776071D01*
X120662856Y-111776071D02*
X120662856Y-113276071D01*
X112927143Y-115706071D02*
X112927143Y-114206071D01*
X112927143Y-114206071D02*
X113284286Y-114206071D01*
X113284286Y-114206071D02*
X113498572Y-114277500D01*
X113498572Y-114277500D02*
X113641429Y-114420357D01*
X113641429Y-114420357D02*
X113712858Y-114563214D01*
X113712858Y-114563214D02*
X113784286Y-114848928D01*
X113784286Y-114848928D02*
X113784286Y-115063214D01*
X113784286Y-115063214D02*
X113712858Y-115348928D01*
X113712858Y-115348928D02*
X113641429Y-115491785D01*
X113641429Y-115491785D02*
X113498572Y-115634642D01*
X113498572Y-115634642D02*
X113284286Y-115706071D01*
X113284286Y-115706071D02*
X112927143Y-115706071D01*
X114427143Y-115706071D02*
X114427143Y-114706071D01*
X114427143Y-114991785D02*
X114498572Y-114848928D01*
X114498572Y-114848928D02*
X114570001Y-114777500D01*
X114570001Y-114777500D02*
X114712858Y-114706071D01*
X114712858Y-114706071D02*
X114855715Y-114706071D01*
X115355714Y-115706071D02*
X115355714Y-114706071D01*
X115355714Y-114206071D02*
X115284286Y-114277500D01*
X115284286Y-114277500D02*
X115355714Y-114348928D01*
X115355714Y-114348928D02*
X115427143Y-114277500D01*
X115427143Y-114277500D02*
X115355714Y-114206071D01*
X115355714Y-114206071D02*
X115355714Y-114348928D01*
X115927143Y-114706071D02*
X116284286Y-115706071D01*
X116284286Y-115706071D02*
X116641429Y-114706071D01*
X117784286Y-115634642D02*
X117641429Y-115706071D01*
X117641429Y-115706071D02*
X117355715Y-115706071D01*
X117355715Y-115706071D02*
X117212857Y-115634642D01*
X117212857Y-115634642D02*
X117141429Y-115491785D01*
X117141429Y-115491785D02*
X117141429Y-114920357D01*
X117141429Y-114920357D02*
X117212857Y-114777500D01*
X117212857Y-114777500D02*
X117355715Y-114706071D01*
X117355715Y-114706071D02*
X117641429Y-114706071D01*
X117641429Y-114706071D02*
X117784286Y-114777500D01*
X117784286Y-114777500D02*
X117855715Y-114920357D01*
X117855715Y-114920357D02*
X117855715Y-115063214D01*
X117855715Y-115063214D02*
X117141429Y-115206071D01*
X118498571Y-115706071D02*
X118498571Y-114706071D01*
X118498571Y-114991785D02*
X118570000Y-114848928D01*
X118570000Y-114848928D02*
X118641429Y-114777500D01*
X118641429Y-114777500D02*
X118784286Y-114706071D01*
X118784286Y-114706071D02*
X118927143Y-114706071D01*
X137605715Y-112007500D02*
X137462858Y-111936071D01*
X137462858Y-111936071D02*
X137248572Y-111936071D01*
X137248572Y-111936071D02*
X137034286Y-112007500D01*
X137034286Y-112007500D02*
X136891429Y-112150357D01*
X136891429Y-112150357D02*
X136820000Y-112293214D01*
X136820000Y-112293214D02*
X136748572Y-112578928D01*
X136748572Y-112578928D02*
X136748572Y-112793214D01*
X136748572Y-112793214D02*
X136820000Y-113078928D01*
X136820000Y-113078928D02*
X136891429Y-113221785D01*
X136891429Y-113221785D02*
X137034286Y-113364642D01*
X137034286Y-113364642D02*
X137248572Y-113436071D01*
X137248572Y-113436071D02*
X137391429Y-113436071D01*
X137391429Y-113436071D02*
X137605715Y-113364642D01*
X137605715Y-113364642D02*
X137677143Y-113293214D01*
X137677143Y-113293214D02*
X137677143Y-112793214D01*
X137677143Y-112793214D02*
X137391429Y-112793214D01*
X138320000Y-113436071D02*
X138320000Y-112436071D01*
X138320000Y-112721785D02*
X138391429Y-112578928D01*
X138391429Y-112578928D02*
X138462858Y-112507500D01*
X138462858Y-112507500D02*
X138605715Y-112436071D01*
X138605715Y-112436071D02*
X138748572Y-112436071D01*
X139820000Y-113364642D02*
X139677143Y-113436071D01*
X139677143Y-113436071D02*
X139391429Y-113436071D01*
X139391429Y-113436071D02*
X139248571Y-113364642D01*
X139248571Y-113364642D02*
X139177143Y-113221785D01*
X139177143Y-113221785D02*
X139177143Y-112650357D01*
X139177143Y-112650357D02*
X139248571Y-112507500D01*
X139248571Y-112507500D02*
X139391429Y-112436071D01*
X139391429Y-112436071D02*
X139677143Y-112436071D01*
X139677143Y-112436071D02*
X139820000Y-112507500D01*
X139820000Y-112507500D02*
X139891429Y-112650357D01*
X139891429Y-112650357D02*
X139891429Y-112793214D01*
X139891429Y-112793214D02*
X139177143Y-112936071D01*
X141105714Y-113364642D02*
X140962857Y-113436071D01*
X140962857Y-113436071D02*
X140677143Y-113436071D01*
X140677143Y-113436071D02*
X140534285Y-113364642D01*
X140534285Y-113364642D02*
X140462857Y-113221785D01*
X140462857Y-113221785D02*
X140462857Y-112650357D01*
X140462857Y-112650357D02*
X140534285Y-112507500D01*
X140534285Y-112507500D02*
X140677143Y-112436071D01*
X140677143Y-112436071D02*
X140962857Y-112436071D01*
X140962857Y-112436071D02*
X141105714Y-112507500D01*
X141105714Y-112507500D02*
X141177143Y-112650357D01*
X141177143Y-112650357D02*
X141177143Y-112793214D01*
X141177143Y-112793214D02*
X140462857Y-112936071D01*
X141819999Y-112436071D02*
X141819999Y-113436071D01*
X141819999Y-112578928D02*
X141891428Y-112507500D01*
X141891428Y-112507500D02*
X142034285Y-112436071D01*
X142034285Y-112436071D02*
X142248571Y-112436071D01*
X142248571Y-112436071D02*
X142391428Y-112507500D01*
X142391428Y-112507500D02*
X142462857Y-112650357D01*
X142462857Y-112650357D02*
X142462857Y-113436071D01*
X144005714Y-113364642D02*
X144220000Y-113436071D01*
X144220000Y-113436071D02*
X144577142Y-113436071D01*
X144577142Y-113436071D02*
X144720000Y-113364642D01*
X144720000Y-113364642D02*
X144791428Y-113293214D01*
X144791428Y-113293214D02*
X144862857Y-113150357D01*
X144862857Y-113150357D02*
X144862857Y-113007500D01*
X144862857Y-113007500D02*
X144791428Y-112864642D01*
X144791428Y-112864642D02*
X144720000Y-112793214D01*
X144720000Y-112793214D02*
X144577142Y-112721785D01*
X144577142Y-112721785D02*
X144291428Y-112650357D01*
X144291428Y-112650357D02*
X144148571Y-112578928D01*
X144148571Y-112578928D02*
X144077142Y-112507500D01*
X144077142Y-112507500D02*
X144005714Y-112364642D01*
X144005714Y-112364642D02*
X144005714Y-112221785D01*
X144005714Y-112221785D02*
X144077142Y-112078928D01*
X144077142Y-112078928D02*
X144148571Y-112007500D01*
X144148571Y-112007500D02*
X144291428Y-111936071D01*
X144291428Y-111936071D02*
X144648571Y-111936071D01*
X144648571Y-111936071D02*
X144862857Y-112007500D01*
X145505713Y-113436071D02*
X145505713Y-112436071D01*
X145505713Y-111936071D02*
X145434285Y-112007500D01*
X145434285Y-112007500D02*
X145505713Y-112078928D01*
X145505713Y-112078928D02*
X145577142Y-112007500D01*
X145577142Y-112007500D02*
X145505713Y-111936071D01*
X145505713Y-111936071D02*
X145505713Y-112078928D01*
X146219999Y-113436071D02*
X146219999Y-111936071D01*
X146219999Y-111936071D02*
X146791428Y-111936071D01*
X146791428Y-111936071D02*
X146934285Y-112007500D01*
X146934285Y-112007500D02*
X147005714Y-112078928D01*
X147005714Y-112078928D02*
X147077142Y-112221785D01*
X147077142Y-112221785D02*
X147077142Y-112436071D01*
X147077142Y-112436071D02*
X147005714Y-112578928D01*
X147005714Y-112578928D02*
X146934285Y-112650357D01*
X146934285Y-112650357D02*
X146791428Y-112721785D01*
X146791428Y-112721785D02*
X146219999Y-112721785D01*
X147719999Y-113436071D02*
X147719999Y-111936071D01*
X147719999Y-111936071D02*
X148219999Y-113007500D01*
X148219999Y-113007500D02*
X148719999Y-111936071D01*
X148719999Y-111936071D02*
X148719999Y-113436071D01*
X139877143Y-115866071D02*
X139877143Y-114366071D01*
X139877143Y-114366071D02*
X140234286Y-114366071D01*
X140234286Y-114366071D02*
X140448572Y-114437500D01*
X140448572Y-114437500D02*
X140591429Y-114580357D01*
X140591429Y-114580357D02*
X140662858Y-114723214D01*
X140662858Y-114723214D02*
X140734286Y-115008928D01*
X140734286Y-115008928D02*
X140734286Y-115223214D01*
X140734286Y-115223214D02*
X140662858Y-115508928D01*
X140662858Y-115508928D02*
X140591429Y-115651785D01*
X140591429Y-115651785D02*
X140448572Y-115794642D01*
X140448572Y-115794642D02*
X140234286Y-115866071D01*
X140234286Y-115866071D02*
X139877143Y-115866071D01*
X141377143Y-115866071D02*
X141377143Y-114866071D01*
X141377143Y-115151785D02*
X141448572Y-115008928D01*
X141448572Y-115008928D02*
X141520001Y-114937500D01*
X141520001Y-114937500D02*
X141662858Y-114866071D01*
X141662858Y-114866071D02*
X141805715Y-114866071D01*
X142305714Y-115866071D02*
X142305714Y-114866071D01*
X142305714Y-114366071D02*
X142234286Y-114437500D01*
X142234286Y-114437500D02*
X142305714Y-114508928D01*
X142305714Y-114508928D02*
X142377143Y-114437500D01*
X142377143Y-114437500D02*
X142305714Y-114366071D01*
X142305714Y-114366071D02*
X142305714Y-114508928D01*
X142877143Y-114866071D02*
X143234286Y-115866071D01*
X143234286Y-115866071D02*
X143591429Y-114866071D01*
X144734286Y-115794642D02*
X144591429Y-115866071D01*
X144591429Y-115866071D02*
X144305715Y-115866071D01*
X144305715Y-115866071D02*
X144162857Y-115794642D01*
X144162857Y-115794642D02*
X144091429Y-115651785D01*
X144091429Y-115651785D02*
X144091429Y-115080357D01*
X144091429Y-115080357D02*
X144162857Y-114937500D01*
X144162857Y-114937500D02*
X144305715Y-114866071D01*
X144305715Y-114866071D02*
X144591429Y-114866071D01*
X144591429Y-114866071D02*
X144734286Y-114937500D01*
X144734286Y-114937500D02*
X144805715Y-115080357D01*
X144805715Y-115080357D02*
X144805715Y-115223214D01*
X144805715Y-115223214D02*
X144091429Y-115366071D01*
X145448571Y-115866071D02*
X145448571Y-114866071D01*
X145448571Y-115151785D02*
X145520000Y-115008928D01*
X145520000Y-115008928D02*
X145591429Y-114937500D01*
X145591429Y-114937500D02*
X145734286Y-114866071D01*
X145734286Y-114866071D02*
X145877143Y-114866071D01*
X90277142Y-80882500D02*
X90134285Y-80811071D01*
X90134285Y-80811071D02*
X89919999Y-80811071D01*
X89919999Y-80811071D02*
X89705713Y-80882500D01*
X89705713Y-80882500D02*
X89562856Y-81025357D01*
X89562856Y-81025357D02*
X89491427Y-81168214D01*
X89491427Y-81168214D02*
X89419999Y-81453928D01*
X89419999Y-81453928D02*
X89419999Y-81668214D01*
X89419999Y-81668214D02*
X89491427Y-81953928D01*
X89491427Y-81953928D02*
X89562856Y-82096785D01*
X89562856Y-82096785D02*
X89705713Y-82239642D01*
X89705713Y-82239642D02*
X89919999Y-82311071D01*
X89919999Y-82311071D02*
X90062856Y-82311071D01*
X90062856Y-82311071D02*
X90277142Y-82239642D01*
X90277142Y-82239642D02*
X90348570Y-82168214D01*
X90348570Y-82168214D02*
X90348570Y-81668214D01*
X90348570Y-81668214D02*
X90062856Y-81668214D01*
X90991427Y-82311071D02*
X90991427Y-80811071D01*
X90991427Y-80811071D02*
X91562856Y-80811071D01*
X91562856Y-80811071D02*
X91705713Y-80882500D01*
X91705713Y-80882500D02*
X91777142Y-80953928D01*
X91777142Y-80953928D02*
X91848570Y-81096785D01*
X91848570Y-81096785D02*
X91848570Y-81311071D01*
X91848570Y-81311071D02*
X91777142Y-81453928D01*
X91777142Y-81453928D02*
X91705713Y-81525357D01*
X91705713Y-81525357D02*
X91562856Y-81596785D01*
X91562856Y-81596785D02*
X90991427Y-81596785D01*
X92491427Y-82311071D02*
X92491427Y-80811071D01*
X93491428Y-80811071D02*
X93777142Y-80811071D01*
X93777142Y-80811071D02*
X93919999Y-80882500D01*
X93919999Y-80882500D02*
X94062856Y-81025357D01*
X94062856Y-81025357D02*
X94134285Y-81311071D01*
X94134285Y-81311071D02*
X94134285Y-81811071D01*
X94134285Y-81811071D02*
X94062856Y-82096785D01*
X94062856Y-82096785D02*
X93919999Y-82239642D01*
X93919999Y-82239642D02*
X93777142Y-82311071D01*
X93777142Y-82311071D02*
X93491428Y-82311071D01*
X93491428Y-82311071D02*
X93348571Y-82239642D01*
X93348571Y-82239642D02*
X93205713Y-82096785D01*
X93205713Y-82096785D02*
X93134285Y-81811071D01*
X93134285Y-81811071D02*
X93134285Y-81311071D01*
X93134285Y-81311071D02*
X93205713Y-81025357D01*
X93205713Y-81025357D02*
X93348571Y-80882500D01*
X93348571Y-80882500D02*
X93491428Y-80811071D01*
X95677142Y-82311071D02*
X95677142Y-80811071D01*
X95677142Y-80811071D02*
X96248571Y-80811071D01*
X96248571Y-80811071D02*
X96391428Y-80882500D01*
X96391428Y-80882500D02*
X96462857Y-80953928D01*
X96462857Y-80953928D02*
X96534285Y-81096785D01*
X96534285Y-81096785D02*
X96534285Y-81311071D01*
X96534285Y-81311071D02*
X96462857Y-81453928D01*
X96462857Y-81453928D02*
X96391428Y-81525357D01*
X96391428Y-81525357D02*
X96248571Y-81596785D01*
X96248571Y-81596785D02*
X95677142Y-81596785D01*
X97177142Y-82311071D02*
X97177142Y-81311071D01*
X97177142Y-80811071D02*
X97105714Y-80882500D01*
X97105714Y-80882500D02*
X97177142Y-80953928D01*
X97177142Y-80953928D02*
X97248571Y-80882500D01*
X97248571Y-80882500D02*
X97177142Y-80811071D01*
X97177142Y-80811071D02*
X97177142Y-80953928D01*
X97891428Y-81311071D02*
X97891428Y-82311071D01*
X97891428Y-81453928D02*
X97962857Y-81382500D01*
X97962857Y-81382500D02*
X98105714Y-81311071D01*
X98105714Y-81311071D02*
X98320000Y-81311071D01*
X98320000Y-81311071D02*
X98462857Y-81382500D01*
X98462857Y-81382500D02*
X98534286Y-81525357D01*
X98534286Y-81525357D02*
X98534286Y-82311071D01*
X99177143Y-82239642D02*
X99320000Y-82311071D01*
X99320000Y-82311071D02*
X99605714Y-82311071D01*
X99605714Y-82311071D02*
X99748571Y-82239642D01*
X99748571Y-82239642D02*
X99820000Y-82096785D01*
X99820000Y-82096785D02*
X99820000Y-82025357D01*
X99820000Y-82025357D02*
X99748571Y-81882500D01*
X99748571Y-81882500D02*
X99605714Y-81811071D01*
X99605714Y-81811071D02*
X99391429Y-81811071D01*
X99391429Y-81811071D02*
X99248571Y-81739642D01*
X99248571Y-81739642D02*
X99177143Y-81596785D01*
X99177143Y-81596785D02*
X99177143Y-81525357D01*
X99177143Y-81525357D02*
X99248571Y-81382500D01*
X99248571Y-81382500D02*
X99391429Y-81311071D01*
X99391429Y-81311071D02*
X99605714Y-81311071D01*
X99605714Y-81311071D02*
X99748571Y-81382500D01*
D13*
X114290000Y-81897166D02*
X113890000Y-81897166D01*
X114090000Y-81897166D02*
X114090000Y-81197166D01*
X114090000Y-81197166D02*
X114023333Y-81297166D01*
X114023333Y-81297166D02*
X113956667Y-81363833D01*
X113956667Y-81363833D02*
X113890000Y-81397166D01*
D10*
X171836191Y-148717380D02*
X171836191Y-147717380D01*
X171836191Y-147717380D02*
X172074286Y-147717380D01*
X172074286Y-147717380D02*
X172217143Y-147765000D01*
X172217143Y-147765000D02*
X172312381Y-147860238D01*
X172312381Y-147860238D02*
X172360000Y-147955476D01*
X172360000Y-147955476D02*
X172407619Y-148145952D01*
X172407619Y-148145952D02*
X172407619Y-148288809D01*
X172407619Y-148288809D02*
X172360000Y-148479285D01*
X172360000Y-148479285D02*
X172312381Y-148574523D01*
X172312381Y-148574523D02*
X172217143Y-148669761D01*
X172217143Y-148669761D02*
X172074286Y-148717380D01*
X172074286Y-148717380D02*
X171836191Y-148717380D01*
X172836191Y-148717380D02*
X172836191Y-147717380D01*
X173502857Y-147717380D02*
X173693333Y-147717380D01*
X173693333Y-147717380D02*
X173788571Y-147765000D01*
X173788571Y-147765000D02*
X173883809Y-147860238D01*
X173883809Y-147860238D02*
X173931428Y-148050714D01*
X173931428Y-148050714D02*
X173931428Y-148384047D01*
X173931428Y-148384047D02*
X173883809Y-148574523D01*
X173883809Y-148574523D02*
X173788571Y-148669761D01*
X173788571Y-148669761D02*
X173693333Y-148717380D01*
X173693333Y-148717380D02*
X173502857Y-148717380D01*
X173502857Y-148717380D02*
X173407619Y-148669761D01*
X173407619Y-148669761D02*
X173312381Y-148574523D01*
X173312381Y-148574523D02*
X173264762Y-148384047D01*
X173264762Y-148384047D02*
X173264762Y-148050714D01*
X173264762Y-148050714D02*
X173312381Y-147860238D01*
X173312381Y-147860238D02*
X173407619Y-147765000D01*
X173407619Y-147765000D02*
X173502857Y-147717380D01*
X192024286Y-142899761D02*
X192167143Y-142947380D01*
X192167143Y-142947380D02*
X192405238Y-142947380D01*
X192405238Y-142947380D02*
X192500476Y-142899761D01*
X192500476Y-142899761D02*
X192548095Y-142852142D01*
X192548095Y-142852142D02*
X192595714Y-142756904D01*
X192595714Y-142756904D02*
X192595714Y-142661666D01*
X192595714Y-142661666D02*
X192548095Y-142566428D01*
X192548095Y-142566428D02*
X192500476Y-142518809D01*
X192500476Y-142518809D02*
X192405238Y-142471190D01*
X192405238Y-142471190D02*
X192214762Y-142423571D01*
X192214762Y-142423571D02*
X192119524Y-142375952D01*
X192119524Y-142375952D02*
X192071905Y-142328333D01*
X192071905Y-142328333D02*
X192024286Y-142233095D01*
X192024286Y-142233095D02*
X192024286Y-142137857D01*
X192024286Y-142137857D02*
X192071905Y-142042619D01*
X192071905Y-142042619D02*
X192119524Y-141995000D01*
X192119524Y-141995000D02*
X192214762Y-141947380D01*
X192214762Y-141947380D02*
X192452857Y-141947380D01*
X192452857Y-141947380D02*
X192595714Y-141995000D01*
X193024286Y-142947380D02*
X193024286Y-141947380D01*
X193024286Y-141947380D02*
X193357619Y-142661666D01*
X193357619Y-142661666D02*
X193690952Y-141947380D01*
X193690952Y-141947380D02*
X193690952Y-142947380D01*
X194119524Y-142661666D02*
X194595714Y-142661666D01*
X194024286Y-142947380D02*
X194357619Y-141947380D01*
X194357619Y-141947380D02*
X194690952Y-142947380D01*
X104432380Y-155107380D02*
X104099047Y-154631190D01*
X103860952Y-155107380D02*
X103860952Y-154107380D01*
X103860952Y-154107380D02*
X104241904Y-154107380D01*
X104241904Y-154107380D02*
X104337142Y-154155000D01*
X104337142Y-154155000D02*
X104384761Y-154202619D01*
X104384761Y-154202619D02*
X104432380Y-154297857D01*
X104432380Y-154297857D02*
X104432380Y-154440714D01*
X104432380Y-154440714D02*
X104384761Y-154535952D01*
X104384761Y-154535952D02*
X104337142Y-154583571D01*
X104337142Y-154583571D02*
X104241904Y-154631190D01*
X104241904Y-154631190D02*
X103860952Y-154631190D01*
X105241904Y-155059761D02*
X105146666Y-155107380D01*
X105146666Y-155107380D02*
X104956190Y-155107380D01*
X104956190Y-155107380D02*
X104860952Y-155059761D01*
X104860952Y-155059761D02*
X104813333Y-154964523D01*
X104813333Y-154964523D02*
X104813333Y-154583571D01*
X104813333Y-154583571D02*
X104860952Y-154488333D01*
X104860952Y-154488333D02*
X104956190Y-154440714D01*
X104956190Y-154440714D02*
X105146666Y-154440714D01*
X105146666Y-154440714D02*
X105241904Y-154488333D01*
X105241904Y-154488333D02*
X105289523Y-154583571D01*
X105289523Y-154583571D02*
X105289523Y-154678809D01*
X105289523Y-154678809D02*
X104813333Y-154774047D01*
X106146666Y-155107380D02*
X106146666Y-154107380D01*
X106146666Y-155059761D02*
X106051428Y-155107380D01*
X106051428Y-155107380D02*
X105860952Y-155107380D01*
X105860952Y-155107380D02*
X105765714Y-155059761D01*
X105765714Y-155059761D02*
X105718095Y-155012142D01*
X105718095Y-155012142D02*
X105670476Y-154916904D01*
X105670476Y-154916904D02*
X105670476Y-154631190D01*
X105670476Y-154631190D02*
X105718095Y-154535952D01*
X105718095Y-154535952D02*
X105765714Y-154488333D01*
X105765714Y-154488333D02*
X105860952Y-154440714D01*
X105860952Y-154440714D02*
X106051428Y-154440714D01*
X106051428Y-154440714D02*
X106146666Y-154488333D01*
X107175238Y-155059761D02*
X107318095Y-155107380D01*
X107318095Y-155107380D02*
X107556190Y-155107380D01*
X107556190Y-155107380D02*
X107651428Y-155059761D01*
X107651428Y-155059761D02*
X107699047Y-155012142D01*
X107699047Y-155012142D02*
X107746666Y-154916904D01*
X107746666Y-154916904D02*
X107746666Y-154821666D01*
X107746666Y-154821666D02*
X107699047Y-154726428D01*
X107699047Y-154726428D02*
X107651428Y-154678809D01*
X107651428Y-154678809D02*
X107556190Y-154631190D01*
X107556190Y-154631190D02*
X107365714Y-154583571D01*
X107365714Y-154583571D02*
X107270476Y-154535952D01*
X107270476Y-154535952D02*
X107222857Y-154488333D01*
X107222857Y-154488333D02*
X107175238Y-154393095D01*
X107175238Y-154393095D02*
X107175238Y-154297857D01*
X107175238Y-154297857D02*
X107222857Y-154202619D01*
X107222857Y-154202619D02*
X107270476Y-154155000D01*
X107270476Y-154155000D02*
X107365714Y-154107380D01*
X107365714Y-154107380D02*
X107603809Y-154107380D01*
X107603809Y-154107380D02*
X107746666Y-154155000D01*
X108175238Y-155107380D02*
X108175238Y-154440714D01*
X108175238Y-154107380D02*
X108127619Y-154155000D01*
X108127619Y-154155000D02*
X108175238Y-154202619D01*
X108175238Y-154202619D02*
X108222857Y-154155000D01*
X108222857Y-154155000D02*
X108175238Y-154107380D01*
X108175238Y-154107380D02*
X108175238Y-154202619D01*
X108651428Y-155107380D02*
X108651428Y-154107380D01*
X108651428Y-154107380D02*
X109032380Y-154107380D01*
X109032380Y-154107380D02*
X109127618Y-154155000D01*
X109127618Y-154155000D02*
X109175237Y-154202619D01*
X109175237Y-154202619D02*
X109222856Y-154297857D01*
X109222856Y-154297857D02*
X109222856Y-154440714D01*
X109222856Y-154440714D02*
X109175237Y-154535952D01*
X109175237Y-154535952D02*
X109127618Y-154583571D01*
X109127618Y-154583571D02*
X109032380Y-154631190D01*
X109032380Y-154631190D02*
X108651428Y-154631190D01*
X109651428Y-155107380D02*
X109651428Y-154107380D01*
X109651428Y-154107380D02*
X109984761Y-154821666D01*
X109984761Y-154821666D02*
X110318094Y-154107380D01*
X110318094Y-154107380D02*
X110318094Y-155107380D01*
X111394285Y-155107380D02*
X111394285Y-154107380D01*
X111394285Y-154107380D02*
X111775237Y-154107380D01*
X111775237Y-154107380D02*
X111870475Y-154155000D01*
X111870475Y-154155000D02*
X111918094Y-154202619D01*
X111918094Y-154202619D02*
X111965713Y-154297857D01*
X111965713Y-154297857D02*
X111965713Y-154440714D01*
X111965713Y-154440714D02*
X111918094Y-154535952D01*
X111918094Y-154535952D02*
X111870475Y-154583571D01*
X111870475Y-154583571D02*
X111775237Y-154631190D01*
X111775237Y-154631190D02*
X111394285Y-154631190D01*
X112537142Y-155107380D02*
X112441904Y-155059761D01*
X112441904Y-155059761D02*
X112394285Y-155012142D01*
X112394285Y-155012142D02*
X112346666Y-154916904D01*
X112346666Y-154916904D02*
X112346666Y-154631190D01*
X112346666Y-154631190D02*
X112394285Y-154535952D01*
X112394285Y-154535952D02*
X112441904Y-154488333D01*
X112441904Y-154488333D02*
X112537142Y-154440714D01*
X112537142Y-154440714D02*
X112679999Y-154440714D01*
X112679999Y-154440714D02*
X112775237Y-154488333D01*
X112775237Y-154488333D02*
X112822856Y-154535952D01*
X112822856Y-154535952D02*
X112870475Y-154631190D01*
X112870475Y-154631190D02*
X112870475Y-154916904D01*
X112870475Y-154916904D02*
X112822856Y-155012142D01*
X112822856Y-155012142D02*
X112775237Y-155059761D01*
X112775237Y-155059761D02*
X112679999Y-155107380D01*
X112679999Y-155107380D02*
X112537142Y-155107380D01*
X113203809Y-154440714D02*
X113394285Y-155107380D01*
X113394285Y-155107380D02*
X113584761Y-154631190D01*
X113584761Y-154631190D02*
X113775237Y-155107380D01*
X113775237Y-155107380D02*
X113965713Y-154440714D01*
X114727618Y-155059761D02*
X114632380Y-155107380D01*
X114632380Y-155107380D02*
X114441904Y-155107380D01*
X114441904Y-155107380D02*
X114346666Y-155059761D01*
X114346666Y-155059761D02*
X114299047Y-154964523D01*
X114299047Y-154964523D02*
X114299047Y-154583571D01*
X114299047Y-154583571D02*
X114346666Y-154488333D01*
X114346666Y-154488333D02*
X114441904Y-154440714D01*
X114441904Y-154440714D02*
X114632380Y-154440714D01*
X114632380Y-154440714D02*
X114727618Y-154488333D01*
X114727618Y-154488333D02*
X114775237Y-154583571D01*
X114775237Y-154583571D02*
X114775237Y-154678809D01*
X114775237Y-154678809D02*
X114299047Y-154774047D01*
X115203809Y-155107380D02*
X115203809Y-154440714D01*
X115203809Y-154631190D02*
X115251428Y-154535952D01*
X115251428Y-154535952D02*
X115299047Y-154488333D01*
X115299047Y-154488333D02*
X115394285Y-154440714D01*
X115394285Y-154440714D02*
X115489523Y-154440714D01*
X116375238Y-155059761D02*
X116518095Y-155107380D01*
X116518095Y-155107380D02*
X116756190Y-155107380D01*
X116756190Y-155107380D02*
X116851428Y-155059761D01*
X116851428Y-155059761D02*
X116899047Y-155012142D01*
X116899047Y-155012142D02*
X116946666Y-154916904D01*
X116946666Y-154916904D02*
X116946666Y-154821666D01*
X116946666Y-154821666D02*
X116899047Y-154726428D01*
X116899047Y-154726428D02*
X116851428Y-154678809D01*
X116851428Y-154678809D02*
X116756190Y-154631190D01*
X116756190Y-154631190D02*
X116565714Y-154583571D01*
X116565714Y-154583571D02*
X116470476Y-154535952D01*
X116470476Y-154535952D02*
X116422857Y-154488333D01*
X116422857Y-154488333D02*
X116375238Y-154393095D01*
X116375238Y-154393095D02*
X116375238Y-154297857D01*
X116375238Y-154297857D02*
X116422857Y-154202619D01*
X116422857Y-154202619D02*
X116470476Y-154155000D01*
X116470476Y-154155000D02*
X116565714Y-154107380D01*
X116565714Y-154107380D02*
X116803809Y-154107380D01*
X116803809Y-154107380D02*
X116946666Y-154155000D01*
X117803809Y-154440714D02*
X117803809Y-155107380D01*
X117375238Y-154440714D02*
X117375238Y-154964523D01*
X117375238Y-154964523D02*
X117422857Y-155059761D01*
X117422857Y-155059761D02*
X117518095Y-155107380D01*
X117518095Y-155107380D02*
X117660952Y-155107380D01*
X117660952Y-155107380D02*
X117756190Y-155059761D01*
X117756190Y-155059761D02*
X117803809Y-155012142D01*
X118280000Y-154440714D02*
X118280000Y-155440714D01*
X118280000Y-154488333D02*
X118375238Y-154440714D01*
X118375238Y-154440714D02*
X118565714Y-154440714D01*
X118565714Y-154440714D02*
X118660952Y-154488333D01*
X118660952Y-154488333D02*
X118708571Y-154535952D01*
X118708571Y-154535952D02*
X118756190Y-154631190D01*
X118756190Y-154631190D02*
X118756190Y-154916904D01*
X118756190Y-154916904D02*
X118708571Y-155012142D01*
X118708571Y-155012142D02*
X118660952Y-155059761D01*
X118660952Y-155059761D02*
X118565714Y-155107380D01*
X118565714Y-155107380D02*
X118375238Y-155107380D01*
X118375238Y-155107380D02*
X118280000Y-155059761D01*
X119184762Y-154440714D02*
X119184762Y-155440714D01*
X119184762Y-154488333D02*
X119280000Y-154440714D01*
X119280000Y-154440714D02*
X119470476Y-154440714D01*
X119470476Y-154440714D02*
X119565714Y-154488333D01*
X119565714Y-154488333D02*
X119613333Y-154535952D01*
X119613333Y-154535952D02*
X119660952Y-154631190D01*
X119660952Y-154631190D02*
X119660952Y-154916904D01*
X119660952Y-154916904D02*
X119613333Y-155012142D01*
X119613333Y-155012142D02*
X119565714Y-155059761D01*
X119565714Y-155059761D02*
X119470476Y-155107380D01*
X119470476Y-155107380D02*
X119280000Y-155107380D01*
X119280000Y-155107380D02*
X119184762Y-155059761D01*
X120232381Y-155107380D02*
X120137143Y-155059761D01*
X120137143Y-155059761D02*
X120089524Y-154964523D01*
X120089524Y-154964523D02*
X120089524Y-154107380D01*
X120518096Y-154440714D02*
X120756191Y-155107380D01*
X120994286Y-154440714D02*
X120756191Y-155107380D01*
X120756191Y-155107380D02*
X120660953Y-155345476D01*
X120660953Y-155345476D02*
X120613334Y-155393095D01*
X120613334Y-155393095D02*
X120518096Y-155440714D01*
X129826665Y-153985000D02*
X129731427Y-153937380D01*
X129731427Y-153937380D02*
X129588570Y-153937380D01*
X129588570Y-153937380D02*
X129445713Y-153985000D01*
X129445713Y-153985000D02*
X129350475Y-154080238D01*
X129350475Y-154080238D02*
X129302856Y-154175476D01*
X129302856Y-154175476D02*
X129255237Y-154365952D01*
X129255237Y-154365952D02*
X129255237Y-154508809D01*
X129255237Y-154508809D02*
X129302856Y-154699285D01*
X129302856Y-154699285D02*
X129350475Y-154794523D01*
X129350475Y-154794523D02*
X129445713Y-154889761D01*
X129445713Y-154889761D02*
X129588570Y-154937380D01*
X129588570Y-154937380D02*
X129683808Y-154937380D01*
X129683808Y-154937380D02*
X129826665Y-154889761D01*
X129826665Y-154889761D02*
X129874284Y-154842142D01*
X129874284Y-154842142D02*
X129874284Y-154508809D01*
X129874284Y-154508809D02*
X129683808Y-154508809D01*
X130302856Y-154937380D02*
X130302856Y-154270714D01*
X130302856Y-154461190D02*
X130350475Y-154365952D01*
X130350475Y-154365952D02*
X130398094Y-154318333D01*
X130398094Y-154318333D02*
X130493332Y-154270714D01*
X130493332Y-154270714D02*
X130588570Y-154270714D01*
X131302856Y-154889761D02*
X131207618Y-154937380D01*
X131207618Y-154937380D02*
X131017142Y-154937380D01*
X131017142Y-154937380D02*
X130921904Y-154889761D01*
X130921904Y-154889761D02*
X130874285Y-154794523D01*
X130874285Y-154794523D02*
X130874285Y-154413571D01*
X130874285Y-154413571D02*
X130921904Y-154318333D01*
X130921904Y-154318333D02*
X131017142Y-154270714D01*
X131017142Y-154270714D02*
X131207618Y-154270714D01*
X131207618Y-154270714D02*
X131302856Y-154318333D01*
X131302856Y-154318333D02*
X131350475Y-154413571D01*
X131350475Y-154413571D02*
X131350475Y-154508809D01*
X131350475Y-154508809D02*
X130874285Y-154604047D01*
X132159999Y-154889761D02*
X132064761Y-154937380D01*
X132064761Y-154937380D02*
X131874285Y-154937380D01*
X131874285Y-154937380D02*
X131779047Y-154889761D01*
X131779047Y-154889761D02*
X131731428Y-154794523D01*
X131731428Y-154794523D02*
X131731428Y-154413571D01*
X131731428Y-154413571D02*
X131779047Y-154318333D01*
X131779047Y-154318333D02*
X131874285Y-154270714D01*
X131874285Y-154270714D02*
X132064761Y-154270714D01*
X132064761Y-154270714D02*
X132159999Y-154318333D01*
X132159999Y-154318333D02*
X132207618Y-154413571D01*
X132207618Y-154413571D02*
X132207618Y-154508809D01*
X132207618Y-154508809D02*
X131731428Y-154604047D01*
X132636190Y-154270714D02*
X132636190Y-154937380D01*
X132636190Y-154365952D02*
X132683809Y-154318333D01*
X132683809Y-154318333D02*
X132779047Y-154270714D01*
X132779047Y-154270714D02*
X132921904Y-154270714D01*
X132921904Y-154270714D02*
X133017142Y-154318333D01*
X133017142Y-154318333D02*
X133064761Y-154413571D01*
X133064761Y-154413571D02*
X133064761Y-154937380D01*
X134093333Y-154889761D02*
X134236190Y-154937380D01*
X134236190Y-154937380D02*
X134474285Y-154937380D01*
X134474285Y-154937380D02*
X134569523Y-154889761D01*
X134569523Y-154889761D02*
X134617142Y-154842142D01*
X134617142Y-154842142D02*
X134664761Y-154746904D01*
X134664761Y-154746904D02*
X134664761Y-154651666D01*
X134664761Y-154651666D02*
X134617142Y-154556428D01*
X134617142Y-154556428D02*
X134569523Y-154508809D01*
X134569523Y-154508809D02*
X134474285Y-154461190D01*
X134474285Y-154461190D02*
X134283809Y-154413571D01*
X134283809Y-154413571D02*
X134188571Y-154365952D01*
X134188571Y-154365952D02*
X134140952Y-154318333D01*
X134140952Y-154318333D02*
X134093333Y-154223095D01*
X134093333Y-154223095D02*
X134093333Y-154127857D01*
X134093333Y-154127857D02*
X134140952Y-154032619D01*
X134140952Y-154032619D02*
X134188571Y-153985000D01*
X134188571Y-153985000D02*
X134283809Y-153937380D01*
X134283809Y-153937380D02*
X134521904Y-153937380D01*
X134521904Y-153937380D02*
X134664761Y-153985000D01*
X135093333Y-154937380D02*
X135093333Y-154270714D01*
X135093333Y-153937380D02*
X135045714Y-153985000D01*
X135045714Y-153985000D02*
X135093333Y-154032619D01*
X135093333Y-154032619D02*
X135140952Y-153985000D01*
X135140952Y-153985000D02*
X135093333Y-153937380D01*
X135093333Y-153937380D02*
X135093333Y-154032619D01*
X135569523Y-154937380D02*
X135569523Y-153937380D01*
X135569523Y-153937380D02*
X135950475Y-153937380D01*
X135950475Y-153937380D02*
X136045713Y-153985000D01*
X136045713Y-153985000D02*
X136093332Y-154032619D01*
X136093332Y-154032619D02*
X136140951Y-154127857D01*
X136140951Y-154127857D02*
X136140951Y-154270714D01*
X136140951Y-154270714D02*
X136093332Y-154365952D01*
X136093332Y-154365952D02*
X136045713Y-154413571D01*
X136045713Y-154413571D02*
X135950475Y-154461190D01*
X135950475Y-154461190D02*
X135569523Y-154461190D01*
X136569523Y-154937380D02*
X136569523Y-153937380D01*
X136569523Y-153937380D02*
X136902856Y-154651666D01*
X136902856Y-154651666D02*
X137236189Y-153937380D01*
X137236189Y-153937380D02*
X137236189Y-154937380D01*
X138312380Y-154937380D02*
X138312380Y-153937380D01*
X138312380Y-153937380D02*
X138693332Y-153937380D01*
X138693332Y-153937380D02*
X138788570Y-153985000D01*
X138788570Y-153985000D02*
X138836189Y-154032619D01*
X138836189Y-154032619D02*
X138883808Y-154127857D01*
X138883808Y-154127857D02*
X138883808Y-154270714D01*
X138883808Y-154270714D02*
X138836189Y-154365952D01*
X138836189Y-154365952D02*
X138788570Y-154413571D01*
X138788570Y-154413571D02*
X138693332Y-154461190D01*
X138693332Y-154461190D02*
X138312380Y-154461190D01*
X139455237Y-154937380D02*
X139359999Y-154889761D01*
X139359999Y-154889761D02*
X139312380Y-154842142D01*
X139312380Y-154842142D02*
X139264761Y-154746904D01*
X139264761Y-154746904D02*
X139264761Y-154461190D01*
X139264761Y-154461190D02*
X139312380Y-154365952D01*
X139312380Y-154365952D02*
X139359999Y-154318333D01*
X139359999Y-154318333D02*
X139455237Y-154270714D01*
X139455237Y-154270714D02*
X139598094Y-154270714D01*
X139598094Y-154270714D02*
X139693332Y-154318333D01*
X139693332Y-154318333D02*
X139740951Y-154365952D01*
X139740951Y-154365952D02*
X139788570Y-154461190D01*
X139788570Y-154461190D02*
X139788570Y-154746904D01*
X139788570Y-154746904D02*
X139740951Y-154842142D01*
X139740951Y-154842142D02*
X139693332Y-154889761D01*
X139693332Y-154889761D02*
X139598094Y-154937380D01*
X139598094Y-154937380D02*
X139455237Y-154937380D01*
X140121904Y-154270714D02*
X140312380Y-154937380D01*
X140312380Y-154937380D02*
X140502856Y-154461190D01*
X140502856Y-154461190D02*
X140693332Y-154937380D01*
X140693332Y-154937380D02*
X140883808Y-154270714D01*
X141645713Y-154889761D02*
X141550475Y-154937380D01*
X141550475Y-154937380D02*
X141359999Y-154937380D01*
X141359999Y-154937380D02*
X141264761Y-154889761D01*
X141264761Y-154889761D02*
X141217142Y-154794523D01*
X141217142Y-154794523D02*
X141217142Y-154413571D01*
X141217142Y-154413571D02*
X141264761Y-154318333D01*
X141264761Y-154318333D02*
X141359999Y-154270714D01*
X141359999Y-154270714D02*
X141550475Y-154270714D01*
X141550475Y-154270714D02*
X141645713Y-154318333D01*
X141645713Y-154318333D02*
X141693332Y-154413571D01*
X141693332Y-154413571D02*
X141693332Y-154508809D01*
X141693332Y-154508809D02*
X141217142Y-154604047D01*
X142121904Y-154937380D02*
X142121904Y-154270714D01*
X142121904Y-154461190D02*
X142169523Y-154365952D01*
X142169523Y-154365952D02*
X142217142Y-154318333D01*
X142217142Y-154318333D02*
X142312380Y-154270714D01*
X142312380Y-154270714D02*
X142407618Y-154270714D01*
X143293333Y-154889761D02*
X143436190Y-154937380D01*
X143436190Y-154937380D02*
X143674285Y-154937380D01*
X143674285Y-154937380D02*
X143769523Y-154889761D01*
X143769523Y-154889761D02*
X143817142Y-154842142D01*
X143817142Y-154842142D02*
X143864761Y-154746904D01*
X143864761Y-154746904D02*
X143864761Y-154651666D01*
X143864761Y-154651666D02*
X143817142Y-154556428D01*
X143817142Y-154556428D02*
X143769523Y-154508809D01*
X143769523Y-154508809D02*
X143674285Y-154461190D01*
X143674285Y-154461190D02*
X143483809Y-154413571D01*
X143483809Y-154413571D02*
X143388571Y-154365952D01*
X143388571Y-154365952D02*
X143340952Y-154318333D01*
X143340952Y-154318333D02*
X143293333Y-154223095D01*
X143293333Y-154223095D02*
X143293333Y-154127857D01*
X143293333Y-154127857D02*
X143340952Y-154032619D01*
X143340952Y-154032619D02*
X143388571Y-153985000D01*
X143388571Y-153985000D02*
X143483809Y-153937380D01*
X143483809Y-153937380D02*
X143721904Y-153937380D01*
X143721904Y-153937380D02*
X143864761Y-153985000D01*
X144721904Y-154270714D02*
X144721904Y-154937380D01*
X144293333Y-154270714D02*
X144293333Y-154794523D01*
X144293333Y-154794523D02*
X144340952Y-154889761D01*
X144340952Y-154889761D02*
X144436190Y-154937380D01*
X144436190Y-154937380D02*
X144579047Y-154937380D01*
X144579047Y-154937380D02*
X144674285Y-154889761D01*
X144674285Y-154889761D02*
X144721904Y-154842142D01*
X145198095Y-154270714D02*
X145198095Y-155270714D01*
X145198095Y-154318333D02*
X145293333Y-154270714D01*
X145293333Y-154270714D02*
X145483809Y-154270714D01*
X145483809Y-154270714D02*
X145579047Y-154318333D01*
X145579047Y-154318333D02*
X145626666Y-154365952D01*
X145626666Y-154365952D02*
X145674285Y-154461190D01*
X145674285Y-154461190D02*
X145674285Y-154746904D01*
X145674285Y-154746904D02*
X145626666Y-154842142D01*
X145626666Y-154842142D02*
X145579047Y-154889761D01*
X145579047Y-154889761D02*
X145483809Y-154937380D01*
X145483809Y-154937380D02*
X145293333Y-154937380D01*
X145293333Y-154937380D02*
X145198095Y-154889761D01*
X146102857Y-154270714D02*
X146102857Y-155270714D01*
X146102857Y-154318333D02*
X146198095Y-154270714D01*
X146198095Y-154270714D02*
X146388571Y-154270714D01*
X146388571Y-154270714D02*
X146483809Y-154318333D01*
X146483809Y-154318333D02*
X146531428Y-154365952D01*
X146531428Y-154365952D02*
X146579047Y-154461190D01*
X146579047Y-154461190D02*
X146579047Y-154746904D01*
X146579047Y-154746904D02*
X146531428Y-154842142D01*
X146531428Y-154842142D02*
X146483809Y-154889761D01*
X146483809Y-154889761D02*
X146388571Y-154937380D01*
X146388571Y-154937380D02*
X146198095Y-154937380D01*
X146198095Y-154937380D02*
X146102857Y-154889761D01*
X147150476Y-154937380D02*
X147055238Y-154889761D01*
X147055238Y-154889761D02*
X147007619Y-154794523D01*
X147007619Y-154794523D02*
X147007619Y-153937380D01*
X147436191Y-154270714D02*
X147674286Y-154937380D01*
X147912381Y-154270714D02*
X147674286Y-154937380D01*
X147674286Y-154937380D02*
X147579048Y-155175476D01*
X147579048Y-155175476D02*
X147531429Y-155223095D01*
X147531429Y-155223095D02*
X147436191Y-155270714D01*
D11*
X124202857Y-91127380D02*
X123869524Y-90651190D01*
X123631429Y-91127380D02*
X123631429Y-90127380D01*
X123631429Y-90127380D02*
X124012381Y-90127380D01*
X124012381Y-90127380D02*
X124107619Y-90175000D01*
X124107619Y-90175000D02*
X124155238Y-90222619D01*
X124155238Y-90222619D02*
X124202857Y-90317857D01*
X124202857Y-90317857D02*
X124202857Y-90460714D01*
X124202857Y-90460714D02*
X124155238Y-90555952D01*
X124155238Y-90555952D02*
X124107619Y-90603571D01*
X124107619Y-90603571D02*
X124012381Y-90651190D01*
X124012381Y-90651190D02*
X123631429Y-90651190D01*
X125012381Y-91079761D02*
X124917143Y-91127380D01*
X124917143Y-91127380D02*
X124726667Y-91127380D01*
X124726667Y-91127380D02*
X124631429Y-91079761D01*
X124631429Y-91079761D02*
X124583810Y-90984523D01*
X124583810Y-90984523D02*
X124583810Y-90603571D01*
X124583810Y-90603571D02*
X124631429Y-90508333D01*
X124631429Y-90508333D02*
X124726667Y-90460714D01*
X124726667Y-90460714D02*
X124917143Y-90460714D01*
X124917143Y-90460714D02*
X125012381Y-90508333D01*
X125012381Y-90508333D02*
X125060000Y-90603571D01*
X125060000Y-90603571D02*
X125060000Y-90698809D01*
X125060000Y-90698809D02*
X124583810Y-90794047D01*
X125917143Y-91127380D02*
X125917143Y-90127380D01*
X125917143Y-91079761D02*
X125821905Y-91127380D01*
X125821905Y-91127380D02*
X125631429Y-91127380D01*
X125631429Y-91127380D02*
X125536191Y-91079761D01*
X125536191Y-91079761D02*
X125488572Y-91032142D01*
X125488572Y-91032142D02*
X125440953Y-90936904D01*
X125440953Y-90936904D02*
X125440953Y-90651190D01*
X125440953Y-90651190D02*
X125488572Y-90555952D01*
X125488572Y-90555952D02*
X125536191Y-90508333D01*
X125536191Y-90508333D02*
X125631429Y-90460714D01*
X125631429Y-90460714D02*
X125821905Y-90460714D01*
X125821905Y-90460714D02*
X125917143Y-90508333D01*
X126945715Y-91079761D02*
X127088572Y-91127380D01*
X127088572Y-91127380D02*
X127326667Y-91127380D01*
X127326667Y-91127380D02*
X127421905Y-91079761D01*
X127421905Y-91079761D02*
X127469524Y-91032142D01*
X127469524Y-91032142D02*
X127517143Y-90936904D01*
X127517143Y-90936904D02*
X127517143Y-90841666D01*
X127517143Y-90841666D02*
X127469524Y-90746428D01*
X127469524Y-90746428D02*
X127421905Y-90698809D01*
X127421905Y-90698809D02*
X127326667Y-90651190D01*
X127326667Y-90651190D02*
X127136191Y-90603571D01*
X127136191Y-90603571D02*
X127040953Y-90555952D01*
X127040953Y-90555952D02*
X126993334Y-90508333D01*
X126993334Y-90508333D02*
X126945715Y-90413095D01*
X126945715Y-90413095D02*
X126945715Y-90317857D01*
X126945715Y-90317857D02*
X126993334Y-90222619D01*
X126993334Y-90222619D02*
X127040953Y-90175000D01*
X127040953Y-90175000D02*
X127136191Y-90127380D01*
X127136191Y-90127380D02*
X127374286Y-90127380D01*
X127374286Y-90127380D02*
X127517143Y-90175000D01*
X127945715Y-91127380D02*
X127945715Y-90460714D01*
X127945715Y-90127380D02*
X127898096Y-90175000D01*
X127898096Y-90175000D02*
X127945715Y-90222619D01*
X127945715Y-90222619D02*
X127993334Y-90175000D01*
X127993334Y-90175000D02*
X127945715Y-90127380D01*
X127945715Y-90127380D02*
X127945715Y-90222619D01*
X128421905Y-91127380D02*
X128421905Y-90127380D01*
X128421905Y-90127380D02*
X128802857Y-90127380D01*
X128802857Y-90127380D02*
X128898095Y-90175000D01*
X128898095Y-90175000D02*
X128945714Y-90222619D01*
X128945714Y-90222619D02*
X128993333Y-90317857D01*
X128993333Y-90317857D02*
X128993333Y-90460714D01*
X128993333Y-90460714D02*
X128945714Y-90555952D01*
X128945714Y-90555952D02*
X128898095Y-90603571D01*
X128898095Y-90603571D02*
X128802857Y-90651190D01*
X128802857Y-90651190D02*
X128421905Y-90651190D01*
X129421905Y-91127380D02*
X129421905Y-90127380D01*
X129421905Y-90127380D02*
X129755238Y-90841666D01*
X129755238Y-90841666D02*
X130088571Y-90127380D01*
X130088571Y-90127380D02*
X130088571Y-91127380D01*
X149087142Y-89985000D02*
X148991904Y-89937380D01*
X148991904Y-89937380D02*
X148849047Y-89937380D01*
X148849047Y-89937380D02*
X148706190Y-89985000D01*
X148706190Y-89985000D02*
X148610952Y-90080238D01*
X148610952Y-90080238D02*
X148563333Y-90175476D01*
X148563333Y-90175476D02*
X148515714Y-90365952D01*
X148515714Y-90365952D02*
X148515714Y-90508809D01*
X148515714Y-90508809D02*
X148563333Y-90699285D01*
X148563333Y-90699285D02*
X148610952Y-90794523D01*
X148610952Y-90794523D02*
X148706190Y-90889761D01*
X148706190Y-90889761D02*
X148849047Y-90937380D01*
X148849047Y-90937380D02*
X148944285Y-90937380D01*
X148944285Y-90937380D02*
X149087142Y-90889761D01*
X149087142Y-90889761D02*
X149134761Y-90842142D01*
X149134761Y-90842142D02*
X149134761Y-90508809D01*
X149134761Y-90508809D02*
X148944285Y-90508809D01*
X149563333Y-90937380D02*
X149563333Y-90270714D01*
X149563333Y-90461190D02*
X149610952Y-90365952D01*
X149610952Y-90365952D02*
X149658571Y-90318333D01*
X149658571Y-90318333D02*
X149753809Y-90270714D01*
X149753809Y-90270714D02*
X149849047Y-90270714D01*
X150563333Y-90889761D02*
X150468095Y-90937380D01*
X150468095Y-90937380D02*
X150277619Y-90937380D01*
X150277619Y-90937380D02*
X150182381Y-90889761D01*
X150182381Y-90889761D02*
X150134762Y-90794523D01*
X150134762Y-90794523D02*
X150134762Y-90413571D01*
X150134762Y-90413571D02*
X150182381Y-90318333D01*
X150182381Y-90318333D02*
X150277619Y-90270714D01*
X150277619Y-90270714D02*
X150468095Y-90270714D01*
X150468095Y-90270714D02*
X150563333Y-90318333D01*
X150563333Y-90318333D02*
X150610952Y-90413571D01*
X150610952Y-90413571D02*
X150610952Y-90508809D01*
X150610952Y-90508809D02*
X150134762Y-90604047D01*
X151420476Y-90889761D02*
X151325238Y-90937380D01*
X151325238Y-90937380D02*
X151134762Y-90937380D01*
X151134762Y-90937380D02*
X151039524Y-90889761D01*
X151039524Y-90889761D02*
X150991905Y-90794523D01*
X150991905Y-90794523D02*
X150991905Y-90413571D01*
X150991905Y-90413571D02*
X151039524Y-90318333D01*
X151039524Y-90318333D02*
X151134762Y-90270714D01*
X151134762Y-90270714D02*
X151325238Y-90270714D01*
X151325238Y-90270714D02*
X151420476Y-90318333D01*
X151420476Y-90318333D02*
X151468095Y-90413571D01*
X151468095Y-90413571D02*
X151468095Y-90508809D01*
X151468095Y-90508809D02*
X150991905Y-90604047D01*
X151896667Y-90270714D02*
X151896667Y-90937380D01*
X151896667Y-90365952D02*
X151944286Y-90318333D01*
X151944286Y-90318333D02*
X152039524Y-90270714D01*
X152039524Y-90270714D02*
X152182381Y-90270714D01*
X152182381Y-90270714D02*
X152277619Y-90318333D01*
X152277619Y-90318333D02*
X152325238Y-90413571D01*
X152325238Y-90413571D02*
X152325238Y-90937380D01*
X153353810Y-90889761D02*
X153496667Y-90937380D01*
X153496667Y-90937380D02*
X153734762Y-90937380D01*
X153734762Y-90937380D02*
X153830000Y-90889761D01*
X153830000Y-90889761D02*
X153877619Y-90842142D01*
X153877619Y-90842142D02*
X153925238Y-90746904D01*
X153925238Y-90746904D02*
X153925238Y-90651666D01*
X153925238Y-90651666D02*
X153877619Y-90556428D01*
X153877619Y-90556428D02*
X153830000Y-90508809D01*
X153830000Y-90508809D02*
X153734762Y-90461190D01*
X153734762Y-90461190D02*
X153544286Y-90413571D01*
X153544286Y-90413571D02*
X153449048Y-90365952D01*
X153449048Y-90365952D02*
X153401429Y-90318333D01*
X153401429Y-90318333D02*
X153353810Y-90223095D01*
X153353810Y-90223095D02*
X153353810Y-90127857D01*
X153353810Y-90127857D02*
X153401429Y-90032619D01*
X153401429Y-90032619D02*
X153449048Y-89985000D01*
X153449048Y-89985000D02*
X153544286Y-89937380D01*
X153544286Y-89937380D02*
X153782381Y-89937380D01*
X153782381Y-89937380D02*
X153925238Y-89985000D01*
X154353810Y-90937380D02*
X154353810Y-90270714D01*
X154353810Y-89937380D02*
X154306191Y-89985000D01*
X154306191Y-89985000D02*
X154353810Y-90032619D01*
X154353810Y-90032619D02*
X154401429Y-89985000D01*
X154401429Y-89985000D02*
X154353810Y-89937380D01*
X154353810Y-89937380D02*
X154353810Y-90032619D01*
X154830000Y-90937380D02*
X154830000Y-89937380D01*
X154830000Y-89937380D02*
X155210952Y-89937380D01*
X155210952Y-89937380D02*
X155306190Y-89985000D01*
X155306190Y-89985000D02*
X155353809Y-90032619D01*
X155353809Y-90032619D02*
X155401428Y-90127857D01*
X155401428Y-90127857D02*
X155401428Y-90270714D01*
X155401428Y-90270714D02*
X155353809Y-90365952D01*
X155353809Y-90365952D02*
X155306190Y-90413571D01*
X155306190Y-90413571D02*
X155210952Y-90461190D01*
X155210952Y-90461190D02*
X154830000Y-90461190D01*
X155830000Y-90937380D02*
X155830000Y-89937380D01*
X155830000Y-89937380D02*
X156163333Y-90651666D01*
X156163333Y-90651666D02*
X156496666Y-89937380D01*
X156496666Y-89937380D02*
X156496666Y-90937380D01*
D12*
X78536071Y-130362857D02*
X79750357Y-130362857D01*
X79750357Y-130362857D02*
X79893214Y-130291428D01*
X79893214Y-130291428D02*
X79964642Y-130220000D01*
X79964642Y-130220000D02*
X80036071Y-130077142D01*
X80036071Y-130077142D02*
X80036071Y-129791428D01*
X80036071Y-129791428D02*
X79964642Y-129648571D01*
X79964642Y-129648571D02*
X79893214Y-129577142D01*
X79893214Y-129577142D02*
X79750357Y-129505714D01*
X79750357Y-129505714D02*
X78536071Y-129505714D01*
X79893214Y-127934285D02*
X79964642Y-128005713D01*
X79964642Y-128005713D02*
X80036071Y-128219999D01*
X80036071Y-128219999D02*
X80036071Y-128362856D01*
X80036071Y-128362856D02*
X79964642Y-128577142D01*
X79964642Y-128577142D02*
X79821785Y-128719999D01*
X79821785Y-128719999D02*
X79678928Y-128791428D01*
X79678928Y-128791428D02*
X79393214Y-128862856D01*
X79393214Y-128862856D02*
X79178928Y-128862856D01*
X79178928Y-128862856D02*
X78893214Y-128791428D01*
X78893214Y-128791428D02*
X78750357Y-128719999D01*
X78750357Y-128719999D02*
X78607500Y-128577142D01*
X78607500Y-128577142D02*
X78536071Y-128362856D01*
X78536071Y-128362856D02*
X78536071Y-128219999D01*
X78536071Y-128219999D02*
X78607500Y-128005713D01*
X78607500Y-128005713D02*
X78678928Y-127934285D01*
X80036071Y-126577142D02*
X80036071Y-127291428D01*
X80036071Y-127291428D02*
X78536071Y-127291428D01*
X79607500Y-126148570D02*
X79607500Y-125434285D01*
X80036071Y-126291427D02*
X78536071Y-125791427D01*
X78536071Y-125791427D02*
X80036071Y-125291427D01*
X78678928Y-123962856D02*
X78607500Y-123891428D01*
X78607500Y-123891428D02*
X78536071Y-123748571D01*
X78536071Y-123748571D02*
X78536071Y-123391428D01*
X78536071Y-123391428D02*
X78607500Y-123248571D01*
X78607500Y-123248571D02*
X78678928Y-123177142D01*
X78678928Y-123177142D02*
X78821785Y-123105713D01*
X78821785Y-123105713D02*
X78964642Y-123105713D01*
X78964642Y-123105713D02*
X79178928Y-123177142D01*
X79178928Y-123177142D02*
X80036071Y-124034285D01*
X80036071Y-124034285D02*
X80036071Y-123105713D01*
X80036071Y-122462857D02*
X78536071Y-122462857D01*
X78536071Y-122462857D02*
X78536071Y-121891428D01*
X78536071Y-121891428D02*
X78607500Y-121748571D01*
X78607500Y-121748571D02*
X78678928Y-121677142D01*
X78678928Y-121677142D02*
X78821785Y-121605714D01*
X78821785Y-121605714D02*
X79036071Y-121605714D01*
X79036071Y-121605714D02*
X79178928Y-121677142D01*
X79178928Y-121677142D02*
X79250357Y-121748571D01*
X79250357Y-121748571D02*
X79321785Y-121891428D01*
X79321785Y-121891428D02*
X79321785Y-122462857D01*
X80036071Y-120062857D02*
X78536071Y-120062857D01*
X78536071Y-120062857D02*
X79607500Y-119562857D01*
X79607500Y-119562857D02*
X78536071Y-119062857D01*
X78536071Y-119062857D02*
X80036071Y-119062857D01*
X80036071Y-118348571D02*
X79036071Y-118348571D01*
X78536071Y-118348571D02*
X78607500Y-118419999D01*
X78607500Y-118419999D02*
X78678928Y-118348571D01*
X78678928Y-118348571D02*
X78607500Y-118277142D01*
X78607500Y-118277142D02*
X78536071Y-118348571D01*
X78536071Y-118348571D02*
X78678928Y-118348571D01*
X79036071Y-117634285D02*
X80036071Y-117634285D01*
X79178928Y-117634285D02*
X79107500Y-117562856D01*
X79107500Y-117562856D02*
X79036071Y-117419999D01*
X79036071Y-117419999D02*
X79036071Y-117205713D01*
X79036071Y-117205713D02*
X79107500Y-117062856D01*
X79107500Y-117062856D02*
X79250357Y-116991428D01*
X79250357Y-116991428D02*
X80036071Y-116991428D01*
X80036071Y-116277142D02*
X79036071Y-116277142D01*
X78536071Y-116277142D02*
X78607500Y-116348570D01*
X78607500Y-116348570D02*
X78678928Y-116277142D01*
X78678928Y-116277142D02*
X78607500Y-116205713D01*
X78607500Y-116205713D02*
X78536071Y-116277142D01*
X78536071Y-116277142D02*
X78678928Y-116277142D01*
X79964642Y-115634284D02*
X80036071Y-115491427D01*
X80036071Y-115491427D02*
X80036071Y-115205713D01*
X80036071Y-115205713D02*
X79964642Y-115062856D01*
X79964642Y-115062856D02*
X79821785Y-114991427D01*
X79821785Y-114991427D02*
X79750357Y-114991427D01*
X79750357Y-114991427D02*
X79607500Y-115062856D01*
X79607500Y-115062856D02*
X79536071Y-115205713D01*
X79536071Y-115205713D02*
X79536071Y-115419999D01*
X79536071Y-115419999D02*
X79464642Y-115562856D01*
X79464642Y-115562856D02*
X79321785Y-115634284D01*
X79321785Y-115634284D02*
X79250357Y-115634284D01*
X79250357Y-115634284D02*
X79107500Y-115562856D01*
X79107500Y-115562856D02*
X79036071Y-115419999D01*
X79036071Y-115419999D02*
X79036071Y-115205713D01*
X79036071Y-115205713D02*
X79107500Y-115062856D01*
X79964642Y-113705713D02*
X80036071Y-113848570D01*
X80036071Y-113848570D02*
X80036071Y-114134284D01*
X80036071Y-114134284D02*
X79964642Y-114277141D01*
X79964642Y-114277141D02*
X79893214Y-114348570D01*
X79893214Y-114348570D02*
X79750357Y-114419998D01*
X79750357Y-114419998D02*
X79321785Y-114419998D01*
X79321785Y-114419998D02*
X79178928Y-114348570D01*
X79178928Y-114348570D02*
X79107500Y-114277141D01*
X79107500Y-114277141D02*
X79036071Y-114134284D01*
X79036071Y-114134284D02*
X79036071Y-113848570D01*
X79036071Y-113848570D02*
X79107500Y-113705713D01*
X80036071Y-112848570D02*
X79964642Y-112991427D01*
X79964642Y-112991427D02*
X79893214Y-113062856D01*
X79893214Y-113062856D02*
X79750357Y-113134284D01*
X79750357Y-113134284D02*
X79321785Y-113134284D01*
X79321785Y-113134284D02*
X79178928Y-113062856D01*
X79178928Y-113062856D02*
X79107500Y-112991427D01*
X79107500Y-112991427D02*
X79036071Y-112848570D01*
X79036071Y-112848570D02*
X79036071Y-112634284D01*
X79036071Y-112634284D02*
X79107500Y-112491427D01*
X79107500Y-112491427D02*
X79178928Y-112419999D01*
X79178928Y-112419999D02*
X79321785Y-112348570D01*
X79321785Y-112348570D02*
X79750357Y-112348570D01*
X79750357Y-112348570D02*
X79893214Y-112419999D01*
X79893214Y-112419999D02*
X79964642Y-112491427D01*
X79964642Y-112491427D02*
X80036071Y-112634284D01*
X80036071Y-112634284D02*
X80036071Y-112848570D01*
X79036071Y-111705713D02*
X80536071Y-111705713D01*
X79107500Y-111705713D02*
X79036071Y-111562856D01*
X79036071Y-111562856D02*
X79036071Y-111277141D01*
X79036071Y-111277141D02*
X79107500Y-111134284D01*
X79107500Y-111134284D02*
X79178928Y-111062856D01*
X79178928Y-111062856D02*
X79321785Y-110991427D01*
X79321785Y-110991427D02*
X79750357Y-110991427D01*
X79750357Y-110991427D02*
X79893214Y-111062856D01*
X79893214Y-111062856D02*
X79964642Y-111134284D01*
X79964642Y-111134284D02*
X80036071Y-111277141D01*
X80036071Y-111277141D02*
X80036071Y-111562856D01*
X80036071Y-111562856D02*
X79964642Y-111705713D01*
X79964642Y-109777141D02*
X80036071Y-109919998D01*
X80036071Y-109919998D02*
X80036071Y-110205713D01*
X80036071Y-110205713D02*
X79964642Y-110348570D01*
X79964642Y-110348570D02*
X79821785Y-110419998D01*
X79821785Y-110419998D02*
X79250357Y-110419998D01*
X79250357Y-110419998D02*
X79107500Y-110348570D01*
X79107500Y-110348570D02*
X79036071Y-110205713D01*
X79036071Y-110205713D02*
X79036071Y-109919998D01*
X79036071Y-109919998D02*
X79107500Y-109777141D01*
X79107500Y-109777141D02*
X79250357Y-109705713D01*
X79250357Y-109705713D02*
X79393214Y-109705713D01*
X79393214Y-109705713D02*
X79536071Y-110419998D01*
X82394642Y-134634284D02*
X82466071Y-134419999D01*
X82466071Y-134419999D02*
X82466071Y-134062856D01*
X82466071Y-134062856D02*
X82394642Y-133919999D01*
X82394642Y-133919999D02*
X82323214Y-133848570D01*
X82323214Y-133848570D02*
X82180357Y-133777141D01*
X82180357Y-133777141D02*
X82037500Y-133777141D01*
X82037500Y-133777141D02*
X81894642Y-133848570D01*
X81894642Y-133848570D02*
X81823214Y-133919999D01*
X81823214Y-133919999D02*
X81751785Y-134062856D01*
X81751785Y-134062856D02*
X81680357Y-134348570D01*
X81680357Y-134348570D02*
X81608928Y-134491427D01*
X81608928Y-134491427D02*
X81537500Y-134562856D01*
X81537500Y-134562856D02*
X81394642Y-134634284D01*
X81394642Y-134634284D02*
X81251785Y-134634284D01*
X81251785Y-134634284D02*
X81108928Y-134562856D01*
X81108928Y-134562856D02*
X81037500Y-134491427D01*
X81037500Y-134491427D02*
X80966071Y-134348570D01*
X80966071Y-134348570D02*
X80966071Y-133991427D01*
X80966071Y-133991427D02*
X81037500Y-133777141D01*
X82466071Y-133134285D02*
X81466071Y-133134285D01*
X80966071Y-133134285D02*
X81037500Y-133205713D01*
X81037500Y-133205713D02*
X81108928Y-133134285D01*
X81108928Y-133134285D02*
X81037500Y-133062856D01*
X81037500Y-133062856D02*
X80966071Y-133134285D01*
X80966071Y-133134285D02*
X81108928Y-133134285D01*
X82466071Y-132419999D02*
X80966071Y-132419999D01*
X80966071Y-132419999D02*
X80966071Y-131848570D01*
X80966071Y-131848570D02*
X81037500Y-131705713D01*
X81037500Y-131705713D02*
X81108928Y-131634284D01*
X81108928Y-131634284D02*
X81251785Y-131562856D01*
X81251785Y-131562856D02*
X81466071Y-131562856D01*
X81466071Y-131562856D02*
X81608928Y-131634284D01*
X81608928Y-131634284D02*
X81680357Y-131705713D01*
X81680357Y-131705713D02*
X81751785Y-131848570D01*
X81751785Y-131848570D02*
X81751785Y-132419999D01*
X82466071Y-130919999D02*
X80966071Y-130919999D01*
X80966071Y-130919999D02*
X82037500Y-130419999D01*
X82037500Y-130419999D02*
X80966071Y-129919999D01*
X80966071Y-129919999D02*
X82466071Y-129919999D01*
X82394642Y-128377141D02*
X82466071Y-128162856D01*
X82466071Y-128162856D02*
X82466071Y-127805713D01*
X82466071Y-127805713D02*
X82394642Y-127662856D01*
X82394642Y-127662856D02*
X82323214Y-127591427D01*
X82323214Y-127591427D02*
X82180357Y-127519998D01*
X82180357Y-127519998D02*
X82037500Y-127519998D01*
X82037500Y-127519998D02*
X81894642Y-127591427D01*
X81894642Y-127591427D02*
X81823214Y-127662856D01*
X81823214Y-127662856D02*
X81751785Y-127805713D01*
X81751785Y-127805713D02*
X81680357Y-128091427D01*
X81680357Y-128091427D02*
X81608928Y-128234284D01*
X81608928Y-128234284D02*
X81537500Y-128305713D01*
X81537500Y-128305713D02*
X81394642Y-128377141D01*
X81394642Y-128377141D02*
X81251785Y-128377141D01*
X81251785Y-128377141D02*
X81108928Y-128305713D01*
X81108928Y-128305713D02*
X81037500Y-128234284D01*
X81037500Y-128234284D02*
X80966071Y-128091427D01*
X80966071Y-128091427D02*
X80966071Y-127734284D01*
X80966071Y-127734284D02*
X81037500Y-127519998D01*
X82466071Y-126877142D02*
X81466071Y-126877142D01*
X80966071Y-126877142D02*
X81037500Y-126948570D01*
X81037500Y-126948570D02*
X81108928Y-126877142D01*
X81108928Y-126877142D02*
X81037500Y-126805713D01*
X81037500Y-126805713D02*
X80966071Y-126877142D01*
X80966071Y-126877142D02*
X81108928Y-126877142D01*
X81466071Y-125519999D02*
X82680357Y-125519999D01*
X82680357Y-125519999D02*
X82823214Y-125591427D01*
X82823214Y-125591427D02*
X82894642Y-125662856D01*
X82894642Y-125662856D02*
X82966071Y-125805713D01*
X82966071Y-125805713D02*
X82966071Y-126019999D01*
X82966071Y-126019999D02*
X82894642Y-126162856D01*
X82394642Y-125519999D02*
X82466071Y-125662856D01*
X82466071Y-125662856D02*
X82466071Y-125948570D01*
X82466071Y-125948570D02*
X82394642Y-126091427D01*
X82394642Y-126091427D02*
X82323214Y-126162856D01*
X82323214Y-126162856D02*
X82180357Y-126234284D01*
X82180357Y-126234284D02*
X81751785Y-126234284D01*
X81751785Y-126234284D02*
X81608928Y-126162856D01*
X81608928Y-126162856D02*
X81537500Y-126091427D01*
X81537500Y-126091427D02*
X81466071Y-125948570D01*
X81466071Y-125948570D02*
X81466071Y-125662856D01*
X81466071Y-125662856D02*
X81537500Y-125519999D01*
X81466071Y-124805713D02*
X82466071Y-124805713D01*
X81608928Y-124805713D02*
X81537500Y-124734284D01*
X81537500Y-124734284D02*
X81466071Y-124591427D01*
X81466071Y-124591427D02*
X81466071Y-124377141D01*
X81466071Y-124377141D02*
X81537500Y-124234284D01*
X81537500Y-124234284D02*
X81680357Y-124162856D01*
X81680357Y-124162856D02*
X82466071Y-124162856D01*
X82466071Y-122805713D02*
X81680357Y-122805713D01*
X81680357Y-122805713D02*
X81537500Y-122877141D01*
X81537500Y-122877141D02*
X81466071Y-123019998D01*
X81466071Y-123019998D02*
X81466071Y-123305713D01*
X81466071Y-123305713D02*
X81537500Y-123448570D01*
X82394642Y-122805713D02*
X82466071Y-122948570D01*
X82466071Y-122948570D02*
X82466071Y-123305713D01*
X82466071Y-123305713D02*
X82394642Y-123448570D01*
X82394642Y-123448570D02*
X82251785Y-123519998D01*
X82251785Y-123519998D02*
X82108928Y-123519998D01*
X82108928Y-123519998D02*
X81966071Y-123448570D01*
X81966071Y-123448570D02*
X81894642Y-123305713D01*
X81894642Y-123305713D02*
X81894642Y-122948570D01*
X81894642Y-122948570D02*
X81823214Y-122805713D01*
X82466071Y-121877141D02*
X82394642Y-122019998D01*
X82394642Y-122019998D02*
X82251785Y-122091427D01*
X82251785Y-122091427D02*
X80966071Y-122091427D01*
X82466071Y-120405713D02*
X80966071Y-120405713D01*
X81466071Y-119691427D02*
X82466071Y-119691427D01*
X81608928Y-119691427D02*
X81537500Y-119619998D01*
X81537500Y-119619998D02*
X81466071Y-119477141D01*
X81466071Y-119477141D02*
X81466071Y-119262855D01*
X81466071Y-119262855D02*
X81537500Y-119119998D01*
X81537500Y-119119998D02*
X81680357Y-119048570D01*
X81680357Y-119048570D02*
X82466071Y-119048570D01*
X81466071Y-118548569D02*
X81466071Y-117977141D01*
X80966071Y-118334284D02*
X82251785Y-118334284D01*
X82251785Y-118334284D02*
X82394642Y-118262855D01*
X82394642Y-118262855D02*
X82466071Y-118119998D01*
X82466071Y-118119998D02*
X82466071Y-117977141D01*
X82394642Y-116905712D02*
X82466071Y-117048569D01*
X82466071Y-117048569D02*
X82466071Y-117334284D01*
X82466071Y-117334284D02*
X82394642Y-117477141D01*
X82394642Y-117477141D02*
X82251785Y-117548569D01*
X82251785Y-117548569D02*
X81680357Y-117548569D01*
X81680357Y-117548569D02*
X81537500Y-117477141D01*
X81537500Y-117477141D02*
X81466071Y-117334284D01*
X81466071Y-117334284D02*
X81466071Y-117048569D01*
X81466071Y-117048569D02*
X81537500Y-116905712D01*
X81537500Y-116905712D02*
X81680357Y-116834284D01*
X81680357Y-116834284D02*
X81823214Y-116834284D01*
X81823214Y-116834284D02*
X81966071Y-117548569D01*
X82466071Y-116191427D02*
X81466071Y-116191427D01*
X81751785Y-116191427D02*
X81608928Y-116119998D01*
X81608928Y-116119998D02*
X81537500Y-116048570D01*
X81537500Y-116048570D02*
X81466071Y-115905712D01*
X81466071Y-115905712D02*
X81466071Y-115762855D01*
X81466071Y-115477141D02*
X81466071Y-114905713D01*
X82466071Y-115262856D02*
X81180357Y-115262856D01*
X81180357Y-115262856D02*
X81037500Y-115191427D01*
X81037500Y-115191427D02*
X80966071Y-115048570D01*
X80966071Y-115048570D02*
X80966071Y-114905713D01*
X82466071Y-113762856D02*
X81680357Y-113762856D01*
X81680357Y-113762856D02*
X81537500Y-113834284D01*
X81537500Y-113834284D02*
X81466071Y-113977141D01*
X81466071Y-113977141D02*
X81466071Y-114262856D01*
X81466071Y-114262856D02*
X81537500Y-114405713D01*
X82394642Y-113762856D02*
X82466071Y-113905713D01*
X82466071Y-113905713D02*
X82466071Y-114262856D01*
X82466071Y-114262856D02*
X82394642Y-114405713D01*
X82394642Y-114405713D02*
X82251785Y-114477141D01*
X82251785Y-114477141D02*
X82108928Y-114477141D01*
X82108928Y-114477141D02*
X81966071Y-114405713D01*
X81966071Y-114405713D02*
X81894642Y-114262856D01*
X81894642Y-114262856D02*
X81894642Y-113905713D01*
X81894642Y-113905713D02*
X81823214Y-113762856D01*
X82394642Y-112405713D02*
X82466071Y-112548570D01*
X82466071Y-112548570D02*
X82466071Y-112834284D01*
X82466071Y-112834284D02*
X82394642Y-112977141D01*
X82394642Y-112977141D02*
X82323214Y-113048570D01*
X82323214Y-113048570D02*
X82180357Y-113119998D01*
X82180357Y-113119998D02*
X81751785Y-113119998D01*
X81751785Y-113119998D02*
X81608928Y-113048570D01*
X81608928Y-113048570D02*
X81537500Y-112977141D01*
X81537500Y-112977141D02*
X81466071Y-112834284D01*
X81466071Y-112834284D02*
X81466071Y-112548570D01*
X81466071Y-112548570D02*
X81537500Y-112405713D01*
X82394642Y-111191427D02*
X82466071Y-111334284D01*
X82466071Y-111334284D02*
X82466071Y-111619999D01*
X82466071Y-111619999D02*
X82394642Y-111762856D01*
X82394642Y-111762856D02*
X82251785Y-111834284D01*
X82251785Y-111834284D02*
X81680357Y-111834284D01*
X81680357Y-111834284D02*
X81537500Y-111762856D01*
X81537500Y-111762856D02*
X81466071Y-111619999D01*
X81466071Y-111619999D02*
X81466071Y-111334284D01*
X81466071Y-111334284D02*
X81537500Y-111191427D01*
X81537500Y-111191427D02*
X81680357Y-111119999D01*
X81680357Y-111119999D02*
X81823214Y-111119999D01*
X81823214Y-111119999D02*
X81966071Y-111834284D01*
X81466071Y-109719999D02*
X82466071Y-109362856D01*
X82466071Y-109362856D02*
X81466071Y-109005713D01*
X82466071Y-107648570D02*
X82466071Y-108505713D01*
X82466071Y-108077142D02*
X80966071Y-108077142D01*
X80966071Y-108077142D02*
X81180357Y-108219999D01*
X81180357Y-108219999D02*
X81323214Y-108362856D01*
X81323214Y-108362856D02*
X81394642Y-108505713D01*
X82323214Y-107005714D02*
X82394642Y-106934285D01*
X82394642Y-106934285D02*
X82466071Y-107005714D01*
X82466071Y-107005714D02*
X82394642Y-107077142D01*
X82394642Y-107077142D02*
X82323214Y-107005714D01*
X82323214Y-107005714D02*
X82466071Y-107005714D01*
X82466071Y-105505713D02*
X82466071Y-106362856D01*
X82466071Y-105934285D02*
X80966071Y-105934285D01*
X80966071Y-105934285D02*
X81180357Y-106077142D01*
X81180357Y-106077142D02*
X81323214Y-106219999D01*
X81323214Y-106219999D02*
X81394642Y-106362856D01*
D10*
X166030000Y-80677380D02*
X166030000Y-79677380D01*
X166030000Y-79677380D02*
X166363333Y-80391666D01*
X166363333Y-80391666D02*
X166696666Y-79677380D01*
X166696666Y-79677380D02*
X166696666Y-80677380D01*
X167172857Y-80153571D02*
X167506190Y-80153571D01*
X167649047Y-80677380D02*
X167172857Y-80677380D01*
X167172857Y-80677380D02*
X167172857Y-79677380D01*
X167172857Y-79677380D02*
X167649047Y-79677380D01*
X168077619Y-80677380D02*
X168077619Y-79677380D01*
X168077619Y-79677380D02*
X168410952Y-80391666D01*
X168410952Y-80391666D02*
X168744285Y-79677380D01*
X168744285Y-79677380D02*
X168744285Y-80677380D01*
X169172857Y-80629761D02*
X169315714Y-80677380D01*
X169315714Y-80677380D02*
X169553809Y-80677380D01*
X169553809Y-80677380D02*
X169649047Y-80629761D01*
X169649047Y-80629761D02*
X169696666Y-80582142D01*
X169696666Y-80582142D02*
X169744285Y-80486904D01*
X169744285Y-80486904D02*
X169744285Y-80391666D01*
X169744285Y-80391666D02*
X169696666Y-80296428D01*
X169696666Y-80296428D02*
X169649047Y-80248809D01*
X169649047Y-80248809D02*
X169553809Y-80201190D01*
X169553809Y-80201190D02*
X169363333Y-80153571D01*
X169363333Y-80153571D02*
X169268095Y-80105952D01*
X169268095Y-80105952D02*
X169220476Y-80058333D01*
X169220476Y-80058333D02*
X169172857Y-79963095D01*
X169172857Y-79963095D02*
X169172857Y-79867857D01*
X169172857Y-79867857D02*
X169220476Y-79772619D01*
X169220476Y-79772619D02*
X169268095Y-79725000D01*
X169268095Y-79725000D02*
X169363333Y-79677380D01*
X169363333Y-79677380D02*
X169601428Y-79677380D01*
X169601428Y-79677380D02*
X169744285Y-79725000D01*
X170772857Y-80677380D02*
X170772857Y-79677380D01*
X170772857Y-79677380D02*
X171010952Y-79677380D01*
X171010952Y-79677380D02*
X171153809Y-79725000D01*
X171153809Y-79725000D02*
X171249047Y-79820238D01*
X171249047Y-79820238D02*
X171296666Y-79915476D01*
X171296666Y-79915476D02*
X171344285Y-80105952D01*
X171344285Y-80105952D02*
X171344285Y-80248809D01*
X171344285Y-80248809D02*
X171296666Y-80439285D01*
X171296666Y-80439285D02*
X171249047Y-80534523D01*
X171249047Y-80534523D02*
X171153809Y-80629761D01*
X171153809Y-80629761D02*
X171010952Y-80677380D01*
X171010952Y-80677380D02*
X170772857Y-80677380D01*
X171772857Y-80677380D02*
X171772857Y-80010714D01*
X171772857Y-80201190D02*
X171820476Y-80105952D01*
X171820476Y-80105952D02*
X171868095Y-80058333D01*
X171868095Y-80058333D02*
X171963333Y-80010714D01*
X171963333Y-80010714D02*
X172058571Y-80010714D01*
X172391905Y-80677380D02*
X172391905Y-80010714D01*
X172391905Y-79677380D02*
X172344286Y-79725000D01*
X172344286Y-79725000D02*
X172391905Y-79772619D01*
X172391905Y-79772619D02*
X172439524Y-79725000D01*
X172439524Y-79725000D02*
X172391905Y-79677380D01*
X172391905Y-79677380D02*
X172391905Y-79772619D01*
X172772857Y-80010714D02*
X173010952Y-80677380D01*
X173010952Y-80677380D02*
X173249047Y-80010714D01*
X174010952Y-80629761D02*
X173915714Y-80677380D01*
X173915714Y-80677380D02*
X173725238Y-80677380D01*
X173725238Y-80677380D02*
X173630000Y-80629761D01*
X173630000Y-80629761D02*
X173582381Y-80534523D01*
X173582381Y-80534523D02*
X173582381Y-80153571D01*
X173582381Y-80153571D02*
X173630000Y-80058333D01*
X173630000Y-80058333D02*
X173725238Y-80010714D01*
X173725238Y-80010714D02*
X173915714Y-80010714D01*
X173915714Y-80010714D02*
X174010952Y-80058333D01*
X174010952Y-80058333D02*
X174058571Y-80153571D01*
X174058571Y-80153571D02*
X174058571Y-80248809D01*
X174058571Y-80248809D02*
X173582381Y-80344047D01*
X174487143Y-80677380D02*
X174487143Y-80010714D01*
X174487143Y-80201190D02*
X174534762Y-80105952D01*
X174534762Y-80105952D02*
X174582381Y-80058333D01*
X174582381Y-80058333D02*
X174677619Y-80010714D01*
X174677619Y-80010714D02*
X174772857Y-80010714D01*
D13*
X140300000Y-81407166D02*
X139900000Y-81407166D01*
X140100000Y-81407166D02*
X140100000Y-80707166D01*
X140100000Y-80707166D02*
X140033333Y-80807166D01*
X140033333Y-80807166D02*
X139966667Y-80873833D01*
X139966667Y-80873833D02*
X139900000Y-80907166D01*
D14*
X177057142Y-83736071D02*
X177057142Y-82236071D01*
X177057142Y-82236071D02*
X177414285Y-82236071D01*
X177414285Y-82236071D02*
X177628571Y-82307500D01*
X177628571Y-82307500D02*
X177771428Y-82450357D01*
X177771428Y-82450357D02*
X177842857Y-82593214D01*
X177842857Y-82593214D02*
X177914285Y-82878928D01*
X177914285Y-82878928D02*
X177914285Y-83093214D01*
X177914285Y-83093214D02*
X177842857Y-83378928D01*
X177842857Y-83378928D02*
X177771428Y-83521785D01*
X177771428Y-83521785D02*
X177628571Y-83664642D01*
X177628571Y-83664642D02*
X177414285Y-83736071D01*
X177414285Y-83736071D02*
X177057142Y-83736071D01*
X179200000Y-83736071D02*
X179200000Y-82950357D01*
X179200000Y-82950357D02*
X179128571Y-82807500D01*
X179128571Y-82807500D02*
X178985714Y-82736071D01*
X178985714Y-82736071D02*
X178700000Y-82736071D01*
X178700000Y-82736071D02*
X178557142Y-82807500D01*
X179200000Y-83664642D02*
X179057142Y-83736071D01*
X179057142Y-83736071D02*
X178700000Y-83736071D01*
X178700000Y-83736071D02*
X178557142Y-83664642D01*
X178557142Y-83664642D02*
X178485714Y-83521785D01*
X178485714Y-83521785D02*
X178485714Y-83378928D01*
X178485714Y-83378928D02*
X178557142Y-83236071D01*
X178557142Y-83236071D02*
X178700000Y-83164642D01*
X178700000Y-83164642D02*
X179057142Y-83164642D01*
X179057142Y-83164642D02*
X179200000Y-83093214D01*
X179914285Y-82736071D02*
X179914285Y-83736071D01*
X179914285Y-82878928D02*
X179985714Y-82807500D01*
X179985714Y-82807500D02*
X180128571Y-82736071D01*
X180128571Y-82736071D02*
X180342857Y-82736071D01*
X180342857Y-82736071D02*
X180485714Y-82807500D01*
X180485714Y-82807500D02*
X180557143Y-82950357D01*
X180557143Y-82950357D02*
X180557143Y-83736071D01*
X181914286Y-82736071D02*
X181914286Y-83950357D01*
X181914286Y-83950357D02*
X181842857Y-84093214D01*
X181842857Y-84093214D02*
X181771428Y-84164642D01*
X181771428Y-84164642D02*
X181628571Y-84236071D01*
X181628571Y-84236071D02*
X181414286Y-84236071D01*
X181414286Y-84236071D02*
X181271428Y-84164642D01*
X181914286Y-83664642D02*
X181771428Y-83736071D01*
X181771428Y-83736071D02*
X181485714Y-83736071D01*
X181485714Y-83736071D02*
X181342857Y-83664642D01*
X181342857Y-83664642D02*
X181271428Y-83593214D01*
X181271428Y-83593214D02*
X181200000Y-83450357D01*
X181200000Y-83450357D02*
X181200000Y-83021785D01*
X181200000Y-83021785D02*
X181271428Y-82878928D01*
X181271428Y-82878928D02*
X181342857Y-82807500D01*
X181342857Y-82807500D02*
X181485714Y-82736071D01*
X181485714Y-82736071D02*
X181771428Y-82736071D01*
X181771428Y-82736071D02*
X181914286Y-82807500D01*
X183200000Y-83664642D02*
X183057143Y-83736071D01*
X183057143Y-83736071D02*
X182771429Y-83736071D01*
X182771429Y-83736071D02*
X182628571Y-83664642D01*
X182628571Y-83664642D02*
X182557143Y-83521785D01*
X182557143Y-83521785D02*
X182557143Y-82950357D01*
X182557143Y-82950357D02*
X182628571Y-82807500D01*
X182628571Y-82807500D02*
X182771429Y-82736071D01*
X182771429Y-82736071D02*
X183057143Y-82736071D01*
X183057143Y-82736071D02*
X183200000Y-82807500D01*
X183200000Y-82807500D02*
X183271429Y-82950357D01*
X183271429Y-82950357D02*
X183271429Y-83093214D01*
X183271429Y-83093214D02*
X182557143Y-83236071D01*
X183914285Y-83736071D02*
X183914285Y-82736071D01*
X183914285Y-83021785D02*
X183985714Y-82878928D01*
X183985714Y-82878928D02*
X184057143Y-82807500D01*
X184057143Y-82807500D02*
X184200000Y-82736071D01*
X184200000Y-82736071D02*
X184342857Y-82736071D01*
X184842856Y-83593214D02*
X184914285Y-83664642D01*
X184914285Y-83664642D02*
X184842856Y-83736071D01*
X184842856Y-83736071D02*
X184771428Y-83664642D01*
X184771428Y-83664642D02*
X184842856Y-83593214D01*
X184842856Y-83593214D02*
X184842856Y-83736071D01*
X184842856Y-83164642D02*
X184771428Y-82307500D01*
X184771428Y-82307500D02*
X184842856Y-82236071D01*
X184842856Y-82236071D02*
X184914285Y-82307500D01*
X184914285Y-82307500D02*
X184842856Y-83164642D01*
X184842856Y-83164642D02*
X184842856Y-82236071D01*
X178450001Y-84808928D02*
X178521429Y-84737500D01*
X178521429Y-84737500D02*
X178664287Y-84666071D01*
X178664287Y-84666071D02*
X179021429Y-84666071D01*
X179021429Y-84666071D02*
X179164287Y-84737500D01*
X179164287Y-84737500D02*
X179235715Y-84808928D01*
X179235715Y-84808928D02*
X179307144Y-84951785D01*
X179307144Y-84951785D02*
X179307144Y-85094642D01*
X179307144Y-85094642D02*
X179235715Y-85308928D01*
X179235715Y-85308928D02*
X178378572Y-86166071D01*
X178378572Y-86166071D02*
X179307144Y-86166071D01*
X180235715Y-84666071D02*
X180378572Y-84666071D01*
X180378572Y-84666071D02*
X180521429Y-84737500D01*
X180521429Y-84737500D02*
X180592858Y-84808928D01*
X180592858Y-84808928D02*
X180664286Y-84951785D01*
X180664286Y-84951785D02*
X180735715Y-85237500D01*
X180735715Y-85237500D02*
X180735715Y-85594642D01*
X180735715Y-85594642D02*
X180664286Y-85880357D01*
X180664286Y-85880357D02*
X180592858Y-86023214D01*
X180592858Y-86023214D02*
X180521429Y-86094642D01*
X180521429Y-86094642D02*
X180378572Y-86166071D01*
X180378572Y-86166071D02*
X180235715Y-86166071D01*
X180235715Y-86166071D02*
X180092858Y-86094642D01*
X180092858Y-86094642D02*
X180021429Y-86023214D01*
X180021429Y-86023214D02*
X179950000Y-85880357D01*
X179950000Y-85880357D02*
X179878572Y-85594642D01*
X179878572Y-85594642D02*
X179878572Y-85237500D01*
X179878572Y-85237500D02*
X179950000Y-84951785D01*
X179950000Y-84951785D02*
X180021429Y-84808928D01*
X180021429Y-84808928D02*
X180092858Y-84737500D01*
X180092858Y-84737500D02*
X180235715Y-84666071D01*
X181664286Y-84666071D02*
X181807143Y-84666071D01*
X181807143Y-84666071D02*
X181950000Y-84737500D01*
X181950000Y-84737500D02*
X182021429Y-84808928D01*
X182021429Y-84808928D02*
X182092857Y-84951785D01*
X182092857Y-84951785D02*
X182164286Y-85237500D01*
X182164286Y-85237500D02*
X182164286Y-85594642D01*
X182164286Y-85594642D02*
X182092857Y-85880357D01*
X182092857Y-85880357D02*
X182021429Y-86023214D01*
X182021429Y-86023214D02*
X181950000Y-86094642D01*
X181950000Y-86094642D02*
X181807143Y-86166071D01*
X181807143Y-86166071D02*
X181664286Y-86166071D01*
X181664286Y-86166071D02*
X181521429Y-86094642D01*
X181521429Y-86094642D02*
X181450000Y-86023214D01*
X181450000Y-86023214D02*
X181378571Y-85880357D01*
X181378571Y-85880357D02*
X181307143Y-85594642D01*
X181307143Y-85594642D02*
X181307143Y-85237500D01*
X181307143Y-85237500D02*
X181378571Y-84951785D01*
X181378571Y-84951785D02*
X181450000Y-84808928D01*
X181450000Y-84808928D02*
X181521429Y-84737500D01*
X181521429Y-84737500D02*
X181664286Y-84666071D01*
X182592857Y-84666071D02*
X183092857Y-86166071D01*
X183092857Y-86166071D02*
X183592857Y-84666071D01*
D10*
X196915714Y-83097380D02*
X196344286Y-83097380D01*
X196630000Y-83097380D02*
X196630000Y-82097380D01*
X196630000Y-82097380D02*
X196534762Y-82240238D01*
X196534762Y-82240238D02*
X196439524Y-82335476D01*
X196439524Y-82335476D02*
X196344286Y-82383095D01*
X98576190Y-141173571D02*
X98909523Y-141173571D01*
X99052380Y-141697380D02*
X98576190Y-141697380D01*
X98576190Y-141697380D02*
X98576190Y-140697380D01*
X98576190Y-140697380D02*
X99052380Y-140697380D01*
X99480952Y-141697380D02*
X99480952Y-140697380D01*
X99480952Y-140697380D02*
X100052380Y-141697380D01*
X100052380Y-141697380D02*
X100052380Y-140697380D01*
X100480952Y-141411666D02*
X100957142Y-141411666D01*
X100385714Y-141697380D02*
X100719047Y-140697380D01*
X100719047Y-140697380D02*
X101052380Y-141697380D01*
X101719047Y-141173571D02*
X101861904Y-141221190D01*
X101861904Y-141221190D02*
X101909523Y-141268809D01*
X101909523Y-141268809D02*
X101957142Y-141364047D01*
X101957142Y-141364047D02*
X101957142Y-141506904D01*
X101957142Y-141506904D02*
X101909523Y-141602142D01*
X101909523Y-141602142D02*
X101861904Y-141649761D01*
X101861904Y-141649761D02*
X101766666Y-141697380D01*
X101766666Y-141697380D02*
X101385714Y-141697380D01*
X101385714Y-141697380D02*
X101385714Y-140697380D01*
X101385714Y-140697380D02*
X101719047Y-140697380D01*
X101719047Y-140697380D02*
X101814285Y-140745000D01*
X101814285Y-140745000D02*
X101861904Y-140792619D01*
X101861904Y-140792619D02*
X101909523Y-140887857D01*
X101909523Y-140887857D02*
X101909523Y-140983095D01*
X101909523Y-140983095D02*
X101861904Y-141078333D01*
X101861904Y-141078333D02*
X101814285Y-141125952D01*
X101814285Y-141125952D02*
X101719047Y-141173571D01*
X101719047Y-141173571D02*
X101385714Y-141173571D01*
X102861904Y-141697380D02*
X102385714Y-141697380D01*
X102385714Y-141697380D02*
X102385714Y-140697380D01*
X103195238Y-141173571D02*
X103528571Y-141173571D01*
X103671428Y-141697380D02*
X103195238Y-141697380D01*
X103195238Y-141697380D02*
X103195238Y-140697380D01*
X103195238Y-140697380D02*
X103671428Y-140697380D01*
X100648095Y-151085000D02*
X100552857Y-151037380D01*
X100552857Y-151037380D02*
X100410000Y-151037380D01*
X100410000Y-151037380D02*
X100267143Y-151085000D01*
X100267143Y-151085000D02*
X100171905Y-151180238D01*
X100171905Y-151180238D02*
X100124286Y-151275476D01*
X100124286Y-151275476D02*
X100076667Y-151465952D01*
X100076667Y-151465952D02*
X100076667Y-151608809D01*
X100076667Y-151608809D02*
X100124286Y-151799285D01*
X100124286Y-151799285D02*
X100171905Y-151894523D01*
X100171905Y-151894523D02*
X100267143Y-151989761D01*
X100267143Y-151989761D02*
X100410000Y-152037380D01*
X100410000Y-152037380D02*
X100505238Y-152037380D01*
X100505238Y-152037380D02*
X100648095Y-151989761D01*
X100648095Y-151989761D02*
X100695714Y-151942142D01*
X100695714Y-151942142D02*
X100695714Y-151608809D01*
X100695714Y-151608809D02*
X100505238Y-151608809D01*
X101124286Y-152037380D02*
X101124286Y-151037380D01*
X101124286Y-151037380D02*
X101695714Y-152037380D01*
X101695714Y-152037380D02*
X101695714Y-151037380D01*
X102171905Y-152037380D02*
X102171905Y-151037380D01*
X102171905Y-151037380D02*
X102410000Y-151037380D01*
X102410000Y-151037380D02*
X102552857Y-151085000D01*
X102552857Y-151085000D02*
X102648095Y-151180238D01*
X102648095Y-151180238D02*
X102695714Y-151275476D01*
X102695714Y-151275476D02*
X102743333Y-151465952D01*
X102743333Y-151465952D02*
X102743333Y-151608809D01*
X102743333Y-151608809D02*
X102695714Y-151799285D01*
X102695714Y-151799285D02*
X102648095Y-151894523D01*
X102648095Y-151894523D02*
X102552857Y-151989761D01*
X102552857Y-151989761D02*
X102410000Y-152037380D01*
X102410000Y-152037380D02*
X102171905Y-152037380D01*
X125758095Y-151245000D02*
X125662857Y-151197380D01*
X125662857Y-151197380D02*
X125520000Y-151197380D01*
X125520000Y-151197380D02*
X125377143Y-151245000D01*
X125377143Y-151245000D02*
X125281905Y-151340238D01*
X125281905Y-151340238D02*
X125234286Y-151435476D01*
X125234286Y-151435476D02*
X125186667Y-151625952D01*
X125186667Y-151625952D02*
X125186667Y-151768809D01*
X125186667Y-151768809D02*
X125234286Y-151959285D01*
X125234286Y-151959285D02*
X125281905Y-152054523D01*
X125281905Y-152054523D02*
X125377143Y-152149761D01*
X125377143Y-152149761D02*
X125520000Y-152197380D01*
X125520000Y-152197380D02*
X125615238Y-152197380D01*
X125615238Y-152197380D02*
X125758095Y-152149761D01*
X125758095Y-152149761D02*
X125805714Y-152102142D01*
X125805714Y-152102142D02*
X125805714Y-151768809D01*
X125805714Y-151768809D02*
X125615238Y-151768809D01*
X126234286Y-152197380D02*
X126234286Y-151197380D01*
X126234286Y-151197380D02*
X126805714Y-152197380D01*
X126805714Y-152197380D02*
X126805714Y-151197380D01*
X127281905Y-152197380D02*
X127281905Y-151197380D01*
X127281905Y-151197380D02*
X127520000Y-151197380D01*
X127520000Y-151197380D02*
X127662857Y-151245000D01*
X127662857Y-151245000D02*
X127758095Y-151340238D01*
X127758095Y-151340238D02*
X127805714Y-151435476D01*
X127805714Y-151435476D02*
X127853333Y-151625952D01*
X127853333Y-151625952D02*
X127853333Y-151768809D01*
X127853333Y-151768809D02*
X127805714Y-151959285D01*
X127805714Y-151959285D02*
X127758095Y-152054523D01*
X127758095Y-152054523D02*
X127662857Y-152149761D01*
X127662857Y-152149761D02*
X127520000Y-152197380D01*
X127520000Y-152197380D02*
X127281905Y-152197380D01*
D11*
X196236190Y-103277380D02*
X196902856Y-104277380D01*
X196902856Y-103277380D02*
X196236190Y-104277380D01*
X197836190Y-103991666D02*
X198312380Y-103991666D01*
X197740952Y-104277380D02*
X198074285Y-103277380D01*
X198074285Y-103277380D02*
X198407618Y-104277380D01*
X198740952Y-103610714D02*
X198740952Y-104277380D01*
X198740952Y-103705952D02*
X198788571Y-103658333D01*
X198788571Y-103658333D02*
X198883809Y-103610714D01*
X198883809Y-103610714D02*
X199026666Y-103610714D01*
X199026666Y-103610714D02*
X199121904Y-103658333D01*
X199121904Y-103658333D02*
X199169523Y-103753571D01*
X199169523Y-103753571D02*
X199169523Y-104277380D01*
X200074285Y-104277380D02*
X200074285Y-103753571D01*
X200074285Y-103753571D02*
X200026666Y-103658333D01*
X200026666Y-103658333D02*
X199931428Y-103610714D01*
X199931428Y-103610714D02*
X199740952Y-103610714D01*
X199740952Y-103610714D02*
X199645714Y-103658333D01*
X200074285Y-104229761D02*
X199979047Y-104277380D01*
X199979047Y-104277380D02*
X199740952Y-104277380D01*
X199740952Y-104277380D02*
X199645714Y-104229761D01*
X199645714Y-104229761D02*
X199598095Y-104134523D01*
X199598095Y-104134523D02*
X199598095Y-104039285D01*
X199598095Y-104039285D02*
X199645714Y-103944047D01*
X199645714Y-103944047D02*
X199740952Y-103896428D01*
X199740952Y-103896428D02*
X199979047Y-103896428D01*
X199979047Y-103896428D02*
X200074285Y-103848809D01*
X200693333Y-104277380D02*
X200598095Y-104229761D01*
X200598095Y-104229761D02*
X200550476Y-104134523D01*
X200550476Y-104134523D02*
X200550476Y-103277380D01*
X201217143Y-104277380D02*
X201121905Y-104229761D01*
X201121905Y-104229761D02*
X201074286Y-104182142D01*
X201074286Y-104182142D02*
X201026667Y-104086904D01*
X201026667Y-104086904D02*
X201026667Y-103801190D01*
X201026667Y-103801190D02*
X201074286Y-103705952D01*
X201074286Y-103705952D02*
X201121905Y-103658333D01*
X201121905Y-103658333D02*
X201217143Y-103610714D01*
X201217143Y-103610714D02*
X201360000Y-103610714D01*
X201360000Y-103610714D02*
X201455238Y-103658333D01*
X201455238Y-103658333D02*
X201502857Y-103705952D01*
X201502857Y-103705952D02*
X201550476Y-103801190D01*
X201550476Y-103801190D02*
X201550476Y-104086904D01*
X201550476Y-104086904D02*
X201502857Y-104182142D01*
X201502857Y-104182142D02*
X201455238Y-104229761D01*
X201455238Y-104229761D02*
X201360000Y-104277380D01*
X201360000Y-104277380D02*
X201217143Y-104277380D01*
X202407619Y-103610714D02*
X202407619Y-104420238D01*
X202407619Y-104420238D02*
X202360000Y-104515476D01*
X202360000Y-104515476D02*
X202312381Y-104563095D01*
X202312381Y-104563095D02*
X202217143Y-104610714D01*
X202217143Y-104610714D02*
X202074286Y-104610714D01*
X202074286Y-104610714D02*
X201979048Y-104563095D01*
X202407619Y-104229761D02*
X202312381Y-104277380D01*
X202312381Y-104277380D02*
X202121905Y-104277380D01*
X202121905Y-104277380D02*
X202026667Y-104229761D01*
X202026667Y-104229761D02*
X201979048Y-104182142D01*
X201979048Y-104182142D02*
X201931429Y-104086904D01*
X201931429Y-104086904D02*
X201931429Y-103801190D01*
X201931429Y-103801190D02*
X201979048Y-103705952D01*
X201979048Y-103705952D02*
X202026667Y-103658333D01*
X202026667Y-103658333D02*
X202121905Y-103610714D01*
X202121905Y-103610714D02*
X202312381Y-103610714D01*
X202312381Y-103610714D02*
X202407619Y-103658333D01*
X203483810Y-104277380D02*
X203483810Y-103277380D01*
X203960000Y-103610714D02*
X203960000Y-104277380D01*
X203960000Y-103705952D02*
X204007619Y-103658333D01*
X204007619Y-103658333D02*
X204102857Y-103610714D01*
X204102857Y-103610714D02*
X204245714Y-103610714D01*
X204245714Y-103610714D02*
X204340952Y-103658333D01*
X204340952Y-103658333D02*
X204388571Y-103753571D01*
X204388571Y-103753571D02*
X204388571Y-104277380D01*
D10*
X171764286Y-143069761D02*
X171907143Y-143117380D01*
X171907143Y-143117380D02*
X172145238Y-143117380D01*
X172145238Y-143117380D02*
X172240476Y-143069761D01*
X172240476Y-143069761D02*
X172288095Y-143022142D01*
X172288095Y-143022142D02*
X172335714Y-142926904D01*
X172335714Y-142926904D02*
X172335714Y-142831666D01*
X172335714Y-142831666D02*
X172288095Y-142736428D01*
X172288095Y-142736428D02*
X172240476Y-142688809D01*
X172240476Y-142688809D02*
X172145238Y-142641190D01*
X172145238Y-142641190D02*
X171954762Y-142593571D01*
X171954762Y-142593571D02*
X171859524Y-142545952D01*
X171859524Y-142545952D02*
X171811905Y-142498333D01*
X171811905Y-142498333D02*
X171764286Y-142403095D01*
X171764286Y-142403095D02*
X171764286Y-142307857D01*
X171764286Y-142307857D02*
X171811905Y-142212619D01*
X171811905Y-142212619D02*
X171859524Y-142165000D01*
X171859524Y-142165000D02*
X171954762Y-142117380D01*
X171954762Y-142117380D02*
X172192857Y-142117380D01*
X172192857Y-142117380D02*
X172335714Y-142165000D01*
X172764286Y-143117380D02*
X172764286Y-142117380D01*
X172764286Y-142117380D02*
X173097619Y-142831666D01*
X173097619Y-142831666D02*
X173430952Y-142117380D01*
X173430952Y-142117380D02*
X173430952Y-143117380D01*
X173859524Y-142831666D02*
X174335714Y-142831666D01*
X173764286Y-143117380D02*
X174097619Y-142117380D01*
X174097619Y-142117380D02*
X174430952Y-143117380D01*
X166425714Y-115447380D02*
X166425714Y-114447380D01*
X166425714Y-114447380D02*
X166759047Y-115161666D01*
X166759047Y-115161666D02*
X167092380Y-114447380D01*
X167092380Y-114447380D02*
X167092380Y-115447380D01*
X167568571Y-114923571D02*
X167901904Y-114923571D01*
X168044761Y-115447380D02*
X167568571Y-115447380D01*
X167568571Y-115447380D02*
X167568571Y-114447380D01*
X167568571Y-114447380D02*
X168044761Y-114447380D01*
X168473333Y-115447380D02*
X168473333Y-114447380D01*
X168473333Y-114447380D02*
X168806666Y-115161666D01*
X168806666Y-115161666D02*
X169139999Y-114447380D01*
X169139999Y-114447380D02*
X169139999Y-115447380D01*
X169568571Y-115399761D02*
X169711428Y-115447380D01*
X169711428Y-115447380D02*
X169949523Y-115447380D01*
X169949523Y-115447380D02*
X170044761Y-115399761D01*
X170044761Y-115399761D02*
X170092380Y-115352142D01*
X170092380Y-115352142D02*
X170139999Y-115256904D01*
X170139999Y-115256904D02*
X170139999Y-115161666D01*
X170139999Y-115161666D02*
X170092380Y-115066428D01*
X170092380Y-115066428D02*
X170044761Y-115018809D01*
X170044761Y-115018809D02*
X169949523Y-114971190D01*
X169949523Y-114971190D02*
X169759047Y-114923571D01*
X169759047Y-114923571D02*
X169663809Y-114875952D01*
X169663809Y-114875952D02*
X169616190Y-114828333D01*
X169616190Y-114828333D02*
X169568571Y-114733095D01*
X169568571Y-114733095D02*
X169568571Y-114637857D01*
X169568571Y-114637857D02*
X169616190Y-114542619D01*
X169616190Y-114542619D02*
X169663809Y-114495000D01*
X169663809Y-114495000D02*
X169759047Y-114447380D01*
X169759047Y-114447380D02*
X169997142Y-114447380D01*
X169997142Y-114447380D02*
X170139999Y-114495000D01*
X171120952Y-115161666D02*
X171597142Y-115161666D01*
X171025714Y-115447380D02*
X171359047Y-114447380D01*
X171359047Y-114447380D02*
X171692380Y-115447380D01*
X172025714Y-114780714D02*
X172025714Y-115447380D01*
X172025714Y-114875952D02*
X172073333Y-114828333D01*
X172073333Y-114828333D02*
X172168571Y-114780714D01*
X172168571Y-114780714D02*
X172311428Y-114780714D01*
X172311428Y-114780714D02*
X172406666Y-114828333D01*
X172406666Y-114828333D02*
X172454285Y-114923571D01*
X172454285Y-114923571D02*
X172454285Y-115447380D01*
X173359047Y-115447380D02*
X173359047Y-114923571D01*
X173359047Y-114923571D02*
X173311428Y-114828333D01*
X173311428Y-114828333D02*
X173216190Y-114780714D01*
X173216190Y-114780714D02*
X173025714Y-114780714D01*
X173025714Y-114780714D02*
X172930476Y-114828333D01*
X173359047Y-115399761D02*
X173263809Y-115447380D01*
X173263809Y-115447380D02*
X173025714Y-115447380D01*
X173025714Y-115447380D02*
X172930476Y-115399761D01*
X172930476Y-115399761D02*
X172882857Y-115304523D01*
X172882857Y-115304523D02*
X172882857Y-115209285D01*
X172882857Y-115209285D02*
X172930476Y-115114047D01*
X172930476Y-115114047D02*
X173025714Y-115066428D01*
X173025714Y-115066428D02*
X173263809Y-115066428D01*
X173263809Y-115066428D02*
X173359047Y-115018809D01*
X173978095Y-115447380D02*
X173882857Y-115399761D01*
X173882857Y-115399761D02*
X173835238Y-115304523D01*
X173835238Y-115304523D02*
X173835238Y-114447380D01*
X174501905Y-115447380D02*
X174406667Y-115399761D01*
X174406667Y-115399761D02*
X174359048Y-115352142D01*
X174359048Y-115352142D02*
X174311429Y-115256904D01*
X174311429Y-115256904D02*
X174311429Y-114971190D01*
X174311429Y-114971190D02*
X174359048Y-114875952D01*
X174359048Y-114875952D02*
X174406667Y-114828333D01*
X174406667Y-114828333D02*
X174501905Y-114780714D01*
X174501905Y-114780714D02*
X174644762Y-114780714D01*
X174644762Y-114780714D02*
X174740000Y-114828333D01*
X174740000Y-114828333D02*
X174787619Y-114875952D01*
X174787619Y-114875952D02*
X174835238Y-114971190D01*
X174835238Y-114971190D02*
X174835238Y-115256904D01*
X174835238Y-115256904D02*
X174787619Y-115352142D01*
X174787619Y-115352142D02*
X174740000Y-115399761D01*
X174740000Y-115399761D02*
X174644762Y-115447380D01*
X174644762Y-115447380D02*
X174501905Y-115447380D01*
X175692381Y-114780714D02*
X175692381Y-115590238D01*
X175692381Y-115590238D02*
X175644762Y-115685476D01*
X175644762Y-115685476D02*
X175597143Y-115733095D01*
X175597143Y-115733095D02*
X175501905Y-115780714D01*
X175501905Y-115780714D02*
X175359048Y-115780714D01*
X175359048Y-115780714D02*
X175263810Y-115733095D01*
X175692381Y-115399761D02*
X175597143Y-115447380D01*
X175597143Y-115447380D02*
X175406667Y-115447380D01*
X175406667Y-115447380D02*
X175311429Y-115399761D01*
X175311429Y-115399761D02*
X175263810Y-115352142D01*
X175263810Y-115352142D02*
X175216191Y-115256904D01*
X175216191Y-115256904D02*
X175216191Y-114971190D01*
X175216191Y-114971190D02*
X175263810Y-114875952D01*
X175263810Y-114875952D02*
X175311429Y-114828333D01*
X175311429Y-114828333D02*
X175406667Y-114780714D01*
X175406667Y-114780714D02*
X175597143Y-114780714D01*
X175597143Y-114780714D02*
X175692381Y-114828333D01*
X176768572Y-115447380D02*
X176768572Y-114447380D01*
X177244762Y-114780714D02*
X177244762Y-115447380D01*
X177244762Y-114875952D02*
X177292381Y-114828333D01*
X177292381Y-114828333D02*
X177387619Y-114780714D01*
X177387619Y-114780714D02*
X177530476Y-114780714D01*
X177530476Y-114780714D02*
X177625714Y-114828333D01*
X177625714Y-114828333D02*
X177673333Y-114923571D01*
X177673333Y-114923571D02*
X177673333Y-115447380D01*
X178149524Y-114780714D02*
X178149524Y-115780714D01*
X178149524Y-114828333D02*
X178244762Y-114780714D01*
X178244762Y-114780714D02*
X178435238Y-114780714D01*
X178435238Y-114780714D02*
X178530476Y-114828333D01*
X178530476Y-114828333D02*
X178578095Y-114875952D01*
X178578095Y-114875952D02*
X178625714Y-114971190D01*
X178625714Y-114971190D02*
X178625714Y-115256904D01*
X178625714Y-115256904D02*
X178578095Y-115352142D01*
X178578095Y-115352142D02*
X178530476Y-115399761D01*
X178530476Y-115399761D02*
X178435238Y-115447380D01*
X178435238Y-115447380D02*
X178244762Y-115447380D01*
X178244762Y-115447380D02*
X178149524Y-115399761D01*
X179482857Y-114780714D02*
X179482857Y-115447380D01*
X179054286Y-114780714D02*
X179054286Y-115304523D01*
X179054286Y-115304523D02*
X179101905Y-115399761D01*
X179101905Y-115399761D02*
X179197143Y-115447380D01*
X179197143Y-115447380D02*
X179340000Y-115447380D01*
X179340000Y-115447380D02*
X179435238Y-115399761D01*
X179435238Y-115399761D02*
X179482857Y-115352142D01*
X179816191Y-114780714D02*
X180197143Y-114780714D01*
X179959048Y-114447380D02*
X179959048Y-115304523D01*
X179959048Y-115304523D02*
X180006667Y-115399761D01*
X180006667Y-115399761D02*
X180101905Y-115447380D01*
X180101905Y-115447380D02*
X180197143Y-115447380D01*
X168844761Y-117067380D02*
X168844761Y-116067380D01*
X168844761Y-116067380D02*
X169082856Y-116067380D01*
X169082856Y-116067380D02*
X169225713Y-116115000D01*
X169225713Y-116115000D02*
X169320951Y-116210238D01*
X169320951Y-116210238D02*
X169368570Y-116305476D01*
X169368570Y-116305476D02*
X169416189Y-116495952D01*
X169416189Y-116495952D02*
X169416189Y-116638809D01*
X169416189Y-116638809D02*
X169368570Y-116829285D01*
X169368570Y-116829285D02*
X169320951Y-116924523D01*
X169320951Y-116924523D02*
X169225713Y-117019761D01*
X169225713Y-117019761D02*
X169082856Y-117067380D01*
X169082856Y-117067380D02*
X168844761Y-117067380D01*
X169844761Y-117067380D02*
X169844761Y-116400714D01*
X169844761Y-116591190D02*
X169892380Y-116495952D01*
X169892380Y-116495952D02*
X169939999Y-116448333D01*
X169939999Y-116448333D02*
X170035237Y-116400714D01*
X170035237Y-116400714D02*
X170130475Y-116400714D01*
X170463809Y-117067380D02*
X170463809Y-116400714D01*
X170463809Y-116067380D02*
X170416190Y-116115000D01*
X170416190Y-116115000D02*
X170463809Y-116162619D01*
X170463809Y-116162619D02*
X170511428Y-116115000D01*
X170511428Y-116115000D02*
X170463809Y-116067380D01*
X170463809Y-116067380D02*
X170463809Y-116162619D01*
X170844761Y-116400714D02*
X171082856Y-117067380D01*
X171082856Y-117067380D02*
X171320951Y-116400714D01*
X172082856Y-117019761D02*
X171987618Y-117067380D01*
X171987618Y-117067380D02*
X171797142Y-117067380D01*
X171797142Y-117067380D02*
X171701904Y-117019761D01*
X171701904Y-117019761D02*
X171654285Y-116924523D01*
X171654285Y-116924523D02*
X171654285Y-116543571D01*
X171654285Y-116543571D02*
X171701904Y-116448333D01*
X171701904Y-116448333D02*
X171797142Y-116400714D01*
X171797142Y-116400714D02*
X171987618Y-116400714D01*
X171987618Y-116400714D02*
X172082856Y-116448333D01*
X172082856Y-116448333D02*
X172130475Y-116543571D01*
X172130475Y-116543571D02*
X172130475Y-116638809D01*
X172130475Y-116638809D02*
X171654285Y-116734047D01*
X172559047Y-117067380D02*
X172559047Y-116400714D01*
X172559047Y-116591190D02*
X172606666Y-116495952D01*
X172606666Y-116495952D02*
X172654285Y-116448333D01*
X172654285Y-116448333D02*
X172749523Y-116400714D01*
X172749523Y-116400714D02*
X172844761Y-116400714D01*
X174111428Y-116543571D02*
X174254285Y-116591190D01*
X174254285Y-116591190D02*
X174301904Y-116638809D01*
X174301904Y-116638809D02*
X174349523Y-116734047D01*
X174349523Y-116734047D02*
X174349523Y-116876904D01*
X174349523Y-116876904D02*
X174301904Y-116972142D01*
X174301904Y-116972142D02*
X174254285Y-117019761D01*
X174254285Y-117019761D02*
X174159047Y-117067380D01*
X174159047Y-117067380D02*
X173778095Y-117067380D01*
X173778095Y-117067380D02*
X173778095Y-116067380D01*
X173778095Y-116067380D02*
X174111428Y-116067380D01*
X174111428Y-116067380D02*
X174206666Y-116115000D01*
X174206666Y-116115000D02*
X174254285Y-116162619D01*
X174254285Y-116162619D02*
X174301904Y-116257857D01*
X174301904Y-116257857D02*
X174301904Y-116353095D01*
X174301904Y-116353095D02*
X174254285Y-116448333D01*
X174254285Y-116448333D02*
X174206666Y-116495952D01*
X174206666Y-116495952D02*
X174111428Y-116543571D01*
X174111428Y-116543571D02*
X173778095Y-116543571D01*
X174920952Y-117067380D02*
X174825714Y-117019761D01*
X174825714Y-117019761D02*
X174778095Y-116972142D01*
X174778095Y-116972142D02*
X174730476Y-116876904D01*
X174730476Y-116876904D02*
X174730476Y-116591190D01*
X174730476Y-116591190D02*
X174778095Y-116495952D01*
X174778095Y-116495952D02*
X174825714Y-116448333D01*
X174825714Y-116448333D02*
X174920952Y-116400714D01*
X174920952Y-116400714D02*
X175063809Y-116400714D01*
X175063809Y-116400714D02*
X175159047Y-116448333D01*
X175159047Y-116448333D02*
X175206666Y-116495952D01*
X175206666Y-116495952D02*
X175254285Y-116591190D01*
X175254285Y-116591190D02*
X175254285Y-116876904D01*
X175254285Y-116876904D02*
X175206666Y-116972142D01*
X175206666Y-116972142D02*
X175159047Y-117019761D01*
X175159047Y-117019761D02*
X175063809Y-117067380D01*
X175063809Y-117067380D02*
X174920952Y-117067380D01*
X176111428Y-117067380D02*
X176111428Y-116543571D01*
X176111428Y-116543571D02*
X176063809Y-116448333D01*
X176063809Y-116448333D02*
X175968571Y-116400714D01*
X175968571Y-116400714D02*
X175778095Y-116400714D01*
X175778095Y-116400714D02*
X175682857Y-116448333D01*
X176111428Y-117019761D02*
X176016190Y-117067380D01*
X176016190Y-117067380D02*
X175778095Y-117067380D01*
X175778095Y-117067380D02*
X175682857Y-117019761D01*
X175682857Y-117019761D02*
X175635238Y-116924523D01*
X175635238Y-116924523D02*
X175635238Y-116829285D01*
X175635238Y-116829285D02*
X175682857Y-116734047D01*
X175682857Y-116734047D02*
X175778095Y-116686428D01*
X175778095Y-116686428D02*
X176016190Y-116686428D01*
X176016190Y-116686428D02*
X176111428Y-116638809D01*
X176587619Y-117067380D02*
X176587619Y-116400714D01*
X176587619Y-116591190D02*
X176635238Y-116495952D01*
X176635238Y-116495952D02*
X176682857Y-116448333D01*
X176682857Y-116448333D02*
X176778095Y-116400714D01*
X176778095Y-116400714D02*
X176873333Y-116400714D01*
X177635238Y-117067380D02*
X177635238Y-116067380D01*
X177635238Y-117019761D02*
X177540000Y-117067380D01*
X177540000Y-117067380D02*
X177349524Y-117067380D01*
X177349524Y-117067380D02*
X177254286Y-117019761D01*
X177254286Y-117019761D02*
X177206667Y-116972142D01*
X177206667Y-116972142D02*
X177159048Y-116876904D01*
X177159048Y-116876904D02*
X177159048Y-116591190D01*
X177159048Y-116591190D02*
X177206667Y-116495952D01*
X177206667Y-116495952D02*
X177254286Y-116448333D01*
X177254286Y-116448333D02*
X177349524Y-116400714D01*
X177349524Y-116400714D02*
X177540000Y-116400714D01*
X177540000Y-116400714D02*
X177635238Y-116448333D01*
X159921428Y-150097380D02*
X160588094Y-151097380D01*
X160588094Y-150097380D02*
X159921428Y-151097380D01*
X160730952Y-151192619D02*
X161492856Y-151192619D01*
X162064285Y-150573571D02*
X161730952Y-150573571D01*
X161730952Y-151097380D02*
X161730952Y-150097380D01*
X161730952Y-150097380D02*
X162207142Y-150097380D01*
X162588095Y-151097380D02*
X162588095Y-150430714D01*
X162588095Y-150097380D02*
X162540476Y-150145000D01*
X162540476Y-150145000D02*
X162588095Y-150192619D01*
X162588095Y-150192619D02*
X162635714Y-150145000D01*
X162635714Y-150145000D02*
X162588095Y-150097380D01*
X162588095Y-150097380D02*
X162588095Y-150192619D01*
X163207142Y-151097380D02*
X163111904Y-151049761D01*
X163111904Y-151049761D02*
X163064285Y-150954523D01*
X163064285Y-150954523D02*
X163064285Y-150097380D01*
X163445238Y-150430714D02*
X163826190Y-150430714D01*
X163588095Y-150097380D02*
X163588095Y-150954523D01*
X163588095Y-150954523D02*
X163635714Y-151049761D01*
X163635714Y-151049761D02*
X163730952Y-151097380D01*
X163730952Y-151097380D02*
X163826190Y-151097380D01*
X123896190Y-141243571D02*
X124229523Y-141243571D01*
X124372380Y-141767380D02*
X123896190Y-141767380D01*
X123896190Y-141767380D02*
X123896190Y-140767380D01*
X123896190Y-140767380D02*
X124372380Y-140767380D01*
X124800952Y-141767380D02*
X124800952Y-140767380D01*
X124800952Y-140767380D02*
X125372380Y-141767380D01*
X125372380Y-141767380D02*
X125372380Y-140767380D01*
X125800952Y-141481666D02*
X126277142Y-141481666D01*
X125705714Y-141767380D02*
X126039047Y-140767380D01*
X126039047Y-140767380D02*
X126372380Y-141767380D01*
X127039047Y-141243571D02*
X127181904Y-141291190D01*
X127181904Y-141291190D02*
X127229523Y-141338809D01*
X127229523Y-141338809D02*
X127277142Y-141434047D01*
X127277142Y-141434047D02*
X127277142Y-141576904D01*
X127277142Y-141576904D02*
X127229523Y-141672142D01*
X127229523Y-141672142D02*
X127181904Y-141719761D01*
X127181904Y-141719761D02*
X127086666Y-141767380D01*
X127086666Y-141767380D02*
X126705714Y-141767380D01*
X126705714Y-141767380D02*
X126705714Y-140767380D01*
X126705714Y-140767380D02*
X127039047Y-140767380D01*
X127039047Y-140767380D02*
X127134285Y-140815000D01*
X127134285Y-140815000D02*
X127181904Y-140862619D01*
X127181904Y-140862619D02*
X127229523Y-140957857D01*
X127229523Y-140957857D02*
X127229523Y-141053095D01*
X127229523Y-141053095D02*
X127181904Y-141148333D01*
X127181904Y-141148333D02*
X127134285Y-141195952D01*
X127134285Y-141195952D02*
X127039047Y-141243571D01*
X127039047Y-141243571D02*
X126705714Y-141243571D01*
X128181904Y-141767380D02*
X127705714Y-141767380D01*
X127705714Y-141767380D02*
X127705714Y-140767380D01*
X128515238Y-141243571D02*
X128848571Y-141243571D01*
X128991428Y-141767380D02*
X128515238Y-141767380D01*
X128515238Y-141767380D02*
X128515238Y-140767380D01*
X128515238Y-140767380D02*
X128991428Y-140767380D01*
X197149523Y-139727380D02*
X196578095Y-139727380D01*
X196863809Y-139727380D02*
X196863809Y-138727380D01*
X196863809Y-138727380D02*
X196768571Y-138870238D01*
X196768571Y-138870238D02*
X196673333Y-138965476D01*
X196673333Y-138965476D02*
X196578095Y-139013095D01*
X197768571Y-138727380D02*
X197863809Y-138727380D01*
X197863809Y-138727380D02*
X197959047Y-138775000D01*
X197959047Y-138775000D02*
X198006666Y-138822619D01*
X198006666Y-138822619D02*
X198054285Y-138917857D01*
X198054285Y-138917857D02*
X198101904Y-139108333D01*
X198101904Y-139108333D02*
X198101904Y-139346428D01*
X198101904Y-139346428D02*
X198054285Y-139536904D01*
X198054285Y-139536904D02*
X198006666Y-139632142D01*
X198006666Y-139632142D02*
X197959047Y-139679761D01*
X197959047Y-139679761D02*
X197863809Y-139727380D01*
X197863809Y-139727380D02*
X197768571Y-139727380D01*
X197768571Y-139727380D02*
X197673333Y-139679761D01*
X197673333Y-139679761D02*
X197625714Y-139632142D01*
X197625714Y-139632142D02*
X197578095Y-139536904D01*
X197578095Y-139536904D02*
X197530476Y-139346428D01*
X197530476Y-139346428D02*
X197530476Y-139108333D01*
X197530476Y-139108333D02*
X197578095Y-138917857D01*
X197578095Y-138917857D02*
X197625714Y-138822619D01*
X197625714Y-138822619D02*
X197673333Y-138775000D01*
X197673333Y-138775000D02*
X197768571Y-138727380D01*
X187359523Y-85287380D02*
X186788095Y-85287380D01*
X187073809Y-85287380D02*
X187073809Y-84287380D01*
X187073809Y-84287380D02*
X186978571Y-84430238D01*
X186978571Y-84430238D02*
X186883333Y-84525476D01*
X186883333Y-84525476D02*
X186788095Y-84573095D01*
X187978571Y-84287380D02*
X188073809Y-84287380D01*
X188073809Y-84287380D02*
X188169047Y-84335000D01*
X188169047Y-84335000D02*
X188216666Y-84382619D01*
X188216666Y-84382619D02*
X188264285Y-84477857D01*
X188264285Y-84477857D02*
X188311904Y-84668333D01*
X188311904Y-84668333D02*
X188311904Y-84906428D01*
X188311904Y-84906428D02*
X188264285Y-85096904D01*
X188264285Y-85096904D02*
X188216666Y-85192142D01*
X188216666Y-85192142D02*
X188169047Y-85239761D01*
X188169047Y-85239761D02*
X188073809Y-85287380D01*
X188073809Y-85287380D02*
X187978571Y-85287380D01*
X187978571Y-85287380D02*
X187883333Y-85239761D01*
X187883333Y-85239761D02*
X187835714Y-85192142D01*
X187835714Y-85192142D02*
X187788095Y-85096904D01*
X187788095Y-85096904D02*
X187740476Y-84906428D01*
X187740476Y-84906428D02*
X187740476Y-84668333D01*
X187740476Y-84668333D02*
X187788095Y-84477857D01*
X187788095Y-84477857D02*
X187835714Y-84382619D01*
X187835714Y-84382619D02*
X187883333Y-84335000D01*
X187883333Y-84335000D02*
X187978571Y-84287380D01*
X192506191Y-148677380D02*
X192506191Y-147677380D01*
X192506191Y-147677380D02*
X192744286Y-147677380D01*
X192744286Y-147677380D02*
X192887143Y-147725000D01*
X192887143Y-147725000D02*
X192982381Y-147820238D01*
X192982381Y-147820238D02*
X193030000Y-147915476D01*
X193030000Y-147915476D02*
X193077619Y-148105952D01*
X193077619Y-148105952D02*
X193077619Y-148248809D01*
X193077619Y-148248809D02*
X193030000Y-148439285D01*
X193030000Y-148439285D02*
X192982381Y-148534523D01*
X192982381Y-148534523D02*
X192887143Y-148629761D01*
X192887143Y-148629761D02*
X192744286Y-148677380D01*
X192744286Y-148677380D02*
X192506191Y-148677380D01*
X193506191Y-148677380D02*
X193506191Y-147677380D01*
X194172857Y-147677380D02*
X194363333Y-147677380D01*
X194363333Y-147677380D02*
X194458571Y-147725000D01*
X194458571Y-147725000D02*
X194553809Y-147820238D01*
X194553809Y-147820238D02*
X194601428Y-148010714D01*
X194601428Y-148010714D02*
X194601428Y-148344047D01*
X194601428Y-148344047D02*
X194553809Y-148534523D01*
X194553809Y-148534523D02*
X194458571Y-148629761D01*
X194458571Y-148629761D02*
X194363333Y-148677380D01*
X194363333Y-148677380D02*
X194172857Y-148677380D01*
X194172857Y-148677380D02*
X194077619Y-148629761D01*
X194077619Y-148629761D02*
X193982381Y-148534523D01*
X193982381Y-148534523D02*
X193934762Y-148344047D01*
X193934762Y-148344047D02*
X193934762Y-148010714D01*
X193934762Y-148010714D02*
X193982381Y-147820238D01*
X193982381Y-147820238D02*
X194077619Y-147725000D01*
X194077619Y-147725000D02*
X194172857Y-147677380D01*
%TO.C,D2*%
X85792976Y-151822725D02*
X85792976Y-150822725D01*
X85792976Y-150822725D02*
X86031071Y-150822725D01*
X86031071Y-150822725D02*
X86173928Y-150870345D01*
X86173928Y-150870345D02*
X86269166Y-150965583D01*
X86269166Y-150965583D02*
X86316785Y-151060821D01*
X86316785Y-151060821D02*
X86364404Y-151251297D01*
X86364404Y-151251297D02*
X86364404Y-151394154D01*
X86364404Y-151394154D02*
X86316785Y-151584630D01*
X86316785Y-151584630D02*
X86269166Y-151679868D01*
X86269166Y-151679868D02*
X86173928Y-151775106D01*
X86173928Y-151775106D02*
X86031071Y-151822725D01*
X86031071Y-151822725D02*
X85792976Y-151822725D01*
X86745357Y-150917964D02*
X86792976Y-150870345D01*
X86792976Y-150870345D02*
X86888214Y-150822725D01*
X86888214Y-150822725D02*
X87126309Y-150822725D01*
X87126309Y-150822725D02*
X87221547Y-150870345D01*
X87221547Y-150870345D02*
X87269166Y-150917964D01*
X87269166Y-150917964D02*
X87316785Y-151013202D01*
X87316785Y-151013202D02*
X87316785Y-151108440D01*
X87316785Y-151108440D02*
X87269166Y-151251297D01*
X87269166Y-151251297D02*
X86697738Y-151822725D01*
X86697738Y-151822725D02*
X87316785Y-151822725D01*
%TO.C,J1*%
X201486666Y-133937380D02*
X201486666Y-134651666D01*
X201486666Y-134651666D02*
X201439047Y-134794523D01*
X201439047Y-134794523D02*
X201343809Y-134889761D01*
X201343809Y-134889761D02*
X201200952Y-134937380D01*
X201200952Y-134937380D02*
X201105714Y-134937380D01*
X202486666Y-134937380D02*
X201915238Y-134937380D01*
X202200952Y-134937380D02*
X202200952Y-133937380D01*
X202200952Y-133937380D02*
X202105714Y-134080238D01*
X202105714Y-134080238D02*
X202010476Y-134175476D01*
X202010476Y-134175476D02*
X201915238Y-134223095D01*
%TO.C,J4*%
X194993666Y-94421380D02*
X194993666Y-95135666D01*
X194993666Y-95135666D02*
X194946047Y-95278523D01*
X194946047Y-95278523D02*
X194850809Y-95373761D01*
X194850809Y-95373761D02*
X194707952Y-95421380D01*
X194707952Y-95421380D02*
X194612714Y-95421380D01*
X195898428Y-94754714D02*
X195898428Y-95421380D01*
X195660333Y-94373761D02*
X195422238Y-95088047D01*
X195422238Y-95088047D02*
X196041285Y-95088047D01*
%TO.C,J5*%
X194962666Y-107781380D02*
X194962666Y-108495666D01*
X194962666Y-108495666D02*
X194915047Y-108638523D01*
X194915047Y-108638523D02*
X194819809Y-108733761D01*
X194819809Y-108733761D02*
X194676952Y-108781380D01*
X194676952Y-108781380D02*
X194581714Y-108781380D01*
X195915047Y-107781380D02*
X195438857Y-107781380D01*
X195438857Y-107781380D02*
X195391238Y-108257571D01*
X195391238Y-108257571D02*
X195438857Y-108209952D01*
X195438857Y-108209952D02*
X195534095Y-108162333D01*
X195534095Y-108162333D02*
X195772190Y-108162333D01*
X195772190Y-108162333D02*
X195867428Y-108209952D01*
X195867428Y-108209952D02*
X195915047Y-108257571D01*
X195915047Y-108257571D02*
X195962666Y-108352809D01*
X195962666Y-108352809D02*
X195962666Y-108590904D01*
X195962666Y-108590904D02*
X195915047Y-108686142D01*
X195915047Y-108686142D02*
X195867428Y-108733761D01*
X195867428Y-108733761D02*
X195772190Y-108781380D01*
X195772190Y-108781380D02*
X195534095Y-108781380D01*
X195534095Y-108781380D02*
X195438857Y-108733761D01*
X195438857Y-108733761D02*
X195391238Y-108686142D01*
%TO.C,J2*%
X165456666Y-81157380D02*
X165456666Y-81871666D01*
X165456666Y-81871666D02*
X165409047Y-82014523D01*
X165409047Y-82014523D02*
X165313809Y-82109761D01*
X165313809Y-82109761D02*
X165170952Y-82157380D01*
X165170952Y-82157380D02*
X165075714Y-82157380D01*
X165885238Y-81252619D02*
X165932857Y-81205000D01*
X165932857Y-81205000D02*
X166028095Y-81157380D01*
X166028095Y-81157380D02*
X166266190Y-81157380D01*
X166266190Y-81157380D02*
X166361428Y-81205000D01*
X166361428Y-81205000D02*
X166409047Y-81252619D01*
X166409047Y-81252619D02*
X166456666Y-81347857D01*
X166456666Y-81347857D02*
X166456666Y-81443095D01*
X166456666Y-81443095D02*
X166409047Y-81585952D01*
X166409047Y-81585952D02*
X165837619Y-82157380D01*
X165837619Y-82157380D02*
X166456666Y-82157380D01*
%TO.C,JP1*%
X168776666Y-149857380D02*
X168776666Y-150571666D01*
X168776666Y-150571666D02*
X168729047Y-150714523D01*
X168729047Y-150714523D02*
X168633809Y-150809761D01*
X168633809Y-150809761D02*
X168490952Y-150857380D01*
X168490952Y-150857380D02*
X168395714Y-150857380D01*
X169252857Y-150857380D02*
X169252857Y-149857380D01*
X169252857Y-149857380D02*
X169633809Y-149857380D01*
X169633809Y-149857380D02*
X169729047Y-149905000D01*
X169729047Y-149905000D02*
X169776666Y-149952619D01*
X169776666Y-149952619D02*
X169824285Y-150047857D01*
X169824285Y-150047857D02*
X169824285Y-150190714D01*
X169824285Y-150190714D02*
X169776666Y-150285952D01*
X169776666Y-150285952D02*
X169729047Y-150333571D01*
X169729047Y-150333571D02*
X169633809Y-150381190D01*
X169633809Y-150381190D02*
X169252857Y-150381190D01*
X170776666Y-150857380D02*
X170205238Y-150857380D01*
X170490952Y-150857380D02*
X170490952Y-149857380D01*
X170490952Y-149857380D02*
X170395714Y-150000238D01*
X170395714Y-150000238D02*
X170300476Y-150095476D01*
X170300476Y-150095476D02*
X170205238Y-150143095D01*
%TO.C,JP2*%
X189176666Y-149697380D02*
X189176666Y-150411666D01*
X189176666Y-150411666D02*
X189129047Y-150554523D01*
X189129047Y-150554523D02*
X189033809Y-150649761D01*
X189033809Y-150649761D02*
X188890952Y-150697380D01*
X188890952Y-150697380D02*
X188795714Y-150697380D01*
X189652857Y-150697380D02*
X189652857Y-149697380D01*
X189652857Y-149697380D02*
X190033809Y-149697380D01*
X190033809Y-149697380D02*
X190129047Y-149745000D01*
X190129047Y-149745000D02*
X190176666Y-149792619D01*
X190176666Y-149792619D02*
X190224285Y-149887857D01*
X190224285Y-149887857D02*
X190224285Y-150030714D01*
X190224285Y-150030714D02*
X190176666Y-150125952D01*
X190176666Y-150125952D02*
X190129047Y-150173571D01*
X190129047Y-150173571D02*
X190033809Y-150221190D01*
X190033809Y-150221190D02*
X189652857Y-150221190D01*
X190605238Y-149792619D02*
X190652857Y-149745000D01*
X190652857Y-149745000D02*
X190748095Y-149697380D01*
X190748095Y-149697380D02*
X190986190Y-149697380D01*
X190986190Y-149697380D02*
X191081428Y-149745000D01*
X191081428Y-149745000D02*
X191129047Y-149792619D01*
X191129047Y-149792619D02*
X191176666Y-149887857D01*
X191176666Y-149887857D02*
X191176666Y-149983095D01*
X191176666Y-149983095D02*
X191129047Y-150125952D01*
X191129047Y-150125952D02*
X190557619Y-150697380D01*
X190557619Y-150697380D02*
X191176666Y-150697380D01*
%TO.C,R1*%
X90013333Y-151967380D02*
X89680000Y-151491190D01*
X89441905Y-151967380D02*
X89441905Y-150967380D01*
X89441905Y-150967380D02*
X89822857Y-150967380D01*
X89822857Y-150967380D02*
X89918095Y-151015000D01*
X89918095Y-151015000D02*
X89965714Y-151062619D01*
X89965714Y-151062619D02*
X90013333Y-151157857D01*
X90013333Y-151157857D02*
X90013333Y-151300714D01*
X90013333Y-151300714D02*
X89965714Y-151395952D01*
X89965714Y-151395952D02*
X89918095Y-151443571D01*
X89918095Y-151443571D02*
X89822857Y-151491190D01*
X89822857Y-151491190D02*
X89441905Y-151491190D01*
X90965714Y-151967380D02*
X90394286Y-151967380D01*
X90680000Y-151967380D02*
X90680000Y-150967380D01*
X90680000Y-150967380D02*
X90584762Y-151110238D01*
X90584762Y-151110238D02*
X90489524Y-151205476D01*
X90489524Y-151205476D02*
X90394286Y-151253095D01*
X89933333Y-147547380D02*
X89457143Y-147547380D01*
X89457143Y-147547380D02*
X89409524Y-148023571D01*
X89409524Y-148023571D02*
X89457143Y-147975952D01*
X89457143Y-147975952D02*
X89552381Y-147928333D01*
X89552381Y-147928333D02*
X89790476Y-147928333D01*
X89790476Y-147928333D02*
X89885714Y-147975952D01*
X89885714Y-147975952D02*
X89933333Y-148023571D01*
X89933333Y-148023571D02*
X89980952Y-148118809D01*
X89980952Y-148118809D02*
X89980952Y-148356904D01*
X89980952Y-148356904D02*
X89933333Y-148452142D01*
X89933333Y-148452142D02*
X89885714Y-148499761D01*
X89885714Y-148499761D02*
X89790476Y-148547380D01*
X89790476Y-148547380D02*
X89552381Y-148547380D01*
X89552381Y-148547380D02*
X89457143Y-148499761D01*
X89457143Y-148499761D02*
X89409524Y-148452142D01*
X90409524Y-148547380D02*
X90409524Y-147547380D01*
X90504762Y-148166428D02*
X90790476Y-148547380D01*
X90790476Y-147880714D02*
X90409524Y-148261666D01*
%TO.C,J3*%
X192062666Y-120360380D02*
X192062666Y-121074666D01*
X192062666Y-121074666D02*
X192015047Y-121217523D01*
X192015047Y-121217523D02*
X191919809Y-121312761D01*
X191919809Y-121312761D02*
X191776952Y-121360380D01*
X191776952Y-121360380D02*
X191681714Y-121360380D01*
X192443619Y-120360380D02*
X193062666Y-120360380D01*
X193062666Y-120360380D02*
X192729333Y-120741333D01*
X192729333Y-120741333D02*
X192872190Y-120741333D01*
X192872190Y-120741333D02*
X192967428Y-120788952D01*
X192967428Y-120788952D02*
X193015047Y-120836571D01*
X193015047Y-120836571D02*
X193062666Y-120931809D01*
X193062666Y-120931809D02*
X193062666Y-121169904D01*
X193062666Y-121169904D02*
X193015047Y-121265142D01*
X193015047Y-121265142D02*
X192967428Y-121312761D01*
X192967428Y-121312761D02*
X192872190Y-121360380D01*
X192872190Y-121360380D02*
X192586476Y-121360380D01*
X192586476Y-121360380D02*
X192491238Y-121312761D01*
X192491238Y-121312761D02*
X192443619Y-121265142D01*
%TO.C,J7*%
X187316666Y-81287380D02*
X187316666Y-82001666D01*
X187316666Y-82001666D02*
X187269047Y-82144523D01*
X187269047Y-82144523D02*
X187173809Y-82239761D01*
X187173809Y-82239761D02*
X187030952Y-82287380D01*
X187030952Y-82287380D02*
X186935714Y-82287380D01*
X187697619Y-81287380D02*
X188364285Y-81287380D01*
X188364285Y-81287380D02*
X187935714Y-82287380D01*
%TO.C,J6*%
X92652666Y-94089380D02*
X92652666Y-94803666D01*
X92652666Y-94803666D02*
X92605047Y-94946523D01*
X92605047Y-94946523D02*
X92509809Y-95041761D01*
X92509809Y-95041761D02*
X92366952Y-95089380D01*
X92366952Y-95089380D02*
X92271714Y-95089380D01*
X93557428Y-94089380D02*
X93366952Y-94089380D01*
X93366952Y-94089380D02*
X93271714Y-94137000D01*
X93271714Y-94137000D02*
X93224095Y-94184619D01*
X93224095Y-94184619D02*
X93128857Y-94327476D01*
X93128857Y-94327476D02*
X93081238Y-94517952D01*
X93081238Y-94517952D02*
X93081238Y-94898904D01*
X93081238Y-94898904D02*
X93128857Y-94994142D01*
X93128857Y-94994142D02*
X93176476Y-95041761D01*
X93176476Y-95041761D02*
X93271714Y-95089380D01*
X93271714Y-95089380D02*
X93462190Y-95089380D01*
X93462190Y-95089380D02*
X93557428Y-95041761D01*
X93557428Y-95041761D02*
X93605047Y-94994142D01*
X93605047Y-94994142D02*
X93652666Y-94898904D01*
X93652666Y-94898904D02*
X93652666Y-94660809D01*
X93652666Y-94660809D02*
X93605047Y-94565571D01*
X93605047Y-94565571D02*
X93557428Y-94517952D01*
X93557428Y-94517952D02*
X93462190Y-94470333D01*
X93462190Y-94470333D02*
X93271714Y-94470333D01*
X93271714Y-94470333D02*
X93176476Y-94517952D01*
X93176476Y-94517952D02*
X93128857Y-94565571D01*
X93128857Y-94565571D02*
X93081238Y-94660809D01*
%TO.C,J8*%
X161426666Y-139987380D02*
X161426666Y-140701666D01*
X161426666Y-140701666D02*
X161379047Y-140844523D01*
X161379047Y-140844523D02*
X161283809Y-140939761D01*
X161283809Y-140939761D02*
X161140952Y-140987380D01*
X161140952Y-140987380D02*
X161045714Y-140987380D01*
X162045714Y-140415952D02*
X161950476Y-140368333D01*
X161950476Y-140368333D02*
X161902857Y-140320714D01*
X161902857Y-140320714D02*
X161855238Y-140225476D01*
X161855238Y-140225476D02*
X161855238Y-140177857D01*
X161855238Y-140177857D02*
X161902857Y-140082619D01*
X161902857Y-140082619D02*
X161950476Y-140035000D01*
X161950476Y-140035000D02*
X162045714Y-139987380D01*
X162045714Y-139987380D02*
X162236190Y-139987380D01*
X162236190Y-139987380D02*
X162331428Y-140035000D01*
X162331428Y-140035000D02*
X162379047Y-140082619D01*
X162379047Y-140082619D02*
X162426666Y-140177857D01*
X162426666Y-140177857D02*
X162426666Y-140225476D01*
X162426666Y-140225476D02*
X162379047Y-140320714D01*
X162379047Y-140320714D02*
X162331428Y-140368333D01*
X162331428Y-140368333D02*
X162236190Y-140415952D01*
X162236190Y-140415952D02*
X162045714Y-140415952D01*
X162045714Y-140415952D02*
X161950476Y-140463571D01*
X161950476Y-140463571D02*
X161902857Y-140511190D01*
X161902857Y-140511190D02*
X161855238Y-140606428D01*
X161855238Y-140606428D02*
X161855238Y-140796904D01*
X161855238Y-140796904D02*
X161902857Y-140892142D01*
X161902857Y-140892142D02*
X161950476Y-140939761D01*
X161950476Y-140939761D02*
X162045714Y-140987380D01*
X162045714Y-140987380D02*
X162236190Y-140987380D01*
X162236190Y-140987380D02*
X162331428Y-140939761D01*
X162331428Y-140939761D02*
X162379047Y-140892142D01*
X162379047Y-140892142D02*
X162426666Y-140796904D01*
X162426666Y-140796904D02*
X162426666Y-140606428D01*
X162426666Y-140606428D02*
X162379047Y-140511190D01*
X162379047Y-140511190D02*
X162331428Y-140463571D01*
X162331428Y-140463571D02*
X162236190Y-140415952D01*
%TO.C,J9*%
X180636666Y-139997380D02*
X180636666Y-140711666D01*
X180636666Y-140711666D02*
X180589047Y-140854523D01*
X180589047Y-140854523D02*
X180493809Y-140949761D01*
X180493809Y-140949761D02*
X180350952Y-140997380D01*
X180350952Y-140997380D02*
X180255714Y-140997380D01*
X181160476Y-140997380D02*
X181350952Y-140997380D01*
X181350952Y-140997380D02*
X181446190Y-140949761D01*
X181446190Y-140949761D02*
X181493809Y-140902142D01*
X181493809Y-140902142D02*
X181589047Y-140759285D01*
X181589047Y-140759285D02*
X181636666Y-140568809D01*
X181636666Y-140568809D02*
X181636666Y-140187857D01*
X181636666Y-140187857D02*
X181589047Y-140092619D01*
X181589047Y-140092619D02*
X181541428Y-140045000D01*
X181541428Y-140045000D02*
X181446190Y-139997380D01*
X181446190Y-139997380D02*
X181255714Y-139997380D01*
X181255714Y-139997380D02*
X181160476Y-140045000D01*
X181160476Y-140045000D02*
X181112857Y-140092619D01*
X181112857Y-140092619D02*
X181065238Y-140187857D01*
X181065238Y-140187857D02*
X181065238Y-140425952D01*
X181065238Y-140425952D02*
X181112857Y-140521190D01*
X181112857Y-140521190D02*
X181160476Y-140568809D01*
X181160476Y-140568809D02*
X181255714Y-140616428D01*
X181255714Y-140616428D02*
X181446190Y-140616428D01*
X181446190Y-140616428D02*
X181541428Y-140568809D01*
X181541428Y-140568809D02*
X181589047Y-140521190D01*
X181589047Y-140521190D02*
X181636666Y-140425952D01*
%TO.C,J12*%
X85250476Y-84447380D02*
X85250476Y-85161666D01*
X85250476Y-85161666D02*
X85202857Y-85304523D01*
X85202857Y-85304523D02*
X85107619Y-85399761D01*
X85107619Y-85399761D02*
X84964762Y-85447380D01*
X84964762Y-85447380D02*
X84869524Y-85447380D01*
X86250476Y-85447380D02*
X85679048Y-85447380D01*
X85964762Y-85447380D02*
X85964762Y-84447380D01*
X85964762Y-84447380D02*
X85869524Y-84590238D01*
X85869524Y-84590238D02*
X85774286Y-84685476D01*
X85774286Y-84685476D02*
X85679048Y-84733095D01*
X86631429Y-84542619D02*
X86679048Y-84495000D01*
X86679048Y-84495000D02*
X86774286Y-84447380D01*
X86774286Y-84447380D02*
X87012381Y-84447380D01*
X87012381Y-84447380D02*
X87107619Y-84495000D01*
X87107619Y-84495000D02*
X87155238Y-84542619D01*
X87155238Y-84542619D02*
X87202857Y-84637857D01*
X87202857Y-84637857D02*
X87202857Y-84733095D01*
X87202857Y-84733095D02*
X87155238Y-84875952D01*
X87155238Y-84875952D02*
X86583810Y-85447380D01*
X86583810Y-85447380D02*
X87202857Y-85447380D01*
D15*
%TO.C,IC3*%
X135290237Y-86816573D02*
X135290237Y-85546573D01*
X136620714Y-86695621D02*
X136560238Y-86756097D01*
X136560238Y-86756097D02*
X136378809Y-86816573D01*
X136378809Y-86816573D02*
X136257857Y-86816573D01*
X136257857Y-86816573D02*
X136076428Y-86756097D01*
X136076428Y-86756097D02*
X135955476Y-86635145D01*
X135955476Y-86635145D02*
X135894999Y-86514192D01*
X135894999Y-86514192D02*
X135834523Y-86272288D01*
X135834523Y-86272288D02*
X135834523Y-86090859D01*
X135834523Y-86090859D02*
X135894999Y-85848954D01*
X135894999Y-85848954D02*
X135955476Y-85728002D01*
X135955476Y-85728002D02*
X136076428Y-85607050D01*
X136076428Y-85607050D02*
X136257857Y-85546573D01*
X136257857Y-85546573D02*
X136378809Y-85546573D01*
X136378809Y-85546573D02*
X136560238Y-85607050D01*
X136560238Y-85607050D02*
X136620714Y-85667526D01*
X137044047Y-85546573D02*
X137830238Y-85546573D01*
X137830238Y-85546573D02*
X137406904Y-86030383D01*
X137406904Y-86030383D02*
X137588333Y-86030383D01*
X137588333Y-86030383D02*
X137709285Y-86090859D01*
X137709285Y-86090859D02*
X137769761Y-86151335D01*
X137769761Y-86151335D02*
X137830238Y-86272288D01*
X137830238Y-86272288D02*
X137830238Y-86574669D01*
X137830238Y-86574669D02*
X137769761Y-86695621D01*
X137769761Y-86695621D02*
X137709285Y-86756097D01*
X137709285Y-86756097D02*
X137588333Y-86816573D01*
X137588333Y-86816573D02*
X137225476Y-86816573D01*
X137225476Y-86816573D02*
X137104523Y-86756097D01*
X137104523Y-86756097D02*
X137044047Y-86695621D01*
%TO.C,IC4*%
X109340237Y-86846573D02*
X109340237Y-85576573D01*
X110670714Y-86725621D02*
X110610238Y-86786097D01*
X110610238Y-86786097D02*
X110428809Y-86846573D01*
X110428809Y-86846573D02*
X110307857Y-86846573D01*
X110307857Y-86846573D02*
X110126428Y-86786097D01*
X110126428Y-86786097D02*
X110005476Y-86665145D01*
X110005476Y-86665145D02*
X109944999Y-86544192D01*
X109944999Y-86544192D02*
X109884523Y-86302288D01*
X109884523Y-86302288D02*
X109884523Y-86120859D01*
X109884523Y-86120859D02*
X109944999Y-85878954D01*
X109944999Y-85878954D02*
X110005476Y-85758002D01*
X110005476Y-85758002D02*
X110126428Y-85637050D01*
X110126428Y-85637050D02*
X110307857Y-85576573D01*
X110307857Y-85576573D02*
X110428809Y-85576573D01*
X110428809Y-85576573D02*
X110610238Y-85637050D01*
X110610238Y-85637050D02*
X110670714Y-85697526D01*
X111759285Y-85999907D02*
X111759285Y-86846573D01*
X111456904Y-85516097D02*
X111154523Y-86423240D01*
X111154523Y-86423240D02*
X111940714Y-86423240D01*
%TO.C,J13*%
X141541905Y-86936573D02*
X141541905Y-87843716D01*
X141541905Y-87843716D02*
X141481428Y-88025145D01*
X141481428Y-88025145D02*
X141360476Y-88146097D01*
X141360476Y-88146097D02*
X141179047Y-88206573D01*
X141179047Y-88206573D02*
X141058095Y-88206573D01*
X142811905Y-88206573D02*
X142086190Y-88206573D01*
X142449047Y-88206573D02*
X142449047Y-86936573D01*
X142449047Y-86936573D02*
X142328095Y-87118002D01*
X142328095Y-87118002D02*
X142207143Y-87238954D01*
X142207143Y-87238954D02*
X142086190Y-87299430D01*
X143235238Y-86936573D02*
X144021429Y-86936573D01*
X144021429Y-86936573D02*
X143598095Y-87420383D01*
X143598095Y-87420383D02*
X143779524Y-87420383D01*
X143779524Y-87420383D02*
X143900476Y-87480859D01*
X143900476Y-87480859D02*
X143960952Y-87541335D01*
X143960952Y-87541335D02*
X144021429Y-87662288D01*
X144021429Y-87662288D02*
X144021429Y-87964669D01*
X144021429Y-87964669D02*
X143960952Y-88085621D01*
X143960952Y-88085621D02*
X143900476Y-88146097D01*
X143900476Y-88146097D02*
X143779524Y-88206573D01*
X143779524Y-88206573D02*
X143416667Y-88206573D01*
X143416667Y-88206573D02*
X143295714Y-88146097D01*
X143295714Y-88146097D02*
X143235238Y-88085621D01*
%TO.C,J14*%
X115661905Y-87376573D02*
X115661905Y-88283716D01*
X115661905Y-88283716D02*
X115601428Y-88465145D01*
X115601428Y-88465145D02*
X115480476Y-88586097D01*
X115480476Y-88586097D02*
X115299047Y-88646573D01*
X115299047Y-88646573D02*
X115178095Y-88646573D01*
X116931905Y-88646573D02*
X116206190Y-88646573D01*
X116569047Y-88646573D02*
X116569047Y-87376573D01*
X116569047Y-87376573D02*
X116448095Y-87558002D01*
X116448095Y-87558002D02*
X116327143Y-87678954D01*
X116327143Y-87678954D02*
X116206190Y-87739430D01*
X118020476Y-87799907D02*
X118020476Y-88646573D01*
X117718095Y-87316097D02*
X117415714Y-88223240D01*
X117415714Y-88223240D02*
X118201905Y-88223240D01*
%TO.C,J15*%
X158471905Y-80276573D02*
X158471905Y-81183716D01*
X158471905Y-81183716D02*
X158411428Y-81365145D01*
X158411428Y-81365145D02*
X158290476Y-81486097D01*
X158290476Y-81486097D02*
X158109047Y-81546573D01*
X158109047Y-81546573D02*
X157988095Y-81546573D01*
X159741905Y-81546573D02*
X159016190Y-81546573D01*
X159379047Y-81546573D02*
X159379047Y-80276573D01*
X159379047Y-80276573D02*
X159258095Y-80458002D01*
X159258095Y-80458002D02*
X159137143Y-80578954D01*
X159137143Y-80578954D02*
X159016190Y-80639430D01*
X160890952Y-80276573D02*
X160286190Y-80276573D01*
X160286190Y-80276573D02*
X160225714Y-80881335D01*
X160225714Y-80881335D02*
X160286190Y-80820859D01*
X160286190Y-80820859D02*
X160407143Y-80760383D01*
X160407143Y-80760383D02*
X160709524Y-80760383D01*
X160709524Y-80760383D02*
X160830476Y-80820859D01*
X160830476Y-80820859D02*
X160890952Y-80881335D01*
X160890952Y-80881335D02*
X160951429Y-81002288D01*
X160951429Y-81002288D02*
X160951429Y-81304669D01*
X160951429Y-81304669D02*
X160890952Y-81425621D01*
X160890952Y-81425621D02*
X160830476Y-81486097D01*
X160830476Y-81486097D02*
X160709524Y-81546573D01*
X160709524Y-81546573D02*
X160407143Y-81546573D01*
X160407143Y-81546573D02*
X160286190Y-81486097D01*
X160286190Y-81486097D02*
X160225714Y-81425621D01*
%TO.C,J16*%
X132841905Y-80176573D02*
X132841905Y-81083716D01*
X132841905Y-81083716D02*
X132781428Y-81265145D01*
X132781428Y-81265145D02*
X132660476Y-81386097D01*
X132660476Y-81386097D02*
X132479047Y-81446573D01*
X132479047Y-81446573D02*
X132358095Y-81446573D01*
X134111905Y-81446573D02*
X133386190Y-81446573D01*
X133749047Y-81446573D02*
X133749047Y-80176573D01*
X133749047Y-80176573D02*
X133628095Y-80358002D01*
X133628095Y-80358002D02*
X133507143Y-80478954D01*
X133507143Y-80478954D02*
X133386190Y-80539430D01*
X135200476Y-80176573D02*
X134958571Y-80176573D01*
X134958571Y-80176573D02*
X134837619Y-80237050D01*
X134837619Y-80237050D02*
X134777143Y-80297526D01*
X134777143Y-80297526D02*
X134656190Y-80478954D01*
X134656190Y-80478954D02*
X134595714Y-80720859D01*
X134595714Y-80720859D02*
X134595714Y-81204669D01*
X134595714Y-81204669D02*
X134656190Y-81325621D01*
X134656190Y-81325621D02*
X134716667Y-81386097D01*
X134716667Y-81386097D02*
X134837619Y-81446573D01*
X134837619Y-81446573D02*
X135079524Y-81446573D01*
X135079524Y-81446573D02*
X135200476Y-81386097D01*
X135200476Y-81386097D02*
X135260952Y-81325621D01*
X135260952Y-81325621D02*
X135321429Y-81204669D01*
X135321429Y-81204669D02*
X135321429Y-80902288D01*
X135321429Y-80902288D02*
X135260952Y-80781335D01*
X135260952Y-80781335D02*
X135200476Y-80720859D01*
X135200476Y-80720859D02*
X135079524Y-80660383D01*
X135079524Y-80660383D02*
X134837619Y-80660383D01*
X134837619Y-80660383D02*
X134716667Y-80720859D01*
X134716667Y-80720859D02*
X134656190Y-80781335D01*
X134656190Y-80781335D02*
X134595714Y-80902288D01*
D10*
%TO.C,C1*%
X140793333Y-145122142D02*
X140745714Y-145169761D01*
X140745714Y-145169761D02*
X140602857Y-145217380D01*
X140602857Y-145217380D02*
X140507619Y-145217380D01*
X140507619Y-145217380D02*
X140364762Y-145169761D01*
X140364762Y-145169761D02*
X140269524Y-145074523D01*
X140269524Y-145074523D02*
X140221905Y-144979285D01*
X140221905Y-144979285D02*
X140174286Y-144788809D01*
X140174286Y-144788809D02*
X140174286Y-144645952D01*
X140174286Y-144645952D02*
X140221905Y-144455476D01*
X140221905Y-144455476D02*
X140269524Y-144360238D01*
X140269524Y-144360238D02*
X140364762Y-144265000D01*
X140364762Y-144265000D02*
X140507619Y-144217380D01*
X140507619Y-144217380D02*
X140602857Y-144217380D01*
X140602857Y-144217380D02*
X140745714Y-144265000D01*
X140745714Y-144265000D02*
X140793333Y-144312619D01*
X141745714Y-145217380D02*
X141174286Y-145217380D01*
X141460000Y-145217380D02*
X141460000Y-144217380D01*
X141460000Y-144217380D02*
X141364762Y-144360238D01*
X141364762Y-144360238D02*
X141269524Y-144455476D01*
X141269524Y-144455476D02*
X141174286Y-144503095D01*
%TO.C,C3*%
X114273333Y-145342142D02*
X114225714Y-145389761D01*
X114225714Y-145389761D02*
X114082857Y-145437380D01*
X114082857Y-145437380D02*
X113987619Y-145437380D01*
X113987619Y-145437380D02*
X113844762Y-145389761D01*
X113844762Y-145389761D02*
X113749524Y-145294523D01*
X113749524Y-145294523D02*
X113701905Y-145199285D01*
X113701905Y-145199285D02*
X113654286Y-145008809D01*
X113654286Y-145008809D02*
X113654286Y-144865952D01*
X113654286Y-144865952D02*
X113701905Y-144675476D01*
X113701905Y-144675476D02*
X113749524Y-144580238D01*
X113749524Y-144580238D02*
X113844762Y-144485000D01*
X113844762Y-144485000D02*
X113987619Y-144437380D01*
X113987619Y-144437380D02*
X114082857Y-144437380D01*
X114082857Y-144437380D02*
X114225714Y-144485000D01*
X114225714Y-144485000D02*
X114273333Y-144532619D01*
X114606667Y-144437380D02*
X115225714Y-144437380D01*
X115225714Y-144437380D02*
X114892381Y-144818333D01*
X114892381Y-144818333D02*
X115035238Y-144818333D01*
X115035238Y-144818333D02*
X115130476Y-144865952D01*
X115130476Y-144865952D02*
X115178095Y-144913571D01*
X115178095Y-144913571D02*
X115225714Y-145008809D01*
X115225714Y-145008809D02*
X115225714Y-145246904D01*
X115225714Y-145246904D02*
X115178095Y-145342142D01*
X115178095Y-145342142D02*
X115130476Y-145389761D01*
X115130476Y-145389761D02*
X115035238Y-145437380D01*
X115035238Y-145437380D02*
X114749524Y-145437380D01*
X114749524Y-145437380D02*
X114654286Y-145389761D01*
X114654286Y-145389761D02*
X114606667Y-145342142D01*
%TO.C,C5*%
X109113333Y-152362142D02*
X109065714Y-152409761D01*
X109065714Y-152409761D02*
X108922857Y-152457380D01*
X108922857Y-152457380D02*
X108827619Y-152457380D01*
X108827619Y-152457380D02*
X108684762Y-152409761D01*
X108684762Y-152409761D02*
X108589524Y-152314523D01*
X108589524Y-152314523D02*
X108541905Y-152219285D01*
X108541905Y-152219285D02*
X108494286Y-152028809D01*
X108494286Y-152028809D02*
X108494286Y-151885952D01*
X108494286Y-151885952D02*
X108541905Y-151695476D01*
X108541905Y-151695476D02*
X108589524Y-151600238D01*
X108589524Y-151600238D02*
X108684762Y-151505000D01*
X108684762Y-151505000D02*
X108827619Y-151457380D01*
X108827619Y-151457380D02*
X108922857Y-151457380D01*
X108922857Y-151457380D02*
X109065714Y-151505000D01*
X109065714Y-151505000D02*
X109113333Y-151552619D01*
X110018095Y-151457380D02*
X109541905Y-151457380D01*
X109541905Y-151457380D02*
X109494286Y-151933571D01*
X109494286Y-151933571D02*
X109541905Y-151885952D01*
X109541905Y-151885952D02*
X109637143Y-151838333D01*
X109637143Y-151838333D02*
X109875238Y-151838333D01*
X109875238Y-151838333D02*
X109970476Y-151885952D01*
X109970476Y-151885952D02*
X110018095Y-151933571D01*
X110018095Y-151933571D02*
X110065714Y-152028809D01*
X110065714Y-152028809D02*
X110065714Y-152266904D01*
X110065714Y-152266904D02*
X110018095Y-152362142D01*
X110018095Y-152362142D02*
X109970476Y-152409761D01*
X109970476Y-152409761D02*
X109875238Y-152457380D01*
X109875238Y-152457380D02*
X109637143Y-152457380D01*
X109637143Y-152457380D02*
X109541905Y-152409761D01*
X109541905Y-152409761D02*
X109494286Y-152362142D01*
%TO.C,C6*%
X119193333Y-152842142D02*
X119145714Y-152889761D01*
X119145714Y-152889761D02*
X119002857Y-152937380D01*
X119002857Y-152937380D02*
X118907619Y-152937380D01*
X118907619Y-152937380D02*
X118764762Y-152889761D01*
X118764762Y-152889761D02*
X118669524Y-152794523D01*
X118669524Y-152794523D02*
X118621905Y-152699285D01*
X118621905Y-152699285D02*
X118574286Y-152508809D01*
X118574286Y-152508809D02*
X118574286Y-152365952D01*
X118574286Y-152365952D02*
X118621905Y-152175476D01*
X118621905Y-152175476D02*
X118669524Y-152080238D01*
X118669524Y-152080238D02*
X118764762Y-151985000D01*
X118764762Y-151985000D02*
X118907619Y-151937380D01*
X118907619Y-151937380D02*
X119002857Y-151937380D01*
X119002857Y-151937380D02*
X119145714Y-151985000D01*
X119145714Y-151985000D02*
X119193333Y-152032619D01*
X120050476Y-151937380D02*
X119860000Y-151937380D01*
X119860000Y-151937380D02*
X119764762Y-151985000D01*
X119764762Y-151985000D02*
X119717143Y-152032619D01*
X119717143Y-152032619D02*
X119621905Y-152175476D01*
X119621905Y-152175476D02*
X119574286Y-152365952D01*
X119574286Y-152365952D02*
X119574286Y-152746904D01*
X119574286Y-152746904D02*
X119621905Y-152842142D01*
X119621905Y-152842142D02*
X119669524Y-152889761D01*
X119669524Y-152889761D02*
X119764762Y-152937380D01*
X119764762Y-152937380D02*
X119955238Y-152937380D01*
X119955238Y-152937380D02*
X120050476Y-152889761D01*
X120050476Y-152889761D02*
X120098095Y-152842142D01*
X120098095Y-152842142D02*
X120145714Y-152746904D01*
X120145714Y-152746904D02*
X120145714Y-152508809D01*
X120145714Y-152508809D02*
X120098095Y-152413571D01*
X120098095Y-152413571D02*
X120050476Y-152365952D01*
X120050476Y-152365952D02*
X119955238Y-152318333D01*
X119955238Y-152318333D02*
X119764762Y-152318333D01*
X119764762Y-152318333D02*
X119669524Y-152365952D01*
X119669524Y-152365952D02*
X119621905Y-152413571D01*
X119621905Y-152413571D02*
X119574286Y-152508809D01*
%TO.C,C7*%
X135293333Y-152222142D02*
X135245714Y-152269761D01*
X135245714Y-152269761D02*
X135102857Y-152317380D01*
X135102857Y-152317380D02*
X135007619Y-152317380D01*
X135007619Y-152317380D02*
X134864762Y-152269761D01*
X134864762Y-152269761D02*
X134769524Y-152174523D01*
X134769524Y-152174523D02*
X134721905Y-152079285D01*
X134721905Y-152079285D02*
X134674286Y-151888809D01*
X134674286Y-151888809D02*
X134674286Y-151745952D01*
X134674286Y-151745952D02*
X134721905Y-151555476D01*
X134721905Y-151555476D02*
X134769524Y-151460238D01*
X134769524Y-151460238D02*
X134864762Y-151365000D01*
X134864762Y-151365000D02*
X135007619Y-151317380D01*
X135007619Y-151317380D02*
X135102857Y-151317380D01*
X135102857Y-151317380D02*
X135245714Y-151365000D01*
X135245714Y-151365000D02*
X135293333Y-151412619D01*
X135626667Y-151317380D02*
X136293333Y-151317380D01*
X136293333Y-151317380D02*
X135864762Y-152317380D01*
%TO.C,C8*%
X145733333Y-152492142D02*
X145685714Y-152539761D01*
X145685714Y-152539761D02*
X145542857Y-152587380D01*
X145542857Y-152587380D02*
X145447619Y-152587380D01*
X145447619Y-152587380D02*
X145304762Y-152539761D01*
X145304762Y-152539761D02*
X145209524Y-152444523D01*
X145209524Y-152444523D02*
X145161905Y-152349285D01*
X145161905Y-152349285D02*
X145114286Y-152158809D01*
X145114286Y-152158809D02*
X145114286Y-152015952D01*
X145114286Y-152015952D02*
X145161905Y-151825476D01*
X145161905Y-151825476D02*
X145209524Y-151730238D01*
X145209524Y-151730238D02*
X145304762Y-151635000D01*
X145304762Y-151635000D02*
X145447619Y-151587380D01*
X145447619Y-151587380D02*
X145542857Y-151587380D01*
X145542857Y-151587380D02*
X145685714Y-151635000D01*
X145685714Y-151635000D02*
X145733333Y-151682619D01*
X146304762Y-152015952D02*
X146209524Y-151968333D01*
X146209524Y-151968333D02*
X146161905Y-151920714D01*
X146161905Y-151920714D02*
X146114286Y-151825476D01*
X146114286Y-151825476D02*
X146114286Y-151777857D01*
X146114286Y-151777857D02*
X146161905Y-151682619D01*
X146161905Y-151682619D02*
X146209524Y-151635000D01*
X146209524Y-151635000D02*
X146304762Y-151587380D01*
X146304762Y-151587380D02*
X146495238Y-151587380D01*
X146495238Y-151587380D02*
X146590476Y-151635000D01*
X146590476Y-151635000D02*
X146638095Y-151682619D01*
X146638095Y-151682619D02*
X146685714Y-151777857D01*
X146685714Y-151777857D02*
X146685714Y-151825476D01*
X146685714Y-151825476D02*
X146638095Y-151920714D01*
X146638095Y-151920714D02*
X146590476Y-151968333D01*
X146590476Y-151968333D02*
X146495238Y-152015952D01*
X146495238Y-152015952D02*
X146304762Y-152015952D01*
X146304762Y-152015952D02*
X146209524Y-152063571D01*
X146209524Y-152063571D02*
X146161905Y-152111190D01*
X146161905Y-152111190D02*
X146114286Y-152206428D01*
X146114286Y-152206428D02*
X146114286Y-152396904D01*
X146114286Y-152396904D02*
X146161905Y-152492142D01*
X146161905Y-152492142D02*
X146209524Y-152539761D01*
X146209524Y-152539761D02*
X146304762Y-152587380D01*
X146304762Y-152587380D02*
X146495238Y-152587380D01*
X146495238Y-152587380D02*
X146590476Y-152539761D01*
X146590476Y-152539761D02*
X146638095Y-152492142D01*
X146638095Y-152492142D02*
X146685714Y-152396904D01*
X146685714Y-152396904D02*
X146685714Y-152206428D01*
X146685714Y-152206428D02*
X146638095Y-152111190D01*
X146638095Y-152111190D02*
X146590476Y-152063571D01*
X146590476Y-152063571D02*
X146495238Y-152015952D01*
D15*
%TO.C,IC1*%
X113150237Y-153236573D02*
X113150237Y-151966573D01*
X114480714Y-153115621D02*
X114420238Y-153176097D01*
X114420238Y-153176097D02*
X114238809Y-153236573D01*
X114238809Y-153236573D02*
X114117857Y-153236573D01*
X114117857Y-153236573D02*
X113936428Y-153176097D01*
X113936428Y-153176097D02*
X113815476Y-153055145D01*
X113815476Y-153055145D02*
X113754999Y-152934192D01*
X113754999Y-152934192D02*
X113694523Y-152692288D01*
X113694523Y-152692288D02*
X113694523Y-152510859D01*
X113694523Y-152510859D02*
X113754999Y-152268954D01*
X113754999Y-152268954D02*
X113815476Y-152148002D01*
X113815476Y-152148002D02*
X113936428Y-152027050D01*
X113936428Y-152027050D02*
X114117857Y-151966573D01*
X114117857Y-151966573D02*
X114238809Y-151966573D01*
X114238809Y-151966573D02*
X114420238Y-152027050D01*
X114420238Y-152027050D02*
X114480714Y-152087526D01*
X115690238Y-153236573D02*
X114964523Y-153236573D01*
X115327380Y-153236573D02*
X115327380Y-151966573D01*
X115327380Y-151966573D02*
X115206428Y-152148002D01*
X115206428Y-152148002D02*
X115085476Y-152268954D01*
X115085476Y-152268954D02*
X114964523Y-152329430D01*
%TO.C,IC2*%
X139610237Y-152806573D02*
X139610237Y-151536573D01*
X140940714Y-152685621D02*
X140880238Y-152746097D01*
X140880238Y-152746097D02*
X140698809Y-152806573D01*
X140698809Y-152806573D02*
X140577857Y-152806573D01*
X140577857Y-152806573D02*
X140396428Y-152746097D01*
X140396428Y-152746097D02*
X140275476Y-152625145D01*
X140275476Y-152625145D02*
X140214999Y-152504192D01*
X140214999Y-152504192D02*
X140154523Y-152262288D01*
X140154523Y-152262288D02*
X140154523Y-152080859D01*
X140154523Y-152080859D02*
X140214999Y-151838954D01*
X140214999Y-151838954D02*
X140275476Y-151718002D01*
X140275476Y-151718002D02*
X140396428Y-151597050D01*
X140396428Y-151597050D02*
X140577857Y-151536573D01*
X140577857Y-151536573D02*
X140698809Y-151536573D01*
X140698809Y-151536573D02*
X140880238Y-151597050D01*
X140880238Y-151597050D02*
X140940714Y-151657526D01*
X141424523Y-151657526D02*
X141484999Y-151597050D01*
X141484999Y-151597050D02*
X141605952Y-151536573D01*
X141605952Y-151536573D02*
X141908333Y-151536573D01*
X141908333Y-151536573D02*
X142029285Y-151597050D01*
X142029285Y-151597050D02*
X142089761Y-151657526D01*
X142089761Y-151657526D02*
X142150238Y-151778478D01*
X142150238Y-151778478D02*
X142150238Y-151899430D01*
X142150238Y-151899430D02*
X142089761Y-152080859D01*
X142089761Y-152080859D02*
X141364047Y-152806573D01*
X141364047Y-152806573D02*
X142150238Y-152806573D01*
D10*
%TO.C,L1*%
X108263333Y-147117380D02*
X107787143Y-147117380D01*
X107787143Y-147117380D02*
X107787143Y-146117380D01*
X109120476Y-147117380D02*
X108549048Y-147117380D01*
X108834762Y-147117380D02*
X108834762Y-146117380D01*
X108834762Y-146117380D02*
X108739524Y-146260238D01*
X108739524Y-146260238D02*
X108644286Y-146355476D01*
X108644286Y-146355476D02*
X108549048Y-146403095D01*
%TO.C,L2*%
X134153333Y-146644880D02*
X133677143Y-146644880D01*
X133677143Y-146644880D02*
X133677143Y-145644880D01*
X134439048Y-145740119D02*
X134486667Y-145692500D01*
X134486667Y-145692500D02*
X134581905Y-145644880D01*
X134581905Y-145644880D02*
X134820000Y-145644880D01*
X134820000Y-145644880D02*
X134915238Y-145692500D01*
X134915238Y-145692500D02*
X134962857Y-145740119D01*
X134962857Y-145740119D02*
X135010476Y-145835357D01*
X135010476Y-145835357D02*
X135010476Y-145930595D01*
X135010476Y-145930595D02*
X134962857Y-146073452D01*
X134962857Y-146073452D02*
X134391429Y-146644880D01*
X134391429Y-146644880D02*
X135010476Y-146644880D01*
%TO.C,L3*%
X121723333Y-148447380D02*
X121247143Y-148447380D01*
X121247143Y-148447380D02*
X121247143Y-147447380D01*
X121961429Y-147447380D02*
X122580476Y-147447380D01*
X122580476Y-147447380D02*
X122247143Y-147828333D01*
X122247143Y-147828333D02*
X122390000Y-147828333D01*
X122390000Y-147828333D02*
X122485238Y-147875952D01*
X122485238Y-147875952D02*
X122532857Y-147923571D01*
X122532857Y-147923571D02*
X122580476Y-148018809D01*
X122580476Y-148018809D02*
X122580476Y-148256904D01*
X122580476Y-148256904D02*
X122532857Y-148352142D01*
X122532857Y-148352142D02*
X122485238Y-148399761D01*
X122485238Y-148399761D02*
X122390000Y-148447380D01*
X122390000Y-148447380D02*
X122104286Y-148447380D01*
X122104286Y-148447380D02*
X122009048Y-148399761D01*
X122009048Y-148399761D02*
X121961429Y-148352142D01*
%TO.C,L4*%
X148043333Y-147577380D02*
X147567143Y-147577380D01*
X147567143Y-147577380D02*
X147567143Y-146577380D01*
X148805238Y-146910714D02*
X148805238Y-147577380D01*
X148567143Y-146529761D02*
X148329048Y-147244047D01*
X148329048Y-147244047D02*
X148948095Y-147244047D01*
%TO.C,J10*%
X114380476Y-137377380D02*
X114380476Y-138091666D01*
X114380476Y-138091666D02*
X114332857Y-138234523D01*
X114332857Y-138234523D02*
X114237619Y-138329761D01*
X114237619Y-138329761D02*
X114094762Y-138377380D01*
X114094762Y-138377380D02*
X113999524Y-138377380D01*
X115380476Y-138377380D02*
X114809048Y-138377380D01*
X115094762Y-138377380D02*
X115094762Y-137377380D01*
X115094762Y-137377380D02*
X114999524Y-137520238D01*
X114999524Y-137520238D02*
X114904286Y-137615476D01*
X114904286Y-137615476D02*
X114809048Y-137663095D01*
X115999524Y-137377380D02*
X116094762Y-137377380D01*
X116094762Y-137377380D02*
X116190000Y-137425000D01*
X116190000Y-137425000D02*
X116237619Y-137472619D01*
X116237619Y-137472619D02*
X116285238Y-137567857D01*
X116285238Y-137567857D02*
X116332857Y-137758333D01*
X116332857Y-137758333D02*
X116332857Y-137996428D01*
X116332857Y-137996428D02*
X116285238Y-138186904D01*
X116285238Y-138186904D02*
X116237619Y-138282142D01*
X116237619Y-138282142D02*
X116190000Y-138329761D01*
X116190000Y-138329761D02*
X116094762Y-138377380D01*
X116094762Y-138377380D02*
X115999524Y-138377380D01*
X115999524Y-138377380D02*
X115904286Y-138329761D01*
X115904286Y-138329761D02*
X115856667Y-138282142D01*
X115856667Y-138282142D02*
X115809048Y-138186904D01*
X115809048Y-138186904D02*
X115761429Y-137996428D01*
X115761429Y-137996428D02*
X115761429Y-137758333D01*
X115761429Y-137758333D02*
X115809048Y-137567857D01*
X115809048Y-137567857D02*
X115856667Y-137472619D01*
X115856667Y-137472619D02*
X115904286Y-137425000D01*
X115904286Y-137425000D02*
X115999524Y-137377380D01*
X116401905Y-140276428D02*
X117163810Y-140276428D01*
X118116190Y-139657380D02*
X117640000Y-139657380D01*
X117640000Y-139657380D02*
X117592381Y-140133571D01*
X117592381Y-140133571D02*
X117640000Y-140085952D01*
X117640000Y-140085952D02*
X117735238Y-140038333D01*
X117735238Y-140038333D02*
X117973333Y-140038333D01*
X117973333Y-140038333D02*
X118068571Y-140085952D01*
X118068571Y-140085952D02*
X118116190Y-140133571D01*
X118116190Y-140133571D02*
X118163809Y-140228809D01*
X118163809Y-140228809D02*
X118163809Y-140466904D01*
X118163809Y-140466904D02*
X118116190Y-140562142D01*
X118116190Y-140562142D02*
X118068571Y-140609761D01*
X118068571Y-140609761D02*
X117973333Y-140657380D01*
X117973333Y-140657380D02*
X117735238Y-140657380D01*
X117735238Y-140657380D02*
X117640000Y-140609761D01*
X117640000Y-140609761D02*
X117592381Y-140562142D01*
X118497143Y-139990714D02*
X118735238Y-140657380D01*
X118735238Y-140657380D02*
X118973333Y-139990714D01*
X110911905Y-140206428D02*
X111673810Y-140206428D01*
X111292857Y-140587380D02*
X111292857Y-139825476D01*
X112626190Y-139587380D02*
X112150000Y-139587380D01*
X112150000Y-139587380D02*
X112102381Y-140063571D01*
X112102381Y-140063571D02*
X112150000Y-140015952D01*
X112150000Y-140015952D02*
X112245238Y-139968333D01*
X112245238Y-139968333D02*
X112483333Y-139968333D01*
X112483333Y-139968333D02*
X112578571Y-140015952D01*
X112578571Y-140015952D02*
X112626190Y-140063571D01*
X112626190Y-140063571D02*
X112673809Y-140158809D01*
X112673809Y-140158809D02*
X112673809Y-140396904D01*
X112673809Y-140396904D02*
X112626190Y-140492142D01*
X112626190Y-140492142D02*
X112578571Y-140539761D01*
X112578571Y-140539761D02*
X112483333Y-140587380D01*
X112483333Y-140587380D02*
X112245238Y-140587380D01*
X112245238Y-140587380D02*
X112150000Y-140539761D01*
X112150000Y-140539761D02*
X112102381Y-140492142D01*
X113007143Y-139920714D02*
X113245238Y-140587380D01*
X113245238Y-140587380D02*
X113483333Y-139920714D01*
%TO.C,J11*%
X140060476Y-137327380D02*
X140060476Y-138041666D01*
X140060476Y-138041666D02*
X140012857Y-138184523D01*
X140012857Y-138184523D02*
X139917619Y-138279761D01*
X139917619Y-138279761D02*
X139774762Y-138327380D01*
X139774762Y-138327380D02*
X139679524Y-138327380D01*
X141060476Y-138327380D02*
X140489048Y-138327380D01*
X140774762Y-138327380D02*
X140774762Y-137327380D01*
X140774762Y-137327380D02*
X140679524Y-137470238D01*
X140679524Y-137470238D02*
X140584286Y-137565476D01*
X140584286Y-137565476D02*
X140489048Y-137613095D01*
X142012857Y-138327380D02*
X141441429Y-138327380D01*
X141727143Y-138327380D02*
X141727143Y-137327380D01*
X141727143Y-137327380D02*
X141631905Y-137470238D01*
X141631905Y-137470238D02*
X141536667Y-137565476D01*
X141536667Y-137565476D02*
X141441429Y-137613095D01*
X136781905Y-139836428D02*
X137543810Y-139836428D01*
X137162857Y-140217380D02*
X137162857Y-139455476D01*
X138496190Y-139217380D02*
X138020000Y-139217380D01*
X138020000Y-139217380D02*
X137972381Y-139693571D01*
X137972381Y-139693571D02*
X138020000Y-139645952D01*
X138020000Y-139645952D02*
X138115238Y-139598333D01*
X138115238Y-139598333D02*
X138353333Y-139598333D01*
X138353333Y-139598333D02*
X138448571Y-139645952D01*
X138448571Y-139645952D02*
X138496190Y-139693571D01*
X138496190Y-139693571D02*
X138543809Y-139788809D01*
X138543809Y-139788809D02*
X138543809Y-140026904D01*
X138543809Y-140026904D02*
X138496190Y-140122142D01*
X138496190Y-140122142D02*
X138448571Y-140169761D01*
X138448571Y-140169761D02*
X138353333Y-140217380D01*
X138353333Y-140217380D02*
X138115238Y-140217380D01*
X138115238Y-140217380D02*
X138020000Y-140169761D01*
X138020000Y-140169761D02*
X137972381Y-140122142D01*
X138877143Y-139550714D02*
X139115238Y-140217380D01*
X139115238Y-140217380D02*
X139353333Y-139550714D01*
X142171905Y-139866428D02*
X142933810Y-139866428D01*
X143886190Y-139247380D02*
X143410000Y-139247380D01*
X143410000Y-139247380D02*
X143362381Y-139723571D01*
X143362381Y-139723571D02*
X143410000Y-139675952D01*
X143410000Y-139675952D02*
X143505238Y-139628333D01*
X143505238Y-139628333D02*
X143743333Y-139628333D01*
X143743333Y-139628333D02*
X143838571Y-139675952D01*
X143838571Y-139675952D02*
X143886190Y-139723571D01*
X143886190Y-139723571D02*
X143933809Y-139818809D01*
X143933809Y-139818809D02*
X143933809Y-140056904D01*
X143933809Y-140056904D02*
X143886190Y-140152142D01*
X143886190Y-140152142D02*
X143838571Y-140199761D01*
X143838571Y-140199761D02*
X143743333Y-140247380D01*
X143743333Y-140247380D02*
X143505238Y-140247380D01*
X143505238Y-140247380D02*
X143410000Y-140199761D01*
X143410000Y-140199761D02*
X143362381Y-140152142D01*
X144267143Y-139580714D02*
X144505238Y-140247380D01*
X144505238Y-140247380D02*
X144743333Y-139580714D01*
%TO.C,D1*%
X104696904Y-145347380D02*
X104696904Y-144347380D01*
X104696904Y-144347380D02*
X104934999Y-144347380D01*
X104934999Y-144347380D02*
X105077856Y-144395000D01*
X105077856Y-144395000D02*
X105173094Y-144490238D01*
X105173094Y-144490238D02*
X105220713Y-144585476D01*
X105220713Y-144585476D02*
X105268332Y-144775952D01*
X105268332Y-144775952D02*
X105268332Y-144918809D01*
X105268332Y-144918809D02*
X105220713Y-145109285D01*
X105220713Y-145109285D02*
X105173094Y-145204523D01*
X105173094Y-145204523D02*
X105077856Y-145299761D01*
X105077856Y-145299761D02*
X104934999Y-145347380D01*
X104934999Y-145347380D02*
X104696904Y-145347380D01*
X106220713Y-145347380D02*
X105649285Y-145347380D01*
X105934999Y-145347380D02*
X105934999Y-144347380D01*
X105934999Y-144347380D02*
X105839761Y-144490238D01*
X105839761Y-144490238D02*
X105744523Y-144585476D01*
X105744523Y-144585476D02*
X105649285Y-144633095D01*
%TO.C,D3*%
X129771905Y-145687380D02*
X129771905Y-144687380D01*
X129771905Y-144687380D02*
X130010000Y-144687380D01*
X130010000Y-144687380D02*
X130152857Y-144735000D01*
X130152857Y-144735000D02*
X130248095Y-144830238D01*
X130248095Y-144830238D02*
X130295714Y-144925476D01*
X130295714Y-144925476D02*
X130343333Y-145115952D01*
X130343333Y-145115952D02*
X130343333Y-145258809D01*
X130343333Y-145258809D02*
X130295714Y-145449285D01*
X130295714Y-145449285D02*
X130248095Y-145544523D01*
X130248095Y-145544523D02*
X130152857Y-145639761D01*
X130152857Y-145639761D02*
X130010000Y-145687380D01*
X130010000Y-145687380D02*
X129771905Y-145687380D01*
X130676667Y-144687380D02*
X131295714Y-144687380D01*
X131295714Y-144687380D02*
X130962381Y-145068333D01*
X130962381Y-145068333D02*
X131105238Y-145068333D01*
X131105238Y-145068333D02*
X131200476Y-145115952D01*
X131200476Y-145115952D02*
X131248095Y-145163571D01*
X131248095Y-145163571D02*
X131295714Y-145258809D01*
X131295714Y-145258809D02*
X131295714Y-145496904D01*
X131295714Y-145496904D02*
X131248095Y-145592142D01*
X131248095Y-145592142D02*
X131200476Y-145639761D01*
X131200476Y-145639761D02*
X131105238Y-145687380D01*
X131105238Y-145687380D02*
X130819524Y-145687380D01*
X130819524Y-145687380D02*
X130724286Y-145639761D01*
X130724286Y-145639761D02*
X130676667Y-145592142D01*
%TO.C,JP3*%
X97176666Y-142687380D02*
X97176666Y-143401666D01*
X97176666Y-143401666D02*
X97129047Y-143544523D01*
X97129047Y-143544523D02*
X97033809Y-143639761D01*
X97033809Y-143639761D02*
X96890952Y-143687380D01*
X96890952Y-143687380D02*
X96795714Y-143687380D01*
X97652857Y-143687380D02*
X97652857Y-142687380D01*
X97652857Y-142687380D02*
X98033809Y-142687380D01*
X98033809Y-142687380D02*
X98129047Y-142735000D01*
X98129047Y-142735000D02*
X98176666Y-142782619D01*
X98176666Y-142782619D02*
X98224285Y-142877857D01*
X98224285Y-142877857D02*
X98224285Y-143020714D01*
X98224285Y-143020714D02*
X98176666Y-143115952D01*
X98176666Y-143115952D02*
X98129047Y-143163571D01*
X98129047Y-143163571D02*
X98033809Y-143211190D01*
X98033809Y-143211190D02*
X97652857Y-143211190D01*
X98557619Y-142687380D02*
X99176666Y-142687380D01*
X99176666Y-142687380D02*
X98843333Y-143068333D01*
X98843333Y-143068333D02*
X98986190Y-143068333D01*
X98986190Y-143068333D02*
X99081428Y-143115952D01*
X99081428Y-143115952D02*
X99129047Y-143163571D01*
X99129047Y-143163571D02*
X99176666Y-143258809D01*
X99176666Y-143258809D02*
X99176666Y-143496904D01*
X99176666Y-143496904D02*
X99129047Y-143592142D01*
X99129047Y-143592142D02*
X99081428Y-143639761D01*
X99081428Y-143639761D02*
X98986190Y-143687380D01*
X98986190Y-143687380D02*
X98700476Y-143687380D01*
X98700476Y-143687380D02*
X98605238Y-143639761D01*
X98605238Y-143639761D02*
X98557619Y-143592142D01*
%TO.C,JP4*%
X122396666Y-142617380D02*
X122396666Y-143331666D01*
X122396666Y-143331666D02*
X122349047Y-143474523D01*
X122349047Y-143474523D02*
X122253809Y-143569761D01*
X122253809Y-143569761D02*
X122110952Y-143617380D01*
X122110952Y-143617380D02*
X122015714Y-143617380D01*
X122872857Y-143617380D02*
X122872857Y-142617380D01*
X122872857Y-142617380D02*
X123253809Y-142617380D01*
X123253809Y-142617380D02*
X123349047Y-142665000D01*
X123349047Y-142665000D02*
X123396666Y-142712619D01*
X123396666Y-142712619D02*
X123444285Y-142807857D01*
X123444285Y-142807857D02*
X123444285Y-142950714D01*
X123444285Y-142950714D02*
X123396666Y-143045952D01*
X123396666Y-143045952D02*
X123349047Y-143093571D01*
X123349047Y-143093571D02*
X123253809Y-143141190D01*
X123253809Y-143141190D02*
X122872857Y-143141190D01*
X124301428Y-142950714D02*
X124301428Y-143617380D01*
X124063333Y-142569761D02*
X123825238Y-143284047D01*
X123825238Y-143284047D02*
X124444285Y-143284047D01*
%TO.C,R2*%
X105115833Y-151137380D02*
X104782500Y-150661190D01*
X104544405Y-151137380D02*
X104544405Y-150137380D01*
X104544405Y-150137380D02*
X104925357Y-150137380D01*
X104925357Y-150137380D02*
X105020595Y-150185000D01*
X105020595Y-150185000D02*
X105068214Y-150232619D01*
X105068214Y-150232619D02*
X105115833Y-150327857D01*
X105115833Y-150327857D02*
X105115833Y-150470714D01*
X105115833Y-150470714D02*
X105068214Y-150565952D01*
X105068214Y-150565952D02*
X105020595Y-150613571D01*
X105020595Y-150613571D02*
X104925357Y-150661190D01*
X104925357Y-150661190D02*
X104544405Y-150661190D01*
X105496786Y-150232619D02*
X105544405Y-150185000D01*
X105544405Y-150185000D02*
X105639643Y-150137380D01*
X105639643Y-150137380D02*
X105877738Y-150137380D01*
X105877738Y-150137380D02*
X105972976Y-150185000D01*
X105972976Y-150185000D02*
X106020595Y-150232619D01*
X106020595Y-150232619D02*
X106068214Y-150327857D01*
X106068214Y-150327857D02*
X106068214Y-150423095D01*
X106068214Y-150423095D02*
X106020595Y-150565952D01*
X106020595Y-150565952D02*
X105449167Y-151137380D01*
X105449167Y-151137380D02*
X106068214Y-151137380D01*
%TO.C,R3*%
X130370833Y-150847380D02*
X130037500Y-150371190D01*
X129799405Y-150847380D02*
X129799405Y-149847380D01*
X129799405Y-149847380D02*
X130180357Y-149847380D01*
X130180357Y-149847380D02*
X130275595Y-149895000D01*
X130275595Y-149895000D02*
X130323214Y-149942619D01*
X130323214Y-149942619D02*
X130370833Y-150037857D01*
X130370833Y-150037857D02*
X130370833Y-150180714D01*
X130370833Y-150180714D02*
X130323214Y-150275952D01*
X130323214Y-150275952D02*
X130275595Y-150323571D01*
X130275595Y-150323571D02*
X130180357Y-150371190D01*
X130180357Y-150371190D02*
X129799405Y-150371190D01*
X130704167Y-149847380D02*
X131323214Y-149847380D01*
X131323214Y-149847380D02*
X130989881Y-150228333D01*
X130989881Y-150228333D02*
X131132738Y-150228333D01*
X131132738Y-150228333D02*
X131227976Y-150275952D01*
X131227976Y-150275952D02*
X131275595Y-150323571D01*
X131275595Y-150323571D02*
X131323214Y-150418809D01*
X131323214Y-150418809D02*
X131323214Y-150656904D01*
X131323214Y-150656904D02*
X131275595Y-150752142D01*
X131275595Y-150752142D02*
X131227976Y-150799761D01*
X131227976Y-150799761D02*
X131132738Y-150847380D01*
X131132738Y-150847380D02*
X130847024Y-150847380D01*
X130847024Y-150847380D02*
X130751786Y-150799761D01*
X130751786Y-150799761D02*
X130704167Y-150752142D01*
D16*
%TO.C,D2*%
X88191071Y-150760345D02*
X88191071Y-149290345D01*
X88191071Y-149290345D02*
X85731071Y-149290345D01*
X85731071Y-150760345D02*
X88191071Y-150760345D01*
%TO.C,J1*%
X205460000Y-135940000D02*
X205460000Y-137070000D01*
X204700000Y-135940000D02*
X205460000Y-135940000D01*
X203940000Y-135940000D02*
X198925000Y-135940000D01*
X203940000Y-135940000D02*
X203940000Y-136506529D01*
X198925000Y-135940000D02*
X198925000Y-136762470D01*
X198925000Y-137377530D02*
X198925000Y-138032470D01*
X203940000Y-137633471D02*
X203940000Y-137776529D01*
X205395000Y-137830000D02*
X205395000Y-138032470D01*
X205263471Y-137830000D02*
X205395000Y-137830000D01*
X203993471Y-137830000D02*
X204136529Y-137830000D01*
X205395000Y-138647530D02*
X205395000Y-139470000D01*
X198925000Y-138647530D02*
X198925000Y-139470000D01*
X205395000Y-139470000D02*
X198925000Y-139470000D01*
%TO.C,J4*%
X197179000Y-97160000D02*
X197179000Y-100060000D01*
X199084000Y-95255000D02*
X201984000Y-95255000D01*
X199084000Y-101965000D02*
X201984000Y-101965000D01*
X203889000Y-97160000D02*
X203889000Y-100060000D01*
%TO.C,J5*%
X197275000Y-110520000D02*
X197275000Y-113420000D01*
X199180000Y-108615000D02*
X202080000Y-108615000D01*
X199180000Y-115325000D02*
X202080000Y-115325000D01*
X203985000Y-110520000D02*
X203985000Y-113420000D01*
%TO.C,J2*%
X167290000Y-85030000D02*
X167290000Y-83900000D01*
X168050000Y-85030000D02*
X167290000Y-85030000D01*
X168810000Y-85030000D02*
X173825000Y-85030000D01*
X168810000Y-85030000D02*
X168810000Y-84463471D01*
X173825000Y-85030000D02*
X173825000Y-84207530D01*
X173825000Y-83592470D02*
X173825000Y-82937530D01*
X168810000Y-83336529D02*
X168810000Y-83193471D01*
X167355000Y-83140000D02*
X167355000Y-82937530D01*
X167486529Y-83140000D02*
X167355000Y-83140000D01*
X168756529Y-83140000D02*
X168613471Y-83140000D01*
X167355000Y-82322470D02*
X167355000Y-81500000D01*
X173825000Y-82322470D02*
X173825000Y-81500000D01*
X167355000Y-81500000D02*
X173825000Y-81500000D01*
%TO.C,JP1*%
X170940000Y-149490000D02*
X169610000Y-149490000D01*
X170940000Y-148160000D02*
X170940000Y-149490000D01*
X170940000Y-146890000D02*
X170940000Y-141750000D01*
X170940000Y-146890000D02*
X168280000Y-146890000D01*
X170940000Y-141750000D02*
X168280000Y-141750000D01*
X168280000Y-146890000D02*
X168280000Y-141750000D01*
%TO.C,JP2*%
X191340000Y-149330000D02*
X190010000Y-149330000D01*
X191340000Y-148000000D02*
X191340000Y-149330000D01*
X191340000Y-146730000D02*
X191340000Y-141590000D01*
X191340000Y-146730000D02*
X188680000Y-146730000D01*
X191340000Y-141590000D02*
X188680000Y-141590000D01*
X188680000Y-146730000D02*
X188680000Y-141590000D01*
%TO.C,R1*%
X89897507Y-149163345D02*
X90351635Y-149163345D01*
X89897507Y-150633345D02*
X90351635Y-150633345D01*
%TO.C,J3*%
X194080000Y-131310000D02*
X194080000Y-128500000D01*
X200140000Y-131310000D02*
X194080000Y-131310000D01*
X207300000Y-131310000D02*
X204240000Y-131310000D01*
X193890000Y-127200000D02*
X193890000Y-125200000D01*
X194080000Y-123900000D02*
X194080000Y-121090000D01*
X194080000Y-121090000D02*
X200140000Y-121090000D01*
X204240000Y-121090000D02*
X207300000Y-121090000D01*
X207300000Y-121090000D02*
X207300000Y-131310000D01*
%TO.C,J7*%
X195710000Y-81710000D02*
X195710000Y-82840000D01*
X194950000Y-81710000D02*
X195710000Y-81710000D01*
X194190000Y-81710000D02*
X189175000Y-81710000D01*
X194190000Y-81710000D02*
X194190000Y-82276529D01*
X189175000Y-81710000D02*
X189175000Y-82532470D01*
X189175000Y-83147530D02*
X189175000Y-83802470D01*
X194190000Y-83403471D02*
X194190000Y-83546529D01*
X195645000Y-83600000D02*
X195645000Y-83802470D01*
X195513471Y-83600000D02*
X195645000Y-83600000D01*
X194243471Y-83600000D02*
X194386529Y-83600000D01*
X195645000Y-84417530D02*
X195645000Y-85240000D01*
X189175000Y-84417530D02*
X189175000Y-85240000D01*
X195645000Y-85240000D02*
X189175000Y-85240000D01*
%TO.C,J6*%
X86020000Y-94880000D02*
X86020000Y-145800000D01*
X86020000Y-94880000D02*
X88620000Y-94880000D01*
X86020000Y-145800000D02*
X91220000Y-145800000D01*
X88620000Y-94880000D02*
X88620000Y-97480000D01*
X88620000Y-97480000D02*
X91220000Y-97480000D01*
X89890000Y-94880000D02*
X91220000Y-94880000D01*
X91220000Y-94880000D02*
X91220000Y-96210000D01*
X91220000Y-97480000D02*
X91220000Y-145800000D01*
%TO.C,J8*%
X158405000Y-143920000D02*
X158405000Y-146820000D01*
X160310000Y-142015000D02*
X163210000Y-142015000D01*
X160310000Y-148725000D02*
X163210000Y-148725000D01*
X165115000Y-143920000D02*
X165115000Y-146820000D01*
%TO.C,J9*%
X177615000Y-143930000D02*
X177615000Y-146830000D01*
X179520000Y-142025000D02*
X182420000Y-142025000D01*
X179520000Y-148735000D02*
X182420000Y-148735000D01*
X184325000Y-143930000D02*
X184325000Y-146830000D01*
%TO.C,J12*%
X88170000Y-86390000D02*
X88170000Y-85060000D01*
X89500000Y-86390000D02*
X88170000Y-86390000D01*
X90770000Y-86390000D02*
X100990000Y-86390000D01*
X90770000Y-86390000D02*
X90770000Y-83730000D01*
X100990000Y-86390000D02*
X100990000Y-83730000D01*
X90770000Y-83730000D02*
X100990000Y-83730000D01*
D17*
%TO.C,IC3*%
X134900000Y-82900000D02*
X136100000Y-82900000D01*
%TO.C,IC4*%
X108990000Y-82900000D02*
X110190000Y-82900000D01*
D18*
%TO.C,J13*%
X139680000Y-82450000D02*
X139680000Y-85550000D01*
X139680000Y-85550000D02*
X145380000Y-85550000D01*
D17*
X140780000Y-81450000D02*
X140780000Y-81450000D01*
X140780000Y-81650000D02*
X140780000Y-81650000D01*
D18*
X145380000Y-85550000D02*
X145380000Y-82550000D01*
D17*
X140780000Y-81650000D02*
G75*
G03*
X140780000Y-81450000I0J100000D01*
G01*
X140780000Y-81450000D02*
G75*
G03*
X140780000Y-81650000I0J-100000D01*
G01*
D18*
%TO.C,J14*%
X113740000Y-82990000D02*
X113740000Y-86090000D01*
X113740000Y-86090000D02*
X119440000Y-86090000D01*
D17*
X114840000Y-81990000D02*
X114840000Y-81990000D01*
X114840000Y-82190000D02*
X114840000Y-82190000D01*
D18*
X119440000Y-86090000D02*
X119440000Y-83090000D01*
D17*
X114840000Y-82190000D02*
G75*
G03*
X114840000Y-81990000I0J100000D01*
G01*
X114840000Y-81990000D02*
G75*
G03*
X114840000Y-82190000I0J-100000D01*
G01*
D18*
%TO.C,J15*%
X153620000Y-80700000D02*
X153620000Y-80700000D01*
X153620000Y-80700000D02*
X151620000Y-80700000D01*
X151620000Y-80700000D02*
X153620000Y-80700000D01*
X151620000Y-80700000D02*
X151620000Y-80700000D01*
X156120000Y-83200000D02*
X156120000Y-83200000D01*
X156120000Y-83200000D02*
X156120000Y-85200000D01*
X149120000Y-83200000D02*
X149120000Y-83200000D01*
X149120000Y-83200000D02*
X149120000Y-85200000D01*
X156120000Y-85200000D02*
X156120000Y-83200000D01*
X156120000Y-85200000D02*
X156120000Y-85200000D01*
X149120000Y-85200000D02*
X149120000Y-83200000D01*
X149120000Y-85200000D02*
X149120000Y-85200000D01*
X153620000Y-87700000D02*
X153620000Y-87700000D01*
X153620000Y-87700000D02*
X151620000Y-87700000D01*
X151620000Y-87700000D02*
X153620000Y-87700000D01*
X151620000Y-87700000D02*
X151620000Y-87700000D01*
D17*
X152620000Y-88500000D02*
X152620000Y-88500000D01*
X152620000Y-88500000D02*
X152620000Y-88500000D01*
X152620000Y-88600000D02*
X152620000Y-88600000D01*
X152620000Y-88600000D02*
G75*
G03*
X152620000Y-88500000I0J50000D01*
G01*
X152620000Y-88500000D02*
G75*
G03*
X152620000Y-88600000I0J-50000D01*
G01*
X152620000Y-88500000D02*
G75*
G03*
X152620000Y-88600000I0J-50000D01*
G01*
D18*
%TO.C,J16*%
X127950000Y-80640000D02*
X127950000Y-80640000D01*
X127950000Y-80640000D02*
X125950000Y-80640000D01*
X125950000Y-80640000D02*
X127950000Y-80640000D01*
X125950000Y-80640000D02*
X125950000Y-80640000D01*
X130450000Y-83140000D02*
X130450000Y-83140000D01*
X130450000Y-83140000D02*
X130450000Y-85140000D01*
X123450000Y-83140000D02*
X123450000Y-83140000D01*
X123450000Y-83140000D02*
X123450000Y-85140000D01*
X130450000Y-85140000D02*
X130450000Y-83140000D01*
X130450000Y-85140000D02*
X130450000Y-85140000D01*
X123450000Y-85140000D02*
X123450000Y-83140000D01*
X123450000Y-85140000D02*
X123450000Y-85140000D01*
X127950000Y-87640000D02*
X127950000Y-87640000D01*
X127950000Y-87640000D02*
X125950000Y-87640000D01*
X125950000Y-87640000D02*
X127950000Y-87640000D01*
X125950000Y-87640000D02*
X125950000Y-87640000D01*
D17*
X126950000Y-88440000D02*
X126950000Y-88440000D01*
X126950000Y-88440000D02*
X126950000Y-88440000D01*
X126950000Y-88540000D02*
X126950000Y-88540000D01*
X126950000Y-88540000D02*
G75*
G03*
X126950000Y-88440000I0J50000D01*
G01*
X126950000Y-88440000D02*
G75*
G03*
X126950000Y-88540000I0J-50000D01*
G01*
X126950000Y-88440000D02*
G75*
G03*
X126950000Y-88540000I0J-50000D01*
G01*
D16*
%TO.C,C1*%
X140698748Y-145795000D02*
X141221252Y-145795000D01*
X140698748Y-147265000D02*
X141221252Y-147265000D01*
%TO.C,C2*%
X117780000Y-146353733D02*
X117780000Y-146646267D01*
X116760000Y-146353733D02*
X116760000Y-146646267D01*
%TO.C,C3*%
X114178748Y-146015000D02*
X114701252Y-146015000D01*
X114178748Y-147485000D02*
X114701252Y-147485000D01*
%TO.C,C4*%
X144250000Y-146113733D02*
X144250000Y-146406267D01*
X143230000Y-146113733D02*
X143230000Y-146406267D01*
%TO.C,C5*%
X109541252Y-151145000D02*
X109018748Y-151145000D01*
X109541252Y-149675000D02*
X109018748Y-149675000D01*
%TO.C,C6*%
X119118748Y-150165000D02*
X119641252Y-150165000D01*
X119118748Y-151635000D02*
X119641252Y-151635000D01*
%TO.C,C7*%
X135721252Y-151005000D02*
X135198748Y-151005000D01*
X135721252Y-149535000D02*
X135198748Y-149535000D01*
%TO.C,C8*%
X145618748Y-149785000D02*
X146141252Y-149785000D01*
X145618748Y-151255000D02*
X146141252Y-151255000D01*
D11*
%TO.C,IC1*%
X112550000Y-148010000D02*
G75*
G03*
X112550000Y-148010000I-125000J0D01*
G01*
%TO.C,IC2*%
X139060000Y-147670000D02*
G75*
G03*
X139060000Y-147670000I-125000J0D01*
G01*
D16*
%TO.C,L1*%
X111740000Y-146528748D02*
X111740000Y-147051252D01*
X109520000Y-146528748D02*
X109520000Y-147051252D01*
%TO.C,L2*%
X137820000Y-146046248D02*
X137820000Y-146568752D01*
X135600000Y-146046248D02*
X135600000Y-146568752D01*
%TO.C,L3*%
X118430000Y-147951252D02*
X118430000Y-147428748D01*
X120650000Y-147951252D02*
X120650000Y-147428748D01*
%TO.C,L4*%
X144800000Y-147501252D02*
X144800000Y-146978748D01*
X147020000Y-147501252D02*
X147020000Y-146978748D01*
%TO.C,J10*%
X111250000Y-144180000D02*
X111250000Y-142850000D01*
X112580000Y-144180000D02*
X111250000Y-144180000D01*
X113850000Y-141520000D02*
X118990000Y-141520000D01*
X113850000Y-144180000D02*
X113850000Y-141520000D01*
X113850000Y-144180000D02*
X118990000Y-144180000D01*
X118990000Y-144180000D02*
X118990000Y-141520000D01*
X110600000Y-103230000D02*
G75*
G03*
X110600000Y-103230000I-2000000J0D01*
G01*
X110600000Y-133230000D02*
G75*
G03*
X110600000Y-133230000I-2000000J0D01*
G01*
X126600000Y-103230000D02*
G75*
G03*
X126600000Y-103230000I-2000000J0D01*
G01*
X126600000Y-133230000D02*
G75*
G03*
X126600000Y-133230000I-2000000J0D01*
G01*
%TO.C,J11*%
X137030000Y-143740000D02*
X137030000Y-142410000D01*
X138360000Y-143740000D02*
X137030000Y-143740000D01*
X139630000Y-141080000D02*
X144770000Y-141080000D01*
X139630000Y-143740000D02*
X139630000Y-141080000D01*
X139630000Y-143740000D02*
X144770000Y-143740000D01*
X144770000Y-143740000D02*
X144770000Y-141080000D01*
X136380000Y-102790000D02*
G75*
G03*
X136380000Y-102790000I-2000000J0D01*
G01*
X136380000Y-132790000D02*
G75*
G03*
X136380000Y-132790000I-2000000J0D01*
G01*
X152380000Y-102790000D02*
G75*
G03*
X152380000Y-102790000I-2000000J0D01*
G01*
X152380000Y-132790000D02*
G75*
G03*
X152380000Y-132790000I-2000000J0D01*
G01*
%TO.C,D1*%
X106960000Y-147305000D02*
X106960000Y-145835000D01*
X106960000Y-145835000D02*
X104500000Y-145835000D01*
X104500000Y-147305000D02*
X106960000Y-147305000D01*
%TO.C,D3*%
X132180000Y-147535000D02*
X132180000Y-146065000D01*
X132180000Y-146065000D02*
X129720000Y-146065000D01*
X129720000Y-147535000D02*
X132180000Y-147535000D01*
%TO.C,JP3*%
X99900000Y-142620000D02*
X101230000Y-142620000D01*
X99900000Y-143950000D02*
X99900000Y-142620000D01*
X99900000Y-145220000D02*
X99900000Y-150360000D01*
X99900000Y-145220000D02*
X102560000Y-145220000D01*
X99900000Y-150360000D02*
X102560000Y-150360000D01*
X102560000Y-145220000D02*
X102560000Y-150360000D01*
%TO.C,JP4*%
X125230000Y-142700000D02*
X126560000Y-142700000D01*
X125230000Y-144030000D02*
X125230000Y-142700000D01*
X125230000Y-145300000D02*
X125230000Y-150440000D01*
X125230000Y-145300000D02*
X127890000Y-145300000D01*
X125230000Y-150440000D02*
X127890000Y-150440000D01*
X127890000Y-145300000D02*
X127890000Y-150440000D01*
%TO.C,R2*%
X105509564Y-149855000D02*
X105055436Y-149855000D01*
X105509564Y-148385000D02*
X105055436Y-148385000D01*
%TO.C,R3*%
X130764564Y-149565000D02*
X130310436Y-149565000D01*
X130764564Y-148095000D02*
X130310436Y-148095000D01*
%TD*%
M02*
