%TF.GenerationSoftware,KiCad,Pcbnew,(7.0.0)*%
%TF.CreationDate,2024-03-13T17:03:37-07:00*%
%TF.ProjectId,2P_miniscope_interconnect_board_v3,32505f6d-696e-4697-9363-6f70655f696e,rev?*%
%TF.SameCoordinates,Original*%
%TF.FileFunction,Paste,Top*%
%TF.FilePolarity,Positive*%
%FSLAX46Y46*%
G04 Gerber Fmt 4.6, Leading zero omitted, Abs format (unit mm)*
G04 Created by KiCad (PCBNEW (7.0.0)) date 2024-03-13 17:03:37*
%MOMM*%
%LPD*%
G01*
G04 APERTURE LIST*
G04 Aperture macros list*
%AMRoundRect*
0 Rectangle with rounded corners*
0 $1 Rounding radius*
0 $2 $3 $4 $5 $6 $7 $8 $9 X,Y pos of 4 corners*
0 Add a 4 corners polygon primitive as box body*
4,1,4,$2,$3,$4,$5,$6,$7,$8,$9,$2,$3,0*
0 Add four circle primitives for the rounded corners*
1,1,$1+$1,$2,$3*
1,1,$1+$1,$4,$5*
1,1,$1+$1,$6,$7*
1,1,$1+$1,$8,$9*
0 Add four rect primitives between the rounded corners*
20,1,$1+$1,$2,$3,$4,$5,0*
20,1,$1+$1,$4,$5,$6,$7,0*
20,1,$1+$1,$6,$7,$8,$9,0*
20,1,$1+$1,$8,$9,$2,$3,0*%
G04 Aperture macros list end*
%ADD10RoundRect,0.237500X0.287500X0.237500X-0.287500X0.237500X-0.287500X-0.237500X0.287500X-0.237500X0*%
%ADD11RoundRect,0.250000X-0.262500X-0.450000X0.262500X-0.450000X0.262500X0.450000X-0.262500X0.450000X0*%
%ADD12R,1.200000X0.400000*%
%ADD13R,0.300000X0.700000*%
%ADD14R,0.300000X1.000000*%
%ADD15RoundRect,0.250000X-0.337500X-0.475000X0.337500X-0.475000X0.337500X0.475000X-0.337500X0.475000X0*%
%ADD16RoundRect,0.237500X-0.237500X0.300000X-0.237500X-0.300000X0.237500X-0.300000X0.237500X0.300000X0*%
%ADD17RoundRect,0.250000X0.337500X0.475000X-0.337500X0.475000X-0.337500X-0.475000X0.337500X-0.475000X0*%
%ADD18R,0.850000X0.250000*%
%ADD19R,1.310000X2.120000*%
%ADD20RoundRect,0.250001X-0.849999X0.462499X-0.849999X-0.462499X0.849999X-0.462499X0.849999X0.462499X0*%
%ADD21RoundRect,0.250001X0.849999X-0.462499X0.849999X0.462499X-0.849999X0.462499X-0.849999X-0.462499X0*%
%ADD22RoundRect,0.250000X0.262500X0.450000X-0.262500X0.450000X-0.262500X-0.450000X0.262500X-0.450000X0*%
G04 APERTURE END LIST*
D10*
%TO.C,D2*%
X87406071Y-150025345D03*
X85656071Y-150025345D03*
%TD*%
D11*
%TO.C,R1*%
X89212071Y-149898345D03*
X91037071Y-149898345D03*
%TD*%
D12*
%TO.C,IC3*%
X135499999Y-83349999D03*
X135499999Y-83999999D03*
X135499999Y-84649999D03*
X137399999Y-84649999D03*
X137399999Y-83349999D03*
%TD*%
%TO.C,IC4*%
X109589999Y-83349999D03*
X109589999Y-83999999D03*
X109589999Y-84649999D03*
X111489999Y-84649999D03*
X111489999Y-83349999D03*
%TD*%
D13*
%TO.C,J13*%
X140779999Y-82249999D03*
X141279999Y-82249999D03*
X141779999Y-82249999D03*
X142279999Y-82249999D03*
X142779999Y-82249999D03*
X143279999Y-82249999D03*
X143779999Y-82249999D03*
X144279999Y-82249999D03*
D14*
X139989999Y-84899999D03*
X145069999Y-84899999D03*
%TD*%
D13*
%TO.C,J14*%
X114839999Y-82789999D03*
X115339999Y-82789999D03*
X115839999Y-82789999D03*
X116339999Y-82789999D03*
X116839999Y-82789999D03*
X117339999Y-82789999D03*
X117839999Y-82789999D03*
X118339999Y-82789999D03*
D14*
X114049999Y-85439999D03*
X119129999Y-85439999D03*
%TD*%
D15*
%TO.C,C1*%
X139922500Y-146530000D03*
X141997500Y-146530000D03*
%TD*%
D16*
%TO.C,C2*%
X117270000Y-145637500D03*
X117270000Y-147362500D03*
%TD*%
D15*
%TO.C,C3*%
X113402500Y-146750000D03*
X115477500Y-146750000D03*
%TD*%
D16*
%TO.C,C4*%
X143740000Y-145397500D03*
X143740000Y-147122500D03*
%TD*%
D17*
%TO.C,C5*%
X110317500Y-150410000D03*
X108242500Y-150410000D03*
%TD*%
D15*
%TO.C,C6*%
X118342500Y-150900000D03*
X120417500Y-150900000D03*
%TD*%
D17*
%TO.C,C7*%
X136497500Y-150270000D03*
X134422500Y-150270000D03*
%TD*%
D15*
%TO.C,C8*%
X144842500Y-150520000D03*
X146917500Y-150520000D03*
%TD*%
D18*
%TO.C,IC1*%
X112849999Y-148634999D03*
X112849999Y-149084999D03*
X112849999Y-149534999D03*
X112849999Y-149984999D03*
X112849999Y-150434999D03*
X112849999Y-150884999D03*
X115749999Y-150884999D03*
X115749999Y-150434999D03*
X115749999Y-149984999D03*
X115749999Y-149534999D03*
X115749999Y-149084999D03*
X115749999Y-148634999D03*
D19*
X114299999Y-149759999D03*
%TD*%
D18*
%TO.C,IC2*%
X139359999Y-148294999D03*
X139359999Y-148744999D03*
X139359999Y-149194999D03*
X139359999Y-149644999D03*
X139359999Y-150094999D03*
X139359999Y-150544999D03*
X142259999Y-150544999D03*
X142259999Y-150094999D03*
X142259999Y-149644999D03*
X142259999Y-149194999D03*
X142259999Y-148744999D03*
X142259999Y-148294999D03*
D19*
X140809999Y-149419999D03*
%TD*%
D20*
%TO.C,L1*%
X110630000Y-145627500D03*
X110630000Y-147952500D03*
%TD*%
%TO.C,L2*%
X136710000Y-145145000D03*
X136710000Y-147470000D03*
%TD*%
D21*
%TO.C,L3*%
X119540000Y-148852500D03*
X119540000Y-146527500D03*
%TD*%
%TO.C,L4*%
X145910000Y-148402500D03*
X145910000Y-146077500D03*
%TD*%
D10*
%TO.C,D1*%
X106175000Y-146570000D03*
X104425000Y-146570000D03*
%TD*%
%TO.C,D3*%
X131395000Y-146800000D03*
X129645000Y-146800000D03*
%TD*%
D22*
%TO.C,R2*%
X106195000Y-149120000D03*
X104370000Y-149120000D03*
%TD*%
%TO.C,R3*%
X131450000Y-148830000D03*
X129625000Y-148830000D03*
%TD*%
M02*
