%TF.GenerationSoftware,KiCad,Pcbnew,(7.0.0)*%
%TF.CreationDate,2024-03-13T17:03:37-07:00*%
%TF.ProjectId,2P_miniscope_interconnect_board_v3,32505f6d-696e-4697-9363-6f70655f696e,rev?*%
%TF.SameCoordinates,Original*%
%TF.FileFunction,Soldermask,Top*%
%TF.FilePolarity,Negative*%
%FSLAX46Y46*%
G04 Gerber Fmt 4.6, Leading zero omitted, Abs format (unit mm)*
G04 Created by KiCad (PCBNEW (7.0.0)) date 2024-03-13 17:03:37*
%MOMM*%
%LPD*%
G01*
G04 APERTURE LIST*
G04 Aperture macros list*
%AMRoundRect*
0 Rectangle with rounded corners*
0 $1 Rounding radius*
0 $2 $3 $4 $5 $6 $7 $8 $9 X,Y pos of 4 corners*
0 Add a 4 corners polygon primitive as box body*
4,1,4,$2,$3,$4,$5,$6,$7,$8,$9,$2,$3,0*
0 Add four circle primitives for the rounded corners*
1,1,$1+$1,$2,$3*
1,1,$1+$1,$4,$5*
1,1,$1+$1,$6,$7*
1,1,$1+$1,$8,$9*
0 Add four rect primitives between the rounded corners*
20,1,$1+$1,$2,$3,$4,$5,0*
20,1,$1+$1,$4,$5,$6,$7,0*
20,1,$1+$1,$6,$7,$8,$9,0*
20,1,$1+$1,$8,$9,$2,$3,0*%
G04 Aperture macros list end*
%ADD10C,0.800000*%
%ADD11C,5.000000*%
%ADD12RoundRect,0.237500X0.287500X0.237500X-0.287500X0.237500X-0.287500X-0.237500X0.287500X-0.237500X0*%
%ADD13R,1.000000X1.000000*%
%ADD14O,1.000000X1.000000*%
%ADD15C,2.050000*%
%ADD16C,2.250000*%
%ADD17R,1.700000X1.700000*%
%ADD18O,1.700000X1.700000*%
%ADD19RoundRect,0.250000X-0.262500X-0.450000X0.262500X-0.450000X0.262500X0.450000X-0.262500X0.450000X0*%
%ADD20C,1.600000*%
%ADD21R,2.000000X4.000000*%
%ADD22O,2.000000X3.300000*%
%ADD23O,3.500000X2.000000*%
%ADD24R,1.200000X0.400000*%
%ADD25R,0.300000X0.700000*%
%ADD26R,0.300000X1.000000*%
%ADD27C,2.550000*%
%ADD28RoundRect,0.250000X-0.337500X-0.475000X0.337500X-0.475000X0.337500X0.475000X-0.337500X0.475000X0*%
%ADD29RoundRect,0.237500X-0.237500X0.300000X-0.237500X-0.300000X0.237500X-0.300000X0.237500X0.300000X0*%
%ADD30RoundRect,0.250000X0.337500X0.475000X-0.337500X0.475000X-0.337500X-0.475000X0.337500X-0.475000X0*%
%ADD31R,0.850000X0.250000*%
%ADD32R,1.310000X2.120000*%
%ADD33RoundRect,0.250001X-0.849999X0.462499X-0.849999X-0.462499X0.849999X-0.462499X0.849999X0.462499X0*%
%ADD34RoundRect,0.250001X0.849999X-0.462499X0.849999X0.462499X-0.849999X0.462499X-0.849999X-0.462499X0*%
%ADD35RoundRect,0.250000X0.262500X0.450000X-0.262500X0.450000X-0.262500X-0.450000X0.262500X-0.450000X0*%
G04 APERTURE END LIST*
D10*
%TO.C,H1*%
X78125000Y-150000000D03*
X78674175Y-148674175D03*
X78674175Y-151325825D03*
X80000000Y-148125000D03*
D11*
X80000000Y-150000000D03*
D10*
X80000000Y-151875000D03*
X81325825Y-148674175D03*
X81325825Y-151325825D03*
X81875000Y-150000000D03*
%TD*%
%TO.C,H2*%
X78125000Y-83000000D03*
X78674175Y-81674175D03*
X78674175Y-84325825D03*
X80000000Y-81125000D03*
D11*
X80000000Y-83000000D03*
D10*
X80000000Y-84875000D03*
X81325825Y-81674175D03*
X81325825Y-84325825D03*
X81875000Y-83000000D03*
%TD*%
%TO.C,H3*%
X203125000Y-83000000D03*
X203674175Y-81674175D03*
X203674175Y-84325825D03*
X205000000Y-81125000D03*
D11*
X205000000Y-83000000D03*
D10*
X205000000Y-84875000D03*
X206325825Y-81674175D03*
X206325825Y-84325825D03*
X206875000Y-83000000D03*
%TD*%
%TO.C,H4*%
X203125000Y-150000000D03*
X203674175Y-148674175D03*
X203674175Y-151325825D03*
X205000000Y-148125000D03*
D11*
X205000000Y-150000000D03*
D10*
X205000000Y-151875000D03*
X206325825Y-148674175D03*
X206325825Y-151325825D03*
X206875000Y-150000000D03*
%TD*%
D12*
%TO.C,D2*%
X87406071Y-150025345D03*
X85656071Y-150025345D03*
%TD*%
D13*
%TO.C,J1*%
X204699999Y-137069999D03*
D14*
X204699999Y-138339999D03*
X203429999Y-137069999D03*
X203429999Y-138339999D03*
X202159999Y-137069999D03*
X202159999Y-138339999D03*
X200889999Y-137069999D03*
X200889999Y-138339999D03*
X199619999Y-137069999D03*
X199619999Y-138339999D03*
%TD*%
D15*
%TO.C,J4*%
X200534000Y-98610000D03*
D16*
X197994000Y-96070000D03*
X197994000Y-101150000D03*
X203074000Y-96070000D03*
X203074000Y-101150000D03*
%TD*%
D15*
%TO.C,J5*%
X200630000Y-111970000D03*
D16*
X198090000Y-109430000D03*
X198090000Y-114510000D03*
X203170000Y-109430000D03*
X203170000Y-114510000D03*
%TD*%
D13*
%TO.C,J2*%
X168049999Y-83899999D03*
D14*
X168049999Y-82629999D03*
X169319999Y-83899999D03*
X169319999Y-82629999D03*
X170589999Y-83899999D03*
X170589999Y-82629999D03*
X171859999Y-83899999D03*
X171859999Y-82629999D03*
X173129999Y-83899999D03*
X173129999Y-82629999D03*
%TD*%
D17*
%TO.C,JP1*%
X169609999Y-148159999D03*
D18*
X169609999Y-145619999D03*
X169609999Y-143079999D03*
%TD*%
D17*
%TO.C,JP2*%
X190009999Y-147999999D03*
D18*
X190009999Y-145459999D03*
X190009999Y-142919999D03*
%TD*%
D19*
%TO.C,R1*%
X89212071Y-149898345D03*
X91037071Y-149898345D03*
%TD*%
D20*
%TO.C,J3*%
X204190000Y-126200000D03*
D21*
X195189999Y-126199999D03*
D22*
X201189999Y-126199999D03*
D23*
X202189999Y-130699999D03*
X202189999Y-121699999D03*
%TD*%
D13*
%TO.C,J7*%
X194949999Y-82839999D03*
D14*
X194949999Y-84109999D03*
X193679999Y-82839999D03*
X193679999Y-84109999D03*
X192409999Y-82839999D03*
X192409999Y-84109999D03*
X191139999Y-82839999D03*
X191139999Y-84109999D03*
X189869999Y-82839999D03*
X189869999Y-84109999D03*
%TD*%
D17*
%TO.C,J6*%
X89889999Y-96209999D03*
D18*
X87349999Y-96209999D03*
X89889999Y-98749999D03*
X87349999Y-98749999D03*
X89889999Y-101289999D03*
X87349999Y-101289999D03*
X89889999Y-103829999D03*
X87349999Y-103829999D03*
X89889999Y-106369999D03*
X87349999Y-106369999D03*
X89889999Y-108909999D03*
X87349999Y-108909999D03*
X89889999Y-111449999D03*
X87349999Y-111449999D03*
X89889999Y-113989999D03*
X87349999Y-113989999D03*
X89889999Y-116529999D03*
X87349999Y-116529999D03*
X89889999Y-119069999D03*
X87349999Y-119069999D03*
X89889999Y-121609999D03*
X87349999Y-121609999D03*
X89889999Y-124149999D03*
X87349999Y-124149999D03*
X89889999Y-126689999D03*
X87349999Y-126689999D03*
X89889999Y-129229999D03*
X87349999Y-129229999D03*
X89889999Y-131769999D03*
X87349999Y-131769999D03*
X89889999Y-134309999D03*
X87349999Y-134309999D03*
X89889999Y-136849999D03*
X87349999Y-136849999D03*
X89889999Y-139389999D03*
X87349999Y-139389999D03*
X89889999Y-141929999D03*
X87349999Y-141929999D03*
X89889999Y-144469999D03*
X87349999Y-144469999D03*
%TD*%
D15*
%TO.C,J8*%
X161760000Y-145370000D03*
D16*
X159220000Y-142830000D03*
X159220000Y-147910000D03*
X164300000Y-142830000D03*
X164300000Y-147910000D03*
%TD*%
D15*
%TO.C,J9*%
X180970000Y-145380000D03*
D16*
X178430000Y-142840000D03*
X178430000Y-147920000D03*
X183510000Y-142840000D03*
X183510000Y-147920000D03*
%TD*%
D17*
%TO.C,J12*%
X89499999Y-85059999D03*
D18*
X92039999Y-85059999D03*
X94579999Y-85059999D03*
X97119999Y-85059999D03*
X99659999Y-85059999D03*
%TD*%
D24*
%TO.C,IC3*%
X135499999Y-83349999D03*
X135499999Y-83999999D03*
X135499999Y-84649999D03*
X137399999Y-84649999D03*
X137399999Y-83349999D03*
%TD*%
%TO.C,IC4*%
X109589999Y-83349999D03*
X109589999Y-83999999D03*
X109589999Y-84649999D03*
X111489999Y-84649999D03*
X111489999Y-83349999D03*
%TD*%
D25*
%TO.C,J13*%
X140779999Y-82249999D03*
X141279999Y-82249999D03*
X141779999Y-82249999D03*
X142279999Y-82249999D03*
X142779999Y-82249999D03*
X143279999Y-82249999D03*
X143779999Y-82249999D03*
X144279999Y-82249999D03*
D26*
X139989999Y-84899999D03*
X145069999Y-84899999D03*
%TD*%
D25*
%TO.C,J14*%
X114839999Y-82789999D03*
X115339999Y-82789999D03*
X115839999Y-82789999D03*
X116339999Y-82789999D03*
X116839999Y-82789999D03*
X117339999Y-82789999D03*
X117839999Y-82789999D03*
X118339999Y-82789999D03*
D26*
X114049999Y-85439999D03*
X119129999Y-85439999D03*
%TD*%
D16*
%TO.C,J15*%
X152620000Y-84200000D03*
D27*
X150080000Y-81660000D03*
X150080000Y-86740000D03*
X155160000Y-86740000D03*
X155160000Y-81660000D03*
%TD*%
D16*
%TO.C,J16*%
X126950000Y-84140000D03*
D27*
X124410000Y-81600000D03*
X124410000Y-86680000D03*
X129490000Y-86680000D03*
X129490000Y-81600000D03*
%TD*%
D28*
%TO.C,C1*%
X139922500Y-146530000D03*
X141997500Y-146530000D03*
%TD*%
D29*
%TO.C,C2*%
X117270000Y-145637500D03*
X117270000Y-147362500D03*
%TD*%
D28*
%TO.C,C3*%
X113402500Y-146750000D03*
X115477500Y-146750000D03*
%TD*%
D29*
%TO.C,C4*%
X143740000Y-145397500D03*
X143740000Y-147122500D03*
%TD*%
D30*
%TO.C,C5*%
X110317500Y-150410000D03*
X108242500Y-150410000D03*
%TD*%
D28*
%TO.C,C6*%
X118342500Y-150900000D03*
X120417500Y-150900000D03*
%TD*%
D30*
%TO.C,C7*%
X136497500Y-150270000D03*
X134422500Y-150270000D03*
%TD*%
D28*
%TO.C,C8*%
X144842500Y-150520000D03*
X146917500Y-150520000D03*
%TD*%
D31*
%TO.C,IC1*%
X112849999Y-148634999D03*
X112849999Y-149084999D03*
X112849999Y-149534999D03*
X112849999Y-149984999D03*
X112849999Y-150434999D03*
X112849999Y-150884999D03*
X115749999Y-150884999D03*
X115749999Y-150434999D03*
X115749999Y-149984999D03*
X115749999Y-149534999D03*
X115749999Y-149084999D03*
X115749999Y-148634999D03*
D32*
X114299999Y-149759999D03*
%TD*%
D31*
%TO.C,IC2*%
X139359999Y-148294999D03*
X139359999Y-148744999D03*
X139359999Y-149194999D03*
X139359999Y-149644999D03*
X139359999Y-150094999D03*
X139359999Y-150544999D03*
X142259999Y-150544999D03*
X142259999Y-150094999D03*
X142259999Y-149644999D03*
X142259999Y-149194999D03*
X142259999Y-148744999D03*
X142259999Y-148294999D03*
D32*
X140809999Y-149419999D03*
%TD*%
D33*
%TO.C,L1*%
X110630000Y-145627500D03*
X110630000Y-147952500D03*
%TD*%
%TO.C,L2*%
X136710000Y-145145000D03*
X136710000Y-147470000D03*
%TD*%
D34*
%TO.C,L3*%
X119540000Y-148852500D03*
X119540000Y-146527500D03*
%TD*%
%TO.C,L4*%
X145910000Y-148402500D03*
X145910000Y-146077500D03*
%TD*%
D17*
%TO.C,J10*%
X112579999Y-142849999D03*
D18*
X115119999Y-142849999D03*
X117659999Y-142849999D03*
%TD*%
D17*
%TO.C,J11*%
X138359999Y-142409999D03*
D18*
X140899999Y-142409999D03*
X143439999Y-142409999D03*
%TD*%
D12*
%TO.C,D1*%
X106175000Y-146570000D03*
X104425000Y-146570000D03*
%TD*%
%TO.C,D3*%
X131395000Y-146800000D03*
X129645000Y-146800000D03*
%TD*%
D17*
%TO.C,JP3*%
X101229999Y-143949999D03*
D18*
X101229999Y-146489999D03*
X101229999Y-149029999D03*
%TD*%
D17*
%TO.C,JP4*%
X126559999Y-144029999D03*
D18*
X126559999Y-146569999D03*
X126559999Y-149109999D03*
%TD*%
D35*
%TO.C,R2*%
X106195000Y-149120000D03*
X104370000Y-149120000D03*
%TD*%
%TO.C,R3*%
X131450000Y-148830000D03*
X129625000Y-148830000D03*
%TD*%
M02*
