%TF.GenerationSoftware,KiCad,Pcbnew,(7.0.0)*%
%TF.CreationDate,2024-03-13T17:03:37-07:00*%
%TF.ProjectId,2P_miniscope_interconnect_board_v3,32505f6d-696e-4697-9363-6f70655f696e,rev?*%
%TF.SameCoordinates,Original*%
%TF.FileFunction,Copper,L1,Top*%
%TF.FilePolarity,Positive*%
%FSLAX46Y46*%
G04 Gerber Fmt 4.6, Leading zero omitted, Abs format (unit mm)*
G04 Created by KiCad (PCBNEW (7.0.0)) date 2024-03-13 17:03:37*
%MOMM*%
%LPD*%
G01*
G04 APERTURE LIST*
G04 Aperture macros list*
%AMRoundRect*
0 Rectangle with rounded corners*
0 $1 Rounding radius*
0 $2 $3 $4 $5 $6 $7 $8 $9 X,Y pos of 4 corners*
0 Add a 4 corners polygon primitive as box body*
4,1,4,$2,$3,$4,$5,$6,$7,$8,$9,$2,$3,0*
0 Add four circle primitives for the rounded corners*
1,1,$1+$1,$2,$3*
1,1,$1+$1,$4,$5*
1,1,$1+$1,$6,$7*
1,1,$1+$1,$8,$9*
0 Add four rect primitives between the rounded corners*
20,1,$1+$1,$2,$3,$4,$5,0*
20,1,$1+$1,$4,$5,$6,$7,0*
20,1,$1+$1,$6,$7,$8,$9,0*
20,1,$1+$1,$8,$9,$2,$3,0*%
G04 Aperture macros list end*
%TA.AperFunction,NonConductor*%
%ADD10C,0.100000*%
%TD*%
%TA.AperFunction,ComponentPad*%
%ADD11C,0.800000*%
%TD*%
%TA.AperFunction,ComponentPad*%
%ADD12C,5.000000*%
%TD*%
%TA.AperFunction,SMDPad,CuDef*%
%ADD13RoundRect,0.237500X0.287500X0.237500X-0.287500X0.237500X-0.287500X-0.237500X0.287500X-0.237500X0*%
%TD*%
%TA.AperFunction,ComponentPad*%
%ADD14R,1.000000X1.000000*%
%TD*%
%TA.AperFunction,ComponentPad*%
%ADD15O,1.000000X1.000000*%
%TD*%
%TA.AperFunction,ComponentPad*%
%ADD16C,2.050000*%
%TD*%
%TA.AperFunction,ComponentPad*%
%ADD17C,2.250000*%
%TD*%
%TA.AperFunction,ComponentPad*%
%ADD18R,1.700000X1.700000*%
%TD*%
%TA.AperFunction,ComponentPad*%
%ADD19O,1.700000X1.700000*%
%TD*%
%TA.AperFunction,SMDPad,CuDef*%
%ADD20RoundRect,0.250000X-0.262500X-0.450000X0.262500X-0.450000X0.262500X0.450000X-0.262500X0.450000X0*%
%TD*%
%TA.AperFunction,ComponentPad*%
%ADD21R,2.000000X4.000000*%
%TD*%
%TA.AperFunction,ComponentPad*%
%ADD22O,2.000000X3.300000*%
%TD*%
%TA.AperFunction,ComponentPad*%
%ADD23O,3.500000X2.000000*%
%TD*%
%TA.AperFunction,SMDPad,CuDef*%
%ADD24R,1.200000X0.400000*%
%TD*%
%TA.AperFunction,SMDPad,CuDef*%
%ADD25R,0.300000X0.700000*%
%TD*%
%TA.AperFunction,SMDPad,CuDef*%
%ADD26R,0.300000X1.000000*%
%TD*%
%TA.AperFunction,ComponentPad*%
%ADD27C,2.550000*%
%TD*%
%TA.AperFunction,SMDPad,CuDef*%
%ADD28RoundRect,0.250000X-0.337500X-0.475000X0.337500X-0.475000X0.337500X0.475000X-0.337500X0.475000X0*%
%TD*%
%TA.AperFunction,SMDPad,CuDef*%
%ADD29RoundRect,0.237500X-0.237500X0.300000X-0.237500X-0.300000X0.237500X-0.300000X0.237500X0.300000X0*%
%TD*%
%TA.AperFunction,SMDPad,CuDef*%
%ADD30RoundRect,0.250000X0.337500X0.475000X-0.337500X0.475000X-0.337500X-0.475000X0.337500X-0.475000X0*%
%TD*%
%TA.AperFunction,SMDPad,CuDef*%
%ADD31R,0.850000X0.250000*%
%TD*%
%TA.AperFunction,SMDPad,CuDef*%
%ADD32R,1.310000X2.120000*%
%TD*%
%TA.AperFunction,SMDPad,CuDef*%
%ADD33RoundRect,0.250001X-0.849999X0.462499X-0.849999X-0.462499X0.849999X-0.462499X0.849999X0.462499X0*%
%TD*%
%TA.AperFunction,SMDPad,CuDef*%
%ADD34RoundRect,0.250001X0.849999X-0.462499X0.849999X0.462499X-0.849999X0.462499X-0.849999X-0.462499X0*%
%TD*%
%TA.AperFunction,SMDPad,CuDef*%
%ADD35RoundRect,0.250000X0.262500X0.450000X-0.262500X0.450000X-0.262500X-0.450000X0.262500X-0.450000X0*%
%TD*%
%TA.AperFunction,ViaPad*%
%ADD36C,0.800000*%
%TD*%
%TA.AperFunction,Conductor*%
%ADD37C,0.500000*%
%TD*%
%TA.AperFunction,Conductor*%
%ADD38C,0.250000*%
%TD*%
%TA.AperFunction,Conductor*%
%ADD39C,1.350000*%
%TD*%
%TA.AperFunction,Conductor*%
%ADD40C,0.156000*%
%TD*%
G04 APERTURE END LIST*
D10*
G36*
X138520000Y-146820000D02*
G01*
X139730000Y-148210000D01*
X139720000Y-148360000D01*
X138790000Y-148350000D01*
X137990000Y-148110000D01*
X135820000Y-148110000D01*
X135845000Y-146810000D01*
X137375000Y-146810000D01*
X138520000Y-146820000D01*
G37*
X138520000Y-146820000D02*
X139730000Y-148210000D01*
X139720000Y-148360000D01*
X138790000Y-148350000D01*
X137990000Y-148110000D01*
X135820000Y-148110000D01*
X135845000Y-146810000D01*
X137375000Y-146810000D01*
X138520000Y-146820000D01*
G36*
X142620000Y-146140000D02*
G01*
X142620000Y-148325000D01*
X141890000Y-148340000D01*
X141890000Y-147620000D01*
X141490000Y-146970000D01*
X141540000Y-145950000D01*
X142480000Y-145900000D01*
X142620000Y-146140000D01*
G37*
X142620000Y-146140000D02*
X142620000Y-148325000D01*
X141890000Y-148340000D01*
X141890000Y-147620000D01*
X141490000Y-146970000D01*
X141540000Y-145950000D01*
X142480000Y-145900000D01*
X142620000Y-146140000D01*
G36*
X113910000Y-150630000D02*
G01*
X113640000Y-150900000D01*
X112480000Y-150900000D01*
X112480000Y-149980000D01*
X113910000Y-149980000D01*
X113910000Y-150630000D01*
G37*
X113910000Y-150630000D02*
X113640000Y-150900000D01*
X112480000Y-150900000D01*
X112480000Y-149980000D01*
X113910000Y-149980000D01*
X113910000Y-150630000D01*
G36*
X140420000Y-150290000D02*
G01*
X140160000Y-150600000D01*
X139000000Y-150600000D01*
X138990000Y-149640000D01*
X140420000Y-149640000D01*
X140420000Y-150290000D01*
G37*
X140420000Y-150290000D02*
X140160000Y-150600000D01*
X139000000Y-150600000D01*
X138990000Y-149640000D01*
X140420000Y-149640000D01*
X140420000Y-150290000D01*
G36*
X116130000Y-146240000D02*
G01*
X116120000Y-148680000D01*
X115380000Y-148680000D01*
X115380000Y-147960000D01*
X114980000Y-147310000D01*
X115000000Y-146190000D01*
X115850000Y-146090000D01*
X116130000Y-146240000D01*
G37*
X116130000Y-146240000D02*
X116120000Y-148680000D01*
X115380000Y-148680000D01*
X115380000Y-147960000D01*
X114980000Y-147310000D01*
X115000000Y-146190000D01*
X115850000Y-146090000D01*
X116130000Y-146240000D01*
G36*
X105445000Y-150240000D02*
G01*
X108475000Y-150280000D01*
X110567500Y-152630000D01*
X118532500Y-152630000D01*
X118905000Y-152690000D01*
X119880000Y-151530000D01*
X134970000Y-151880000D01*
X134967509Y-154060000D01*
X134420000Y-154610000D01*
X100450000Y-154620000D01*
X99470000Y-153700000D01*
X99440000Y-149950000D01*
X100140000Y-149170000D01*
X104340000Y-149160000D01*
X105445000Y-150240000D01*
G37*
X105445000Y-150240000D02*
X108475000Y-150280000D01*
X110567500Y-152630000D01*
X118532500Y-152630000D01*
X118905000Y-152690000D01*
X119880000Y-151530000D01*
X134970000Y-151880000D01*
X134967509Y-154060000D01*
X134420000Y-154610000D01*
X100450000Y-154620000D01*
X99470000Y-153700000D01*
X99440000Y-149950000D01*
X100140000Y-149170000D01*
X104340000Y-149160000D01*
X105445000Y-150240000D01*
G36*
X112060000Y-147295000D02*
G01*
X113205000Y-148565000D01*
X113207500Y-148702500D01*
X112232500Y-148697500D01*
X111710000Y-148480000D01*
X109700000Y-148470000D01*
X109720000Y-147400000D01*
X111340000Y-147290000D01*
X112060000Y-147295000D01*
G37*
X112060000Y-147295000D02*
X113205000Y-148565000D01*
X113207500Y-148702500D01*
X112232500Y-148697500D01*
X111710000Y-148480000D01*
X109700000Y-148470000D01*
X109720000Y-147400000D01*
X111340000Y-147290000D01*
X112060000Y-147295000D01*
G36*
X124670000Y-145980000D02*
G01*
X124690000Y-148440000D01*
X125460000Y-149060000D01*
X129400000Y-149010000D01*
X130100000Y-149800000D01*
X134920000Y-149800000D01*
X134990000Y-152110000D01*
X119870000Y-152110000D01*
X120135000Y-150225000D01*
X120880000Y-150200000D01*
X121490000Y-149620000D01*
X121520000Y-147780000D01*
X120780000Y-147140000D01*
X118580000Y-147110000D01*
X118520000Y-146040000D01*
X116960000Y-146040000D01*
X116395000Y-145090000D01*
X123730000Y-145090000D01*
X124670000Y-145980000D01*
G37*
X124670000Y-145980000D02*
X124690000Y-148440000D01*
X125460000Y-149060000D01*
X129400000Y-149010000D01*
X130100000Y-149800000D01*
X134920000Y-149800000D01*
X134990000Y-152110000D01*
X119870000Y-152110000D01*
X120135000Y-150225000D01*
X120880000Y-150200000D01*
X121490000Y-149620000D01*
X121520000Y-147780000D01*
X120780000Y-147140000D01*
X118580000Y-147110000D01*
X118520000Y-146040000D01*
X116960000Y-146040000D01*
X116395000Y-145090000D01*
X123730000Y-145090000D01*
X124670000Y-145980000D01*
G36*
X149519563Y-144653976D02*
G01*
X150450000Y-145610000D01*
X150420000Y-153260000D01*
X149040000Y-154630000D01*
X133790000Y-154610000D01*
X134550000Y-151200000D01*
X135780000Y-152060000D01*
X145720000Y-152090000D01*
X147020000Y-150770000D01*
X146870000Y-150040000D01*
X147430000Y-149430000D01*
X147430000Y-147310000D01*
X146730000Y-146600000D01*
X144970000Y-146260000D01*
X144560000Y-145860000D01*
X143300000Y-145835000D01*
X142070000Y-144610000D01*
X149519563Y-144653976D01*
G37*
X149519563Y-144653976D02*
X150450000Y-145610000D01*
X150420000Y-153260000D01*
X149040000Y-154630000D01*
X133790000Y-154610000D01*
X134550000Y-151200000D01*
X135780000Y-152060000D01*
X145720000Y-152090000D01*
X147020000Y-150770000D01*
X146870000Y-150040000D01*
X147430000Y-149430000D01*
X147430000Y-147310000D01*
X146730000Y-146600000D01*
X144970000Y-146260000D01*
X144560000Y-145860000D01*
X143300000Y-145835000D01*
X142070000Y-144610000D01*
X149519563Y-144653976D01*
D11*
%TO.P,H1,1*%
%TO.N,GND*%
X78125000Y-150000000D03*
X78674175Y-148674175D03*
X78674175Y-151325825D03*
X80000000Y-148125000D03*
D12*
X80000000Y-150000000D03*
D11*
X80000000Y-151875000D03*
X81325825Y-148674175D03*
X81325825Y-151325825D03*
X81875000Y-150000000D03*
%TD*%
%TO.P,H2,1*%
%TO.N,GND*%
X78125000Y-83000000D03*
X78674175Y-81674175D03*
X78674175Y-84325825D03*
X80000000Y-81125000D03*
D12*
X80000000Y-83000000D03*
D11*
X80000000Y-84875000D03*
X81325825Y-81674175D03*
X81325825Y-84325825D03*
X81875000Y-83000000D03*
%TD*%
%TO.P,H3,1*%
%TO.N,GND*%
X203125000Y-83000000D03*
X203674175Y-81674175D03*
X203674175Y-84325825D03*
X205000000Y-81125000D03*
D12*
X205000000Y-83000000D03*
D11*
X205000000Y-84875000D03*
X206325825Y-81674175D03*
X206325825Y-84325825D03*
X206875000Y-83000000D03*
%TD*%
%TO.P,H4,1*%
%TO.N,GND*%
X203125000Y-150000000D03*
X203674175Y-148674175D03*
X203674175Y-151325825D03*
X205000000Y-148125000D03*
D12*
X205000000Y-150000000D03*
D11*
X205000000Y-151875000D03*
X206325825Y-148674175D03*
X206325825Y-151325825D03*
X206875000Y-150000000D03*
%TD*%
D13*
%TO.P,D2,1*%
%TO.N,Net-(D2-Pad1)*%
X87406071Y-150025345D03*
%TO.P,D2,2*%
%TO.N,Net-(D2-Pad2)*%
X85656071Y-150025345D03*
%TD*%
D14*
%TO.P,J1,1*%
%TO.N,/X*%
X204699999Y-137069999D03*
D15*
%TO.P,J1,2*%
%TO.N,/Y*%
X204699999Y-138339999D03*
%TO.P,J1,3*%
%TO.N,+5V*%
X203429999Y-137069999D03*
%TO.P,J1,4*%
%TO.N,GND*%
X203429999Y-138339999D03*
%TO.P,J1,5*%
%TO.N,/OE*%
X202159999Y-137069999D03*
%TO.P,J1,6*%
%TO.N,Net-(J1-Pad6)*%
X202159999Y-138339999D03*
%TO.P,J1,7*%
%TO.N,Net-(J1-Pad7)*%
X200889999Y-137069999D03*
%TO.P,J1,8*%
%TO.N,Net-(J1-Pad8)*%
X200889999Y-138339999D03*
%TO.P,J1,9*%
%TO.N,/X_Filt*%
X199619999Y-137069999D03*
%TO.P,J1,10*%
%TO.N,/Y_Filt*%
X199619999Y-138339999D03*
%TD*%
D16*
%TO.P,J4,1*%
%TO.N,/X*%
X200534000Y-98610000D03*
D17*
%TO.P,J4,2*%
%TO.N,GND*%
X197994000Y-96070000D03*
X197994000Y-101150000D03*
X203074000Y-96070000D03*
X203074000Y-101150000D03*
%TD*%
D16*
%TO.P,J5,1*%
%TO.N,/Y*%
X200630000Y-111970000D03*
D17*
%TO.P,J5,2*%
%TO.N,GND*%
X198090000Y-109430000D03*
X198090000Y-114510000D03*
X203170000Y-109430000D03*
X203170000Y-114510000D03*
%TD*%
D14*
%TO.P,J2,1*%
%TO.N,/X+*%
X168049999Y-83899999D03*
D15*
%TO.P,J2,2*%
%TO.N,GND1*%
X168049999Y-82629999D03*
%TO.P,J2,3*%
%TO.N,/X-*%
X169319999Y-83899999D03*
%TO.P,J2,4*%
%TO.N,GND1*%
X169319999Y-82629999D03*
%TO.P,J2,5*%
%TO.N,/Y-*%
X170589999Y-83899999D03*
%TO.P,J2,6*%
%TO.N,GND1*%
X170589999Y-82629999D03*
%TO.P,J2,7*%
%TO.N,/Y+*%
X171859999Y-83899999D03*
%TO.P,J2,8*%
%TO.N,GND1*%
X171859999Y-82629999D03*
%TO.P,J2,9*%
%TO.N,Net-(J2-Pad9)*%
X173129999Y-83899999D03*
%TO.P,J2,10*%
%TO.N,Net-(J2-Pad10)*%
X173129999Y-82629999D03*
%TD*%
D18*
%TO.P,JP1,1*%
%TO.N,/X_Filt_d*%
X169609999Y-148159999D03*
D19*
%TO.P,JP1,2*%
%TO.N,/X_Filt*%
X169609999Y-145619999D03*
%TO.P,JP1,3*%
%TO.N,/X_Filt_Osc*%
X169609999Y-143079999D03*
%TD*%
D18*
%TO.P,JP2,1*%
%TO.N,/Y_Filt_d*%
X190009999Y-147999999D03*
D19*
%TO.P,JP2,2*%
%TO.N,/Y_Filt*%
X190009999Y-145459999D03*
%TO.P,JP2,3*%
%TO.N,/Y_Filt_Osc*%
X190009999Y-142919999D03*
%TD*%
D20*
%TO.P,R1,1*%
%TO.N,Net-(D2-Pad1)*%
X89212071Y-149898345D03*
%TO.P,R1,2*%
%TO.N,GND*%
X91037071Y-149898345D03*
%TD*%
D21*
%TO.P,J3,1*%
%TO.N,+5V*%
X195189999Y-126199999D03*
D22*
%TO.P,J3,2*%
%TO.N,GND*%
X201189999Y-126199999D03*
D23*
%TO.P,J3,MP*%
%TO.N,N/C*%
X202189999Y-130699999D03*
X202189999Y-121699999D03*
%TD*%
D14*
%TO.P,J7,1*%
%TO.N,+5V*%
X194949999Y-82839999D03*
D15*
%TO.P,J7,2*%
%TO.N,/Y-*%
X194949999Y-84109999D03*
%TO.P,J7,3*%
%TO.N,/I2C_SCL*%
X193679999Y-82839999D03*
%TO.P,J7,4*%
%TO.N,/X-*%
X193679999Y-84109999D03*
%TO.P,J7,5*%
%TO.N,GND1*%
X192409999Y-82839999D03*
%TO.P,J7,6*%
%TO.N,GND*%
X192409999Y-84109999D03*
%TO.P,J7,7*%
%TO.N,/I2C_SDA*%
X191139999Y-82839999D03*
%TO.P,J7,8*%
%TO.N,/X+*%
X191139999Y-84109999D03*
%TO.P,J7,9*%
%TO.N,/Vref*%
X189869999Y-82839999D03*
%TO.P,J7,10*%
%TO.N,/Y+*%
X189869999Y-84109999D03*
%TD*%
D18*
%TO.P,J6,1*%
%TO.N,/Vref*%
X89889999Y-96209999D03*
D19*
%TO.P,J6,2*%
%TO.N,GND*%
X87349999Y-96209999D03*
%TO.P,J6,3*%
X89889999Y-98749999D03*
%TO.P,J6,4*%
%TO.N,Net-(J6-Pad4)*%
X87349999Y-98749999D03*
%TO.P,J6,5*%
%TO.N,/I2C_SDA*%
X89889999Y-101289999D03*
%TO.P,J6,6*%
%TO.N,GND*%
X87349999Y-101289999D03*
%TO.P,J6,7*%
X89889999Y-103829999D03*
%TO.P,J6,8*%
%TO.N,Net-(J6-Pad8)*%
X87349999Y-103829999D03*
%TO.P,J6,9*%
%TO.N,/I2C_SCL*%
X89889999Y-106369999D03*
%TO.P,J6,10*%
%TO.N,GND*%
X87349999Y-106369999D03*
%TO.P,J6,11*%
X89889999Y-108909999D03*
%TO.P,J6,12*%
%TO.N,Net-(J6-Pad12)*%
X87349999Y-108909999D03*
%TO.P,J6,13*%
%TO.N,/OE*%
X89889999Y-111449999D03*
%TO.P,J6,14*%
%TO.N,GND*%
X87349999Y-111449999D03*
%TO.P,J6,15*%
X89889999Y-113989999D03*
%TO.P,J6,16*%
%TO.N,Net-(J6-Pad16)*%
X87349999Y-113989999D03*
%TO.P,J6,17*%
%TO.N,/X_Filt_d*%
X89889999Y-116529999D03*
%TO.P,J6,18*%
%TO.N,GND*%
X87349999Y-116529999D03*
%TO.P,J6,19*%
%TO.N,/Y_Filt_d*%
X89889999Y-119069999D03*
%TO.P,J6,20*%
%TO.N,/NC*%
X87349999Y-119069999D03*
%TO.P,J6,21*%
%TO.N,GND*%
X89889999Y-121609999D03*
%TO.P,J6,22*%
%TO.N,Net-(J6-Pad22)*%
X87349999Y-121609999D03*
%TO.P,J6,23*%
%TO.N,Net-(J12-Pad1)*%
X89889999Y-124149999D03*
%TO.P,J6,24*%
%TO.N,GND*%
X87349999Y-124149999D03*
%TO.P,J6,25*%
X89889999Y-126689999D03*
%TO.P,J6,26*%
%TO.N,Net-(J6-Pad26)*%
X87349999Y-126689999D03*
%TO.P,J6,27*%
%TO.N,Net-(J12-Pad2)*%
X89889999Y-129229999D03*
%TO.P,J6,28*%
%TO.N,GND*%
X87349999Y-129229999D03*
%TO.P,J6,29*%
X89889999Y-131769999D03*
%TO.P,J6,30*%
%TO.N,Net-(J6-Pad30)*%
X87349999Y-131769999D03*
%TO.P,J6,31*%
%TO.N,Net-(J12-Pad3)*%
X89889999Y-134309999D03*
%TO.P,J6,32*%
%TO.N,Net-(J6-Pad32)*%
X87349999Y-134309999D03*
%TO.P,J6,33*%
%TO.N,Net-(J12-Pad4)*%
X89889999Y-136849999D03*
%TO.P,J6,34*%
%TO.N,Net-(J6-Pad34)*%
X87349999Y-136849999D03*
%TO.P,J6,35*%
%TO.N,Net-(J12-Pad5)*%
X89889999Y-139389999D03*
%TO.P,J6,36*%
%TO.N,Net-(J6-Pad36)*%
X87349999Y-139389999D03*
%TO.P,J6,37*%
%TO.N,GND*%
X89889999Y-141929999D03*
%TO.P,J6,38*%
%TO.N,Net-(J6-Pad38)*%
X87349999Y-141929999D03*
%TO.P,J6,39*%
%TO.N,GND*%
X89889999Y-144469999D03*
%TO.P,J6,40*%
%TO.N,Net-(D2-Pad2)*%
X87349999Y-144469999D03*
%TD*%
D16*
%TO.P,J8,1*%
%TO.N,/X_Filt_Osc*%
X161760000Y-145370000D03*
D17*
%TO.P,J8,2*%
%TO.N,GND*%
X159220000Y-142830000D03*
X159220000Y-147910000D03*
X164300000Y-142830000D03*
X164300000Y-147910000D03*
%TD*%
D16*
%TO.P,J9,1*%
%TO.N,/Y_Filt_Osc*%
X180970000Y-145380000D03*
D17*
%TO.P,J9,2*%
%TO.N,GND*%
X178430000Y-142840000D03*
X178430000Y-147920000D03*
X183510000Y-142840000D03*
X183510000Y-147920000D03*
%TD*%
D18*
%TO.P,J12,1*%
%TO.N,Net-(J12-Pad1)*%
X89499999Y-85059999D03*
D19*
%TO.P,J12,2*%
%TO.N,Net-(J12-Pad2)*%
X92039999Y-85059999D03*
%TO.P,J12,3*%
%TO.N,Net-(J12-Pad3)*%
X94579999Y-85059999D03*
%TO.P,J12,4*%
%TO.N,Net-(J12-Pad4)*%
X97119999Y-85059999D03*
%TO.P,J12,5*%
%TO.N,Net-(J12-Pad5)*%
X99659999Y-85059999D03*
%TD*%
D24*
%TO.P,IC3,1*%
%TO.N,/Temp_G_GND*%
X135499999Y-83349999D03*
%TO.P,IC3,2*%
X135499999Y-83999999D03*
%TO.P,IC3,3*%
%TO.N,/Temp_G_Out*%
X135499999Y-84649999D03*
%TO.P,IC3,4*%
%TO.N,/Temp_G_VDD*%
X137399999Y-84649999D03*
%TO.P,IC3,5*%
%TO.N,/Temp_G_GND*%
X137399999Y-83349999D03*
%TD*%
%TO.P,IC4,1*%
%TO.N,/Temp_R_GND*%
X109589999Y-83349999D03*
%TO.P,IC4,2*%
X109589999Y-83999999D03*
%TO.P,IC4,3*%
%TO.N,/Temp_R_Out*%
X109589999Y-84649999D03*
%TO.P,IC4,4*%
%TO.N,/Temp_R_VDD*%
X111489999Y-84649999D03*
%TO.P,IC4,5*%
%TO.N,/Temp_R_GND*%
X111489999Y-83349999D03*
%TD*%
D25*
%TO.P,J13,1*%
%TO.N,/Temp_G_GND*%
X140779999Y-82249999D03*
%TO.P,J13,2*%
%TO.N,/Temp_G_Out*%
X141279999Y-82249999D03*
%TO.P,J13,3*%
%TO.N,/Temp_G_VDD*%
X141779999Y-82249999D03*
%TO.P,J13,4*%
%TO.N,Net-(J13-Pad4)*%
X142279999Y-82249999D03*
%TO.P,J13,5*%
%TO.N,/SiPM_G_Anode*%
X142779999Y-82249999D03*
%TO.P,J13,6*%
%TO.N,Net-(J13-Pad6)*%
X143279999Y-82249999D03*
%TO.P,J13,7*%
%TO.N,Net-(J13-Pad7)*%
X143779999Y-82249999D03*
%TO.P,J13,8*%
%TO.N,/SiPM_G_Cathode*%
X144279999Y-82249999D03*
D26*
%TO.P,J13,MP1*%
%TO.N,Net-(J13-PadMP1)*%
X139989999Y-84899999D03*
%TO.P,J13,MP2*%
%TO.N,Net-(J13-PadMP2)*%
X145069999Y-84899999D03*
%TD*%
D25*
%TO.P,J14,1*%
%TO.N,/Temp_R_GND*%
X114839999Y-82789999D03*
%TO.P,J14,2*%
%TO.N,/Temp_R_Out*%
X115339999Y-82789999D03*
%TO.P,J14,3*%
%TO.N,/Temp_R_VDD*%
X115839999Y-82789999D03*
%TO.P,J14,4*%
%TO.N,Net-(J14-Pad4)*%
X116339999Y-82789999D03*
%TO.P,J14,5*%
%TO.N,/SiPM_R_Anode*%
X116839999Y-82789999D03*
%TO.P,J14,6*%
%TO.N,Net-(J14-Pad6)*%
X117339999Y-82789999D03*
%TO.P,J14,7*%
%TO.N,Net-(J14-Pad7)*%
X117839999Y-82789999D03*
%TO.P,J14,8*%
%TO.N,/SiPM_R_Cathode*%
X118339999Y-82789999D03*
D26*
%TO.P,J14,MP1*%
%TO.N,Net-(J14-PadMP1)*%
X114049999Y-85439999D03*
%TO.P,J14,MP2*%
%TO.N,Net-(J14-PadMP2)*%
X119129999Y-85439999D03*
%TD*%
D17*
%TO.P,J15,1*%
%TO.N,/SiPM_G_Cathode*%
X152620000Y-84200000D03*
D27*
%TO.P,J15,2*%
%TO.N,/SiPM_G_Anode*%
X150080000Y-81660000D03*
%TO.P,J15,3*%
%TO.N,N/C*%
X150080000Y-86740000D03*
%TO.P,J15,4*%
X155160000Y-86740000D03*
%TO.P,J15,5*%
X155160000Y-81660000D03*
%TD*%
D17*
%TO.P,J16,1*%
%TO.N,/SiPM_R_Cathode*%
X126950000Y-84140000D03*
D27*
%TO.P,J16,2*%
%TO.N,/SiPM_R_Anode*%
X124410000Y-81600000D03*
%TO.P,J16,3*%
%TO.N,N/C*%
X124410000Y-86680000D03*
%TO.P,J16,4*%
X129490000Y-86680000D03*
%TO.P,J16,5*%
X129490000Y-81600000D03*
%TD*%
D28*
%TO.P,C1,1*%
%TO.N,GND*%
X139922500Y-146530000D03*
%TO.P,C1,2*%
%TO.N,+5V*%
X141997500Y-146530000D03*
%TD*%
D29*
%TO.P,C2,1*%
%TO.N,GND*%
X117270000Y-145637500D03*
%TO.P,C2,2*%
%TO.N,+5V*%
X117270000Y-147362500D03*
%TD*%
D28*
%TO.P,C3,1*%
%TO.N,GND*%
X113402500Y-146750000D03*
%TO.P,C3,2*%
%TO.N,+5V*%
X115477500Y-146750000D03*
%TD*%
D29*
%TO.P,C4,1*%
%TO.N,GND*%
X143740000Y-145397500D03*
%TO.P,C4,2*%
%TO.N,+5V*%
X143740000Y-147122500D03*
%TD*%
D30*
%TO.P,C5,1*%
%TO.N,/+5V_G_SiPM*%
X110317500Y-150410000D03*
%TO.P,C5,2*%
%TO.N,GND*%
X108242500Y-150410000D03*
%TD*%
D28*
%TO.P,C6,1*%
%TO.N,/-5V_G_SiPM*%
X118342500Y-150900000D03*
%TO.P,C6,2*%
%TO.N,GND*%
X120417500Y-150900000D03*
%TD*%
D30*
%TO.P,C7,1*%
%TO.N,/+5V_R_SiPM*%
X136497500Y-150270000D03*
%TO.P,C7,2*%
%TO.N,GND*%
X134422500Y-150270000D03*
%TD*%
D28*
%TO.P,C8,1*%
%TO.N,/-5V_R_SiPM*%
X144842500Y-150520000D03*
%TO.P,C8,2*%
%TO.N,GND*%
X146917500Y-150520000D03*
%TD*%
D31*
%TO.P,IC1,1*%
%TO.N,Net-(IC1-Pad1)*%
X112849999Y-148634999D03*
%TO.P,IC1,2*%
%TO.N,GND*%
X112849999Y-149084999D03*
%TO.P,IC1,3*%
%TO.N,/+5V_G_SiPM*%
X112849999Y-149534999D03*
%TO.P,IC1,4*%
%TO.N,GND*%
X112849999Y-149984999D03*
%TO.P,IC1,5*%
X112849999Y-150434999D03*
%TO.P,IC1,6*%
X112849999Y-150884999D03*
%TO.P,IC1,7*%
%TO.N,Net-(D1-Pad2)*%
X115749999Y-150884999D03*
%TO.P,IC1,8*%
%TO.N,GND*%
X115749999Y-150434999D03*
%TO.P,IC1,9*%
%TO.N,/-5V_G_SiPM*%
X115749999Y-149984999D03*
%TO.P,IC1,10*%
%TO.N,Net-(IC1-Pad10)*%
X115749999Y-149534999D03*
%TO.P,IC1,11*%
%TO.N,+5V*%
X115749999Y-149084999D03*
%TO.P,IC1,12*%
X115749999Y-148634999D03*
D32*
%TO.P,IC1,13*%
%TO.N,GND*%
X114299999Y-149759999D03*
%TD*%
D31*
%TO.P,IC2,1*%
%TO.N,Net-(IC2-Pad1)*%
X139359999Y-148294999D03*
%TO.P,IC2,2*%
%TO.N,GND*%
X139359999Y-148744999D03*
%TO.P,IC2,3*%
%TO.N,/+5V_R_SiPM*%
X139359999Y-149194999D03*
%TO.P,IC2,4*%
%TO.N,GND*%
X139359999Y-149644999D03*
%TO.P,IC2,5*%
X139359999Y-150094999D03*
%TO.P,IC2,6*%
X139359999Y-150544999D03*
%TO.P,IC2,7*%
%TO.N,Net-(D3-Pad2)*%
X142259999Y-150544999D03*
%TO.P,IC2,8*%
%TO.N,GND*%
X142259999Y-150094999D03*
%TO.P,IC2,9*%
%TO.N,/-5V_R_SiPM*%
X142259999Y-149644999D03*
%TO.P,IC2,10*%
%TO.N,Net-(IC2-Pad10)*%
X142259999Y-149194999D03*
%TO.P,IC2,11*%
%TO.N,+5V*%
X142259999Y-148744999D03*
%TO.P,IC2,12*%
X142259999Y-148294999D03*
D32*
%TO.P,IC2,13*%
%TO.N,GND*%
X140809999Y-149419999D03*
%TD*%
D33*
%TO.P,L1,1*%
%TO.N,+5V*%
X110630000Y-145627500D03*
%TO.P,L1,2*%
%TO.N,Net-(IC1-Pad1)*%
X110630000Y-147952500D03*
%TD*%
%TO.P,L2,1*%
%TO.N,+5V*%
X136710000Y-145145000D03*
%TO.P,L2,2*%
%TO.N,Net-(IC2-Pad1)*%
X136710000Y-147470000D03*
%TD*%
D34*
%TO.P,L3,1*%
%TO.N,Net-(IC1-Pad10)*%
X119540000Y-148852500D03*
%TO.P,L3,2*%
%TO.N,GND*%
X119540000Y-146527500D03*
%TD*%
%TO.P,L4,1*%
%TO.N,Net-(IC2-Pad10)*%
X145910000Y-148402500D03*
%TO.P,L4,2*%
%TO.N,GND*%
X145910000Y-146077500D03*
%TD*%
D18*
%TO.P,J10,1*%
%TO.N,/+5V_G_SiPM*%
X112579999Y-142849999D03*
D19*
%TO.P,J10,2*%
%TO.N,GND*%
X115119999Y-142849999D03*
%TO.P,J10,3*%
%TO.N,/-5V_G_SiPM*%
X117659999Y-142849999D03*
%TD*%
D18*
%TO.P,J11,1*%
%TO.N,/+5V_R_SiPM*%
X138359999Y-142409999D03*
D19*
%TO.P,J11,2*%
%TO.N,GND*%
X140899999Y-142409999D03*
%TO.P,J11,3*%
%TO.N,/-5V_R_SiPM*%
X143439999Y-142409999D03*
%TD*%
D13*
%TO.P,D1,1*%
%TO.N,Net-(D1-Pad1)*%
X106175000Y-146570000D03*
%TO.P,D1,2*%
%TO.N,Net-(D1-Pad2)*%
X104425000Y-146570000D03*
%TD*%
%TO.P,D3,1*%
%TO.N,Net-(D3-Pad1)*%
X131395000Y-146800000D03*
%TO.P,D3,2*%
%TO.N,Net-(D3-Pad2)*%
X129645000Y-146800000D03*
%TD*%
D18*
%TO.P,JP3,1*%
%TO.N,+5V*%
X101229999Y-143949999D03*
D19*
%TO.P,JP3,2*%
%TO.N,Net-(D1-Pad2)*%
X101229999Y-146489999D03*
%TO.P,JP3,3*%
%TO.N,GND*%
X101229999Y-149029999D03*
%TD*%
D18*
%TO.P,JP4,1*%
%TO.N,+5V*%
X126559999Y-144029999D03*
D19*
%TO.P,JP4,2*%
%TO.N,Net-(D3-Pad2)*%
X126559999Y-146569999D03*
%TO.P,JP4,3*%
%TO.N,GND*%
X126559999Y-149109999D03*
%TD*%
D35*
%TO.P,R2,1*%
%TO.N,Net-(D1-Pad1)*%
X106195000Y-149120000D03*
%TO.P,R2,2*%
%TO.N,GND*%
X104370000Y-149120000D03*
%TD*%
%TO.P,R3,1*%
%TO.N,Net-(D3-Pad1)*%
X131450000Y-148830000D03*
%TO.P,R3,2*%
%TO.N,GND*%
X129625000Y-148830000D03*
%TD*%
D36*
%TO.N,GND*%
X124720000Y-153000000D03*
X186240000Y-142540000D03*
X97460000Y-108480000D03*
X170310000Y-85440000D03*
X205160000Y-112780000D03*
X186810000Y-145360000D03*
X207080000Y-114450000D03*
X153160000Y-149530000D03*
X192410000Y-90220000D03*
X156450000Y-94010000D03*
X123160000Y-91200000D03*
X183470000Y-91200000D03*
X192200000Y-94080000D03*
X103640000Y-151180000D03*
X122527500Y-146507500D03*
X148410000Y-150520000D03*
X98560000Y-117820000D03*
X181580000Y-82670000D03*
X172900000Y-153770000D03*
X179040000Y-84580000D03*
X117850000Y-91200000D03*
X149360000Y-148180000D03*
X145660000Y-134160000D03*
X192410000Y-92400000D03*
X170730000Y-88000000D03*
X133070000Y-84040000D03*
X101290000Y-152560000D03*
X112810000Y-91200000D03*
X184110000Y-80780000D03*
X175900000Y-82860000D03*
X136410000Y-81660000D03*
X155080000Y-151400000D03*
X175340000Y-94120000D03*
X195470000Y-136020000D03*
X162260000Y-122820000D03*
X163440000Y-153710000D03*
X205110000Y-116660000D03*
X92410000Y-102550000D03*
X184750000Y-94120000D03*
X189410000Y-138220000D03*
X150910000Y-94050000D03*
X183660000Y-138350000D03*
X166890000Y-148430000D03*
X183740000Y-150880000D03*
X115700000Y-153660000D03*
X112810000Y-94050000D03*
X137050000Y-125470000D03*
X109150000Y-125710000D03*
X139310000Y-91200000D03*
X183710000Y-153960000D03*
X97260000Y-125930000D03*
X117850000Y-94050000D03*
X97450000Y-132600000D03*
X92520000Y-97450000D03*
X92850000Y-105430000D03*
X198890000Y-142500000D03*
X129320000Y-117940000D03*
X139780000Y-128120000D03*
X185235000Y-89435000D03*
X130900000Y-153020000D03*
X97690000Y-112740000D03*
X128755000Y-94005000D03*
X204960000Y-128150000D03*
X120030000Y-153720000D03*
X140810000Y-148810000D03*
X169110000Y-122420000D03*
X105500000Y-150680000D03*
X92530000Y-99950000D03*
X127450000Y-151640000D03*
X114300000Y-150360000D03*
X100410000Y-97260000D03*
X172905000Y-85845000D03*
X158890000Y-153780000D03*
X178790000Y-138410000D03*
X156450000Y-91200000D03*
X92849999Y-129080001D03*
X177270000Y-136070000D03*
X109880000Y-117850000D03*
X178570000Y-153840000D03*
X97290000Y-129670000D03*
X98250000Y-95080000D03*
X136600000Y-153580000D03*
X92222071Y-149898345D03*
X120770000Y-125570000D03*
X187445000Y-91425000D03*
X140810000Y-150060000D03*
X206930000Y-105200000D03*
X133865000Y-94045000D03*
X103820000Y-117700000D03*
X178330000Y-129610000D03*
X132510000Y-150430000D03*
X150800000Y-139200000D03*
X168750000Y-94090000D03*
X114300000Y-149130000D03*
X148730000Y-152980000D03*
X92849999Y-135190001D03*
X178330000Y-122430000D03*
X97090000Y-122570000D03*
X206990000Y-109450000D03*
X114690000Y-117690000D03*
X150910000Y-91200000D03*
X205080000Y-119280000D03*
X134470000Y-122720000D03*
X195920000Y-145320000D03*
X92850000Y-114900000D03*
X197020000Y-140930000D03*
X186900000Y-129610000D03*
X193980000Y-143720000D03*
X162450000Y-91200000D03*
X110440000Y-81560000D03*
X106930000Y-83990000D03*
X92780000Y-117790000D03*
X172850000Y-140230000D03*
X192410000Y-88000000D03*
X205180000Y-131630000D03*
X97330000Y-105310000D03*
X167660000Y-153780000D03*
X144220000Y-153440000D03*
X141960000Y-135850000D03*
X192410000Y-86500000D03*
X172910000Y-150860000D03*
X152850000Y-141300000D03*
X112850000Y-152690000D03*
X152910000Y-145620000D03*
X133880000Y-91200000D03*
X183970000Y-84480000D03*
X107590000Y-91200000D03*
X92850000Y-108400000D03*
X189370000Y-89500000D03*
X130640000Y-150430000D03*
X92810000Y-139130000D03*
X145280000Y-91200000D03*
X107550000Y-94120000D03*
X166950000Y-145770000D03*
X166860000Y-141750000D03*
X171645000Y-86775000D03*
X204980000Y-102080000D03*
X189350000Y-136000000D03*
X128690000Y-91200000D03*
X92960000Y-123450000D03*
X154620000Y-153710000D03*
X169130000Y-129690000D03*
X96040000Y-135320000D03*
X129730000Y-125980000D03*
X136450000Y-86640000D03*
X178540000Y-151060000D03*
X102240000Y-91200000D03*
X175300000Y-91200000D03*
X186870000Y-122420000D03*
X124760000Y-117720000D03*
X168750000Y-91200000D03*
X188620000Y-151940000D03*
X106620000Y-150720000D03*
X186940000Y-148270000D03*
X109810000Y-153540000D03*
X205200000Y-109460000D03*
X110460000Y-86410000D03*
X123170000Y-94080000D03*
X92780000Y-112780000D03*
X145300000Y-94050000D03*
X207010000Y-101650000D03*
X206760000Y-138340000D03*
X106220000Y-152860000D03*
X168840000Y-86200000D03*
X174620000Y-142390000D03*
X204990000Y-122590000D03*
X97820000Y-115120000D03*
X195550000Y-138310000D03*
X139360000Y-152270000D03*
X121890000Y-150900000D03*
X97210000Y-102190000D03*
X147900000Y-145880000D03*
X120130000Y-117780000D03*
X151900000Y-151940000D03*
X205160000Y-105230000D03*
X183600000Y-136040000D03*
X179100000Y-80890000D03*
X148400000Y-136920000D03*
X205140000Y-134550000D03*
X132010000Y-120410000D03*
X139310000Y-94060000D03*
X162475000Y-94075000D03*
X190485000Y-95795000D03*
%TO.N,+5V*%
X117170000Y-148670000D03*
X121020000Y-139500000D03*
X110952500Y-139597500D03*
X134392500Y-142877500D03*
X126560000Y-139670000D03*
X108780000Y-139650000D03*
X107765000Y-141035000D03*
X133835000Y-140155000D03*
X115370000Y-139500000D03*
X143540000Y-148390000D03*
X130632500Y-139597500D03*
X107740000Y-143550000D03*
%TO.N,/Y-*%
X194950000Y-85820000D03*
%TO.N,/X-*%
X193680000Y-87350000D03*
%TO.N,/X+*%
X191140000Y-88810000D03*
%TO.N,/I2C_SDA*%
X191140000Y-80630000D03*
%TO.N,/Vref*%
X186990000Y-82840000D03*
%TO.N,/+5V_G_SiPM*%
X111695000Y-149845000D03*
%TO.N,/-5V_R_SiPM*%
X143550000Y-150180000D03*
%TO.N,/+5V_R_SiPM*%
X138150000Y-149440000D03*
%TO.N,/-5V_G_SiPM*%
X117135000Y-150585000D03*
%TO.N,Net-(D1-Pad2)*%
X114590000Y-151910000D03*
%TO.N,Net-(D3-Pad2)*%
X140740000Y-151490000D03*
%TD*%
D37*
%TO.N,GND*%
X92222071Y-149898345D02*
X92222071Y-149898345D01*
X162260000Y-122820000D02*
X162260000Y-122820000D01*
X121890000Y-150900000D02*
X121890000Y-150900000D01*
X140810000Y-148810000D02*
X140810000Y-147980000D01*
D38*
X140810000Y-150060000D02*
X140810000Y-150320000D01*
D37*
X148410000Y-150520000D02*
X148410000Y-150520000D01*
X122527500Y-146507500D02*
X122527500Y-146507500D01*
X192410000Y-87560000D02*
X192410000Y-88000000D01*
X192410000Y-86500000D02*
X192410000Y-87560000D01*
X192410000Y-90220000D02*
X192410000Y-92400000D01*
X192410000Y-92400000D02*
X192410000Y-93870000D01*
X192200000Y-94080000D02*
X190485000Y-95795000D01*
X190485000Y-95795000D02*
X189820000Y-96460000D01*
X92810000Y-139130000D02*
X89920000Y-142020000D01*
X92849999Y-135190001D02*
X92849999Y-139090001D01*
X92849999Y-129080001D02*
X92849999Y-132700001D01*
D38*
X112850000Y-152690000D02*
X112850000Y-152690000D01*
X139360000Y-152270000D02*
X139360000Y-152270000D01*
D37*
X130640000Y-150430000D02*
X132510000Y-150430000D01*
X105500000Y-150680000D02*
X105540000Y-150720000D01*
X132510000Y-150430000D02*
X134610000Y-150430000D01*
X115110000Y-144000000D02*
X115110000Y-142740000D01*
D38*
X112850000Y-150435000D02*
X114195000Y-150435000D01*
X139360000Y-150545000D02*
X139915000Y-150545000D01*
D37*
X92849999Y-133120001D02*
X92849999Y-135190001D01*
D38*
X109855000Y-149085000D02*
X109025000Y-149085000D01*
D37*
X179680000Y-129610000D02*
X186870000Y-122420000D01*
D38*
X114230000Y-150360000D02*
X114300000Y-150360000D01*
D37*
X91120000Y-121610000D02*
X92960000Y-123450000D01*
D38*
X139360000Y-149645000D02*
X139360000Y-152270000D01*
D37*
X146742500Y-150520000D02*
X148410000Y-150520000D01*
D38*
X134345000Y-149335000D02*
X133990000Y-149690000D01*
D37*
X169130000Y-129690000D02*
X169130000Y-122440000D01*
X192410000Y-88000000D02*
X192410000Y-90220000D01*
D38*
X134880000Y-149290000D02*
X134580000Y-149590000D01*
D37*
X162750000Y-122340000D02*
X169030000Y-122340000D01*
X118767500Y-145637500D02*
X119580000Y-146450000D01*
X145397500Y-145397500D02*
X146130000Y-146130000D01*
D38*
X109025000Y-149085000D02*
X109025000Y-149165000D01*
D37*
X113570000Y-147750000D02*
X113570000Y-146640000D01*
X162260000Y-122820000D02*
X162270000Y-122820000D01*
D38*
X134740000Y-150230000D02*
X134880000Y-150090000D01*
X135155001Y-148714999D02*
X134965001Y-148714999D01*
X139360000Y-148745000D02*
X138528002Y-148745000D01*
X140310000Y-150360000D02*
X140850000Y-150360000D01*
X108565000Y-149085000D02*
X109855000Y-149085000D01*
D37*
X146600000Y-150840000D02*
X146600000Y-152030000D01*
D38*
X135155001Y-148714999D02*
X135155001Y-148794999D01*
X140125000Y-150545000D02*
X140310000Y-150360000D01*
D37*
X192410000Y-84110000D02*
X192410000Y-86500000D01*
D38*
X109025000Y-149085000D02*
X108805000Y-149085000D01*
X135884999Y-148714999D02*
X135655001Y-148714999D01*
X108242500Y-150410000D02*
X108242500Y-149647500D01*
D37*
X92849999Y-132700001D02*
X92849999Y-133120001D01*
X140890000Y-143200000D02*
X140890000Y-142410000D01*
X140810000Y-149420000D02*
X140810000Y-148810000D01*
D38*
X140810000Y-149420000D02*
X140810000Y-150060000D01*
D37*
X120380000Y-146507500D02*
X122527500Y-146507500D01*
X169210000Y-129610000D02*
X169130000Y-129690000D01*
D38*
X135345001Y-148714999D02*
X135345001Y-148824999D01*
D37*
X146120000Y-146510000D02*
X148260000Y-146510000D01*
X116747500Y-145637500D02*
X116530000Y-145420000D01*
X106620000Y-150720000D02*
X108160000Y-150720000D01*
X116530000Y-145420000D02*
X116580000Y-145420000D01*
X119540000Y-146527500D02*
X119540000Y-146920000D01*
X112850000Y-152690000D02*
X112850000Y-150420000D01*
X126560000Y-149110000D02*
X129600000Y-149110000D01*
X91037071Y-149898345D02*
X91037071Y-145677071D01*
D38*
X140850000Y-150360000D02*
X141330000Y-150360000D01*
X132510000Y-150430000D02*
X133250000Y-150430000D01*
X108242500Y-149647500D02*
X108805000Y-149085000D01*
D37*
X116580000Y-145420000D02*
X117050000Y-145890000D01*
X186900000Y-129610000D02*
X186900000Y-122450000D01*
D38*
X140115000Y-150545000D02*
X140780000Y-149880000D01*
X108242500Y-150410000D02*
X108242500Y-149407500D01*
X140810000Y-150320000D02*
X140850000Y-150360000D01*
X135155001Y-148794999D02*
X134400000Y-149550000D01*
X135345001Y-148714999D02*
X135155001Y-148714999D01*
D37*
X130640000Y-150430000D02*
X130640000Y-150430000D01*
X140090000Y-147260000D02*
X140090000Y-146460000D01*
X186900000Y-122450000D02*
X186870000Y-122420000D01*
X169130000Y-122440000D02*
X169110000Y-122420000D01*
X143740000Y-145397500D02*
X143087500Y-145397500D01*
X119540000Y-146527500D02*
X119422500Y-146527500D01*
D38*
X130010000Y-149800000D02*
X130010000Y-149290000D01*
D37*
X129625000Y-149415000D02*
X130640000Y-150430000D01*
X169030000Y-122340000D02*
X169110000Y-122420000D01*
D38*
X139360000Y-150095000D02*
X140485000Y-150095000D01*
D37*
X176300000Y-129610000D02*
X169110000Y-122420000D01*
X143740000Y-145397500D02*
X145397500Y-145397500D01*
D38*
X113705000Y-150885000D02*
X114230000Y-150360000D01*
D37*
X91320000Y-126690000D02*
X92849999Y-128219999D01*
X117270000Y-145637500D02*
X116747500Y-145637500D01*
X169130000Y-129690000D02*
X162260000Y-122820000D01*
X89890000Y-144470000D02*
X89890000Y-141800000D01*
D38*
X138498001Y-148714999D02*
X135884999Y-148714999D01*
X134880000Y-150090000D02*
X134880000Y-149290000D01*
D37*
X169130000Y-129690000D02*
X171070000Y-129690000D01*
D38*
X139915000Y-150545000D02*
X140125000Y-150545000D01*
X134965001Y-148714999D02*
X134345000Y-149335000D01*
D37*
X92849999Y-123560001D02*
X92849999Y-129080001D01*
D38*
X139360000Y-149645000D02*
X140645000Y-149645000D01*
D37*
X146870000Y-145880000D02*
X147900000Y-145880000D01*
X104370000Y-149120000D02*
X104370000Y-149550000D01*
X178330000Y-129610000D02*
X179680000Y-129610000D01*
X114300000Y-148480000D02*
X113570000Y-147750000D01*
X92960000Y-123450000D02*
X92849999Y-123560001D01*
D38*
X113925000Y-149985000D02*
X114300000Y-150360000D01*
X108565000Y-149085000D02*
X108565000Y-149105000D01*
D37*
X178330000Y-129610000D02*
X176300000Y-129610000D01*
X140810000Y-147980000D02*
X140090000Y-147260000D01*
X89890000Y-121610000D02*
X91120000Y-121610000D01*
X119875000Y-146980000D02*
X121140000Y-146980000D01*
D38*
X108565000Y-149105000D02*
X107840000Y-149830000D01*
D37*
X186900000Y-129610000D02*
X185510000Y-129610000D01*
D38*
X112850000Y-149985000D02*
X112850000Y-152690000D01*
D37*
X171070000Y-129690000D02*
X178330000Y-122430000D01*
D38*
X109025000Y-149165000D02*
X108420000Y-149770000D01*
X112850000Y-149085000D02*
X109855000Y-149085000D01*
X135884999Y-148714999D02*
X135345001Y-148714999D01*
D37*
X192410000Y-93870000D02*
X192200000Y-94080000D01*
D38*
X139360000Y-148745000D02*
X140625000Y-148745000D01*
X135345001Y-148824999D02*
X134880000Y-149290000D01*
X114375000Y-150435000D02*
X114300000Y-150360000D01*
D37*
X178330000Y-129610000D02*
X178330000Y-122430000D01*
X92849999Y-128219999D02*
X92849999Y-129080001D01*
X101230000Y-149030000D02*
X104510000Y-149030000D01*
D38*
X133250000Y-150430000D02*
X134345000Y-149335000D01*
D37*
X104370000Y-149550000D02*
X105500000Y-150680000D01*
X117270000Y-145637500D02*
X118767500Y-145637500D01*
D38*
X115750000Y-150435000D02*
X114375000Y-150435000D01*
D37*
X186900000Y-129610000D02*
X169210000Y-129610000D01*
X105540000Y-150720000D02*
X106620000Y-150720000D01*
X91499998Y-131770000D02*
X92849999Y-133120001D01*
X114300000Y-149130000D02*
X114300000Y-148480000D01*
X89890000Y-131770000D02*
X91499998Y-131770000D01*
X89890000Y-126690000D02*
X91320000Y-126690000D01*
D38*
X135655001Y-148714999D02*
X134390000Y-149980000D01*
X142260000Y-150095000D02*
X140965000Y-150095000D01*
D37*
X145910000Y-146077500D02*
X145910000Y-146300000D01*
D38*
X134422500Y-150230000D02*
X134740000Y-150230000D01*
D37*
X145910000Y-146300000D02*
X146120000Y-146510000D01*
D38*
X130640000Y-150430000D02*
X130010000Y-149800000D01*
D37*
X139360000Y-152270000D02*
X139360000Y-150010000D01*
X116530000Y-145420000D02*
X115110000Y-144000000D01*
X91037071Y-149898345D02*
X92222071Y-149898345D01*
D38*
X112850000Y-149985000D02*
X113925000Y-149985000D01*
D37*
X119422500Y-146527500D02*
X119875000Y-146980000D01*
X92849999Y-139090001D02*
X92810000Y-139130000D01*
D38*
X139915000Y-150545000D02*
X140115000Y-150545000D01*
X112850000Y-149085000D02*
X114215000Y-149085000D01*
X138528002Y-148745000D02*
X138498001Y-148714999D01*
D37*
X140820000Y-143070000D02*
X140820000Y-142360000D01*
D38*
X112850000Y-150885000D02*
X113705000Y-150885000D01*
D37*
X129625000Y-148830000D02*
X129625000Y-149415000D01*
D38*
X108242500Y-149407500D02*
X108565000Y-149085000D01*
D37*
X143087500Y-145397500D02*
X140890000Y-143200000D01*
X120242500Y-150900000D02*
X121890000Y-150900000D01*
X146917500Y-150520000D02*
X146917500Y-150522500D01*
X185510000Y-129610000D02*
X178330000Y-122430000D01*
X146917500Y-150522500D02*
X146600000Y-150840000D01*
X162270000Y-122820000D02*
X162750000Y-122340000D01*
X169110000Y-122420000D02*
X186870000Y-122420000D01*
X91037071Y-145677071D02*
X89970000Y-144610000D01*
D39*
%TO.N,+5V*%
X134392500Y-142877500D02*
X134392500Y-139932500D01*
X121020000Y-139500000D02*
X115370000Y-139500000D01*
D38*
X143540000Y-148390000D02*
X143660000Y-148270000D01*
X117170000Y-148670000D02*
X116755000Y-149085000D01*
D37*
X107740000Y-143550000D02*
X107030000Y-143550000D01*
D39*
X107765000Y-141035000D02*
X107765000Y-140665000D01*
D37*
X126560000Y-139670000D02*
X126560000Y-139520000D01*
D39*
X107015000Y-143535000D02*
X107765000Y-142785000D01*
D37*
X141340000Y-145070000D02*
X142290000Y-146020000D01*
X203430000Y-134920000D02*
X201690000Y-133180000D01*
D39*
X126560000Y-140760000D02*
X126560000Y-140640000D01*
X125360000Y-139500000D02*
X121020000Y-139500000D01*
X134252500Y-141197500D02*
X132652500Y-139597500D01*
X101230000Y-143950000D02*
X108860000Y-143950000D01*
D37*
X143740000Y-148190000D02*
X143540000Y-148390000D01*
X112240000Y-145310000D02*
X111460000Y-146090000D01*
D39*
X134392500Y-141197500D02*
X134392500Y-139647500D01*
D37*
X201690000Y-133180000D02*
X197930000Y-133180000D01*
X138210000Y-145010000D02*
X141340000Y-145010000D01*
D39*
X127700000Y-139500000D02*
X126540000Y-139500000D01*
D37*
X115290000Y-145950000D02*
X115290000Y-146790000D01*
D38*
X142260000Y-148745000D02*
X143185000Y-148745000D01*
X115750000Y-148635000D02*
X115750000Y-147870000D01*
D37*
X114650000Y-145310000D02*
X115050000Y-145710000D01*
X115070000Y-145710000D02*
X115680000Y-146320000D01*
D38*
X137600000Y-144490000D02*
X136770000Y-144490000D01*
D39*
X106600000Y-143950000D02*
X107015000Y-143535000D01*
D38*
X142260000Y-147100000D02*
X141760000Y-146600000D01*
D37*
X112590000Y-145310000D02*
X111930000Y-145310000D01*
D38*
X117320000Y-148262500D02*
X117320000Y-147250000D01*
D39*
X108832500Y-139597500D02*
X108780000Y-139650000D01*
D38*
X115330000Y-147450000D02*
X115330000Y-146710000D01*
D37*
X126560000Y-140760000D02*
X126560000Y-139670000D01*
D38*
X138210000Y-145010000D02*
X138120000Y-145010000D01*
D37*
X126560000Y-144030000D02*
X126560000Y-141020000D01*
X126560000Y-140350000D02*
X126560000Y-140760000D01*
X195140000Y-130390000D02*
X195140000Y-126190000D01*
X117270000Y-147362500D02*
X117270000Y-148570000D01*
D39*
X132652500Y-139597500D02*
X134342500Y-139597500D01*
D37*
X117270000Y-148570000D02*
X117170000Y-148670000D01*
X108460000Y-143550000D02*
X107740000Y-143550000D01*
X141340000Y-145010000D02*
X141780000Y-145450000D01*
X115050000Y-145710000D02*
X115290000Y-145950000D01*
D39*
X110900000Y-139650000D02*
X110952500Y-139597500D01*
X126560000Y-140700000D02*
X125360000Y-139500000D01*
X108860000Y-143950000D02*
X109160000Y-144250000D01*
D37*
X126560000Y-140350000D02*
X125710000Y-139500000D01*
D38*
X138210000Y-145010000D02*
X138200000Y-145010000D01*
D39*
X130632500Y-139597500D02*
X132652500Y-139597500D01*
D37*
X107030000Y-143550000D02*
X107015000Y-143535000D01*
D38*
X115750000Y-149085000D02*
X116755000Y-149085000D01*
D37*
X111930000Y-145310000D02*
X111540000Y-144920000D01*
D39*
X125710000Y-139500000D02*
X125360000Y-139500000D01*
X134392500Y-142877500D02*
X134392500Y-141197500D01*
X136710000Y-145195000D02*
X134392500Y-142877500D01*
D37*
X112590000Y-145310000D02*
X114650000Y-145310000D01*
X126560000Y-141020000D02*
X126560000Y-140760000D01*
D39*
X126560000Y-140760000D02*
X126560000Y-140700000D01*
X115370000Y-139500000D02*
X112650000Y-139500000D01*
D38*
X115750000Y-147870000D02*
X115330000Y-147450000D01*
D39*
X134342500Y-139597500D02*
X108832500Y-139597500D01*
X112650000Y-139500000D02*
X111070000Y-139500000D01*
D37*
X112590000Y-145310000D02*
X112240000Y-145310000D01*
D39*
X133960000Y-139500000D02*
X127700000Y-139500000D01*
X101230000Y-143950000D02*
X106600000Y-143950000D01*
X134392500Y-139932500D02*
X133960000Y-139500000D01*
D37*
X141780000Y-145450000D02*
X141780000Y-146560000D01*
X141340000Y-145010000D02*
X141340000Y-145070000D01*
D39*
X134342500Y-139597500D02*
X134392500Y-139647500D01*
D38*
X138120000Y-145010000D02*
X137600000Y-144490000D01*
D37*
X111540000Y-144920000D02*
X110510000Y-144920000D01*
D38*
X142260000Y-148295000D02*
X142260000Y-147100000D01*
X138130000Y-145010000D02*
X137690000Y-144570000D01*
D37*
X115050000Y-145710000D02*
X115070000Y-145710000D01*
D39*
X126560000Y-140640000D02*
X127700000Y-139500000D01*
X108930000Y-139500000D02*
X108780000Y-139650000D01*
D38*
X117320000Y-148262500D02*
X117320000Y-148520000D01*
D37*
X197930000Y-133180000D02*
X195140000Y-130390000D01*
X143740000Y-147122500D02*
X143740000Y-148190000D01*
D38*
X138210000Y-145010000D02*
X138130000Y-145010000D01*
D37*
X138210000Y-145010000D02*
X136430000Y-145010000D01*
D38*
X117320000Y-148520000D02*
X117170000Y-148670000D01*
D39*
X134392500Y-141197500D02*
X134252500Y-141197500D01*
D38*
X138200000Y-145010000D02*
X137660000Y-145550000D01*
X143185000Y-148745000D02*
X143540000Y-148390000D01*
D39*
X108460000Y-143550000D02*
X109160000Y-144250000D01*
D37*
X110090000Y-146097500D02*
X110877500Y-145310000D01*
D39*
X107765000Y-142785000D02*
X107765000Y-141035000D01*
X126540000Y-139500000D02*
X125710000Y-139500000D01*
D37*
X126560000Y-141020000D02*
X126560000Y-140700000D01*
D39*
X121020000Y-139500000D02*
X108930000Y-139500000D01*
X109160000Y-144250000D02*
X110490000Y-145580000D01*
X107765000Y-140665000D02*
X108780000Y-139650000D01*
X126560000Y-144030000D02*
X126560000Y-139520000D01*
X126560000Y-139520000D02*
X126540000Y-139500000D01*
X107792500Y-142882500D02*
X108460000Y-143550000D01*
D37*
X110877500Y-145310000D02*
X112590000Y-145310000D01*
X203430000Y-137070000D02*
X203430000Y-134920000D01*
D39*
X108780000Y-139650000D02*
X110900000Y-139650000D01*
D37*
X126560000Y-141020000D02*
X126560000Y-140350000D01*
%TO.N,Net-(D2-Pad2)*%
X85530000Y-146290000D02*
X85530000Y-149890000D01*
X85530000Y-149890000D02*
X85710000Y-150070000D01*
X87350000Y-144470000D02*
X85530000Y-146290000D01*
D38*
%TO.N,Net-(D2-Pad1)*%
X89153571Y-149980345D02*
X87451070Y-149980345D01*
X87451070Y-149980345D02*
X87406071Y-150025345D01*
D37*
%TO.N,/Y_Filt*%
X193990000Y-145460000D02*
X199530000Y-139920000D01*
X190010000Y-145460000D02*
X193990000Y-145460000D01*
X199530000Y-139920000D02*
X199530000Y-138440000D01*
%TO.N,/X_Filt*%
X169610000Y-145620000D02*
X178090000Y-137140000D01*
X178090000Y-137140000D02*
X178690000Y-137140000D01*
X178690000Y-137140000D02*
X199670000Y-137140000D01*
%TO.N,/OE*%
X202170000Y-135760000D02*
X202170000Y-137030000D01*
X166120000Y-134980000D02*
X142590000Y-111450000D01*
X201390000Y-134980000D02*
X166120000Y-134980000D01*
X201390000Y-134980000D02*
X202170000Y-135760000D01*
X142590000Y-111450000D02*
X127350000Y-111450000D01*
X89890000Y-111450000D02*
X127350000Y-111450000D01*
%TO.N,/X*%
X200534000Y-98610000D02*
X202865002Y-98610000D01*
X202865002Y-98610000D02*
X206030000Y-101774998D01*
X206030000Y-135810000D02*
X204800000Y-137040000D01*
X206030000Y-101774998D02*
X206030000Y-135810000D01*
D38*
%TO.N,/Y-*%
X194950000Y-85820000D02*
X194950000Y-86000000D01*
X194950000Y-84110000D02*
X194950000Y-85820000D01*
%TO.N,/X-*%
X193680000Y-85890000D02*
X193680000Y-85890000D01*
X193680000Y-86550000D02*
X193680000Y-86550000D01*
X193680000Y-86550000D02*
X193680000Y-87350000D01*
X193680000Y-85890000D02*
X193680000Y-86550000D01*
X193660000Y-84250000D02*
X193660000Y-84070000D01*
X193680000Y-84110000D02*
X193680000Y-85890000D01*
%TO.N,/X+*%
X191140000Y-87200000D02*
X191140000Y-87200000D01*
X191140000Y-88810000D02*
X191140000Y-88810000D01*
X191140000Y-84110000D02*
X191140000Y-87200000D01*
X191140000Y-87200000D02*
X191140000Y-88230000D01*
X191140000Y-88230000D02*
X191140000Y-88810000D01*
D37*
%TO.N,/Y_Filt_d*%
X185625000Y-152385000D02*
X154585000Y-152385000D01*
X190010000Y-148000000D02*
X185625000Y-152385000D01*
X151870000Y-149670000D02*
X154585000Y-152385000D01*
X151870000Y-141860000D02*
X151870000Y-149670000D01*
X129080000Y-119070000D02*
X151870000Y-141860000D01*
X89890000Y-119070000D02*
X129080000Y-119070000D01*
%TO.N,/X_Filt_d*%
X153870000Y-148760000D02*
X156520000Y-151410000D01*
X153870000Y-140760000D02*
X153870000Y-145560000D01*
X153870000Y-145560000D02*
X153870000Y-148760000D01*
X89890000Y-116530000D02*
X129640000Y-116530000D01*
X166350000Y-151410000D02*
X169620000Y-148140000D01*
X129640000Y-116530000D02*
X153870000Y-140760000D01*
X156520000Y-151410000D02*
X166350000Y-151410000D01*
D38*
%TO.N,/I2C_SCL*%
X193680000Y-82010000D02*
X193100000Y-81430000D01*
X102680000Y-93580000D02*
X89890000Y-106370000D01*
X184406400Y-93140010D02*
X103119990Y-93140010D01*
X188229999Y-89316411D02*
X184406400Y-93140010D01*
X188230000Y-82680000D02*
X188229999Y-89316411D01*
X189480000Y-81430000D02*
X188230000Y-82680000D01*
X193680000Y-82840000D02*
X193680000Y-82010000D01*
X193100000Y-81430000D02*
X189480000Y-81430000D01*
X103119990Y-93140010D02*
X102680000Y-93580000D01*
%TO.N,/I2C_SDA*%
X189643590Y-80630000D02*
X191140000Y-80630000D01*
X187715001Y-83188001D02*
X187715001Y-81675001D01*
X94130000Y-101290000D02*
X102730000Y-92690000D01*
X187715001Y-81675001D02*
X188760002Y-80630000D01*
X89890000Y-101290000D02*
X94130000Y-101290000D01*
X183540000Y-92690000D02*
X184220001Y-92689999D01*
X183540000Y-92690000D02*
X184220000Y-92690000D01*
X187590000Y-83313002D02*
X187715001Y-83188001D01*
X184220001Y-92689999D02*
X187590000Y-89320000D01*
X102730000Y-92690000D02*
X183540000Y-92690000D01*
X187590000Y-89320000D02*
X187590000Y-83313002D01*
X188760002Y-80630000D02*
X189643590Y-80630000D01*
%TO.N,/Vref*%
X186990000Y-89283590D02*
X186990000Y-82840000D01*
X102543600Y-92239990D02*
X184033600Y-92239990D01*
X184033600Y-92239990D02*
X186990000Y-89283590D01*
X98573590Y-96210000D02*
X102543600Y-92239990D01*
X89890000Y-96210000D02*
X98573590Y-96210000D01*
D37*
%TO.N,/X_Filt_Osc*%
X164680000Y-145370000D02*
X167030000Y-143020000D01*
X167030000Y-143020000D02*
X169700000Y-143020000D01*
X161760000Y-145370000D02*
X164680000Y-145370000D01*
%TO.N,/Y_Filt_Osc*%
X189880000Y-142950000D02*
X189870000Y-142950000D01*
X187570000Y-142950000D02*
X189880000Y-142950000D01*
X180970000Y-145380000D02*
X185140000Y-145380000D01*
X185140000Y-145380000D02*
X187570000Y-142950000D01*
%TO.N,GND1*%
X168050000Y-82630000D02*
X171910000Y-82630000D01*
D38*
%TO.N,Net-(IC1-Pad10)*%
X118235000Y-149535000D02*
X118660000Y-149110000D01*
X118465000Y-149535000D02*
X119130000Y-148870000D01*
X117975000Y-149535000D02*
X118520000Y-148990000D01*
X117905000Y-149535000D02*
X117975000Y-149535000D01*
X118145000Y-149535000D02*
X118235000Y-149535000D01*
X118145000Y-149535000D02*
X118465000Y-149535000D01*
X117905000Y-149535000D02*
X118145000Y-149535000D01*
X115750000Y-149535000D02*
X117905000Y-149535000D01*
X119130000Y-148870000D02*
X120110000Y-148870000D01*
%TO.N,Net-(IC1-Pad1)*%
X112505000Y-148635000D02*
X111820000Y-147950000D01*
D37*
X110920000Y-148410000D02*
X112450000Y-148410000D01*
D38*
X112850000Y-148635000D02*
X112505000Y-148635000D01*
X111820000Y-147950000D02*
X110640000Y-147950000D01*
D37*
X110630000Y-147952500D02*
X110630000Y-148120000D01*
X110630000Y-148120000D02*
X110920000Y-148410000D01*
D38*
%TO.N,Net-(IC2-Pad10)*%
X142260000Y-149195000D02*
X144205000Y-149195000D01*
X144205000Y-149195000D02*
X145090000Y-148310000D01*
X145090000Y-148310000D02*
X145770000Y-148310000D01*
X144205000Y-149195000D02*
X145165000Y-149195000D01*
D37*
X145317500Y-148402500D02*
X144690000Y-149030000D01*
X145910000Y-148402500D02*
X145317500Y-148402500D01*
D38*
X145165000Y-149195000D02*
X145910000Y-148450000D01*
%TO.N,Net-(IC2-Pad1)*%
X138965000Y-148295000D02*
X138170000Y-147500000D01*
X139360000Y-148295000D02*
X138965000Y-148295000D01*
X138170000Y-147500000D02*
X136580000Y-147500000D01*
D37*
%TO.N,/SiPM_G_Anode*%
X150120000Y-81580000D02*
X155070000Y-81580000D01*
X155160000Y-81660000D02*
X155160000Y-86780000D01*
X150080000Y-86740000D02*
X155030000Y-86740000D01*
X155160000Y-86740000D02*
X149810000Y-86740000D01*
D40*
X142780000Y-82250000D02*
X142780000Y-81749598D01*
X142780000Y-81749598D02*
X143229598Y-81300000D01*
X143229598Y-81300000D02*
X150010000Y-81300000D01*
X150010000Y-81300000D02*
X150370000Y-81660000D01*
D37*
X155160000Y-86780000D02*
X155020000Y-86920000D01*
D40*
%TO.N,/SiPM_G_Cathode*%
X144280000Y-82250000D02*
X147030000Y-82250000D01*
X148980000Y-84200000D02*
X152500000Y-84200000D01*
X147030000Y-82250000D02*
X148980000Y-84200000D01*
%TO.N,/SiPM_R_Anode*%
X116840000Y-82790000D02*
X116840000Y-82289598D01*
D37*
X129460000Y-86900000D02*
X124260000Y-86900000D01*
D40*
X117539598Y-81590000D02*
X124520000Y-81590000D01*
X116840000Y-82289598D02*
X117539598Y-81590000D01*
D37*
X124430000Y-81530000D02*
X129380000Y-81530000D01*
X129490000Y-86870000D02*
X129460000Y-86900000D01*
X129490000Y-81600000D02*
X129490000Y-86870000D01*
D40*
%TO.N,/SiPM_R_Cathode*%
X122840000Y-84210000D02*
X127190000Y-84210000D01*
X121420000Y-82790000D02*
X122840000Y-84210000D01*
X118340000Y-82790000D02*
X121420000Y-82790000D01*
%TO.N,/Temp_G_GND*%
X135500000Y-84000000D02*
X135500000Y-83400000D01*
X140570000Y-82630000D02*
X140820000Y-82380000D01*
X135580000Y-83320000D02*
X137480000Y-83320000D01*
X135500000Y-83400000D02*
X135580000Y-83320000D01*
X138560000Y-83350000D02*
X139280000Y-82630000D01*
X140820000Y-82380000D02*
X140840000Y-82380000D01*
X137400000Y-83350000D02*
X138560000Y-83350000D01*
X139280000Y-82630000D02*
X140570000Y-82630000D01*
%TO.N,/Temp_G_VDD*%
X141770000Y-82920000D02*
X141770000Y-82260000D01*
X141140000Y-83550000D02*
X141770000Y-82920000D01*
X139740000Y-83550000D02*
X141140000Y-83550000D01*
X138640000Y-84650000D02*
X139740000Y-83550000D01*
X137400000Y-84650000D02*
X138640000Y-84650000D01*
%TO.N,/Temp_G_Out*%
X136900402Y-83900000D02*
X136130402Y-84670000D01*
X141280000Y-82250000D02*
X141280000Y-82756000D01*
X139420000Y-83120000D02*
X140916000Y-83120000D01*
X138640000Y-83900000D02*
X139420000Y-83120000D01*
X136130402Y-84670000D02*
X135450000Y-84670000D01*
X136900402Y-83900000D02*
X138640000Y-83900000D01*
X140916000Y-83120000D02*
X141280000Y-82756000D01*
%TO.N,/Temp_R_GND*%
X114840000Y-82940000D02*
X114570000Y-83210000D01*
X109590000Y-84000000D02*
X109590000Y-83350000D01*
X109590000Y-83350000D02*
X111560000Y-83350000D01*
X114570000Y-83210000D02*
X113300000Y-83210000D01*
X114840000Y-82790000D02*
X114840000Y-82940000D01*
X113300000Y-83210000D02*
X113130000Y-83380000D01*
X111560000Y-83350000D02*
X111590000Y-83320000D01*
X113130000Y-83380000D02*
X111590000Y-83380000D01*
%TO.N,/Temp_R_VDD*%
X115820000Y-83440000D02*
X115820000Y-82770000D01*
X115180000Y-84080000D02*
X115820000Y-83440000D01*
X113790000Y-84080000D02*
X115180000Y-84080000D01*
X111490000Y-84650000D02*
X113220000Y-84650000D01*
X113220000Y-84650000D02*
X113790000Y-84080000D01*
%TO.N,/Temp_R_Out*%
X115010402Y-83620000D02*
X115340000Y-83290402D01*
X110189598Y-84650000D02*
X110899598Y-83940000D01*
X109590000Y-84650000D02*
X110189598Y-84650000D01*
X113220000Y-83940000D02*
X113540000Y-83620000D01*
X110899598Y-83940000D02*
X113220000Y-83940000D01*
X115340000Y-83290402D02*
X115340000Y-82820000D01*
X113540000Y-83620000D02*
X115010402Y-83620000D01*
D37*
%TO.N,/+5V_G_SiPM*%
X111060000Y-150480000D02*
X110220000Y-150480000D01*
X111250000Y-150290000D02*
X111060000Y-150480000D01*
D38*
X112850000Y-149535000D02*
X112005000Y-149535000D01*
D37*
X110430000Y-150290000D02*
X111250000Y-150290000D01*
D38*
X112005000Y-149535000D02*
X111695000Y-149845000D01*
D37*
X109985000Y-149845000D02*
X110430000Y-150290000D01*
X111695000Y-149845000D02*
X110650000Y-150890000D01*
X111695000Y-149845000D02*
X109985000Y-149845000D01*
D38*
%TO.N,/-5V_R_SiPM*%
X143550000Y-150180000D02*
X143990000Y-150620000D01*
D37*
X144350000Y-150980000D02*
X144910000Y-150980000D01*
X143550000Y-150180000D02*
X144810000Y-150180000D01*
X143890000Y-150180000D02*
X144160000Y-150450000D01*
D38*
X142260000Y-149645000D02*
X143015000Y-149645000D01*
D37*
X144160000Y-150450000D02*
X144620000Y-150450000D01*
X143550000Y-150180000D02*
X143890000Y-150180000D01*
D38*
X143015000Y-149645000D02*
X143550000Y-150180000D01*
X143990000Y-150620000D02*
X145010000Y-150620000D01*
D37*
X143550000Y-150180000D02*
X144350000Y-150980000D01*
%TO.N,/+5V_R_SiPM*%
X137370000Y-150200000D02*
X136880000Y-150690000D01*
X137390000Y-150200000D02*
X136430000Y-150200000D01*
X138150000Y-149440000D02*
X137390000Y-149440000D01*
X137220000Y-149610000D02*
X136750000Y-150080000D01*
D38*
X139360000Y-149195000D02*
X138395000Y-149195000D01*
D37*
X137390000Y-150200000D02*
X137370000Y-150200000D01*
X138150000Y-149440000D02*
X137610000Y-149980000D01*
X137390000Y-149440000D02*
X137220000Y-149610000D01*
X137610000Y-149980000D02*
X137390000Y-150200000D01*
X137590000Y-149980000D02*
X137220000Y-149610000D01*
D38*
X138395000Y-149195000D02*
X138150000Y-149440000D01*
D37*
X137610000Y-149980000D02*
X137590000Y-149980000D01*
D38*
%TO.N,/-5V_G_SiPM*%
X117135000Y-150585000D02*
X117460000Y-150910000D01*
X117460000Y-150910000D02*
X118470000Y-150910000D01*
X115750000Y-149985000D02*
X116535000Y-149985000D01*
D37*
X117135000Y-150585000D02*
X118205000Y-150585000D01*
D38*
X116535000Y-149985000D02*
X117135000Y-150585000D01*
D37*
X117135000Y-150585000D02*
X117920000Y-151370000D01*
X117920000Y-151370000D02*
X118420000Y-151370000D01*
D38*
%TO.N,Net-(D1-Pad2)*%
X114590000Y-151910000D02*
X114590000Y-151910000D01*
X115750000Y-150885000D02*
X115750000Y-151390000D01*
X115230000Y-151910000D02*
X114590000Y-151910000D01*
X115750000Y-151390000D02*
X115230000Y-151910000D01*
D37*
X101230000Y-146490000D02*
X104370000Y-146490000D01*
%TO.N,Net-(D1-Pad1)*%
X106175000Y-146570000D02*
X106175000Y-149155000D01*
D38*
%TO.N,Net-(D3-Pad2)*%
X140740000Y-151490000D02*
X140740000Y-151490000D01*
X142260000Y-150545000D02*
X142260000Y-150910000D01*
D37*
X129645000Y-146800000D02*
X126600000Y-146800000D01*
D38*
X141680000Y-151490000D02*
X140740000Y-151490000D01*
X142260000Y-150910000D02*
X141680000Y-151490000D01*
D37*
%TO.N,Net-(D3-Pad1)*%
X131395000Y-146800000D02*
X131395000Y-148965000D01*
%TD*%
%TA.AperFunction,Conductor*%
%TO.N,GND*%
G36*
X128276354Y-121029301D02*
G01*
X128317108Y-121055217D01*
X139967091Y-132111371D01*
X142794796Y-134794941D01*
X143150291Y-135132315D01*
X143179526Y-135174448D01*
X143189551Y-135224742D01*
X143180441Y-136336138D01*
X143169893Y-136385581D01*
X143140758Y-136426898D01*
X142546437Y-136985738D01*
X142506482Y-137011107D01*
X142459986Y-137019945D01*
X107211401Y-136981256D01*
X107211398Y-136981256D01*
X107199999Y-136981244D01*
X107191434Y-136988770D01*
X107191433Y-136988772D01*
X101419999Y-142061211D01*
X101419996Y-142061213D01*
X101410000Y-142070000D01*
X101409899Y-142083310D01*
X101409899Y-142083313D01*
X101407011Y-142466450D01*
X101389816Y-142529048D01*
X101343741Y-142574777D01*
X101281015Y-142591500D01*
X100331362Y-142591500D01*
X100328015Y-142591859D01*
X100328011Y-142591860D01*
X100278632Y-142597168D01*
X100278625Y-142597169D01*
X100270799Y-142598011D01*
X100263423Y-142600761D01*
X100263419Y-142600763D01*
X100142236Y-142645962D01*
X100142230Y-142645965D01*
X100133796Y-142649111D01*
X100126588Y-142654506D01*
X100126582Y-142654510D01*
X100023950Y-142731340D01*
X100023946Y-142731343D01*
X100016739Y-142736739D01*
X100011343Y-142743946D01*
X100011340Y-142743950D01*
X99934510Y-142846582D01*
X99934506Y-142846588D01*
X99929111Y-142853796D01*
X99925965Y-142862230D01*
X99925962Y-142862236D01*
X99880763Y-142983419D01*
X99880761Y-142983423D01*
X99878011Y-142990799D01*
X99877169Y-142998625D01*
X99877168Y-142998632D01*
X99871860Y-143048011D01*
X99871500Y-143051362D01*
X99871500Y-144848638D01*
X99871859Y-144851985D01*
X99871860Y-144851988D01*
X99877168Y-144901367D01*
X99877169Y-144901373D01*
X99878011Y-144909201D01*
X99880762Y-144916578D01*
X99880763Y-144916580D01*
X99925962Y-145037763D01*
X99925964Y-145037766D01*
X99929111Y-145046204D01*
X99934508Y-145053414D01*
X99934510Y-145053417D01*
X100011340Y-145156049D01*
X100016739Y-145163261D01*
X100023950Y-145168659D01*
X100117999Y-145239064D01*
X100133796Y-145250889D01*
X100142235Y-145254036D01*
X100142236Y-145254037D01*
X100248806Y-145293786D01*
X100299140Y-145328350D01*
X100327314Y-145382520D01*
X100326711Y-145443576D01*
X100297474Y-145497180D01*
X100157806Y-145648899D01*
X100157802Y-145648902D01*
X100154278Y-145652732D01*
X100151430Y-145657090D01*
X100151427Y-145657095D01*
X100033992Y-145836843D01*
X100031140Y-145841209D01*
X100029048Y-145845978D01*
X100029046Y-145845982D01*
X99942799Y-146042606D01*
X99942796Y-146042614D01*
X99940704Y-146047384D01*
X99939423Y-146052440D01*
X99939422Y-146052445D01*
X99906964Y-146180619D01*
X99885436Y-146265632D01*
X99885006Y-146270820D01*
X99885005Y-146270827D01*
X99867909Y-146477147D01*
X99866844Y-146490000D01*
X99867274Y-146495189D01*
X99882982Y-146684762D01*
X99885436Y-146714368D01*
X99899437Y-146769656D01*
X99937207Y-146918809D01*
X99940704Y-146932616D01*
X99942797Y-146937389D01*
X99942799Y-146937393D01*
X99959643Y-146975794D01*
X100031140Y-147138791D01*
X100154278Y-147327268D01*
X100179734Y-147354920D01*
X100303227Y-147489069D01*
X100303231Y-147489073D01*
X100306760Y-147492906D01*
X100484424Y-147631189D01*
X100489000Y-147633665D01*
X100489004Y-147633668D01*
X100499582Y-147639392D01*
X100518205Y-147649470D01*
X100566476Y-147695784D01*
X100584237Y-147760281D01*
X100566479Y-147824779D01*
X100518209Y-147871096D01*
X100489285Y-147886749D01*
X100480588Y-147892431D01*
X100311211Y-148024262D01*
X100303567Y-148031299D01*
X100158210Y-148189200D01*
X100151822Y-148197406D01*
X100034431Y-148377086D01*
X100029488Y-148386221D01*
X99943271Y-148582774D01*
X99939897Y-148592602D01*
X99939281Y-148595036D01*
X99938625Y-148596309D01*
X99938207Y-148597527D01*
X99938029Y-148597465D01*
X99913237Y-148645586D01*
X99867620Y-148679538D01*
X99853834Y-148685565D01*
X99853824Y-148685570D01*
X99845938Y-148689019D01*
X99839270Y-148694469D01*
X99839265Y-148694473D01*
X99818101Y-148711774D01*
X99805951Y-148720555D01*
X99782879Y-148735221D01*
X99782876Y-148735223D01*
X99775612Y-148739841D01*
X99769863Y-148746246D01*
X99769852Y-148746256D01*
X99759620Y-148757657D01*
X99745606Y-148771041D01*
X99733746Y-148780737D01*
X99733741Y-148780741D01*
X99727075Y-148786192D01*
X99722124Y-148793240D01*
X99722123Y-148793242D01*
X99706415Y-148815607D01*
X99697082Y-148827343D01*
X99042663Y-149556554D01*
X99035626Y-149563789D01*
X99006114Y-149591797D01*
X99006108Y-149591803D01*
X98999860Y-149597734D01*
X98995441Y-149605132D01*
X98995437Y-149605138D01*
X98970413Y-149647038D01*
X98966600Y-149653032D01*
X98939234Y-149693484D01*
X98939232Y-149693487D01*
X98934403Y-149700626D01*
X98931679Y-149708798D01*
X98928432Y-149715383D01*
X98925555Y-149722153D01*
X98921141Y-149729545D01*
X98918885Y-149737851D01*
X98918881Y-149737861D01*
X98906083Y-149784986D01*
X98904028Y-149791788D01*
X98891787Y-149828529D01*
X98885872Y-149846282D01*
X98885454Y-149854883D01*
X98884105Y-149862095D01*
X98883161Y-149869394D01*
X98880904Y-149877706D01*
X98880972Y-149886319D01*
X98880972Y-149886326D01*
X98881362Y-149935148D01*
X98881218Y-149942251D01*
X98878855Y-149991019D01*
X98878438Y-149999630D01*
X98880358Y-150008030D01*
X98881117Y-150016617D01*
X98880679Y-150016655D01*
X98882113Y-150028938D01*
X98911488Y-153700732D01*
X98911492Y-153702063D01*
X98911304Y-153775324D01*
X98913606Y-153783623D01*
X98913607Y-153783629D01*
X98920279Y-153807679D01*
X98923549Y-153823203D01*
X98927146Y-153847911D01*
X98927147Y-153847915D01*
X98928388Y-153856436D01*
X98931882Y-153864308D01*
X98931883Y-153864310D01*
X98939059Y-153880476D01*
X98945311Y-153897917D01*
X98950038Y-153914959D01*
X98950040Y-153914964D01*
X98952343Y-153923265D01*
X98956801Y-153930638D01*
X98969716Y-153952000D01*
X98977052Y-153966065D01*
X98987182Y-153988884D01*
X98987184Y-153988887D01*
X98990679Y-153996760D01*
X98996165Y-154003395D01*
X98996167Y-154003397D01*
X99007441Y-154017030D01*
X99018164Y-154032134D01*
X99027314Y-154047268D01*
X99027316Y-154047271D01*
X99031776Y-154054647D01*
X99038061Y-154060547D01*
X99056254Y-154077626D01*
X99067111Y-154089188D01*
X99088518Y-154115075D01*
X99095601Y-154119990D01*
X99095602Y-154119991D01*
X99110132Y-154130074D01*
X99124536Y-154141727D01*
X100030491Y-154992216D01*
X100051405Y-155011849D01*
X100057223Y-155017680D01*
X100094353Y-155057413D01*
X100101714Y-155061886D01*
X100101715Y-155061887D01*
X100139127Y-155084622D01*
X100146620Y-155089550D01*
X100182314Y-155114885D01*
X100182321Y-155114889D01*
X100189348Y-155119876D01*
X100197460Y-155122782D01*
X100200559Y-155124398D01*
X100214967Y-155131270D01*
X100218184Y-155132666D01*
X100225553Y-155137145D01*
X100233852Y-155139467D01*
X100233853Y-155139468D01*
X100276014Y-155151267D01*
X100284535Y-155153981D01*
X100333878Y-155171662D01*
X100342478Y-155172272D01*
X100345911Y-155172995D01*
X100361635Y-155175725D01*
X100365102Y-155176200D01*
X100373400Y-155178523D01*
X100425793Y-155178507D01*
X100434736Y-155178822D01*
X100487022Y-155182535D01*
X100495470Y-155180801D01*
X100498958Y-155180572D01*
X100519541Y-155178479D01*
X100563324Y-155178466D01*
X100619543Y-155191685D01*
X100663960Y-155228600D01*
X100687241Y-155281454D01*
X100684494Y-155339142D01*
X100656298Y-155389545D01*
X100106956Y-155989629D01*
X100065365Y-156019613D01*
X100015273Y-156030544D01*
X93091791Y-156099484D01*
X93043795Y-156090500D01*
X93002819Y-156063943D01*
X91490495Y-154597349D01*
X91462080Y-154555776D01*
X91452213Y-154506399D01*
X91465394Y-151182408D01*
X91476322Y-151131584D01*
X91506843Y-151089493D01*
X91551761Y-151063309D01*
X91615130Y-151042311D01*
X91628339Y-151036152D01*
X91766662Y-150950833D01*
X91778103Y-150941786D01*
X91893012Y-150826877D01*
X91902059Y-150815436D01*
X91987378Y-150677112D01*
X91993535Y-150663909D01*
X92044803Y-150509191D01*
X92047663Y-150495833D01*
X92057245Y-150402037D01*
X92057571Y-150395648D01*
X92057571Y-150168935D01*
X92054064Y-150155851D01*
X92040981Y-150152345D01*
X91469479Y-150152345D01*
X91471493Y-149644345D01*
X92040981Y-149644345D01*
X92054064Y-149640838D01*
X92057571Y-149627755D01*
X92057571Y-149401043D01*
X92057245Y-149394652D01*
X92047663Y-149300856D01*
X92044803Y-149287498D01*
X91993535Y-149132780D01*
X91987378Y-149119577D01*
X91902059Y-148981253D01*
X91893012Y-148969812D01*
X91778103Y-148854903D01*
X91766662Y-148845856D01*
X91628340Y-148760538D01*
X91615133Y-148754380D01*
X91561931Y-148736750D01*
X91516769Y-148710342D01*
X91486225Y-148667866D01*
X91475568Y-148616651D01*
X91536600Y-133224957D01*
X106999628Y-133224957D01*
X107000016Y-133229887D01*
X107018696Y-133467248D01*
X107018697Y-133467256D01*
X107019085Y-133472182D01*
X107020239Y-133476990D01*
X107020240Y-133476994D01*
X107073420Y-133698506D01*
X107076977Y-133713319D01*
X107171878Y-133942431D01*
X107174463Y-133946650D01*
X107174464Y-133946651D01*
X107297630Y-134147640D01*
X107301452Y-134153876D01*
X107462508Y-134342449D01*
X107651081Y-134503505D01*
X107862526Y-134633079D01*
X108091638Y-134727980D01*
X108332775Y-134785872D01*
X108580000Y-134805329D01*
X108827225Y-134785872D01*
X109068362Y-134727980D01*
X109297474Y-134633079D01*
X109508919Y-134503505D01*
X109697492Y-134342449D01*
X109858548Y-134153876D01*
X109988122Y-133942431D01*
X110083023Y-133713319D01*
X110140915Y-133472182D01*
X110160372Y-133224957D01*
X110159585Y-133214957D01*
X123019628Y-133214957D01*
X123020016Y-133219887D01*
X123038696Y-133457248D01*
X123038697Y-133457256D01*
X123039085Y-133462182D01*
X123040239Y-133466990D01*
X123040240Y-133466994D01*
X123054562Y-133526651D01*
X123096977Y-133703319D01*
X123098870Y-133707889D01*
X123098871Y-133707892D01*
X123101119Y-133713319D01*
X123191878Y-133932431D01*
X123194463Y-133936650D01*
X123194464Y-133936651D01*
X123300371Y-134109476D01*
X123321452Y-134143876D01*
X123482508Y-134332449D01*
X123671081Y-134493505D01*
X123882526Y-134623079D01*
X124111638Y-134717980D01*
X124352775Y-134775872D01*
X124600000Y-134795329D01*
X124847225Y-134775872D01*
X125088362Y-134717980D01*
X125317474Y-134623079D01*
X125528919Y-134493505D01*
X125717492Y-134332449D01*
X125878548Y-134143876D01*
X126008122Y-133932431D01*
X126103023Y-133703319D01*
X126160915Y-133462182D01*
X126180372Y-133214957D01*
X126160915Y-132967732D01*
X126121836Y-132804957D01*
X132779628Y-132804957D01*
X132780016Y-132809887D01*
X132798696Y-133047248D01*
X132798697Y-133047256D01*
X132799085Y-133052182D01*
X132800239Y-133056990D01*
X132800240Y-133056994D01*
X132840564Y-133224957D01*
X132856977Y-133293319D01*
X132858870Y-133297889D01*
X132858871Y-133297892D01*
X132931064Y-133472182D01*
X132951878Y-133522431D01*
X132954463Y-133526650D01*
X132954464Y-133526651D01*
X133068854Y-133713319D01*
X133081452Y-133733876D01*
X133242508Y-133922449D01*
X133431081Y-134083505D01*
X133642526Y-134213079D01*
X133871638Y-134307980D01*
X134112775Y-134365872D01*
X134360000Y-134385329D01*
X134607225Y-134365872D01*
X134848362Y-134307980D01*
X135077474Y-134213079D01*
X135288919Y-134083505D01*
X135477492Y-133922449D01*
X135638548Y-133733876D01*
X135768122Y-133522431D01*
X135863023Y-133293319D01*
X135920915Y-133052182D01*
X135940372Y-132804957D01*
X135920915Y-132557732D01*
X135863023Y-132316595D01*
X135768122Y-132087483D01*
X135638548Y-131876038D01*
X135477492Y-131687465D01*
X135451419Y-131665197D01*
X135292683Y-131529624D01*
X135288919Y-131526409D01*
X135246538Y-131500438D01*
X135081694Y-131399421D01*
X135081693Y-131399420D01*
X135077474Y-131396835D01*
X134848362Y-131301934D01*
X134843554Y-131300779D01*
X134843549Y-131300778D01*
X134612037Y-131245197D01*
X134612033Y-131245196D01*
X134607225Y-131244042D01*
X134602299Y-131243654D01*
X134602291Y-131243653D01*
X134364930Y-131224973D01*
X134360000Y-131224585D01*
X134355070Y-131224973D01*
X134117708Y-131243653D01*
X134117698Y-131243654D01*
X134112775Y-131244042D01*
X134107968Y-131245196D01*
X134107962Y-131245197D01*
X133876450Y-131300778D01*
X133876441Y-131300780D01*
X133871638Y-131301934D01*
X133867070Y-131303825D01*
X133867064Y-131303828D01*
X133647100Y-131394940D01*
X133647095Y-131394942D01*
X133642526Y-131396835D01*
X133638311Y-131399417D01*
X133638305Y-131399421D01*
X133435298Y-131523824D01*
X133435290Y-131523829D01*
X133431081Y-131526409D01*
X133427320Y-131529620D01*
X133427316Y-131529624D01*
X133246270Y-131684251D01*
X133246263Y-131684257D01*
X133242508Y-131687465D01*
X133239300Y-131691220D01*
X133239294Y-131691227D01*
X133084667Y-131872273D01*
X133084663Y-131872277D01*
X133081452Y-131876038D01*
X133078872Y-131880247D01*
X133078867Y-131880255D01*
X132954464Y-132083262D01*
X132954460Y-132083268D01*
X132951878Y-132087483D01*
X132949985Y-132092052D01*
X132949983Y-132092057D01*
X132858871Y-132312021D01*
X132858868Y-132312027D01*
X132856977Y-132316595D01*
X132855823Y-132321398D01*
X132855821Y-132321407D01*
X132800240Y-132552919D01*
X132800239Y-132552925D01*
X132799085Y-132557732D01*
X132798697Y-132562655D01*
X132798696Y-132562665D01*
X132782975Y-132762423D01*
X132779628Y-132804957D01*
X126121836Y-132804957D01*
X126103023Y-132726595D01*
X126008122Y-132497483D01*
X125878548Y-132286038D01*
X125717492Y-132097465D01*
X125528919Y-131936409D01*
X125518478Y-131930011D01*
X125321694Y-131809421D01*
X125321693Y-131809420D01*
X125317474Y-131806835D01*
X125289679Y-131795322D01*
X125092935Y-131713828D01*
X125092932Y-131713827D01*
X125088362Y-131711934D01*
X125083554Y-131710779D01*
X125083549Y-131710778D01*
X124852037Y-131655197D01*
X124852033Y-131655196D01*
X124847225Y-131654042D01*
X124842299Y-131653654D01*
X124842291Y-131653653D01*
X124604930Y-131634973D01*
X124600000Y-131634585D01*
X124595070Y-131634973D01*
X124357708Y-131653653D01*
X124357698Y-131653654D01*
X124352775Y-131654042D01*
X124347968Y-131655196D01*
X124347962Y-131655197D01*
X124116450Y-131710778D01*
X124116441Y-131710780D01*
X124111638Y-131711934D01*
X124107070Y-131713825D01*
X124107064Y-131713828D01*
X123887100Y-131804940D01*
X123887095Y-131804942D01*
X123882526Y-131806835D01*
X123878311Y-131809417D01*
X123878305Y-131809421D01*
X123675298Y-131933824D01*
X123675290Y-131933829D01*
X123671081Y-131936409D01*
X123667320Y-131939620D01*
X123667316Y-131939624D01*
X123486270Y-132094251D01*
X123486263Y-132094257D01*
X123482508Y-132097465D01*
X123479300Y-132101220D01*
X123479294Y-132101227D01*
X123324667Y-132282273D01*
X123324663Y-132282277D01*
X123321452Y-132286038D01*
X123318872Y-132290247D01*
X123318867Y-132290255D01*
X123194464Y-132493262D01*
X123194460Y-132493268D01*
X123191878Y-132497483D01*
X123189985Y-132502052D01*
X123189983Y-132502057D01*
X123098871Y-132722021D01*
X123098868Y-132722027D01*
X123096977Y-132726595D01*
X123095823Y-132731398D01*
X123095821Y-132731407D01*
X123040240Y-132962919D01*
X123040239Y-132962925D01*
X123039085Y-132967732D01*
X123038697Y-132972655D01*
X123038696Y-132972665D01*
X123023260Y-133168811D01*
X123019628Y-133214957D01*
X110159585Y-133214957D01*
X110140915Y-132977732D01*
X110083023Y-132736595D01*
X109988122Y-132507483D01*
X109858548Y-132296038D01*
X109697492Y-132107465D01*
X109685783Y-132097465D01*
X109609617Y-132032413D01*
X109508919Y-131946409D01*
X109488382Y-131933824D01*
X109301694Y-131819421D01*
X109301693Y-131819420D01*
X109297474Y-131816835D01*
X109068362Y-131721934D01*
X109063554Y-131720779D01*
X109063549Y-131720778D01*
X108832037Y-131665197D01*
X108832033Y-131665196D01*
X108827225Y-131664042D01*
X108822299Y-131663654D01*
X108822291Y-131663653D01*
X108584930Y-131644973D01*
X108580000Y-131644585D01*
X108575070Y-131644973D01*
X108337708Y-131663653D01*
X108337698Y-131663654D01*
X108332775Y-131664042D01*
X108327968Y-131665196D01*
X108327962Y-131665197D01*
X108096450Y-131720778D01*
X108096441Y-131720780D01*
X108091638Y-131721934D01*
X108087070Y-131723825D01*
X108087064Y-131723828D01*
X107867100Y-131814940D01*
X107867095Y-131814942D01*
X107862526Y-131816835D01*
X107858311Y-131819417D01*
X107858305Y-131819421D01*
X107655298Y-131943824D01*
X107655290Y-131943829D01*
X107651081Y-131946409D01*
X107647320Y-131949620D01*
X107647316Y-131949624D01*
X107466270Y-132104251D01*
X107466263Y-132104257D01*
X107462508Y-132107465D01*
X107459300Y-132111220D01*
X107459294Y-132111227D01*
X107304667Y-132292273D01*
X107304663Y-132292277D01*
X107301452Y-132296038D01*
X107298872Y-132300247D01*
X107298867Y-132300255D01*
X107174464Y-132503262D01*
X107174460Y-132503268D01*
X107171878Y-132507483D01*
X107169985Y-132512052D01*
X107169983Y-132512057D01*
X107078871Y-132732021D01*
X107078868Y-132732027D01*
X107076977Y-132736595D01*
X107075823Y-132741398D01*
X107075821Y-132741407D01*
X107020240Y-132972919D01*
X107020239Y-132972925D01*
X107019085Y-132977732D01*
X107018697Y-132982655D01*
X107018696Y-132982665D01*
X107004047Y-133168811D01*
X106999628Y-133224957D01*
X91536600Y-133224957D01*
X91580000Y-122280000D01*
X91160000Y-121470000D01*
X128228845Y-121020620D01*
X128276354Y-121029301D01*
G37*
%TD.AperFunction*%
%TD*%
%TA.AperFunction,Conductor*%
%TO.N,GND*%
G36*
X192601000Y-83872881D02*
G01*
X192647119Y-83919000D01*
X192664000Y-83982000D01*
X192664000Y-85071552D01*
X192666654Y-85082727D01*
X192678122Y-85082022D01*
X192791686Y-85047573D01*
X192803068Y-85042858D01*
X192861104Y-85011838D01*
X192923592Y-84996998D01*
X192985277Y-85014886D01*
X193030131Y-85060855D01*
X193046500Y-85122960D01*
X193046500Y-85818207D01*
X193044268Y-85841816D01*
X193044210Y-85842118D01*
X193044209Y-85842123D01*
X193042725Y-85849906D01*
X193043222Y-85857810D01*
X193043222Y-85857816D01*
X193046251Y-85905951D01*
X193046500Y-85913862D01*
X193046500Y-86478207D01*
X193044268Y-86501816D01*
X193044210Y-86502118D01*
X193044209Y-86502123D01*
X193042725Y-86509906D01*
X193043222Y-86517810D01*
X193043222Y-86517816D01*
X193046251Y-86565951D01*
X193046500Y-86573862D01*
X193046500Y-86647476D01*
X193038131Y-86692630D01*
X193014138Y-86731783D01*
X192940960Y-86813056D01*
X192937661Y-86818769D01*
X192937658Y-86818774D01*
X192929669Y-86832612D01*
X192845473Y-86978444D01*
X192843434Y-86984718D01*
X192843430Y-86984728D01*
X192788497Y-87153794D01*
X192788495Y-87153801D01*
X192786458Y-87160072D01*
X192785768Y-87166633D01*
X192785768Y-87166635D01*
X192775202Y-87267170D01*
X192766496Y-87350000D01*
X192786458Y-87539928D01*
X192788495Y-87546200D01*
X192788497Y-87546205D01*
X192843430Y-87715271D01*
X192843433Y-87715278D01*
X192845473Y-87721556D01*
X192940960Y-87886944D01*
X193068747Y-88028866D01*
X193223248Y-88141118D01*
X193397712Y-88218794D01*
X193584513Y-88258500D01*
X193768884Y-88258500D01*
X193775487Y-88258500D01*
X193962288Y-88218794D01*
X194136752Y-88141118D01*
X194291253Y-88028866D01*
X194419040Y-87886944D01*
X194514527Y-87721556D01*
X194573542Y-87539928D01*
X194593504Y-87350000D01*
X194573542Y-87160072D01*
X194514527Y-86978444D01*
X194430331Y-86832612D01*
X194413478Y-86772251D01*
X194427789Y-86711236D01*
X194469723Y-86664664D01*
X194528907Y-86644054D01*
X194590700Y-86654506D01*
X194661676Y-86686107D01*
X194661679Y-86686108D01*
X194667712Y-86688794D01*
X194854513Y-86728500D01*
X195038884Y-86728500D01*
X195045487Y-86728500D01*
X195232288Y-86688794D01*
X195262540Y-86675324D01*
X195323728Y-86664822D01*
X195382505Y-86684816D01*
X195424599Y-86730450D01*
X195439791Y-86790647D01*
X195380073Y-121417662D01*
X195373441Y-121457783D01*
X195354376Y-121493703D01*
X194276017Y-122912084D01*
X194276013Y-122912089D01*
X194270000Y-122920000D01*
X194269799Y-122929936D01*
X194269799Y-122929941D01*
X194256929Y-123568596D01*
X194240358Y-123628563D01*
X194197112Y-123673291D01*
X194141282Y-123690764D01*
X194141362Y-123691500D01*
X194088632Y-123697168D01*
X194088625Y-123697169D01*
X194080799Y-123698011D01*
X194073423Y-123700761D01*
X194073419Y-123700763D01*
X193952236Y-123745962D01*
X193952230Y-123745965D01*
X193943796Y-123749111D01*
X193936588Y-123754506D01*
X193936582Y-123754510D01*
X193833950Y-123831340D01*
X193833946Y-123831343D01*
X193826739Y-123836739D01*
X193821343Y-123843946D01*
X193821340Y-123843950D01*
X193744510Y-123946582D01*
X193744506Y-123946588D01*
X193739111Y-123953796D01*
X193735965Y-123962230D01*
X193735962Y-123962236D01*
X193690763Y-124083419D01*
X193690761Y-124083423D01*
X193688011Y-124090799D01*
X193687169Y-124098625D01*
X193687168Y-124098632D01*
X193681860Y-124148011D01*
X193681500Y-124151362D01*
X193681500Y-128248638D01*
X193681859Y-128251985D01*
X193681860Y-128251988D01*
X193687168Y-128301367D01*
X193687169Y-128301373D01*
X193688011Y-128309201D01*
X193690762Y-128316578D01*
X193690763Y-128316580D01*
X193735962Y-128437763D01*
X193735964Y-128437766D01*
X193739111Y-128446204D01*
X193744508Y-128453414D01*
X193744510Y-128453417D01*
X193821340Y-128556049D01*
X193826739Y-128563261D01*
X193943796Y-128650889D01*
X193952236Y-128654037D01*
X193952238Y-128654038D01*
X194069201Y-128697663D01*
X194112729Y-128725115D01*
X194141652Y-128767679D01*
X194151143Y-128818258D01*
X194110000Y-130860000D01*
X194118916Y-130868990D01*
X194118918Y-130868993D01*
X196294799Y-133063006D01*
X196325354Y-133113371D01*
X196329674Y-133172121D01*
X196306816Y-133226414D01*
X196261776Y-133264383D01*
X196204398Y-133277728D01*
X184360064Y-133189676D01*
X184359905Y-133189675D01*
X166500522Y-133188720D01*
X166451919Y-133178966D01*
X166410841Y-133151218D01*
X145562962Y-112023000D01*
X188740678Y-112023000D01*
X188759915Y-112206029D01*
X188761954Y-112212306D01*
X188761955Y-112212308D01*
X188814743Y-112374774D01*
X188814746Y-112374781D01*
X188816786Y-112381059D01*
X188908805Y-112540440D01*
X189031950Y-112677207D01*
X189180839Y-112785381D01*
X189348966Y-112860236D01*
X189528981Y-112898500D01*
X189706416Y-112898500D01*
X189713019Y-112898500D01*
X189893034Y-112860236D01*
X190061161Y-112785381D01*
X190210050Y-112677207D01*
X190333195Y-112540440D01*
X190425214Y-112381059D01*
X190482085Y-112206029D01*
X190501322Y-112023000D01*
X190482085Y-111839971D01*
X190425214Y-111664941D01*
X190333195Y-111505560D01*
X190210050Y-111368793D01*
X190061161Y-111260619D01*
X189893034Y-111185764D01*
X189886581Y-111184392D01*
X189886577Y-111184391D01*
X189719475Y-111148872D01*
X189719472Y-111148871D01*
X189713019Y-111147500D01*
X189528981Y-111147500D01*
X189522528Y-111148871D01*
X189522524Y-111148872D01*
X189355422Y-111184391D01*
X189355415Y-111184393D01*
X189348966Y-111185764D01*
X189342936Y-111188448D01*
X189342935Y-111188449D01*
X189186869Y-111257934D01*
X189186866Y-111257935D01*
X189180839Y-111260619D01*
X189175498Y-111264499D01*
X189175497Y-111264500D01*
X189037294Y-111364910D01*
X189037291Y-111364911D01*
X189031950Y-111368793D01*
X189027533Y-111373698D01*
X189027528Y-111373703D01*
X188913224Y-111500651D01*
X188913219Y-111500657D01*
X188908805Y-111505560D01*
X188905506Y-111511273D01*
X188905503Y-111511278D01*
X188870860Y-111571282D01*
X188816786Y-111664941D01*
X188814747Y-111671215D01*
X188814743Y-111671225D01*
X188761955Y-111833691D01*
X188761954Y-111833695D01*
X188759915Y-111839971D01*
X188740678Y-112023000D01*
X145562962Y-112023000D01*
X144146670Y-110587663D01*
X144146667Y-110587661D01*
X144137843Y-110578718D01*
X144125278Y-110578756D01*
X144125275Y-110578756D01*
X107588743Y-110691499D01*
X107588354Y-110691500D01*
X91085372Y-110691500D01*
X91025403Y-110676314D01*
X90979889Y-110634416D01*
X90968571Y-110617093D01*
X90965722Y-110612732D01*
X90899114Y-110540377D01*
X90816772Y-110450930D01*
X90816767Y-110450925D01*
X90813240Y-110447094D01*
X90635576Y-110308811D01*
X90631000Y-110306334D01*
X90630990Y-110306328D01*
X90601794Y-110290529D01*
X90553521Y-110244213D01*
X90535762Y-110179715D01*
X90553522Y-110115217D01*
X90601794Y-110068900D01*
X90630723Y-110053244D01*
X90639411Y-110047568D01*
X90808788Y-109915737D01*
X90816432Y-109908700D01*
X90961789Y-109750799D01*
X90968177Y-109742593D01*
X91085568Y-109562913D01*
X91090511Y-109553778D01*
X91176729Y-109357223D01*
X91180099Y-109347408D01*
X91223013Y-109177943D01*
X91223248Y-109166565D01*
X91212160Y-109164000D01*
X89762000Y-109164000D01*
X89699000Y-109147119D01*
X89652881Y-109101000D01*
X89636000Y-109038000D01*
X89636000Y-108782000D01*
X89652881Y-108719000D01*
X89699000Y-108672881D01*
X89762000Y-108656000D01*
X91212160Y-108656000D01*
X91223248Y-108653434D01*
X91223013Y-108642056D01*
X91180099Y-108472591D01*
X91176729Y-108462776D01*
X91090511Y-108266221D01*
X91085568Y-108257086D01*
X90968177Y-108077406D01*
X90961789Y-108069200D01*
X90816432Y-107911299D01*
X90808788Y-107904262D01*
X90639411Y-107772431D01*
X90630713Y-107766749D01*
X90601792Y-107751097D01*
X90553520Y-107704780D01*
X90535762Y-107640281D01*
X90553523Y-107575784D01*
X90601791Y-107529472D01*
X90635576Y-107511189D01*
X90813240Y-107372906D01*
X90965722Y-107207268D01*
X91088860Y-107018791D01*
X91179296Y-106812616D01*
X91234564Y-106594368D01*
X91253156Y-106370000D01*
X91234564Y-106145632D01*
X91206816Y-106036062D01*
X91207482Y-105971682D01*
X91239864Y-105916038D01*
X93960945Y-103194957D01*
X106979628Y-103194957D01*
X106980016Y-103199887D01*
X106998696Y-103437248D01*
X106998697Y-103437256D01*
X106999085Y-103442182D01*
X107000239Y-103446990D01*
X107000240Y-103446994D01*
X107051019Y-103658506D01*
X107056977Y-103683319D01*
X107058870Y-103687889D01*
X107058871Y-103687892D01*
X107127238Y-103852944D01*
X107151878Y-103912431D01*
X107154463Y-103916650D01*
X107154464Y-103916651D01*
X107278755Y-104119476D01*
X107281452Y-104123876D01*
X107284667Y-104127640D01*
X107422212Y-104288686D01*
X107442508Y-104312449D01*
X107631081Y-104473505D01*
X107842526Y-104603079D01*
X108071638Y-104697980D01*
X108312775Y-104755872D01*
X108560000Y-104775329D01*
X108807225Y-104755872D01*
X109048362Y-104697980D01*
X109277474Y-104603079D01*
X109488919Y-104473505D01*
X109677492Y-104312449D01*
X109838548Y-104123876D01*
X109968122Y-103912431D01*
X110063023Y-103683319D01*
X110120915Y-103442182D01*
X110140372Y-103194957D01*
X110138798Y-103174957D01*
X123019628Y-103174957D01*
X123020016Y-103179887D01*
X123038696Y-103417248D01*
X123038697Y-103417256D01*
X123039085Y-103422182D01*
X123040239Y-103426990D01*
X123040240Y-103426994D01*
X123095577Y-103657491D01*
X123096977Y-103663319D01*
X123098870Y-103667889D01*
X123098871Y-103667892D01*
X123130345Y-103743876D01*
X123191878Y-103892431D01*
X123194463Y-103896650D01*
X123194464Y-103896651D01*
X123315096Y-104093505D01*
X123321452Y-104103876D01*
X123482508Y-104292449D01*
X123671081Y-104453505D01*
X123882526Y-104583079D01*
X124111638Y-104677980D01*
X124352775Y-104735872D01*
X124600000Y-104755329D01*
X124847225Y-104735872D01*
X125088362Y-104677980D01*
X125317474Y-104583079D01*
X125528919Y-104453505D01*
X125717492Y-104292449D01*
X125878548Y-104103876D01*
X126008122Y-103892431D01*
X126103023Y-103663319D01*
X126160915Y-103422182D01*
X126180372Y-103174957D01*
X126160915Y-102927732D01*
X126131439Y-102804957D01*
X132819628Y-102804957D01*
X132820016Y-102809887D01*
X132838696Y-103047248D01*
X132838697Y-103047256D01*
X132839085Y-103052182D01*
X132840239Y-103056990D01*
X132840240Y-103056994D01*
X132872178Y-103190027D01*
X132896977Y-103293319D01*
X132898870Y-103297889D01*
X132898871Y-103297892D01*
X132956594Y-103437248D01*
X132991878Y-103522431D01*
X132994463Y-103526650D01*
X132994464Y-103526651D01*
X133090470Y-103683319D01*
X133121452Y-103733876D01*
X133129993Y-103743876D01*
X133260474Y-103896651D01*
X133282508Y-103922449D01*
X133471081Y-104083505D01*
X133682526Y-104213079D01*
X133911638Y-104307980D01*
X134152775Y-104365872D01*
X134400000Y-104385329D01*
X134647225Y-104365872D01*
X134888362Y-104307980D01*
X135117474Y-104213079D01*
X135328919Y-104083505D01*
X135517492Y-103922449D01*
X135678548Y-103733876D01*
X135808122Y-103522431D01*
X135903023Y-103293319D01*
X135960915Y-103052182D01*
X135979585Y-102814957D01*
X148779628Y-102814957D01*
X148780016Y-102819887D01*
X148798696Y-103057248D01*
X148798697Y-103057256D01*
X148799085Y-103062182D01*
X148800239Y-103066990D01*
X148800240Y-103066994D01*
X148853420Y-103288506D01*
X148856977Y-103303319D01*
X148858870Y-103307889D01*
X148858871Y-103307892D01*
X148908205Y-103426994D01*
X148951878Y-103532431D01*
X148954463Y-103536650D01*
X148954464Y-103536651D01*
X149077630Y-103737640D01*
X149081452Y-103743876D01*
X149084667Y-103747640D01*
X149208329Y-103892431D01*
X149242508Y-103932449D01*
X149431081Y-104093505D01*
X149642526Y-104223079D01*
X149871638Y-104317980D01*
X150112775Y-104375872D01*
X150360000Y-104395329D01*
X150607225Y-104375872D01*
X150848362Y-104317980D01*
X151077474Y-104223079D01*
X151288919Y-104093505D01*
X151477492Y-103932449D01*
X151638548Y-103743876D01*
X151768122Y-103532431D01*
X151863023Y-103303319D01*
X151920915Y-103062182D01*
X151940372Y-102814957D01*
X151920915Y-102567732D01*
X151863023Y-102326595D01*
X151776206Y-102117000D01*
X157752678Y-102117000D01*
X157753368Y-102123565D01*
X157766683Y-102250255D01*
X157771915Y-102300029D01*
X157773954Y-102306306D01*
X157773955Y-102306308D01*
X157826743Y-102468774D01*
X157826746Y-102468781D01*
X157828786Y-102475059D01*
X157920805Y-102634440D01*
X157925223Y-102639347D01*
X157925224Y-102639348D01*
X157953811Y-102671097D01*
X158043950Y-102771207D01*
X158192839Y-102879381D01*
X158360966Y-102954236D01*
X158540981Y-102992500D01*
X158718416Y-102992500D01*
X158725019Y-102992500D01*
X158905034Y-102954236D01*
X159073161Y-102879381D01*
X159222050Y-102771207D01*
X159345195Y-102634440D01*
X159437214Y-102475059D01*
X159494085Y-102300029D01*
X159513322Y-102117000D01*
X159494085Y-101933971D01*
X159437214Y-101758941D01*
X159345195Y-101599560D01*
X159222050Y-101462793D01*
X159073161Y-101354619D01*
X158905034Y-101279764D01*
X158898581Y-101278392D01*
X158898577Y-101278391D01*
X158731475Y-101242872D01*
X158731472Y-101242871D01*
X158725019Y-101241500D01*
X158540981Y-101241500D01*
X158534528Y-101242871D01*
X158534524Y-101242872D01*
X158367422Y-101278391D01*
X158367415Y-101278393D01*
X158360966Y-101279764D01*
X158354936Y-101282448D01*
X158354935Y-101282449D01*
X158198869Y-101351934D01*
X158198866Y-101351935D01*
X158192839Y-101354619D01*
X158187498Y-101358499D01*
X158187497Y-101358500D01*
X158049294Y-101458910D01*
X158049291Y-101458911D01*
X158043950Y-101462793D01*
X158039533Y-101467698D01*
X158039528Y-101467703D01*
X157925224Y-101594651D01*
X157925219Y-101594657D01*
X157920805Y-101599560D01*
X157917506Y-101605273D01*
X157917503Y-101605278D01*
X157866379Y-101693828D01*
X157828786Y-101758941D01*
X157826747Y-101765215D01*
X157826743Y-101765225D01*
X157773955Y-101927691D01*
X157773954Y-101927695D01*
X157771915Y-101933971D01*
X157771225Y-101940532D01*
X157771225Y-101940534D01*
X157761844Y-102029789D01*
X157752678Y-102117000D01*
X151776206Y-102117000D01*
X151768122Y-102097483D01*
X151638548Y-101886038D01*
X151477492Y-101697465D01*
X151465783Y-101687465D01*
X151379360Y-101613653D01*
X151288919Y-101536409D01*
X151268382Y-101523824D01*
X151081694Y-101409421D01*
X151081693Y-101409420D01*
X151077474Y-101406835D01*
X150848362Y-101311934D01*
X150843554Y-101310779D01*
X150843549Y-101310778D01*
X150612037Y-101255197D01*
X150612033Y-101255196D01*
X150607225Y-101254042D01*
X150602299Y-101253654D01*
X150602291Y-101253653D01*
X150364930Y-101234973D01*
X150360000Y-101234585D01*
X150355070Y-101234973D01*
X150117708Y-101253653D01*
X150117698Y-101253654D01*
X150112775Y-101254042D01*
X150107968Y-101255196D01*
X150107962Y-101255197D01*
X149876450Y-101310778D01*
X149876441Y-101310780D01*
X149871638Y-101311934D01*
X149867070Y-101313825D01*
X149867064Y-101313828D01*
X149647100Y-101404940D01*
X149647095Y-101404942D01*
X149642526Y-101406835D01*
X149638311Y-101409417D01*
X149638305Y-101409421D01*
X149435298Y-101533824D01*
X149435290Y-101533829D01*
X149431081Y-101536409D01*
X149427320Y-101539620D01*
X149427316Y-101539624D01*
X149246270Y-101694251D01*
X149246263Y-101694257D01*
X149242508Y-101697465D01*
X149239300Y-101701220D01*
X149239294Y-101701227D01*
X149084667Y-101882273D01*
X149084663Y-101882277D01*
X149081452Y-101886038D01*
X149078872Y-101890247D01*
X149078867Y-101890255D01*
X148954464Y-102093262D01*
X148954460Y-102093268D01*
X148951878Y-102097483D01*
X148949985Y-102102052D01*
X148949983Y-102102057D01*
X148858871Y-102322021D01*
X148858868Y-102322027D01*
X148856977Y-102326595D01*
X148855823Y-102331398D01*
X148855821Y-102331407D01*
X148800240Y-102562919D01*
X148800239Y-102562925D01*
X148799085Y-102567732D01*
X148798697Y-102572655D01*
X148798696Y-102572665D01*
X148783458Y-102766296D01*
X148779628Y-102814957D01*
X135979585Y-102814957D01*
X135980372Y-102804957D01*
X135960915Y-102557732D01*
X135903023Y-102316595D01*
X135808122Y-102087483D01*
X135678548Y-101876038D01*
X135517492Y-101687465D01*
X135499307Y-101671934D01*
X135344392Y-101539624D01*
X135328919Y-101526409D01*
X135286538Y-101500438D01*
X135121694Y-101399421D01*
X135121693Y-101399420D01*
X135117474Y-101396835D01*
X134917077Y-101313828D01*
X134892935Y-101303828D01*
X134892932Y-101303827D01*
X134888362Y-101301934D01*
X134883554Y-101300779D01*
X134883549Y-101300778D01*
X134652037Y-101245197D01*
X134652033Y-101245196D01*
X134647225Y-101244042D01*
X134642299Y-101243654D01*
X134642291Y-101243653D01*
X134404930Y-101224973D01*
X134400000Y-101224585D01*
X134395070Y-101224973D01*
X134157708Y-101243653D01*
X134157698Y-101243654D01*
X134152775Y-101244042D01*
X134147968Y-101245196D01*
X134147962Y-101245197D01*
X133916450Y-101300778D01*
X133916441Y-101300780D01*
X133911638Y-101301934D01*
X133907070Y-101303825D01*
X133907064Y-101303828D01*
X133687100Y-101394940D01*
X133687095Y-101394942D01*
X133682526Y-101396835D01*
X133678311Y-101399417D01*
X133678305Y-101399421D01*
X133475298Y-101523824D01*
X133475290Y-101523829D01*
X133471081Y-101526409D01*
X133467320Y-101529620D01*
X133467316Y-101529624D01*
X133286270Y-101684251D01*
X133286263Y-101684257D01*
X133282508Y-101687465D01*
X133279300Y-101691220D01*
X133279294Y-101691227D01*
X133124667Y-101872273D01*
X133124663Y-101872277D01*
X133121452Y-101876038D01*
X133118872Y-101880247D01*
X133118867Y-101880255D01*
X132994464Y-102083262D01*
X132994460Y-102083268D01*
X132991878Y-102087483D01*
X132989985Y-102092052D01*
X132989983Y-102092057D01*
X132898871Y-102312021D01*
X132898868Y-102312027D01*
X132896977Y-102316595D01*
X132895823Y-102321398D01*
X132895821Y-102321407D01*
X132840240Y-102552919D01*
X132840239Y-102552925D01*
X132839085Y-102557732D01*
X132838697Y-102562655D01*
X132838696Y-102562665D01*
X132822671Y-102766296D01*
X132819628Y-102804957D01*
X126131439Y-102804957D01*
X126103023Y-102686595D01*
X126008122Y-102457483D01*
X125878548Y-102246038D01*
X125717492Y-102057465D01*
X125685087Y-102029789D01*
X125627476Y-101980584D01*
X125528919Y-101896409D01*
X125519175Y-101890438D01*
X125321694Y-101769421D01*
X125321693Y-101769420D01*
X125317474Y-101766835D01*
X125159082Y-101701227D01*
X125092935Y-101673828D01*
X125092932Y-101673827D01*
X125088362Y-101671934D01*
X125083554Y-101670779D01*
X125083549Y-101670778D01*
X124852037Y-101615197D01*
X124852033Y-101615196D01*
X124847225Y-101614042D01*
X124842299Y-101613654D01*
X124842291Y-101613653D01*
X124604930Y-101594973D01*
X124600000Y-101594585D01*
X124595070Y-101594973D01*
X124357708Y-101613653D01*
X124357698Y-101613654D01*
X124352775Y-101614042D01*
X124347968Y-101615196D01*
X124347962Y-101615197D01*
X124116450Y-101670778D01*
X124116441Y-101670780D01*
X124111638Y-101671934D01*
X124107070Y-101673825D01*
X124107064Y-101673828D01*
X123887100Y-101764940D01*
X123887095Y-101764942D01*
X123882526Y-101766835D01*
X123878311Y-101769417D01*
X123878305Y-101769421D01*
X123675298Y-101893824D01*
X123675290Y-101893829D01*
X123671081Y-101896409D01*
X123667320Y-101899620D01*
X123667316Y-101899624D01*
X123486270Y-102054251D01*
X123486263Y-102054257D01*
X123482508Y-102057465D01*
X123479300Y-102061220D01*
X123479294Y-102061227D01*
X123324667Y-102242273D01*
X123324663Y-102242277D01*
X123321452Y-102246038D01*
X123318872Y-102250247D01*
X123318867Y-102250255D01*
X123194464Y-102453262D01*
X123194460Y-102453268D01*
X123191878Y-102457483D01*
X123189985Y-102462052D01*
X123189983Y-102462057D01*
X123098871Y-102682021D01*
X123098868Y-102682027D01*
X123096977Y-102686595D01*
X123095823Y-102691398D01*
X123095821Y-102691407D01*
X123040240Y-102922919D01*
X123040239Y-102922925D01*
X123039085Y-102927732D01*
X123038697Y-102932655D01*
X123038696Y-102932665D01*
X123028125Y-103066994D01*
X123019628Y-103174957D01*
X110138798Y-103174957D01*
X110120915Y-102947732D01*
X110063023Y-102706595D01*
X109968122Y-102477483D01*
X109838548Y-102266038D01*
X109677492Y-102077465D01*
X109488919Y-101916409D01*
X109461528Y-101899624D01*
X109281694Y-101789421D01*
X109281693Y-101789420D01*
X109277474Y-101786835D01*
X109196315Y-101753218D01*
X109052935Y-101693828D01*
X109052932Y-101693827D01*
X109048362Y-101691934D01*
X109043554Y-101690779D01*
X109043549Y-101690778D01*
X108812037Y-101635197D01*
X108812033Y-101635196D01*
X108807225Y-101634042D01*
X108802299Y-101633654D01*
X108802291Y-101633653D01*
X108564930Y-101614973D01*
X108560000Y-101614585D01*
X108555070Y-101614973D01*
X108317708Y-101633653D01*
X108317698Y-101633654D01*
X108312775Y-101634042D01*
X108307968Y-101635196D01*
X108307962Y-101635197D01*
X108076450Y-101690778D01*
X108076441Y-101690780D01*
X108071638Y-101691934D01*
X108067070Y-101693825D01*
X108067064Y-101693828D01*
X107847100Y-101784940D01*
X107847095Y-101784942D01*
X107842526Y-101786835D01*
X107838311Y-101789417D01*
X107838305Y-101789421D01*
X107635298Y-101913824D01*
X107635290Y-101913829D01*
X107631081Y-101916409D01*
X107627320Y-101919620D01*
X107627316Y-101919624D01*
X107446270Y-102074251D01*
X107446263Y-102074257D01*
X107442508Y-102077465D01*
X107439300Y-102081220D01*
X107439294Y-102081227D01*
X107284667Y-102262273D01*
X107284663Y-102262277D01*
X107281452Y-102266038D01*
X107278872Y-102270247D01*
X107278867Y-102270255D01*
X107154464Y-102473262D01*
X107154460Y-102473268D01*
X107151878Y-102477483D01*
X107149985Y-102482052D01*
X107149983Y-102482057D01*
X107058871Y-102702021D01*
X107058868Y-102702027D01*
X107056977Y-102706595D01*
X107055823Y-102711398D01*
X107055821Y-102711407D01*
X107000240Y-102942919D01*
X107000239Y-102942925D01*
X106999085Y-102947732D01*
X106998697Y-102952655D01*
X106998696Y-102952665D01*
X106981590Y-103170027D01*
X106979628Y-103194957D01*
X93960945Y-103194957D01*
X103156134Y-93999770D01*
X103156133Y-93999770D01*
X103345490Y-93810414D01*
X103386368Y-93783101D01*
X103434586Y-93773510D01*
X184327633Y-93773510D01*
X184338816Y-93774037D01*
X184346309Y-93775712D01*
X184414385Y-93773572D01*
X184418345Y-93773510D01*
X184442294Y-93773510D01*
X184446256Y-93773510D01*
X184450256Y-93773004D01*
X184462099Y-93772071D01*
X184506289Y-93770683D01*
X184525733Y-93765033D01*
X184545102Y-93761022D01*
X184565197Y-93758484D01*
X184606315Y-93742203D01*
X184617517Y-93738367D01*
X184659993Y-93726028D01*
X184677439Y-93715709D01*
X184695169Y-93707023D01*
X184714017Y-93699562D01*
X184749787Y-93673571D01*
X184759698Y-93667061D01*
X184797762Y-93644552D01*
X184812088Y-93630225D01*
X184827117Y-93617388D01*
X184843507Y-93605482D01*
X184871694Y-93571407D01*
X184879672Y-93562640D01*
X188622258Y-89820054D01*
X188630532Y-89812525D01*
X188637017Y-89808411D01*
X188683675Y-89758723D01*
X188686367Y-89755945D01*
X188706134Y-89736180D01*
X188708588Y-89733015D01*
X188716309Y-89723970D01*
X188746585Y-89691732D01*
X188756344Y-89673978D01*
X188767197Y-89657456D01*
X188779613Y-89641451D01*
X188797176Y-89600861D01*
X188802387Y-89590226D01*
X188823694Y-89551471D01*
X188828731Y-89531853D01*
X188835137Y-89513141D01*
X188840031Y-89501832D01*
X188843180Y-89494556D01*
X188850095Y-89450888D01*
X188852503Y-89439264D01*
X188861528Y-89404116D01*
X188863499Y-89396441D01*
X188863499Y-89376187D01*
X188865050Y-89356476D01*
X188866979Y-89344296D01*
X188868219Y-89336468D01*
X188864057Y-89292448D01*
X188863499Y-89280591D01*
X188863499Y-84825430D01*
X188878377Y-84766034D01*
X188919497Y-84720665D01*
X188977149Y-84700037D01*
X189037717Y-84709021D01*
X189086897Y-84745495D01*
X189153432Y-84826568D01*
X189306996Y-84952595D01*
X189482196Y-85046241D01*
X189672299Y-85103908D01*
X189678460Y-85104514D01*
X189678461Y-85104515D01*
X189863837Y-85122773D01*
X189870000Y-85123380D01*
X190067701Y-85103908D01*
X190257804Y-85046241D01*
X190279424Y-85034684D01*
X190321105Y-85012407D01*
X190383593Y-84997567D01*
X190445277Y-85015455D01*
X190490131Y-85061424D01*
X190506500Y-85123529D01*
X190506500Y-87128207D01*
X190504268Y-87151816D01*
X190504210Y-87152118D01*
X190504209Y-87152123D01*
X190502725Y-87159906D01*
X190503222Y-87167810D01*
X190503222Y-87167816D01*
X190506251Y-87215951D01*
X190506500Y-87223862D01*
X190506500Y-88107476D01*
X190498131Y-88152630D01*
X190474138Y-88191783D01*
X190400960Y-88273056D01*
X190397661Y-88278769D01*
X190397658Y-88278774D01*
X190313604Y-88424361D01*
X190305473Y-88438444D01*
X190303434Y-88444718D01*
X190303430Y-88444728D01*
X190248497Y-88613794D01*
X190248495Y-88613801D01*
X190246458Y-88620072D01*
X190226496Y-88810000D01*
X190246458Y-88999928D01*
X190248495Y-89006200D01*
X190248497Y-89006205D01*
X190303430Y-89175271D01*
X190303433Y-89175278D01*
X190305473Y-89181556D01*
X190400960Y-89346944D01*
X190528747Y-89488866D01*
X190534089Y-89492747D01*
X190534091Y-89492749D01*
X190574688Y-89522244D01*
X190683248Y-89601118D01*
X190857712Y-89678794D01*
X191044513Y-89718500D01*
X191228884Y-89718500D01*
X191235487Y-89718500D01*
X191422288Y-89678794D01*
X191596752Y-89601118D01*
X191751253Y-89488866D01*
X191879040Y-89346944D01*
X191974527Y-89181556D01*
X192033542Y-88999928D01*
X192053504Y-88810000D01*
X192033542Y-88620072D01*
X192001935Y-88522797D01*
X191976569Y-88444728D01*
X191976568Y-88444726D01*
X191974527Y-88438444D01*
X191879040Y-88273056D01*
X191805861Y-88191783D01*
X191781869Y-88152630D01*
X191773500Y-88107476D01*
X191773500Y-87271793D01*
X191775732Y-87248184D01*
X191775751Y-87248082D01*
X191777275Y-87240094D01*
X191773748Y-87184048D01*
X191773500Y-87176138D01*
X191773500Y-85122960D01*
X191789869Y-85060855D01*
X191834723Y-85014886D01*
X191896408Y-84996998D01*
X191958896Y-85011838D01*
X192016931Y-85042858D01*
X192028313Y-85047573D01*
X192141877Y-85082022D01*
X192153345Y-85082727D01*
X192156000Y-85071552D01*
X192156000Y-83982000D01*
X192172881Y-83919000D01*
X192219000Y-83872881D01*
X192282000Y-83856000D01*
X192538000Y-83856000D01*
X192601000Y-83872881D01*
G37*
%TD.AperFunction*%
%TA.AperFunction,Conductor*%
G36*
X93193608Y-101937233D02*
G01*
X93238341Y-101975439D01*
X93260854Y-102029789D01*
X93256238Y-102088436D01*
X93225501Y-102138593D01*
X91790660Y-103573434D01*
X91316743Y-104047351D01*
X91262372Y-104079376D01*
X91226544Y-104080311D01*
X91226544Y-104084000D01*
X89762000Y-104084000D01*
X89699000Y-104067119D01*
X89652881Y-104021000D01*
X89636000Y-103958000D01*
X89636000Y-103702000D01*
X89652881Y-103639000D01*
X89699000Y-103592881D01*
X89762000Y-103576000D01*
X91212160Y-103576000D01*
X91223248Y-103573434D01*
X91223013Y-103562056D01*
X91180099Y-103392591D01*
X91176729Y-103382776D01*
X91090511Y-103186221D01*
X91085568Y-103177086D01*
X90968177Y-102997406D01*
X90961789Y-102989200D01*
X90816432Y-102831299D01*
X90808788Y-102824262D01*
X90639411Y-102692431D01*
X90630713Y-102686749D01*
X90601792Y-102671097D01*
X90553520Y-102624780D01*
X90535762Y-102560281D01*
X90553523Y-102495784D01*
X90601791Y-102449472D01*
X90635576Y-102431189D01*
X90813240Y-102292906D01*
X90965722Y-102127268D01*
X91061555Y-101980583D01*
X91107069Y-101938686D01*
X91167038Y-101923500D01*
X93136405Y-101923500D01*
X93193608Y-101937233D01*
G37*
%TD.AperFunction*%
%TA.AperFunction,Conductor*%
G36*
X97433608Y-96857233D02*
G01*
X97478341Y-96895439D01*
X97500854Y-96949789D01*
X97496238Y-97008436D01*
X97465500Y-97058595D01*
X93904500Y-100619595D01*
X93863623Y-100646909D01*
X93815405Y-100656500D01*
X91167038Y-100656500D01*
X91107069Y-100641314D01*
X91061555Y-100599416D01*
X90965722Y-100452732D01*
X90904956Y-100386723D01*
X90816772Y-100290930D01*
X90816767Y-100290925D01*
X90813240Y-100287094D01*
X90635576Y-100148811D01*
X90631000Y-100146334D01*
X90630990Y-100146328D01*
X90601794Y-100130529D01*
X90553521Y-100084213D01*
X90535762Y-100019715D01*
X90553522Y-99955217D01*
X90601794Y-99908900D01*
X90630723Y-99893244D01*
X90639411Y-99887568D01*
X90808788Y-99755737D01*
X90816432Y-99748700D01*
X90961789Y-99590799D01*
X90968177Y-99582593D01*
X91085568Y-99402913D01*
X91090511Y-99393778D01*
X91176729Y-99197223D01*
X91180099Y-99187408D01*
X91223013Y-99017943D01*
X91223248Y-99006565D01*
X91212160Y-99004000D01*
X89762000Y-99004000D01*
X89699000Y-98987119D01*
X89652881Y-98941000D01*
X89636000Y-98878000D01*
X89636000Y-98622000D01*
X89652881Y-98559000D01*
X89699000Y-98512881D01*
X89762000Y-98496000D01*
X91212160Y-98496000D01*
X91223248Y-98493434D01*
X91223013Y-98482056D01*
X91180099Y-98312591D01*
X91176729Y-98302776D01*
X91090511Y-98106221D01*
X91085568Y-98097086D01*
X90968177Y-97917406D01*
X90961789Y-97909200D01*
X90822018Y-97757368D01*
X90792781Y-97703765D01*
X90792178Y-97642709D01*
X90820352Y-97588539D01*
X90870687Y-97553975D01*
X90977761Y-97514038D01*
X90977760Y-97514038D01*
X90986204Y-97510889D01*
X91103261Y-97423261D01*
X91190889Y-97306204D01*
X91241989Y-97169201D01*
X91248500Y-97108638D01*
X91248500Y-96969500D01*
X91265381Y-96906500D01*
X91311500Y-96860381D01*
X91374500Y-96843500D01*
X97376405Y-96843500D01*
X97433608Y-96857233D01*
G37*
%TD.AperFunction*%
%TA.AperFunction,Conductor*%
G36*
X173287049Y-80667924D02*
G01*
X173325493Y-80690697D01*
X174400000Y-81620000D01*
X186955626Y-81632032D01*
X187018571Y-81648952D01*
X187064640Y-81695066D01*
X187081501Y-81758031D01*
X187081501Y-81805500D01*
X187064620Y-81868500D01*
X187018501Y-81914619D01*
X186955501Y-81931500D01*
X186894513Y-81931500D01*
X186888060Y-81932871D01*
X186888056Y-81932872D01*
X186714168Y-81969833D01*
X186714161Y-81969835D01*
X186707712Y-81971206D01*
X186701682Y-81973890D01*
X186701681Y-81973891D01*
X186539278Y-82046197D01*
X186539275Y-82046198D01*
X186533248Y-82048882D01*
X186527907Y-82052762D01*
X186527906Y-82052763D01*
X186384091Y-82157250D01*
X186384083Y-82157256D01*
X186378747Y-82161134D01*
X186374330Y-82166039D01*
X186374325Y-82166044D01*
X186273797Y-82277693D01*
X186250960Y-82303056D01*
X186247661Y-82308769D01*
X186247658Y-82308774D01*
X186158777Y-82462721D01*
X186155473Y-82468444D01*
X186153434Y-82474718D01*
X186153430Y-82474728D01*
X186098497Y-82643794D01*
X186098495Y-82643801D01*
X186096458Y-82650072D01*
X186076496Y-82840000D01*
X186077186Y-82846565D01*
X186094561Y-83011884D01*
X186096458Y-83029928D01*
X186098495Y-83036200D01*
X186098497Y-83036205D01*
X186153430Y-83205271D01*
X186153433Y-83205278D01*
X186155473Y-83211556D01*
X186250960Y-83376944D01*
X186324138Y-83458216D01*
X186348131Y-83497370D01*
X186356500Y-83542524D01*
X186356500Y-88968996D01*
X186346909Y-89017214D01*
X186319595Y-89058091D01*
X183808100Y-91569585D01*
X183767223Y-91596899D01*
X183719005Y-91606490D01*
X102622367Y-91606490D01*
X102611183Y-91605962D01*
X102603691Y-91604288D01*
X102595765Y-91604537D01*
X102535614Y-91606428D01*
X102531655Y-91606490D01*
X102503744Y-91606490D01*
X102499818Y-91606985D01*
X102499800Y-91606987D01*
X102499708Y-91606999D01*
X102487903Y-91607927D01*
X102451631Y-91609067D01*
X102451623Y-91609068D01*
X102443711Y-91609317D01*
X102436104Y-91611526D01*
X102436103Y-91611527D01*
X102424256Y-91614969D01*
X102404906Y-91618976D01*
X102384803Y-91621516D01*
X102377440Y-91624430D01*
X102377436Y-91624432D01*
X102343698Y-91637790D01*
X102332473Y-91641633D01*
X102297617Y-91651760D01*
X102297610Y-91651763D01*
X102290007Y-91653972D01*
X102283191Y-91658002D01*
X102283183Y-91658006D01*
X102272560Y-91664288D01*
X102254821Y-91672979D01*
X102243349Y-91677521D01*
X102243346Y-91677522D01*
X102235983Y-91680438D01*
X102229576Y-91685092D01*
X102229572Y-91685095D01*
X102200211Y-91706427D01*
X102190293Y-91712941D01*
X102159065Y-91731409D01*
X102159057Y-91731415D01*
X102152238Y-91735448D01*
X102146636Y-91741048D01*
X102146629Y-91741055D01*
X102137908Y-91749776D01*
X102122887Y-91762605D01*
X102112907Y-91769856D01*
X102112898Y-91769863D01*
X102106493Y-91774518D01*
X102101445Y-91780618D01*
X102101436Y-91780628D01*
X102078300Y-91808594D01*
X102070313Y-91817371D01*
X98348090Y-95539595D01*
X98307213Y-95566909D01*
X98258995Y-95576500D01*
X92642243Y-95576500D01*
X92585396Y-95562947D01*
X92540777Y-95525204D01*
X92517987Y-95471391D01*
X92521927Y-95413083D01*
X92551748Y-95362826D01*
X99502807Y-88188387D01*
X99544233Y-88160011D01*
X99593450Y-88150066D01*
X123405170Y-88179882D01*
X123442222Y-88185503D01*
X123475984Y-88201775D01*
X123515750Y-88228887D01*
X123519990Y-88230929D01*
X123519992Y-88230930D01*
X123644590Y-88290934D01*
X123756587Y-88344869D01*
X124012021Y-88423660D01*
X124276345Y-88463500D01*
X124538939Y-88463500D01*
X124543655Y-88463500D01*
X124807979Y-88423660D01*
X125063413Y-88344869D01*
X125304251Y-88228887D01*
X125340330Y-88204288D01*
X125374243Y-88187969D01*
X125411459Y-88182395D01*
X128494516Y-88186255D01*
X128531570Y-88191876D01*
X128565332Y-88208148D01*
X128595750Y-88228887D01*
X128836587Y-88344869D01*
X129092021Y-88423660D01*
X129356345Y-88463500D01*
X129618939Y-88463500D01*
X129623655Y-88463500D01*
X129887979Y-88423660D01*
X130143413Y-88344869D01*
X130384251Y-88228887D01*
X130411019Y-88210636D01*
X130444929Y-88194318D01*
X130482144Y-88188744D01*
X149034239Y-88211974D01*
X149071288Y-88217594D01*
X149105046Y-88233864D01*
X149185750Y-88288887D01*
X149426587Y-88404869D01*
X149682021Y-88483660D01*
X149946345Y-88523500D01*
X150208939Y-88523500D01*
X150213655Y-88523500D01*
X150477979Y-88483660D01*
X150733413Y-88404869D01*
X150974251Y-88288887D01*
X151051116Y-88236480D01*
X151085027Y-88220163D01*
X151122244Y-88214588D01*
X154123584Y-88218346D01*
X154160635Y-88223967D01*
X154194397Y-88240239D01*
X154265750Y-88288887D01*
X154506587Y-88404869D01*
X154762021Y-88483660D01*
X155026345Y-88523500D01*
X155288939Y-88523500D01*
X155293655Y-88523500D01*
X155557979Y-88483660D01*
X155813413Y-88404869D01*
X156054251Y-88288887D01*
X156121805Y-88242828D01*
X156155714Y-88226512D01*
X156192929Y-88220938D01*
X163430000Y-88230000D01*
X164970000Y-86820000D01*
X165088412Y-82630000D01*
X167036620Y-82630000D01*
X167037227Y-82636163D01*
X167055484Y-82821538D01*
X167055485Y-82821547D01*
X167056092Y-82827701D01*
X167057887Y-82833619D01*
X167057888Y-82833623D01*
X167107844Y-82998306D01*
X167113759Y-83017804D01*
X167116675Y-83023261D01*
X167117769Y-83025900D01*
X167126380Y-83089811D01*
X167107049Y-83137702D01*
X167108829Y-83138674D01*
X167104509Y-83146584D01*
X167099111Y-83153796D01*
X167095964Y-83162232D01*
X167095963Y-83162235D01*
X167050763Y-83283419D01*
X167050761Y-83283423D01*
X167048011Y-83290799D01*
X167047169Y-83298625D01*
X167047168Y-83298632D01*
X167042457Y-83342460D01*
X167041500Y-83351362D01*
X167041500Y-84448638D01*
X167041859Y-84451985D01*
X167041860Y-84451988D01*
X167047168Y-84501367D01*
X167047169Y-84501373D01*
X167048011Y-84509201D01*
X167050762Y-84516578D01*
X167050763Y-84516580D01*
X167095962Y-84637763D01*
X167095964Y-84637766D01*
X167099111Y-84646204D01*
X167104508Y-84653414D01*
X167104510Y-84653417D01*
X167173440Y-84745496D01*
X167186739Y-84763261D01*
X167193950Y-84768659D01*
X167286627Y-84838037D01*
X167303796Y-84850889D01*
X167440799Y-84901989D01*
X167501362Y-84908500D01*
X168595269Y-84908500D01*
X168598638Y-84908500D01*
X168659201Y-84901989D01*
X168796204Y-84850889D01*
X168803416Y-84845489D01*
X168811328Y-84841170D01*
X168812303Y-84842955D01*
X168860168Y-84823621D01*
X168924102Y-84832231D01*
X168926732Y-84833320D01*
X168932196Y-84836241D01*
X169122299Y-84893908D01*
X169128460Y-84894514D01*
X169128461Y-84894515D01*
X169313837Y-84912773D01*
X169320000Y-84913380D01*
X169517701Y-84893908D01*
X169707804Y-84836241D01*
X169883004Y-84742595D01*
X169886045Y-84740099D01*
X169930416Y-84721718D01*
X169979584Y-84721718D01*
X170023954Y-84740099D01*
X170026996Y-84742595D01*
X170202196Y-84836241D01*
X170392299Y-84893908D01*
X170398460Y-84894514D01*
X170398461Y-84894515D01*
X170583837Y-84912773D01*
X170590000Y-84913380D01*
X170787701Y-84893908D01*
X170977804Y-84836241D01*
X171153004Y-84742595D01*
X171156045Y-84740099D01*
X171200416Y-84721718D01*
X171249584Y-84721718D01*
X171293954Y-84740099D01*
X171296996Y-84742595D01*
X171472196Y-84836241D01*
X171662299Y-84893908D01*
X171668460Y-84894514D01*
X171668461Y-84894515D01*
X171853837Y-84912773D01*
X171860000Y-84913380D01*
X172057701Y-84893908D01*
X172247804Y-84836241D01*
X172423004Y-84742595D01*
X172426045Y-84740099D01*
X172470416Y-84721718D01*
X172519584Y-84721718D01*
X172563954Y-84740099D01*
X172566996Y-84742595D01*
X172742196Y-84836241D01*
X172932299Y-84893908D01*
X172938460Y-84894514D01*
X172938461Y-84894515D01*
X173123837Y-84912773D01*
X173130000Y-84913380D01*
X173327701Y-84893908D01*
X173517804Y-84836241D01*
X173693004Y-84742595D01*
X173846568Y-84616568D01*
X173972595Y-84463004D01*
X174066241Y-84287804D01*
X174123908Y-84097701D01*
X174143380Y-83900000D01*
X174141772Y-83883674D01*
X174124515Y-83708461D01*
X174124514Y-83708460D01*
X174123908Y-83702299D01*
X174066241Y-83512196D01*
X173972595Y-83336996D01*
X173970099Y-83333954D01*
X173951718Y-83289584D01*
X173951718Y-83240416D01*
X173970099Y-83196045D01*
X173972595Y-83193004D01*
X174066241Y-83017804D01*
X174123908Y-82827701D01*
X174143380Y-82630000D01*
X174123908Y-82432299D01*
X174066241Y-82242196D01*
X173972595Y-82066996D01*
X173846568Y-81913432D01*
X173813751Y-81886500D01*
X173697788Y-81791331D01*
X173697787Y-81791330D01*
X173693004Y-81787405D01*
X173517804Y-81693759D01*
X173502845Y-81689221D01*
X173333623Y-81637888D01*
X173333619Y-81637887D01*
X173327701Y-81636092D01*
X173321547Y-81635485D01*
X173321538Y-81635484D01*
X173136163Y-81617227D01*
X173130000Y-81616620D01*
X173123837Y-81617227D01*
X172938461Y-81635484D01*
X172938450Y-81635486D01*
X172932299Y-81636092D01*
X172926382Y-81637886D01*
X172926376Y-81637888D01*
X172748119Y-81691962D01*
X172748116Y-81691963D01*
X172742196Y-81693759D01*
X172736738Y-81696676D01*
X172736734Y-81696678D01*
X172572451Y-81784488D01*
X172572441Y-81784494D01*
X172566996Y-81787405D01*
X172563953Y-81789901D01*
X172519579Y-81808280D01*
X172470421Y-81808280D01*
X172426046Y-81789901D01*
X172423004Y-81787405D01*
X172417553Y-81784491D01*
X172417548Y-81784488D01*
X172253265Y-81696678D01*
X172247804Y-81693759D01*
X172232845Y-81689221D01*
X172063623Y-81637888D01*
X172063619Y-81637887D01*
X172057701Y-81636092D01*
X172051547Y-81635485D01*
X172051538Y-81635484D01*
X171866163Y-81617227D01*
X171860000Y-81616620D01*
X171853837Y-81617227D01*
X171668461Y-81635484D01*
X171668450Y-81635486D01*
X171662299Y-81636092D01*
X171656382Y-81637886D01*
X171656376Y-81637888D01*
X171478119Y-81691962D01*
X171478116Y-81691963D01*
X171472196Y-81693759D01*
X171466738Y-81696676D01*
X171466734Y-81696678D01*
X171302451Y-81784488D01*
X171302441Y-81784494D01*
X171296996Y-81787405D01*
X171293953Y-81789901D01*
X171249579Y-81808280D01*
X171200421Y-81808280D01*
X171156046Y-81789901D01*
X171153004Y-81787405D01*
X171147553Y-81784491D01*
X171147548Y-81784488D01*
X170983265Y-81696678D01*
X170977804Y-81693759D01*
X170962845Y-81689221D01*
X170793623Y-81637888D01*
X170793619Y-81637887D01*
X170787701Y-81636092D01*
X170781547Y-81635485D01*
X170781538Y-81635484D01*
X170596163Y-81617227D01*
X170590000Y-81616620D01*
X170583837Y-81617227D01*
X170398461Y-81635484D01*
X170398450Y-81635486D01*
X170392299Y-81636092D01*
X170386382Y-81637886D01*
X170386376Y-81637888D01*
X170208119Y-81691962D01*
X170208116Y-81691963D01*
X170202196Y-81693759D01*
X170196738Y-81696676D01*
X170196734Y-81696678D01*
X170032451Y-81784488D01*
X170032441Y-81784494D01*
X170026996Y-81787405D01*
X170023953Y-81789901D01*
X169979579Y-81808280D01*
X169930421Y-81808280D01*
X169886046Y-81789901D01*
X169883004Y-81787405D01*
X169877553Y-81784491D01*
X169877548Y-81784488D01*
X169713265Y-81696678D01*
X169707804Y-81693759D01*
X169692845Y-81689221D01*
X169523623Y-81637888D01*
X169523619Y-81637887D01*
X169517701Y-81636092D01*
X169511547Y-81635485D01*
X169511538Y-81635484D01*
X169326163Y-81617227D01*
X169320000Y-81616620D01*
X169313837Y-81617227D01*
X169128461Y-81635484D01*
X169128450Y-81635486D01*
X169122299Y-81636092D01*
X169116382Y-81637886D01*
X169116376Y-81637888D01*
X168938119Y-81691962D01*
X168938116Y-81691963D01*
X168932196Y-81693759D01*
X168926738Y-81696676D01*
X168926734Y-81696678D01*
X168762451Y-81784488D01*
X168762441Y-81784494D01*
X168756996Y-81787405D01*
X168753953Y-81789901D01*
X168709579Y-81808280D01*
X168660421Y-81808280D01*
X168616046Y-81789901D01*
X168613004Y-81787405D01*
X168607553Y-81784491D01*
X168607548Y-81784488D01*
X168443265Y-81696678D01*
X168437804Y-81693759D01*
X168422845Y-81689221D01*
X168253623Y-81637888D01*
X168253619Y-81637887D01*
X168247701Y-81636092D01*
X168241547Y-81635485D01*
X168241538Y-81635484D01*
X168056163Y-81617227D01*
X168050000Y-81616620D01*
X168043837Y-81617227D01*
X167858461Y-81635484D01*
X167858450Y-81635486D01*
X167852299Y-81636092D01*
X167846382Y-81637886D01*
X167846376Y-81637888D01*
X167668119Y-81691962D01*
X167668116Y-81691963D01*
X167662196Y-81693759D01*
X167656738Y-81696676D01*
X167656734Y-81696678D01*
X167492454Y-81784487D01*
X167492453Y-81784488D01*
X167486996Y-81787405D01*
X167482217Y-81791326D01*
X167482211Y-81791331D01*
X167338211Y-81909509D01*
X167338205Y-81909514D01*
X167333432Y-81913432D01*
X167329514Y-81918205D01*
X167329509Y-81918211D01*
X167211331Y-82062211D01*
X167211326Y-82062217D01*
X167207405Y-82066996D01*
X167204490Y-82072449D01*
X167204487Y-82072454D01*
X167116678Y-82236734D01*
X167113759Y-82242196D01*
X167111963Y-82248116D01*
X167111962Y-82248119D01*
X167057888Y-82426376D01*
X167057886Y-82426382D01*
X167056092Y-82432299D01*
X167055486Y-82438450D01*
X167055484Y-82438461D01*
X167038836Y-82607498D01*
X167036620Y-82630000D01*
X165088412Y-82630000D01*
X165098730Y-82264910D01*
X165107244Y-82222815D01*
X165129400Y-82186025D01*
X166412314Y-80703548D01*
X166455211Y-80671403D01*
X166507590Y-80660000D01*
X173243072Y-80660000D01*
X173287049Y-80667924D01*
G37*
%TD.AperFunction*%
%TD*%
M02*
