M48
; DRILL file {KiCad (7.0.0)} date Wed Mar 13 17:03:34 2024
; FORMAT={-:-/ absolute / inch / decimal}
; #@! TF.CreationDate,2024-03-13T17:03:34-07:00
; #@! TF.GenerationSoftware,Kicad,Pcbnew,(7.0.0)
; #@! TF.FileFunction,Plated,1,2,PTH
FMAT,2
INCH
; #@! TA.AperFunction,Plated,PTH,ViaDrill
T1C0.0157
; #@! TA.AperFunction,Plated,PTH,ComponentDrill
T2C0.0197
; #@! TA.AperFunction,Plated,PTH,ComponentDrill
T3C0.0256
; #@! TA.AperFunction,Plated,PTH,ComponentDrill
T4C0.0394
; #@! TA.AperFunction,Plated,PTH,ComponentDrill
T5C0.0591
; #@! TA.AperFunction,Plated,PTH,ComponentDrill
T6C0.0669
; #@! TA.AperFunction,Plated,PTH,ComponentDrill
T7C0.0984
%
G90
G05
T1
X3.6308Y-5.9015
X3.6382Y-4.0374
X3.6425Y-3.8366
X3.6429Y-3.935
X3.6528Y-4.4402
X3.6528Y-4.6374
X3.6539Y-5.4776
X3.6555Y-5.0819
X3.6555Y-5.3224
X3.6555Y-4.1508
X3.6555Y-4.2677
X3.6555Y-4.5236
X3.6598Y-4.8602
X3.7811Y-5.3276
X3.8224Y-4.8256
X3.8272Y-4.0232
X3.8291Y-4.9579
X3.8303Y-5.1051
X3.8319Y-4.1461
X3.8366Y-5.2205
X3.837Y-4.2709
X3.8461Y-4.4386
X3.8512Y-4.5323
X3.8681Y-3.7433
X3.8803Y-4.6386
X3.9531Y-3.8291
X3.9878Y-6.0063
X4.0252Y-3.5906
X4.0803Y-5.952
X4.0874Y-4.6339
X4.1535Y-5.9323
X4.1819Y-6.0181
X4.1976Y-5.9339
X4.2098Y-3.3067
X4.2343Y-3.7055
X4.2358Y-3.5906
X4.2417Y-5.6516
X4.2427Y-5.5526
X4.2827Y-5.498
X4.2972Y-4.9492
X4.3232Y-6.0449
X4.326Y-4.6398
X4.348Y-3.211
X4.3488Y-3.402
X4.3682Y-5.496
X4.3974Y-5.8994
X4.4413Y-3.5906
X4.4413Y-3.7028
X4.4429Y-6.0114
X4.5Y-5.8713
X4.5Y-5.9197
X4.5114Y-5.9807
X4.5154Y-4.6335
X4.5421Y-5.4921
X4.5551Y-6.0496
X4.6116Y-5.9285
X4.613Y-5.8531
X4.6398Y-3.5906
X4.6398Y-3.7028
X4.7256Y-6.052
X4.7295Y-4.637
X4.7547Y-4.9437
X4.7646Y-5.4921
X4.7988Y-5.9409
X4.8239Y-5.768
X4.8488Y-3.5906
X4.8492Y-3.7039
X4.9102Y-6.0236
X4.9118Y-4.6346
X4.9827Y-5.4988
X5.0177Y-5.9701
X5.0665Y-3.5906
X5.0691Y-3.701
X5.0913Y-4.6433
X5.1075Y-4.9598
X5.143Y-5.496
X5.1433Y-5.9224
X5.1535Y-6.0244
X5.1972Y-4.7406
X5.2169Y-5.9224
X5.239Y-3.3087
X5.2691Y-5.5179
X5.2703Y-3.7026
X5.2709Y-3.5906
X5.291Y-5.6251
X5.2941Y-4.8315
X5.3705Y-3.215
X5.372Y-3.411
X5.378Y-6.0465
X5.3957Y-4.9398
X5.439Y-5.8835
X5.4846Y-3.5906
X5.4846Y-3.7031
X5.4866Y-5.9949
X5.5031Y-5.0441
X5.5409Y-5.9642
X5.5437Y-5.8587
X5.5437Y-5.9079
X5.589Y-5.3484
X5.6512Y-5.8421
X5.6516Y-5.9126
X5.678Y-6.0409
X5.7197Y-3.5906
X5.7205Y-3.7028
X5.7346Y-5.2819
X5.8228Y-5.7433
X5.8425Y-5.3906
X5.8429Y-5.926
X5.8555Y-6.0228
X5.8803Y-5.8339
X5.937Y-5.4803
X5.9413Y-3.5906
X5.9413Y-3.7028
X5.9803Y-5.9819
X6.0177Y-5.563
X6.0201Y-5.7331
X6.0299Y-5.887
X6.0874Y-6.0516
X6.1055Y-5.9606
X6.1594Y-3.5906
X6.1594Y-3.7012
X6.2555Y-6.0543
X6.3882Y-4.8354
X6.3957Y-3.5906
X6.3967Y-3.7037
X6.4346Y-6.0516
X6.5693Y-5.5807
X6.5705Y-5.8437
X6.5728Y-5.739
X6.6008Y-6.0543
X6.6437Y-3.5906
X6.6437Y-3.7043
X6.6472Y-3.3937
X6.6579Y-4.8197
X6.6587Y-5.1059
X6.7051Y-3.3638
X6.7217Y-3.4646
X6.7577Y-3.4163
X6.8051Y-5.5209
X6.8071Y-6.0539
X6.8073Y-3.3797
X6.8075Y-5.9394
X6.8748Y-5.6059
X6.9016Y-3.5906
X6.9031Y-3.7055
X6.9252Y-3.2622
X6.9791Y-5.3571
X7.0209Y-4.8201
X7.0209Y-5.1028
X7.0291Y-5.9472
X7.0303Y-6.0567
X7.039Y-5.4492
X7.0488Y-3.3299
X7.0512Y-3.1846
X7.1488Y-3.2547
X7.2232Y-3.5906
X7.2283Y-5.3559
X7.2307Y-5.4469
X7.2327Y-6.0614
X7.2339Y-5.9402
X7.2429Y-3.326
X7.2484Y-3.1803
X7.2736Y-3.7055
X7.2927Y-3.5211
X7.3323Y-5.6118
X7.3547Y-5.7228
X7.3571Y-4.8197
X7.3583Y-5.1028
X7.3598Y-5.8374
X7.3618Y-3.2614
X7.3797Y-3.5994
X7.426Y-5.9819
X7.4547Y-5.3543
X7.4555Y-3.5236
X7.4571Y-5.4417
X7.4994Y-3.7715
X7.5252Y-3.1744
X7.5252Y-3.4965
X7.5669Y-3.7039
X7.5752Y-3.4055
X7.5752Y-3.4646
X7.5752Y-3.552
X7.5752Y-3.6378
X7.6252Y-3.439
X7.637Y-5.6583
X7.6752Y-3.3787
X7.6957Y-5.3551
X7.6988Y-5.4453
X7.7134Y-5.7213
X7.7567Y-5.5484
X7.8303Y-5.6102
X8.0693Y-5.0453
X8.0701Y-4.0189
X8.0705Y-4.8264
X8.074Y-4.6961
X8.0752Y-4.5929
X8.0764Y-5.2972
X8.0772Y-4.1429
X8.0772Y-4.4402
X8.078Y-5.1823
X8.0787Y-4.3094
X8.1402Y-5.4465
X8.1469Y-4.1417
X8.1492Y-4.3091
X8.15Y-4.002
X8.1528Y-4.5059
T2
X3.0758Y-3.2677
X3.0758Y-5.9055
X3.0974Y-3.2155
X3.0974Y-3.3199
X3.0974Y-5.8533
X3.0974Y-5.9577
X3.1496Y-3.1939
X3.1496Y-3.3415
X3.1496Y-5.8317
X3.1496Y-5.9793
X3.2018Y-3.2155
X3.2018Y-3.3199
X3.2018Y-5.8533
X3.2018Y-5.9577
X3.2234Y-3.2677
X3.2234Y-5.9055
X7.997Y-3.2677
X7.997Y-5.9055
X8.0187Y-3.2155
X8.0187Y-3.3199
X8.0187Y-5.8533
X8.0187Y-5.9577
X8.0709Y-3.1939
X8.0709Y-3.3415
X8.0709Y-5.8317
X8.0709Y-5.9793
X8.1231Y-3.2155
X8.1231Y-3.3199
X8.1231Y-5.8533
X8.1231Y-5.9577
X8.1447Y-3.2677
X8.1447Y-5.9055
T3
X6.6161Y-3.2531
X6.6161Y-3.3031
X6.6661Y-3.2531
X6.6661Y-3.3031
X6.7161Y-3.2531
X6.7161Y-3.3031
X6.7661Y-3.2531
X6.7661Y-3.3031
X6.8161Y-3.2531
X6.8161Y-3.3031
X7.4752Y-3.2614
X7.4752Y-3.3114
X7.5252Y-3.2614
X7.5252Y-3.3114
X7.5752Y-3.2614
X7.5752Y-3.3114
X7.6252Y-3.2614
X7.6252Y-3.3114
X7.6752Y-3.2614
X7.6752Y-3.3114
X7.8591Y-5.3965
X7.8591Y-5.4465
X7.9091Y-5.3965
X7.9091Y-5.4465
X7.9591Y-5.3965
X7.9591Y-5.4465
X8.0091Y-5.3965
X8.0091Y-5.4465
X8.0591Y-5.3965
X8.0591Y-5.4465
T4
X3.439Y-3.7878
X3.439Y-3.8878
X3.439Y-3.9878
X3.439Y-4.0878
X3.439Y-4.1878
X3.439Y-4.2878
X3.439Y-4.3878
X3.439Y-4.4878
X3.439Y-4.5878
X3.439Y-4.6878
X3.439Y-4.7878
X3.439Y-4.8878
X3.439Y-4.9878
X3.439Y-5.0878
X3.439Y-5.1878
X3.439Y-5.2878
X3.439Y-5.3878
X3.439Y-5.4878
X3.439Y-5.5878
X3.439Y-5.6878
X3.5236Y-3.3488
X3.539Y-3.7878
X3.539Y-3.8878
X3.539Y-3.9878
X3.539Y-4.0878
X3.539Y-4.1878
X3.539Y-4.2878
X3.539Y-4.3878
X3.539Y-4.4878
X3.539Y-4.5878
X3.539Y-4.6878
X3.539Y-4.7878
X3.539Y-4.8878
X3.539Y-4.9878
X3.539Y-5.0878
X3.539Y-5.1878
X3.539Y-5.2878
X3.539Y-5.3878
X3.539Y-5.4878
X3.539Y-5.5878
X3.539Y-5.6878
X3.6236Y-3.3488
X3.7236Y-3.3488
X3.8236Y-3.3488
X3.9236Y-3.3488
X3.9854Y-5.6673
X3.9854Y-5.7673
X3.9854Y-5.8673
X4.4323Y-5.624
X4.5323Y-5.624
X4.6323Y-5.624
X4.9827Y-5.6705
X4.9827Y-5.7705
X4.9827Y-5.8705
X5.4472Y-5.6067
X5.5472Y-5.6067
X5.6472Y-5.6067
X6.6776Y-5.6331
X6.6776Y-5.7331
X6.6776Y-5.8331
X7.4807Y-5.6268
X7.4807Y-5.7268
X7.4807Y-5.8268
T5
X4.998Y-3.3126
X6.0087Y-3.315
X6.3685Y-5.7232
X7.1248Y-5.7236
X7.895Y-3.8823
X7.8988Y-4.4083
T6
X4.898Y-3.2126
X4.898Y-3.4126
X5.098Y-3.2126
X5.098Y-3.4126
X5.9087Y-3.215
X5.9087Y-3.415
X6.1087Y-3.215
X6.1087Y-3.415
X6.2685Y-5.6232
X6.2685Y-5.8232
X6.4685Y-5.6232
X6.4685Y-5.8232
X7.0248Y-5.6236
X7.0248Y-5.8236
X7.2248Y-5.6236
X7.2248Y-5.8236
X7.795Y-3.7823
X7.795Y-3.9823
X7.7988Y-4.3083
X7.7988Y-4.5083
X7.995Y-3.7823
X7.995Y-3.9823
X7.9988Y-4.3083
X7.9988Y-4.5083
T7
X3.1496Y-3.2677
X3.1496Y-5.9055
X8.0709Y-3.2677
X8.0709Y-5.9055
T4
G00X7.6846Y-5.0079
M15
G01X7.6846Y-4.9291
M16
G05
G00X7.9209Y-4.9941
M15
G01X7.9209Y-4.9429
M16
G05
G00X7.9307Y-4.7913
M15
G01X7.9898Y-4.7913
M16
G05
G00X7.9307Y-5.1457
M15
G01X7.9898Y-5.1457
M16
G05
T0
M30
