%TF.GenerationSoftware,KiCad,Pcbnew,(7.0.0)*%
%TF.CreationDate,2024-03-13T17:03:37-07:00*%
%TF.ProjectId,2P_miniscope_interconnect_board_v3,32505f6d-696e-4697-9363-6f70655f696e,rev?*%
%TF.SameCoordinates,Original*%
%TF.FileFunction,Legend,Bot*%
%TF.FilePolarity,Positive*%
%FSLAX46Y46*%
G04 Gerber Fmt 4.6, Leading zero omitted, Abs format (unit mm)*
G04 Created by KiCad (PCBNEW (7.0.0)) date 2024-03-13 17:03:37*
%MOMM*%
%LPD*%
G01*
G04 APERTURE LIST*
%ADD10C,0.375000*%
%ADD11C,0.300000*%
G04 APERTURE END LIST*
D10*
X186684286Y-83666071D02*
X186684286Y-82166071D01*
X186684286Y-82166071D02*
X185827143Y-83666071D01*
X185827143Y-83666071D02*
X185827143Y-82166071D01*
X184898571Y-83666071D02*
X185041428Y-83594642D01*
X185041428Y-83594642D02*
X185112857Y-83523214D01*
X185112857Y-83523214D02*
X185184285Y-83380357D01*
X185184285Y-83380357D02*
X185184285Y-82951785D01*
X185184285Y-82951785D02*
X185112857Y-82808928D01*
X185112857Y-82808928D02*
X185041428Y-82737500D01*
X185041428Y-82737500D02*
X184898571Y-82666071D01*
X184898571Y-82666071D02*
X184684285Y-82666071D01*
X184684285Y-82666071D02*
X184541428Y-82737500D01*
X184541428Y-82737500D02*
X184470000Y-82808928D01*
X184470000Y-82808928D02*
X184398571Y-82951785D01*
X184398571Y-82951785D02*
X184398571Y-83380357D01*
X184398571Y-83380357D02*
X184470000Y-83523214D01*
X184470000Y-83523214D02*
X184541428Y-83594642D01*
X184541428Y-83594642D02*
X184684285Y-83666071D01*
X184684285Y-83666071D02*
X184898571Y-83666071D01*
X183069999Y-82166071D02*
X182212857Y-82166071D01*
X182641428Y-83666071D02*
X182641428Y-82166071D01*
X181498571Y-83666071D02*
X181641428Y-83594642D01*
X181641428Y-83594642D02*
X181712857Y-83523214D01*
X181712857Y-83523214D02*
X181784285Y-83380357D01*
X181784285Y-83380357D02*
X181784285Y-82951785D01*
X181784285Y-82951785D02*
X181712857Y-82808928D01*
X181712857Y-82808928D02*
X181641428Y-82737500D01*
X181641428Y-82737500D02*
X181498571Y-82666071D01*
X181498571Y-82666071D02*
X181284285Y-82666071D01*
X181284285Y-82666071D02*
X181141428Y-82737500D01*
X181141428Y-82737500D02*
X181070000Y-82808928D01*
X181070000Y-82808928D02*
X180998571Y-82951785D01*
X180998571Y-82951785D02*
X180998571Y-83380357D01*
X180998571Y-83380357D02*
X181070000Y-83523214D01*
X181070000Y-83523214D02*
X181141428Y-83594642D01*
X181141428Y-83594642D02*
X181284285Y-83666071D01*
X181284285Y-83666071D02*
X181498571Y-83666071D01*
X179712857Y-82666071D02*
X179712857Y-83666071D01*
X180355714Y-82666071D02*
X180355714Y-83451785D01*
X180355714Y-83451785D02*
X180284285Y-83594642D01*
X180284285Y-83594642D02*
X180141428Y-83666071D01*
X180141428Y-83666071D02*
X179927142Y-83666071D01*
X179927142Y-83666071D02*
X179784285Y-83594642D01*
X179784285Y-83594642D02*
X179712857Y-83523214D01*
X178355714Y-83594642D02*
X178498571Y-83666071D01*
X178498571Y-83666071D02*
X178784285Y-83666071D01*
X178784285Y-83666071D02*
X178927142Y-83594642D01*
X178927142Y-83594642D02*
X178998571Y-83523214D01*
X178998571Y-83523214D02*
X179069999Y-83380357D01*
X179069999Y-83380357D02*
X179069999Y-82951785D01*
X179069999Y-82951785D02*
X178998571Y-82808928D01*
X178998571Y-82808928D02*
X178927142Y-82737500D01*
X178927142Y-82737500D02*
X178784285Y-82666071D01*
X178784285Y-82666071D02*
X178498571Y-82666071D01*
X178498571Y-82666071D02*
X178355714Y-82737500D01*
X177712857Y-83666071D02*
X177712857Y-82166071D01*
X177070000Y-83666071D02*
X177070000Y-82880357D01*
X177070000Y-82880357D02*
X177141428Y-82737500D01*
X177141428Y-82737500D02*
X177284285Y-82666071D01*
X177284285Y-82666071D02*
X177498571Y-82666071D01*
X177498571Y-82666071D02*
X177641428Y-82737500D01*
X177641428Y-82737500D02*
X177712857Y-82808928D01*
X176355714Y-83523214D02*
X176284285Y-83594642D01*
X176284285Y-83594642D02*
X176355714Y-83666071D01*
X176355714Y-83666071D02*
X176427142Y-83594642D01*
X176427142Y-83594642D02*
X176355714Y-83523214D01*
X176355714Y-83523214D02*
X176355714Y-83666071D01*
X176355714Y-83094642D02*
X176427142Y-82237500D01*
X176427142Y-82237500D02*
X176355714Y-82166071D01*
X176355714Y-82166071D02*
X176284285Y-82237500D01*
X176284285Y-82237500D02*
X176355714Y-83094642D01*
X176355714Y-83094642D02*
X176355714Y-82166071D01*
X188255714Y-86096071D02*
X188255714Y-84596071D01*
X188255714Y-85310357D02*
X187398571Y-85310357D01*
X187398571Y-86096071D02*
X187398571Y-84596071D01*
X186684285Y-86096071D02*
X186684285Y-85096071D01*
X186684285Y-84596071D02*
X186755713Y-84667500D01*
X186755713Y-84667500D02*
X186684285Y-84738928D01*
X186684285Y-84738928D02*
X186612856Y-84667500D01*
X186612856Y-84667500D02*
X186684285Y-84596071D01*
X186684285Y-84596071D02*
X186684285Y-84738928D01*
X185327142Y-85096071D02*
X185327142Y-86310357D01*
X185327142Y-86310357D02*
X185398570Y-86453214D01*
X185398570Y-86453214D02*
X185469999Y-86524642D01*
X185469999Y-86524642D02*
X185612856Y-86596071D01*
X185612856Y-86596071D02*
X185827142Y-86596071D01*
X185827142Y-86596071D02*
X185969999Y-86524642D01*
X185327142Y-86024642D02*
X185469999Y-86096071D01*
X185469999Y-86096071D02*
X185755713Y-86096071D01*
X185755713Y-86096071D02*
X185898570Y-86024642D01*
X185898570Y-86024642D02*
X185969999Y-85953214D01*
X185969999Y-85953214D02*
X186041427Y-85810357D01*
X186041427Y-85810357D02*
X186041427Y-85381785D01*
X186041427Y-85381785D02*
X185969999Y-85238928D01*
X185969999Y-85238928D02*
X185898570Y-85167500D01*
X185898570Y-85167500D02*
X185755713Y-85096071D01*
X185755713Y-85096071D02*
X185469999Y-85096071D01*
X185469999Y-85096071D02*
X185327142Y-85167500D01*
X184612856Y-86096071D02*
X184612856Y-84596071D01*
X183969999Y-86096071D02*
X183969999Y-85310357D01*
X183969999Y-85310357D02*
X184041427Y-85167500D01*
X184041427Y-85167500D02*
X184184284Y-85096071D01*
X184184284Y-85096071D02*
X184398570Y-85096071D01*
X184398570Y-85096071D02*
X184541427Y-85167500D01*
X184541427Y-85167500D02*
X184612856Y-85238928D01*
X182569998Y-84596071D02*
X182069998Y-86096071D01*
X182069998Y-86096071D02*
X181569998Y-84596071D01*
X180855713Y-86096071D02*
X180998570Y-86024642D01*
X180998570Y-86024642D02*
X181069999Y-85953214D01*
X181069999Y-85953214D02*
X181141427Y-85810357D01*
X181141427Y-85810357D02*
X181141427Y-85381785D01*
X181141427Y-85381785D02*
X181069999Y-85238928D01*
X181069999Y-85238928D02*
X180998570Y-85167500D01*
X180998570Y-85167500D02*
X180855713Y-85096071D01*
X180855713Y-85096071D02*
X180641427Y-85096071D01*
X180641427Y-85096071D02*
X180498570Y-85167500D01*
X180498570Y-85167500D02*
X180427142Y-85238928D01*
X180427142Y-85238928D02*
X180355713Y-85381785D01*
X180355713Y-85381785D02*
X180355713Y-85810357D01*
X180355713Y-85810357D02*
X180427142Y-85953214D01*
X180427142Y-85953214D02*
X180498570Y-86024642D01*
X180498570Y-86024642D02*
X180641427Y-86096071D01*
X180641427Y-86096071D02*
X180855713Y-86096071D01*
X179498570Y-86096071D02*
X179641427Y-86024642D01*
X179641427Y-86024642D02*
X179712856Y-85881785D01*
X179712856Y-85881785D02*
X179712856Y-84596071D01*
X179141427Y-85096071D02*
X178569999Y-85096071D01*
X178927142Y-84596071D02*
X178927142Y-85881785D01*
X178927142Y-85881785D02*
X178855713Y-86024642D01*
X178855713Y-86024642D02*
X178712856Y-86096071D01*
X178712856Y-86096071D02*
X178569999Y-86096071D01*
X177427142Y-86096071D02*
X177427142Y-85310357D01*
X177427142Y-85310357D02*
X177498570Y-85167500D01*
X177498570Y-85167500D02*
X177641427Y-85096071D01*
X177641427Y-85096071D02*
X177927142Y-85096071D01*
X177927142Y-85096071D02*
X178069999Y-85167500D01*
X177427142Y-86024642D02*
X177569999Y-86096071D01*
X177569999Y-86096071D02*
X177927142Y-86096071D01*
X177927142Y-86096071D02*
X178069999Y-86024642D01*
X178069999Y-86024642D02*
X178141427Y-85881785D01*
X178141427Y-85881785D02*
X178141427Y-85738928D01*
X178141427Y-85738928D02*
X178069999Y-85596071D01*
X178069999Y-85596071D02*
X177927142Y-85524642D01*
X177927142Y-85524642D02*
X177569999Y-85524642D01*
X177569999Y-85524642D02*
X177427142Y-85453214D01*
X176069999Y-85096071D02*
X176069999Y-86310357D01*
X176069999Y-86310357D02*
X176141427Y-86453214D01*
X176141427Y-86453214D02*
X176212856Y-86524642D01*
X176212856Y-86524642D02*
X176355713Y-86596071D01*
X176355713Y-86596071D02*
X176569999Y-86596071D01*
X176569999Y-86596071D02*
X176712856Y-86524642D01*
X176069999Y-86024642D02*
X176212856Y-86096071D01*
X176212856Y-86096071D02*
X176498570Y-86096071D01*
X176498570Y-86096071D02*
X176641427Y-86024642D01*
X176641427Y-86024642D02*
X176712856Y-85953214D01*
X176712856Y-85953214D02*
X176784284Y-85810357D01*
X176784284Y-85810357D02*
X176784284Y-85381785D01*
X176784284Y-85381785D02*
X176712856Y-85238928D01*
X176712856Y-85238928D02*
X176641427Y-85167500D01*
X176641427Y-85167500D02*
X176498570Y-85096071D01*
X176498570Y-85096071D02*
X176212856Y-85096071D01*
X176212856Y-85096071D02*
X176069999Y-85167500D01*
X174784284Y-86024642D02*
X174927141Y-86096071D01*
X174927141Y-86096071D02*
X175212856Y-86096071D01*
X175212856Y-86096071D02*
X175355713Y-86024642D01*
X175355713Y-86024642D02*
X175427141Y-85881785D01*
X175427141Y-85881785D02*
X175427141Y-85310357D01*
X175427141Y-85310357D02*
X175355713Y-85167500D01*
X175355713Y-85167500D02*
X175212856Y-85096071D01*
X175212856Y-85096071D02*
X174927141Y-85096071D01*
X174927141Y-85096071D02*
X174784284Y-85167500D01*
X174784284Y-85167500D02*
X174712856Y-85310357D01*
X174712856Y-85310357D02*
X174712856Y-85453214D01*
X174712856Y-85453214D02*
X175427141Y-85596071D01*
D11*
X153185714Y-108571071D02*
X153185714Y-109785357D01*
X153185714Y-109785357D02*
X153114285Y-109928214D01*
X153114285Y-109928214D02*
X153042857Y-109999642D01*
X153042857Y-109999642D02*
X152899999Y-110071071D01*
X152899999Y-110071071D02*
X152614285Y-110071071D01*
X152614285Y-110071071D02*
X152471428Y-109999642D01*
X152471428Y-109999642D02*
X152399999Y-109928214D01*
X152399999Y-109928214D02*
X152328571Y-109785357D01*
X152328571Y-109785357D02*
X152328571Y-108571071D01*
X150757142Y-109928214D02*
X150828570Y-109999642D01*
X150828570Y-109999642D02*
X151042856Y-110071071D01*
X151042856Y-110071071D02*
X151185713Y-110071071D01*
X151185713Y-110071071D02*
X151399999Y-109999642D01*
X151399999Y-109999642D02*
X151542856Y-109856785D01*
X151542856Y-109856785D02*
X151614285Y-109713928D01*
X151614285Y-109713928D02*
X151685713Y-109428214D01*
X151685713Y-109428214D02*
X151685713Y-109213928D01*
X151685713Y-109213928D02*
X151614285Y-108928214D01*
X151614285Y-108928214D02*
X151542856Y-108785357D01*
X151542856Y-108785357D02*
X151399999Y-108642500D01*
X151399999Y-108642500D02*
X151185713Y-108571071D01*
X151185713Y-108571071D02*
X151042856Y-108571071D01*
X151042856Y-108571071D02*
X150828570Y-108642500D01*
X150828570Y-108642500D02*
X150757142Y-108713928D01*
X149399999Y-110071071D02*
X150114285Y-110071071D01*
X150114285Y-110071071D02*
X150114285Y-108571071D01*
X148971427Y-109642500D02*
X148257142Y-109642500D01*
X149114284Y-110071071D02*
X148614284Y-108571071D01*
X148614284Y-108571071D02*
X148114284Y-110071071D01*
X146714285Y-110071071D02*
X146714285Y-108571071D01*
X146714285Y-108571071D02*
X146214285Y-109642500D01*
X146214285Y-109642500D02*
X145714285Y-108571071D01*
X145714285Y-108571071D02*
X145714285Y-110071071D01*
X144999999Y-110071071D02*
X144999999Y-109071071D01*
X144999999Y-108571071D02*
X145071427Y-108642500D01*
X145071427Y-108642500D02*
X144999999Y-108713928D01*
X144999999Y-108713928D02*
X144928570Y-108642500D01*
X144928570Y-108642500D02*
X144999999Y-108571071D01*
X144999999Y-108571071D02*
X144999999Y-108713928D01*
X144285713Y-109071071D02*
X144285713Y-110071071D01*
X144285713Y-109213928D02*
X144214284Y-109142500D01*
X144214284Y-109142500D02*
X144071427Y-109071071D01*
X144071427Y-109071071D02*
X143857141Y-109071071D01*
X143857141Y-109071071D02*
X143714284Y-109142500D01*
X143714284Y-109142500D02*
X143642856Y-109285357D01*
X143642856Y-109285357D02*
X143642856Y-110071071D01*
X142928570Y-110071071D02*
X142928570Y-109071071D01*
X142928570Y-108571071D02*
X142999998Y-108642500D01*
X142999998Y-108642500D02*
X142928570Y-108713928D01*
X142928570Y-108713928D02*
X142857141Y-108642500D01*
X142857141Y-108642500D02*
X142928570Y-108571071D01*
X142928570Y-108571071D02*
X142928570Y-108713928D01*
X142285712Y-109999642D02*
X142142855Y-110071071D01*
X142142855Y-110071071D02*
X141857141Y-110071071D01*
X141857141Y-110071071D02*
X141714284Y-109999642D01*
X141714284Y-109999642D02*
X141642855Y-109856785D01*
X141642855Y-109856785D02*
X141642855Y-109785357D01*
X141642855Y-109785357D02*
X141714284Y-109642500D01*
X141714284Y-109642500D02*
X141857141Y-109571071D01*
X141857141Y-109571071D02*
X142071427Y-109571071D01*
X142071427Y-109571071D02*
X142214284Y-109499642D01*
X142214284Y-109499642D02*
X142285712Y-109356785D01*
X142285712Y-109356785D02*
X142285712Y-109285357D01*
X142285712Y-109285357D02*
X142214284Y-109142500D01*
X142214284Y-109142500D02*
X142071427Y-109071071D01*
X142071427Y-109071071D02*
X141857141Y-109071071D01*
X141857141Y-109071071D02*
X141714284Y-109142500D01*
X140357141Y-109999642D02*
X140499998Y-110071071D01*
X140499998Y-110071071D02*
X140785712Y-110071071D01*
X140785712Y-110071071D02*
X140928569Y-109999642D01*
X140928569Y-109999642D02*
X140999998Y-109928214D01*
X140999998Y-109928214D02*
X141071426Y-109785357D01*
X141071426Y-109785357D02*
X141071426Y-109356785D01*
X141071426Y-109356785D02*
X140999998Y-109213928D01*
X140999998Y-109213928D02*
X140928569Y-109142500D01*
X140928569Y-109142500D02*
X140785712Y-109071071D01*
X140785712Y-109071071D02*
X140499998Y-109071071D01*
X140499998Y-109071071D02*
X140357141Y-109142500D01*
X139499998Y-110071071D02*
X139642855Y-109999642D01*
X139642855Y-109999642D02*
X139714284Y-109928214D01*
X139714284Y-109928214D02*
X139785712Y-109785357D01*
X139785712Y-109785357D02*
X139785712Y-109356785D01*
X139785712Y-109356785D02*
X139714284Y-109213928D01*
X139714284Y-109213928D02*
X139642855Y-109142500D01*
X139642855Y-109142500D02*
X139499998Y-109071071D01*
X139499998Y-109071071D02*
X139285712Y-109071071D01*
X139285712Y-109071071D02*
X139142855Y-109142500D01*
X139142855Y-109142500D02*
X139071427Y-109213928D01*
X139071427Y-109213928D02*
X138999998Y-109356785D01*
X138999998Y-109356785D02*
X138999998Y-109785357D01*
X138999998Y-109785357D02*
X139071427Y-109928214D01*
X139071427Y-109928214D02*
X139142855Y-109999642D01*
X139142855Y-109999642D02*
X139285712Y-110071071D01*
X139285712Y-110071071D02*
X139499998Y-110071071D01*
X138357141Y-109071071D02*
X138357141Y-110571071D01*
X138357141Y-109142500D02*
X138214284Y-109071071D01*
X138214284Y-109071071D02*
X137928569Y-109071071D01*
X137928569Y-109071071D02*
X137785712Y-109142500D01*
X137785712Y-109142500D02*
X137714284Y-109213928D01*
X137714284Y-109213928D02*
X137642855Y-109356785D01*
X137642855Y-109356785D02*
X137642855Y-109785357D01*
X137642855Y-109785357D02*
X137714284Y-109928214D01*
X137714284Y-109928214D02*
X137785712Y-109999642D01*
X137785712Y-109999642D02*
X137928569Y-110071071D01*
X137928569Y-110071071D02*
X138214284Y-110071071D01*
X138214284Y-110071071D02*
X138357141Y-109999642D01*
X136428569Y-109999642D02*
X136571426Y-110071071D01*
X136571426Y-110071071D02*
X136857141Y-110071071D01*
X136857141Y-110071071D02*
X136999998Y-109999642D01*
X136999998Y-109999642D02*
X137071426Y-109856785D01*
X137071426Y-109856785D02*
X137071426Y-109285357D01*
X137071426Y-109285357D02*
X136999998Y-109142500D01*
X136999998Y-109142500D02*
X136857141Y-109071071D01*
X136857141Y-109071071D02*
X136571426Y-109071071D01*
X136571426Y-109071071D02*
X136428569Y-109142500D01*
X136428569Y-109142500D02*
X136357141Y-109285357D01*
X136357141Y-109285357D02*
X136357141Y-109428214D01*
X136357141Y-109428214D02*
X137071426Y-109571071D01*
X134814284Y-110071071D02*
X134814284Y-108571071D01*
X134814284Y-108571071D02*
X134242855Y-108571071D01*
X134242855Y-108571071D02*
X134099998Y-108642500D01*
X134099998Y-108642500D02*
X134028569Y-108713928D01*
X134028569Y-108713928D02*
X133957141Y-108856785D01*
X133957141Y-108856785D02*
X133957141Y-109071071D01*
X133957141Y-109071071D02*
X134028569Y-109213928D01*
X134028569Y-109213928D02*
X134099998Y-109285357D01*
X134099998Y-109285357D02*
X134242855Y-109356785D01*
X134242855Y-109356785D02*
X134814284Y-109356785D01*
X133314284Y-110071071D02*
X133314284Y-109071071D01*
X133314284Y-109356785D02*
X133242855Y-109213928D01*
X133242855Y-109213928D02*
X133171427Y-109142500D01*
X133171427Y-109142500D02*
X133028569Y-109071071D01*
X133028569Y-109071071D02*
X132885712Y-109071071D01*
X132171427Y-110071071D02*
X132314284Y-109999642D01*
X132314284Y-109999642D02*
X132385713Y-109928214D01*
X132385713Y-109928214D02*
X132457141Y-109785357D01*
X132457141Y-109785357D02*
X132457141Y-109356785D01*
X132457141Y-109356785D02*
X132385713Y-109213928D01*
X132385713Y-109213928D02*
X132314284Y-109142500D01*
X132314284Y-109142500D02*
X132171427Y-109071071D01*
X132171427Y-109071071D02*
X131957141Y-109071071D01*
X131957141Y-109071071D02*
X131814284Y-109142500D01*
X131814284Y-109142500D02*
X131742856Y-109213928D01*
X131742856Y-109213928D02*
X131671427Y-109356785D01*
X131671427Y-109356785D02*
X131671427Y-109785357D01*
X131671427Y-109785357D02*
X131742856Y-109928214D01*
X131742856Y-109928214D02*
X131814284Y-109999642D01*
X131814284Y-109999642D02*
X131957141Y-110071071D01*
X131957141Y-110071071D02*
X132171427Y-110071071D01*
X131028570Y-109071071D02*
X131028570Y-110356785D01*
X131028570Y-110356785D02*
X131099998Y-110499642D01*
X131099998Y-110499642D02*
X131242855Y-110571071D01*
X131242855Y-110571071D02*
X131314284Y-110571071D01*
X131028570Y-108571071D02*
X131099998Y-108642500D01*
X131099998Y-108642500D02*
X131028570Y-108713928D01*
X131028570Y-108713928D02*
X130957141Y-108642500D01*
X130957141Y-108642500D02*
X131028570Y-108571071D01*
X131028570Y-108571071D02*
X131028570Y-108713928D01*
X129742855Y-109999642D02*
X129885712Y-110071071D01*
X129885712Y-110071071D02*
X130171427Y-110071071D01*
X130171427Y-110071071D02*
X130314284Y-109999642D01*
X130314284Y-109999642D02*
X130385712Y-109856785D01*
X130385712Y-109856785D02*
X130385712Y-109285357D01*
X130385712Y-109285357D02*
X130314284Y-109142500D01*
X130314284Y-109142500D02*
X130171427Y-109071071D01*
X130171427Y-109071071D02*
X129885712Y-109071071D01*
X129885712Y-109071071D02*
X129742855Y-109142500D01*
X129742855Y-109142500D02*
X129671427Y-109285357D01*
X129671427Y-109285357D02*
X129671427Y-109428214D01*
X129671427Y-109428214D02*
X130385712Y-109571071D01*
X128385713Y-109999642D02*
X128528570Y-110071071D01*
X128528570Y-110071071D02*
X128814284Y-110071071D01*
X128814284Y-110071071D02*
X128957141Y-109999642D01*
X128957141Y-109999642D02*
X129028570Y-109928214D01*
X129028570Y-109928214D02*
X129099998Y-109785357D01*
X129099998Y-109785357D02*
X129099998Y-109356785D01*
X129099998Y-109356785D02*
X129028570Y-109213928D01*
X129028570Y-109213928D02*
X128957141Y-109142500D01*
X128957141Y-109142500D02*
X128814284Y-109071071D01*
X128814284Y-109071071D02*
X128528570Y-109071071D01*
X128528570Y-109071071D02*
X128385713Y-109142500D01*
X127957141Y-109071071D02*
X127385713Y-109071071D01*
X127742856Y-108571071D02*
X127742856Y-109856785D01*
X127742856Y-109856785D02*
X127671427Y-109999642D01*
X127671427Y-109999642D02*
X127528570Y-110071071D01*
X127528570Y-110071071D02*
X127385713Y-110071071D01*
X125199998Y-108642500D02*
X125342856Y-108571071D01*
X125342856Y-108571071D02*
X125557141Y-108571071D01*
X125557141Y-108571071D02*
X125771427Y-108642500D01*
X125771427Y-108642500D02*
X125914284Y-108785357D01*
X125914284Y-108785357D02*
X125985713Y-108928214D01*
X125985713Y-108928214D02*
X126057141Y-109213928D01*
X126057141Y-109213928D02*
X126057141Y-109428214D01*
X126057141Y-109428214D02*
X125985713Y-109713928D01*
X125985713Y-109713928D02*
X125914284Y-109856785D01*
X125914284Y-109856785D02*
X125771427Y-109999642D01*
X125771427Y-109999642D02*
X125557141Y-110071071D01*
X125557141Y-110071071D02*
X125414284Y-110071071D01*
X125414284Y-110071071D02*
X125199998Y-109999642D01*
X125199998Y-109999642D02*
X125128570Y-109928214D01*
X125128570Y-109928214D02*
X125128570Y-109428214D01*
X125128570Y-109428214D02*
X125414284Y-109428214D01*
X124271427Y-110071071D02*
X124414284Y-109999642D01*
X124414284Y-109999642D02*
X124485713Y-109928214D01*
X124485713Y-109928214D02*
X124557141Y-109785357D01*
X124557141Y-109785357D02*
X124557141Y-109356785D01*
X124557141Y-109356785D02*
X124485713Y-109213928D01*
X124485713Y-109213928D02*
X124414284Y-109142500D01*
X124414284Y-109142500D02*
X124271427Y-109071071D01*
X124271427Y-109071071D02*
X124057141Y-109071071D01*
X124057141Y-109071071D02*
X123914284Y-109142500D01*
X123914284Y-109142500D02*
X123842856Y-109213928D01*
X123842856Y-109213928D02*
X123771427Y-109356785D01*
X123771427Y-109356785D02*
X123771427Y-109785357D01*
X123771427Y-109785357D02*
X123842856Y-109928214D01*
X123842856Y-109928214D02*
X123914284Y-109999642D01*
X123914284Y-109999642D02*
X124057141Y-110071071D01*
X124057141Y-110071071D02*
X124271427Y-110071071D01*
X122914284Y-110071071D02*
X123057141Y-109999642D01*
X123057141Y-109999642D02*
X123128570Y-109856785D01*
X123128570Y-109856785D02*
X123128570Y-108571071D01*
X122414284Y-109999642D02*
X122271427Y-110071071D01*
X122271427Y-110071071D02*
X121985713Y-110071071D01*
X121985713Y-110071071D02*
X121842856Y-109999642D01*
X121842856Y-109999642D02*
X121771427Y-109856785D01*
X121771427Y-109856785D02*
X121771427Y-109785357D01*
X121771427Y-109785357D02*
X121842856Y-109642500D01*
X121842856Y-109642500D02*
X121985713Y-109571071D01*
X121985713Y-109571071D02*
X122199999Y-109571071D01*
X122199999Y-109571071D02*
X122342856Y-109499642D01*
X122342856Y-109499642D02*
X122414284Y-109356785D01*
X122414284Y-109356785D02*
X122414284Y-109285357D01*
X122414284Y-109285357D02*
X122342856Y-109142500D01*
X122342856Y-109142500D02*
X122199999Y-109071071D01*
X122199999Y-109071071D02*
X121985713Y-109071071D01*
X121985713Y-109071071D02*
X121842856Y-109142500D01*
X121128570Y-110071071D02*
X121128570Y-108571071D01*
X120485713Y-110071071D02*
X120485713Y-109285357D01*
X120485713Y-109285357D02*
X120557141Y-109142500D01*
X120557141Y-109142500D02*
X120699998Y-109071071D01*
X120699998Y-109071071D02*
X120914284Y-109071071D01*
X120914284Y-109071071D02*
X121057141Y-109142500D01*
X121057141Y-109142500D02*
X121128570Y-109213928D01*
X119128570Y-110071071D02*
X119128570Y-109285357D01*
X119128570Y-109285357D02*
X119199998Y-109142500D01*
X119199998Y-109142500D02*
X119342855Y-109071071D01*
X119342855Y-109071071D02*
X119628570Y-109071071D01*
X119628570Y-109071071D02*
X119771427Y-109142500D01*
X119128570Y-109999642D02*
X119271427Y-110071071D01*
X119271427Y-110071071D02*
X119628570Y-110071071D01*
X119628570Y-110071071D02*
X119771427Y-109999642D01*
X119771427Y-109999642D02*
X119842855Y-109856785D01*
X119842855Y-109856785D02*
X119842855Y-109713928D01*
X119842855Y-109713928D02*
X119771427Y-109571071D01*
X119771427Y-109571071D02*
X119628570Y-109499642D01*
X119628570Y-109499642D02*
X119271427Y-109499642D01*
X119271427Y-109499642D02*
X119128570Y-109428214D01*
X118414284Y-109071071D02*
X118414284Y-110071071D01*
X118414284Y-109213928D02*
X118342855Y-109142500D01*
X118342855Y-109142500D02*
X118199998Y-109071071D01*
X118199998Y-109071071D02*
X117985712Y-109071071D01*
X117985712Y-109071071D02*
X117842855Y-109142500D01*
X117842855Y-109142500D02*
X117771427Y-109285357D01*
X117771427Y-109285357D02*
X117771427Y-110071071D01*
X117057141Y-110071071D02*
X117057141Y-109071071D01*
X117057141Y-108571071D02*
X117128569Y-108642500D01*
X117128569Y-108642500D02*
X117057141Y-108713928D01*
X117057141Y-108713928D02*
X116985712Y-108642500D01*
X116985712Y-108642500D02*
X117057141Y-108571071D01*
X117057141Y-108571071D02*
X117057141Y-108713928D01*
X114728569Y-110071071D02*
X115442855Y-110071071D01*
X115442855Y-110071071D02*
X115442855Y-108571071D01*
X113585712Y-110071071D02*
X113585712Y-109285357D01*
X113585712Y-109285357D02*
X113657140Y-109142500D01*
X113657140Y-109142500D02*
X113799997Y-109071071D01*
X113799997Y-109071071D02*
X114085712Y-109071071D01*
X114085712Y-109071071D02*
X114228569Y-109142500D01*
X113585712Y-109999642D02*
X113728569Y-110071071D01*
X113728569Y-110071071D02*
X114085712Y-110071071D01*
X114085712Y-110071071D02*
X114228569Y-109999642D01*
X114228569Y-109999642D02*
X114299997Y-109856785D01*
X114299997Y-109856785D02*
X114299997Y-109713928D01*
X114299997Y-109713928D02*
X114228569Y-109571071D01*
X114228569Y-109571071D02*
X114085712Y-109499642D01*
X114085712Y-109499642D02*
X113728569Y-109499642D01*
X113728569Y-109499642D02*
X113585712Y-109428214D01*
X112871426Y-110071071D02*
X112871426Y-108571071D01*
X112871426Y-109142500D02*
X112728569Y-109071071D01*
X112728569Y-109071071D02*
X112442854Y-109071071D01*
X112442854Y-109071071D02*
X112299997Y-109142500D01*
X112299997Y-109142500D02*
X112228569Y-109213928D01*
X112228569Y-109213928D02*
X112157140Y-109356785D01*
X112157140Y-109356785D02*
X112157140Y-109785357D01*
X112157140Y-109785357D02*
X112228569Y-109928214D01*
X112228569Y-109928214D02*
X112299997Y-109999642D01*
X112299997Y-109999642D02*
X112442854Y-110071071D01*
X112442854Y-110071071D02*
X112728569Y-110071071D01*
X112728569Y-110071071D02*
X112871426Y-109999642D01*
X110685711Y-108713928D02*
X110614283Y-108642500D01*
X110614283Y-108642500D02*
X110471426Y-108571071D01*
X110471426Y-108571071D02*
X110114283Y-108571071D01*
X110114283Y-108571071D02*
X109971426Y-108642500D01*
X109971426Y-108642500D02*
X109899997Y-108713928D01*
X109899997Y-108713928D02*
X109828568Y-108856785D01*
X109828568Y-108856785D02*
X109828568Y-108999642D01*
X109828568Y-108999642D02*
X109899997Y-109213928D01*
X109899997Y-109213928D02*
X110757140Y-110071071D01*
X110757140Y-110071071D02*
X109828568Y-110071071D01*
X108899997Y-108571071D02*
X108757140Y-108571071D01*
X108757140Y-108571071D02*
X108614283Y-108642500D01*
X108614283Y-108642500D02*
X108542855Y-108713928D01*
X108542855Y-108713928D02*
X108471426Y-108856785D01*
X108471426Y-108856785D02*
X108399997Y-109142500D01*
X108399997Y-109142500D02*
X108399997Y-109499642D01*
X108399997Y-109499642D02*
X108471426Y-109785357D01*
X108471426Y-109785357D02*
X108542855Y-109928214D01*
X108542855Y-109928214D02*
X108614283Y-109999642D01*
X108614283Y-109999642D02*
X108757140Y-110071071D01*
X108757140Y-110071071D02*
X108899997Y-110071071D01*
X108899997Y-110071071D02*
X109042855Y-109999642D01*
X109042855Y-109999642D02*
X109114283Y-109928214D01*
X109114283Y-109928214D02*
X109185712Y-109785357D01*
X109185712Y-109785357D02*
X109257140Y-109499642D01*
X109257140Y-109499642D02*
X109257140Y-109142500D01*
X109257140Y-109142500D02*
X109185712Y-108856785D01*
X109185712Y-108856785D02*
X109114283Y-108713928D01*
X109114283Y-108713928D02*
X109042855Y-108642500D01*
X109042855Y-108642500D02*
X108899997Y-108571071D01*
X107828569Y-108713928D02*
X107757141Y-108642500D01*
X107757141Y-108642500D02*
X107614284Y-108571071D01*
X107614284Y-108571071D02*
X107257141Y-108571071D01*
X107257141Y-108571071D02*
X107114284Y-108642500D01*
X107114284Y-108642500D02*
X107042855Y-108713928D01*
X107042855Y-108713928D02*
X106971426Y-108856785D01*
X106971426Y-108856785D02*
X106971426Y-108999642D01*
X106971426Y-108999642D02*
X107042855Y-109213928D01*
X107042855Y-109213928D02*
X107899998Y-110071071D01*
X107899998Y-110071071D02*
X106971426Y-110071071D01*
X105685713Y-109071071D02*
X105685713Y-110071071D01*
X106042855Y-108499642D02*
X106399998Y-109571071D01*
X106399998Y-109571071D02*
X105471427Y-109571071D01*
X147664284Y-112429642D02*
X147449999Y-112501071D01*
X147449999Y-112501071D02*
X147092856Y-112501071D01*
X147092856Y-112501071D02*
X146949999Y-112429642D01*
X146949999Y-112429642D02*
X146878570Y-112358214D01*
X146878570Y-112358214D02*
X146807141Y-112215357D01*
X146807141Y-112215357D02*
X146807141Y-112072500D01*
X146807141Y-112072500D02*
X146878570Y-111929642D01*
X146878570Y-111929642D02*
X146949999Y-111858214D01*
X146949999Y-111858214D02*
X147092856Y-111786785D01*
X147092856Y-111786785D02*
X147378570Y-111715357D01*
X147378570Y-111715357D02*
X147521427Y-111643928D01*
X147521427Y-111643928D02*
X147592856Y-111572500D01*
X147592856Y-111572500D02*
X147664284Y-111429642D01*
X147664284Y-111429642D02*
X147664284Y-111286785D01*
X147664284Y-111286785D02*
X147592856Y-111143928D01*
X147592856Y-111143928D02*
X147521427Y-111072500D01*
X147521427Y-111072500D02*
X147378570Y-111001071D01*
X147378570Y-111001071D02*
X147021427Y-111001071D01*
X147021427Y-111001071D02*
X146807141Y-111072500D01*
X146164285Y-112501071D02*
X146164285Y-111501071D01*
X146164285Y-111001071D02*
X146235713Y-111072500D01*
X146235713Y-111072500D02*
X146164285Y-111143928D01*
X146164285Y-111143928D02*
X146092856Y-111072500D01*
X146092856Y-111072500D02*
X146164285Y-111001071D01*
X146164285Y-111001071D02*
X146164285Y-111143928D01*
X144807142Y-111501071D02*
X144807142Y-112715357D01*
X144807142Y-112715357D02*
X144878570Y-112858214D01*
X144878570Y-112858214D02*
X144949999Y-112929642D01*
X144949999Y-112929642D02*
X145092856Y-113001071D01*
X145092856Y-113001071D02*
X145307142Y-113001071D01*
X145307142Y-113001071D02*
X145449999Y-112929642D01*
X144807142Y-112429642D02*
X144949999Y-112501071D01*
X144949999Y-112501071D02*
X145235713Y-112501071D01*
X145235713Y-112501071D02*
X145378570Y-112429642D01*
X145378570Y-112429642D02*
X145449999Y-112358214D01*
X145449999Y-112358214D02*
X145521427Y-112215357D01*
X145521427Y-112215357D02*
X145521427Y-111786785D01*
X145521427Y-111786785D02*
X145449999Y-111643928D01*
X145449999Y-111643928D02*
X145378570Y-111572500D01*
X145378570Y-111572500D02*
X145235713Y-111501071D01*
X145235713Y-111501071D02*
X144949999Y-111501071D01*
X144949999Y-111501071D02*
X144807142Y-111572500D01*
X144092856Y-111501071D02*
X144092856Y-112501071D01*
X144092856Y-111643928D02*
X144021427Y-111572500D01*
X144021427Y-111572500D02*
X143878570Y-111501071D01*
X143878570Y-111501071D02*
X143664284Y-111501071D01*
X143664284Y-111501071D02*
X143521427Y-111572500D01*
X143521427Y-111572500D02*
X143449999Y-111715357D01*
X143449999Y-111715357D02*
X143449999Y-112501071D01*
X142092856Y-112501071D02*
X142092856Y-111715357D01*
X142092856Y-111715357D02*
X142164284Y-111572500D01*
X142164284Y-111572500D02*
X142307141Y-111501071D01*
X142307141Y-111501071D02*
X142592856Y-111501071D01*
X142592856Y-111501071D02*
X142735713Y-111572500D01*
X142092856Y-112429642D02*
X142235713Y-112501071D01*
X142235713Y-112501071D02*
X142592856Y-112501071D01*
X142592856Y-112501071D02*
X142735713Y-112429642D01*
X142735713Y-112429642D02*
X142807141Y-112286785D01*
X142807141Y-112286785D02*
X142807141Y-112143928D01*
X142807141Y-112143928D02*
X142735713Y-112001071D01*
X142735713Y-112001071D02*
X142592856Y-111929642D01*
X142592856Y-111929642D02*
X142235713Y-111929642D01*
X142235713Y-111929642D02*
X142092856Y-111858214D01*
X141164284Y-112501071D02*
X141307141Y-112429642D01*
X141307141Y-112429642D02*
X141378570Y-112286785D01*
X141378570Y-112286785D02*
X141378570Y-111001071D01*
X139692856Y-112501071D02*
X139692856Y-111001071D01*
X138978570Y-111501071D02*
X138978570Y-112501071D01*
X138978570Y-111643928D02*
X138907141Y-111572500D01*
X138907141Y-111572500D02*
X138764284Y-111501071D01*
X138764284Y-111501071D02*
X138549998Y-111501071D01*
X138549998Y-111501071D02*
X138407141Y-111572500D01*
X138407141Y-111572500D02*
X138335713Y-111715357D01*
X138335713Y-111715357D02*
X138335713Y-112501071D01*
X137835712Y-111501071D02*
X137264284Y-111501071D01*
X137621427Y-111001071D02*
X137621427Y-112286785D01*
X137621427Y-112286785D02*
X137549998Y-112429642D01*
X137549998Y-112429642D02*
X137407141Y-112501071D01*
X137407141Y-112501071D02*
X137264284Y-112501071D01*
X136192855Y-112429642D02*
X136335712Y-112501071D01*
X136335712Y-112501071D02*
X136621427Y-112501071D01*
X136621427Y-112501071D02*
X136764284Y-112429642D01*
X136764284Y-112429642D02*
X136835712Y-112286785D01*
X136835712Y-112286785D02*
X136835712Y-111715357D01*
X136835712Y-111715357D02*
X136764284Y-111572500D01*
X136764284Y-111572500D02*
X136621427Y-111501071D01*
X136621427Y-111501071D02*
X136335712Y-111501071D01*
X136335712Y-111501071D02*
X136192855Y-111572500D01*
X136192855Y-111572500D02*
X136121427Y-111715357D01*
X136121427Y-111715357D02*
X136121427Y-111858214D01*
X136121427Y-111858214D02*
X136835712Y-112001071D01*
X135478570Y-112501071D02*
X135478570Y-111501071D01*
X135478570Y-111786785D02*
X135407141Y-111643928D01*
X135407141Y-111643928D02*
X135335713Y-111572500D01*
X135335713Y-111572500D02*
X135192855Y-111501071D01*
X135192855Y-111501071D02*
X135049998Y-111501071D01*
X134764284Y-111501071D02*
X134192856Y-111501071D01*
X134549999Y-112501071D02*
X134549999Y-111215357D01*
X134549999Y-111215357D02*
X134478570Y-111072500D01*
X134478570Y-111072500D02*
X134335713Y-111001071D01*
X134335713Y-111001071D02*
X134192856Y-111001071D01*
X133049999Y-112501071D02*
X133049999Y-111715357D01*
X133049999Y-111715357D02*
X133121427Y-111572500D01*
X133121427Y-111572500D02*
X133264284Y-111501071D01*
X133264284Y-111501071D02*
X133549999Y-111501071D01*
X133549999Y-111501071D02*
X133692856Y-111572500D01*
X133049999Y-112429642D02*
X133192856Y-112501071D01*
X133192856Y-112501071D02*
X133549999Y-112501071D01*
X133549999Y-112501071D02*
X133692856Y-112429642D01*
X133692856Y-112429642D02*
X133764284Y-112286785D01*
X133764284Y-112286785D02*
X133764284Y-112143928D01*
X133764284Y-112143928D02*
X133692856Y-112001071D01*
X133692856Y-112001071D02*
X133549999Y-111929642D01*
X133549999Y-111929642D02*
X133192856Y-111929642D01*
X133192856Y-111929642D02*
X133049999Y-111858214D01*
X131692856Y-112429642D02*
X131835713Y-112501071D01*
X131835713Y-112501071D02*
X132121427Y-112501071D01*
X132121427Y-112501071D02*
X132264284Y-112429642D01*
X132264284Y-112429642D02*
X132335713Y-112358214D01*
X132335713Y-112358214D02*
X132407141Y-112215357D01*
X132407141Y-112215357D02*
X132407141Y-111786785D01*
X132407141Y-111786785D02*
X132335713Y-111643928D01*
X132335713Y-111643928D02*
X132264284Y-111572500D01*
X132264284Y-111572500D02*
X132121427Y-111501071D01*
X132121427Y-111501071D02*
X131835713Y-111501071D01*
X131835713Y-111501071D02*
X131692856Y-111572500D01*
X130478570Y-112429642D02*
X130621427Y-112501071D01*
X130621427Y-112501071D02*
X130907142Y-112501071D01*
X130907142Y-112501071D02*
X131049999Y-112429642D01*
X131049999Y-112429642D02*
X131121427Y-112286785D01*
X131121427Y-112286785D02*
X131121427Y-111715357D01*
X131121427Y-111715357D02*
X131049999Y-111572500D01*
X131049999Y-111572500D02*
X130907142Y-111501071D01*
X130907142Y-111501071D02*
X130621427Y-111501071D01*
X130621427Y-111501071D02*
X130478570Y-111572500D01*
X130478570Y-111572500D02*
X130407142Y-111715357D01*
X130407142Y-111715357D02*
X130407142Y-111858214D01*
X130407142Y-111858214D02*
X131121427Y-112001071D01*
X128364285Y-111715357D02*
X128149999Y-111786785D01*
X128149999Y-111786785D02*
X128078570Y-111858214D01*
X128078570Y-111858214D02*
X128007142Y-112001071D01*
X128007142Y-112001071D02*
X128007142Y-112215357D01*
X128007142Y-112215357D02*
X128078570Y-112358214D01*
X128078570Y-112358214D02*
X128149999Y-112429642D01*
X128149999Y-112429642D02*
X128292856Y-112501071D01*
X128292856Y-112501071D02*
X128864285Y-112501071D01*
X128864285Y-112501071D02*
X128864285Y-111001071D01*
X128864285Y-111001071D02*
X128364285Y-111001071D01*
X128364285Y-111001071D02*
X128221428Y-111072500D01*
X128221428Y-111072500D02*
X128149999Y-111143928D01*
X128149999Y-111143928D02*
X128078570Y-111286785D01*
X128078570Y-111286785D02*
X128078570Y-111429642D01*
X128078570Y-111429642D02*
X128149999Y-111572500D01*
X128149999Y-111572500D02*
X128221428Y-111643928D01*
X128221428Y-111643928D02*
X128364285Y-111715357D01*
X128364285Y-111715357D02*
X128864285Y-111715357D01*
X127149999Y-112501071D02*
X127292856Y-112429642D01*
X127292856Y-112429642D02*
X127364285Y-112358214D01*
X127364285Y-112358214D02*
X127435713Y-112215357D01*
X127435713Y-112215357D02*
X127435713Y-111786785D01*
X127435713Y-111786785D02*
X127364285Y-111643928D01*
X127364285Y-111643928D02*
X127292856Y-111572500D01*
X127292856Y-111572500D02*
X127149999Y-111501071D01*
X127149999Y-111501071D02*
X126935713Y-111501071D01*
X126935713Y-111501071D02*
X126792856Y-111572500D01*
X126792856Y-111572500D02*
X126721428Y-111643928D01*
X126721428Y-111643928D02*
X126649999Y-111786785D01*
X126649999Y-111786785D02*
X126649999Y-112215357D01*
X126649999Y-112215357D02*
X126721428Y-112358214D01*
X126721428Y-112358214D02*
X126792856Y-112429642D01*
X126792856Y-112429642D02*
X126935713Y-112501071D01*
X126935713Y-112501071D02*
X127149999Y-112501071D01*
X125364285Y-112501071D02*
X125364285Y-111715357D01*
X125364285Y-111715357D02*
X125435713Y-111572500D01*
X125435713Y-111572500D02*
X125578570Y-111501071D01*
X125578570Y-111501071D02*
X125864285Y-111501071D01*
X125864285Y-111501071D02*
X126007142Y-111572500D01*
X125364285Y-112429642D02*
X125507142Y-112501071D01*
X125507142Y-112501071D02*
X125864285Y-112501071D01*
X125864285Y-112501071D02*
X126007142Y-112429642D01*
X126007142Y-112429642D02*
X126078570Y-112286785D01*
X126078570Y-112286785D02*
X126078570Y-112143928D01*
X126078570Y-112143928D02*
X126007142Y-112001071D01*
X126007142Y-112001071D02*
X125864285Y-111929642D01*
X125864285Y-111929642D02*
X125507142Y-111929642D01*
X125507142Y-111929642D02*
X125364285Y-111858214D01*
X124649999Y-112501071D02*
X124649999Y-111501071D01*
X124649999Y-111786785D02*
X124578570Y-111643928D01*
X124578570Y-111643928D02*
X124507142Y-111572500D01*
X124507142Y-111572500D02*
X124364284Y-111501071D01*
X124364284Y-111501071D02*
X124221427Y-111501071D01*
X123078571Y-112501071D02*
X123078571Y-111001071D01*
X123078571Y-112429642D02*
X123221428Y-112501071D01*
X123221428Y-112501071D02*
X123507142Y-112501071D01*
X123507142Y-112501071D02*
X123649999Y-112429642D01*
X123649999Y-112429642D02*
X123721428Y-112358214D01*
X123721428Y-112358214D02*
X123792856Y-112215357D01*
X123792856Y-112215357D02*
X123792856Y-111786785D01*
X123792856Y-111786785D02*
X123721428Y-111643928D01*
X123721428Y-111643928D02*
X123649999Y-111572500D01*
X123649999Y-111572500D02*
X123507142Y-111501071D01*
X123507142Y-111501071D02*
X123221428Y-111501071D01*
X123221428Y-111501071D02*
X123078571Y-111572500D01*
X121535713Y-112429642D02*
X121321428Y-112501071D01*
X121321428Y-112501071D02*
X120964285Y-112501071D01*
X120964285Y-112501071D02*
X120821428Y-112429642D01*
X120821428Y-112429642D02*
X120749999Y-112358214D01*
X120749999Y-112358214D02*
X120678570Y-112215357D01*
X120678570Y-112215357D02*
X120678570Y-112072500D01*
X120678570Y-112072500D02*
X120749999Y-111929642D01*
X120749999Y-111929642D02*
X120821428Y-111858214D01*
X120821428Y-111858214D02*
X120964285Y-111786785D01*
X120964285Y-111786785D02*
X121249999Y-111715357D01*
X121249999Y-111715357D02*
X121392856Y-111643928D01*
X121392856Y-111643928D02*
X121464285Y-111572500D01*
X121464285Y-111572500D02*
X121535713Y-111429642D01*
X121535713Y-111429642D02*
X121535713Y-111286785D01*
X121535713Y-111286785D02*
X121464285Y-111143928D01*
X121464285Y-111143928D02*
X121392856Y-111072500D01*
X121392856Y-111072500D02*
X121249999Y-111001071D01*
X121249999Y-111001071D02*
X120892856Y-111001071D01*
X120892856Y-111001071D02*
X120678570Y-111072500D01*
X120035714Y-112501071D02*
X120035714Y-111501071D01*
X120035714Y-111001071D02*
X120107142Y-111072500D01*
X120107142Y-111072500D02*
X120035714Y-111143928D01*
X120035714Y-111143928D02*
X119964285Y-111072500D01*
X119964285Y-111072500D02*
X120035714Y-111001071D01*
X120035714Y-111001071D02*
X120035714Y-111143928D01*
X119321428Y-112501071D02*
X119321428Y-111001071D01*
X119321428Y-111001071D02*
X118749999Y-111001071D01*
X118749999Y-111001071D02*
X118607142Y-111072500D01*
X118607142Y-111072500D02*
X118535713Y-111143928D01*
X118535713Y-111143928D02*
X118464285Y-111286785D01*
X118464285Y-111286785D02*
X118464285Y-111501071D01*
X118464285Y-111501071D02*
X118535713Y-111643928D01*
X118535713Y-111643928D02*
X118607142Y-111715357D01*
X118607142Y-111715357D02*
X118749999Y-111786785D01*
X118749999Y-111786785D02*
X119321428Y-111786785D01*
X117821428Y-112501071D02*
X117821428Y-111001071D01*
X117821428Y-111001071D02*
X117321428Y-112072500D01*
X117321428Y-112072500D02*
X116821428Y-111001071D01*
X116821428Y-111001071D02*
X116821428Y-112501071D01*
X115349999Y-111501071D02*
X114992856Y-112501071D01*
X114992856Y-112501071D02*
X114635713Y-111501071D01*
X113278570Y-112501071D02*
X114135713Y-112501071D01*
X113707142Y-112501071D02*
X113707142Y-111001071D01*
X113707142Y-111001071D02*
X113849999Y-111215357D01*
X113849999Y-111215357D02*
X113992856Y-111358214D01*
X113992856Y-111358214D02*
X114135713Y-111429642D01*
X112635714Y-112358214D02*
X112564285Y-112429642D01*
X112564285Y-112429642D02*
X112635714Y-112501071D01*
X112635714Y-112501071D02*
X112707142Y-112429642D01*
X112707142Y-112429642D02*
X112635714Y-112358214D01*
X112635714Y-112358214D02*
X112635714Y-112501071D01*
X111135713Y-112501071D02*
X111992856Y-112501071D01*
X111564285Y-112501071D02*
X111564285Y-111001071D01*
X111564285Y-111001071D02*
X111707142Y-111215357D01*
X111707142Y-111215357D02*
X111849999Y-111358214D01*
X111849999Y-111358214D02*
X111992856Y-111429642D01*
X136935713Y-114216785D02*
X137007142Y-114145357D01*
X137007142Y-114145357D02*
X137149999Y-114073928D01*
X137149999Y-114073928D02*
X137292856Y-114073928D01*
X137292856Y-114073928D02*
X137435713Y-114145357D01*
X137435713Y-114145357D02*
X137507142Y-114216785D01*
X137507142Y-114216785D02*
X137578570Y-114359642D01*
X137578570Y-114359642D02*
X137578570Y-114502500D01*
X137578570Y-114502500D02*
X137507142Y-114645357D01*
X137507142Y-114645357D02*
X137435713Y-114716785D01*
X137435713Y-114716785D02*
X137292856Y-114788214D01*
X137292856Y-114788214D02*
X137149999Y-114788214D01*
X137149999Y-114788214D02*
X137007142Y-114716785D01*
X137007142Y-114716785D02*
X136935713Y-114645357D01*
X136935713Y-114073928D02*
X136935713Y-114645357D01*
X136935713Y-114645357D02*
X136864285Y-114716785D01*
X136864285Y-114716785D02*
X136792856Y-114716785D01*
X136792856Y-114716785D02*
X136649999Y-114645357D01*
X136649999Y-114645357D02*
X136578570Y-114502500D01*
X136578570Y-114502500D02*
X136578570Y-114145357D01*
X136578570Y-114145357D02*
X136721428Y-113931071D01*
X136721428Y-113931071D02*
X136935713Y-113788214D01*
X136935713Y-113788214D02*
X137221428Y-113716785D01*
X137221428Y-113716785D02*
X137507142Y-113788214D01*
X137507142Y-113788214D02*
X137721428Y-113931071D01*
X137721428Y-113931071D02*
X137864285Y-114145357D01*
X137864285Y-114145357D02*
X137935713Y-114431071D01*
X137935713Y-114431071D02*
X137864285Y-114716785D01*
X137864285Y-114716785D02*
X137721428Y-114931071D01*
X137721428Y-114931071D02*
X137507142Y-115073928D01*
X137507142Y-115073928D02*
X137221428Y-115145357D01*
X137221428Y-115145357D02*
X136935713Y-115073928D01*
X136935713Y-115073928D02*
X136721428Y-114931071D01*
X135935714Y-114931071D02*
X135935714Y-113431071D01*
X135935714Y-114002500D02*
X135792857Y-113931071D01*
X135792857Y-113931071D02*
X135507142Y-113931071D01*
X135507142Y-113931071D02*
X135364285Y-114002500D01*
X135364285Y-114002500D02*
X135292857Y-114073928D01*
X135292857Y-114073928D02*
X135221428Y-114216785D01*
X135221428Y-114216785D02*
X135221428Y-114645357D01*
X135221428Y-114645357D02*
X135292857Y-114788214D01*
X135292857Y-114788214D02*
X135364285Y-114859642D01*
X135364285Y-114859642D02*
X135507142Y-114931071D01*
X135507142Y-114931071D02*
X135792857Y-114931071D01*
X135792857Y-114931071D02*
X135935714Y-114859642D01*
X134364285Y-114931071D02*
X134507142Y-114859642D01*
X134507142Y-114859642D02*
X134578571Y-114716785D01*
X134578571Y-114716785D02*
X134578571Y-113431071D01*
X133150000Y-114931071D02*
X133150000Y-114145357D01*
X133150000Y-114145357D02*
X133221428Y-114002500D01*
X133221428Y-114002500D02*
X133364285Y-113931071D01*
X133364285Y-113931071D02*
X133650000Y-113931071D01*
X133650000Y-113931071D02*
X133792857Y-114002500D01*
X133150000Y-114859642D02*
X133292857Y-114931071D01*
X133292857Y-114931071D02*
X133650000Y-114931071D01*
X133650000Y-114931071D02*
X133792857Y-114859642D01*
X133792857Y-114859642D02*
X133864285Y-114716785D01*
X133864285Y-114716785D02*
X133864285Y-114573928D01*
X133864285Y-114573928D02*
X133792857Y-114431071D01*
X133792857Y-114431071D02*
X133650000Y-114359642D01*
X133650000Y-114359642D02*
X133292857Y-114359642D01*
X133292857Y-114359642D02*
X133150000Y-114288214D01*
X132435714Y-114931071D02*
X132435714Y-113431071D01*
X132292857Y-114359642D02*
X131864285Y-114931071D01*
X131864285Y-113931071D02*
X132435714Y-114502500D01*
X130649999Y-114859642D02*
X130792856Y-114931071D01*
X130792856Y-114931071D02*
X131078571Y-114931071D01*
X131078571Y-114931071D02*
X131221428Y-114859642D01*
X131221428Y-114859642D02*
X131292856Y-114716785D01*
X131292856Y-114716785D02*
X131292856Y-114145357D01*
X131292856Y-114145357D02*
X131221428Y-114002500D01*
X131221428Y-114002500D02*
X131078571Y-113931071D01*
X131078571Y-113931071D02*
X130792856Y-113931071D01*
X130792856Y-113931071D02*
X130649999Y-114002500D01*
X130649999Y-114002500D02*
X130578571Y-114145357D01*
X130578571Y-114145357D02*
X130578571Y-114288214D01*
X130578571Y-114288214D02*
X131292856Y-114431071D01*
X129935714Y-114931071D02*
X129935714Y-113931071D01*
X129935714Y-114073928D02*
X129864285Y-114002500D01*
X129864285Y-114002500D02*
X129721428Y-113931071D01*
X129721428Y-113931071D02*
X129507142Y-113931071D01*
X129507142Y-113931071D02*
X129364285Y-114002500D01*
X129364285Y-114002500D02*
X129292857Y-114145357D01*
X129292857Y-114145357D02*
X129292857Y-114931071D01*
X129292857Y-114145357D02*
X129221428Y-114002500D01*
X129221428Y-114002500D02*
X129078571Y-113931071D01*
X129078571Y-113931071D02*
X128864285Y-113931071D01*
X128864285Y-113931071D02*
X128721428Y-114002500D01*
X128721428Y-114002500D02*
X128649999Y-114145357D01*
X128649999Y-114145357D02*
X128649999Y-114931071D01*
X127292857Y-114931071D02*
X127292857Y-114145357D01*
X127292857Y-114145357D02*
X127364285Y-114002500D01*
X127364285Y-114002500D02*
X127507142Y-113931071D01*
X127507142Y-113931071D02*
X127792857Y-113931071D01*
X127792857Y-113931071D02*
X127935714Y-114002500D01*
X127292857Y-114859642D02*
X127435714Y-114931071D01*
X127435714Y-114931071D02*
X127792857Y-114931071D01*
X127792857Y-114931071D02*
X127935714Y-114859642D01*
X127935714Y-114859642D02*
X128007142Y-114716785D01*
X128007142Y-114716785D02*
X128007142Y-114573928D01*
X128007142Y-114573928D02*
X127935714Y-114431071D01*
X127935714Y-114431071D02*
X127792857Y-114359642D01*
X127792857Y-114359642D02*
X127435714Y-114359642D01*
X127435714Y-114359642D02*
X127292857Y-114288214D01*
X125935714Y-114931071D02*
X125935714Y-113431071D01*
X125935714Y-114859642D02*
X126078571Y-114931071D01*
X126078571Y-114931071D02*
X126364285Y-114931071D01*
X126364285Y-114931071D02*
X126507142Y-114859642D01*
X126507142Y-114859642D02*
X126578571Y-114788214D01*
X126578571Y-114788214D02*
X126649999Y-114645357D01*
X126649999Y-114645357D02*
X126649999Y-114216785D01*
X126649999Y-114216785D02*
X126578571Y-114073928D01*
X126578571Y-114073928D02*
X126507142Y-114002500D01*
X126507142Y-114002500D02*
X126364285Y-113931071D01*
X126364285Y-113931071D02*
X126078571Y-113931071D01*
X126078571Y-113931071D02*
X125935714Y-114002500D01*
X125221428Y-114931071D02*
X125221428Y-113931071D01*
X125221428Y-114216785D02*
X125149999Y-114073928D01*
X125149999Y-114073928D02*
X125078571Y-114002500D01*
X125078571Y-114002500D02*
X124935713Y-113931071D01*
X124935713Y-113931071D02*
X124792856Y-113931071D01*
X123650000Y-113931071D02*
X123650000Y-114931071D01*
X124292857Y-113931071D02*
X124292857Y-114716785D01*
X124292857Y-114716785D02*
X124221428Y-114859642D01*
X124221428Y-114859642D02*
X124078571Y-114931071D01*
X124078571Y-114931071D02*
X123864285Y-114931071D01*
X123864285Y-114931071D02*
X123721428Y-114859642D01*
X123721428Y-114859642D02*
X123650000Y-114788214D01*
X122292857Y-113931071D02*
X122292857Y-115145357D01*
X122292857Y-115145357D02*
X122364285Y-115288214D01*
X122364285Y-115288214D02*
X122435714Y-115359642D01*
X122435714Y-115359642D02*
X122578571Y-115431071D01*
X122578571Y-115431071D02*
X122792857Y-115431071D01*
X122792857Y-115431071D02*
X122935714Y-115359642D01*
X122292857Y-114859642D02*
X122435714Y-114931071D01*
X122435714Y-114931071D02*
X122721428Y-114931071D01*
X122721428Y-114931071D02*
X122864285Y-114859642D01*
X122864285Y-114859642D02*
X122935714Y-114788214D01*
X122935714Y-114788214D02*
X123007142Y-114645357D01*
X123007142Y-114645357D02*
X123007142Y-114216785D01*
X123007142Y-114216785D02*
X122935714Y-114073928D01*
X122935714Y-114073928D02*
X122864285Y-114002500D01*
X122864285Y-114002500D02*
X122721428Y-113931071D01*
X122721428Y-113931071D02*
X122435714Y-113931071D01*
X122435714Y-113931071D02*
X122292857Y-114002500D01*
X120935714Y-114931071D02*
X120935714Y-114145357D01*
X120935714Y-114145357D02*
X121007142Y-114002500D01*
X121007142Y-114002500D02*
X121149999Y-113931071D01*
X121149999Y-113931071D02*
X121435714Y-113931071D01*
X121435714Y-113931071D02*
X121578571Y-114002500D01*
X120935714Y-114859642D02*
X121078571Y-114931071D01*
X121078571Y-114931071D02*
X121435714Y-114931071D01*
X121435714Y-114931071D02*
X121578571Y-114859642D01*
X121578571Y-114859642D02*
X121649999Y-114716785D01*
X121649999Y-114716785D02*
X121649999Y-114573928D01*
X121649999Y-114573928D02*
X121578571Y-114431071D01*
X121578571Y-114431071D02*
X121435714Y-114359642D01*
X121435714Y-114359642D02*
X121078571Y-114359642D01*
X121078571Y-114359642D02*
X120935714Y-114288214D01*
M02*
